<?xml version="1.0" encoding="UTF-8"?>
<svg width="16px" height="13px" viewBox="0 0 16 13" version="1.1" xmlns="http://www.w3.org/2000/svg" xmlns:xlink="http://www.w3.org/1999/xlink">
    <!-- Generator: Sketch 53.2 (72643) - https://sketchapp.com -->
    <title>1</title>
    <desc>Created with Sketch.</desc>
    <defs>
        <path d="M6.73461605,0.624678154 L6.21598197,0.112893642 C6.06344254,-0.0376312141 5.84988733,-0.0376312141 5.69734789,0.112893642 L2.46351187,3.27391563 L1.15167273,2.00950683 C0.999133299,1.85898198 0.78557809,1.85898198 0.633038655,2.00950683 L0.114404576,2.52129134 C-0.0381348587,2.6718162 -0.0381348587,2.882551 0.114404576,3.03307586 L1.91436991,4.80926916 C2.06690934,4.95979402 2.24995666,5.02000396 2.43300399,5.02000396 C2.61605131,5.02000396 2.79909863,4.95979402 2.95163807,4.80926916 L6.73461605,1.13646267 C6.8566476,1.01604278 6.8566476,0.77520301 6.73461605,0.624678154 L6.73461605,0.624678154 Z M14.1785405,4.05664488 L7.8023921,4.05664488 C7.52782111,4.05664488 7.3142659,3.84591008 7.3142659,3.57496534 L7.3142659,2.61160626 C7.3142659,2.34066152 7.52782111,2.12992672 7.8023921,2.12992672 L14.1785405,2.12992672 C14.4531115,2.12992672 14.6666667,2.34066152 14.6666667,2.61160626 L14.6666667,3.57496534 C14.6666667,3.84591008 14.4531115,4.05664488 14.1785405,4.05664488 Z M14.1785405,8.36165577 L6.33801352,8.36165577 C6.06344254,8.36165577 5.84988733,8.15092097 5.84988733,7.87997623 L5.84988733,6.91661715 C5.84988733,6.64567241 6.06344254,6.43493761 6.33801352,6.43493761 L14.1785405,6.43493761 C14.4531115,6.43493761 14.6666667,6.64567241 14.6666667,6.91661715 L14.6666667,7.87997623 C14.6666667,8.15092097 14.4531115,8.36165577 14.1785405,8.36165577 Z M3.37874848,8.36165577 L2.4024961,8.36165577 C2.12792512,8.36165577 1.91436991,8.15092097 1.91436991,7.87997623 L1.91436991,6.91661715 C1.91436991,6.64567241 2.12792512,6.43493761 2.4024961,6.43493761 L3.37874848,6.43493761 C3.65331947,6.43493761 3.86687467,6.64567241 3.86687467,6.91661715 L3.86687467,7.87997623 C3.89738256,8.15092097 3.65331947,8.36165577 3.37874848,8.36165577 Z M3.37874848,12.6666667 L2.4024961,12.6666667 C2.12792512,12.6666667 1.91436991,12.4559319 1.91436991,12.1849871 L1.91436991,11.221628 C1.91436991,10.9506833 2.12792512,10.7399485 2.4024961,10.7399485 L3.37874848,10.7399485 C3.65331947,10.7399485 3.86687467,10.9506833 3.86687467,11.221628 L3.86687467,12.1849871 C3.89738256,12.4559319 3.65331947,12.6666667 3.37874848,12.6666667 Z M14.1785405,12.6666667 L6.33801352,12.6666667 C6.06344254,12.6666667 5.84988733,12.4559319 5.84988733,12.1849871 L5.84988733,11.221628 C5.84988733,10.9506833 6.06344254,10.7399485 6.33801352,10.7399485 L14.1785405,10.7399485 C14.4531115,10.7399485 14.6666667,10.9506833 14.6666667,11.221628 L14.6666667,12.1849871 C14.6666667,12.4559319 14.4531115,12.6666667 14.1785405,12.6666667 Z" id="path-1"></path>
    </defs>
    <g id="页面-1" stroke="none" stroke-width="1" fill="none" fill-rule="evenodd">
        <g id="切图" transform="translate(-47.000000, -36.000000)">
            <g id="1" transform="translate(47.000000, 35.000000)">
                <rect id="矩形" x="0" y="0" width="16" height="16"></rect>
                <g id="Group-14" transform="translate(0.666667, 1.333333)">
                    <g id="icons/utility/task-copy">
                        <mask id="mask-2" fill="white">
                            <use xlink:href="#path-1"></use>
                        </mask>
                        <use id="Mask" fill="#595959" xlink:href="#path-1"></use>
                    </g>
                </g>
            </g>
        </g>
    </g>
</svg>