<?xml version="1.0" standalone="no"?><!DOCTYPE svg PUBLIC "-//W3C//DTD SVG 1.1//EN" "http://www.w3.org/Graphics/SVG/1.1/DTD/svg11.dtd"><svg t="1587708509460" class="icon" viewBox="0 0 1024 1024" version="1.1" xmlns="http://www.w3.org/2000/svg" p-id="11248" width="15" height="15" xmlns:xlink="http://www.w3.org/1999/xlink"><defs><style type="text/css"></style></defs><path d="M510 60C261.472 60 60 261.472 60 510c0 248.53 201.472 450 450 450 248.529 0 450-201.47 450-450 0-248.528-201.471-450-450-450z m188.027 604.863c7.987 7.987 7.987 20.938 0 28.925l-14.467 14.467c-7.987 7.987-20.938 7.987-28.925 0L509.998 563.617 365.366 708.255c-7.987 7.987-20.943 7.987-28.93 0l-14.463-14.467c-7.987-7.987-7.987-20.938 0-28.925l144.633-144.638-144.633-144.633c-7.987-7.987-7.987-20.941 0-28.929l14.463-14.463c7.987-7.987 20.943-7.987 28.93 0l144.632 144.633L654.636 332.2c7.987-7.987 20.938-7.987 28.925 0l14.467 14.463c7.987 7.987 7.987 20.941 0 28.929L553.39 520.225l144.637 144.638z" fill="#F73D47" p-id="11249"></path></svg>