<?xml version="1.0" encoding="UTF-8"?>
<svg width="32px" height="32px" viewBox="0 0 32 32" version="1.1" xmlns="http://www.w3.org/2000/svg" xmlns:xlink="http://www.w3.org/1999/xlink">
    <!-- Generator: Sketch 52.4 (67378) - http://www.bohemiancoding.com/sketch -->
    <title>BOM组件</title>
    <desc>Created with Sketch.</desc>
    <g id="Page-1" stroke="none" stroke-width="1" fill="none" fill-rule="evenodd">
        <g id="补充的icon" transform="translate(-337.000000, -355.000000)" fill="#6D8290">
            <g id="BOM组件" transform="translate(337.000000, 355.000000)">
                <g id="分组-14" transform="translate(7.000000, 8.000000)">
                    <path d="M16.2240803,3.88294314 C17.0187291,3.88294314 17.6688963,4.53311037 17.6688963,5.3277592 L17.6688963,14.7190635 C17.6688963,15.5137124 17.0187291,16.1638796 16.2240803,16.1638796 L1.77591973,16.1638796 C0.981270903,16.1638796 0.331103679,15.5137124 0.331103679,14.7190635 L0.331103679,1.71571906 C0.331103679,0.921070234 0.981270903,0.27090301 1.77591973,0.27090301 L4.23210702,0.27090301 C4.77391304,0.27090301 5.24347826,0.559866221 5.49632107,0.993311037 L6.76053512,3.16053512 C7.04949833,3.59397993 7.51906355,3.88294314 8.02474916,3.88294314 L16.2240803,3.88294314 Z M16.2240803,0.993311037 C17.0187291,0.993311037 17.6688963,1.64347826 17.6688963,2.43812709 C17.6688963,2.6187291 17.4882943,2.7270903 17.3438127,2.6548495 C17.0187291,2.51036789 16.6214047,2.43812709 16.2240803,2.43812709 L8.27759197,2.43812709 C8.13311037,2.43812709 8.02474916,2.36588629 7.95250836,2.22140468 L7.37458194,1.24615385 C7.30234114,1.13779264 7.37458194,0.993311037 7.51906355,0.993311037 L16.2240803,0.993311037 Z M2.016,8.7906087 L2.016,13.2608696 L4.00069565,13.2608696 C4.45773913,13.2608696 4.82086957,13.1669565 5.08382609,12.9916522 C5.3906087,12.7787826 5.54713043,12.4532174 5.54713043,12.0149565 C5.54713043,11.7144348 5.45947826,11.4765217 5.29669565,11.2886957 C5.13391304,11.1008696 4.90852174,10.9756522 4.61426087,10.9255652 C4.83965217,10.8504348 5.02121739,10.7314783 5.15895652,10.5686957 C5.29043478,10.3871304 5.35930435,10.168 5.35930435,9.91756522 C5.35930435,9.56695652 5.24034783,9.29147826 5.00243478,9.09113043 C4.75826087,8.89078261 4.42643478,8.7906087 4.01321739,8.7906087 L2.016,8.7906087 Z M2.5293913,9.2226087 L3.89426087,9.2226087 C4.20730435,9.2226087 4.44521739,9.27895652 4.608,9.40417391 C4.77078261,9.5293913 4.85217391,9.71721739 4.85217391,9.96765217 C4.85217391,10.2243478 4.76452174,10.4184348 4.60173913,10.549913 C4.43895652,10.6751304 4.20104348,10.744 3.888,10.744 L2.5293913,10.744 L2.5293913,9.2226087 Z M2.5293913,11.1697391 L3.95686957,11.1697391 C4.30121739,11.1697391 4.56417391,11.2323478 4.74573913,11.370087 C4.93356522,11.5078261 5.03373913,11.7206957 5.03373913,12.0086957 C5.03373913,12.2966957 4.92104348,12.5158261 4.70191304,12.6535652 C4.51408696,12.7662609 4.26991304,12.8288696 3.95686957,12.8288696 L2.5293913,12.8288696 L2.5293913,11.1697391 Z M8.208,8.70295652 C7.53182609,8.70295652 7.00591304,8.92834783 6.61773913,9.37913043 C6.24834783,9.80486957 6.06678261,10.3558261 6.06678261,11.032 C6.06678261,11.701913 6.24834783,12.2528696 6.61773913,12.6786087 C7.00591304,13.1231304 7.53182609,13.3485217 8.20173913,13.3485217 C8.87165217,13.3485217 9.40382609,13.1231304 9.792,12.6786087 C10.1551304,12.2528696 10.3429565,11.7081739 10.3429565,11.032 C10.3429565,10.3495652 10.1551304,9.7986087 9.792,9.37286957 C9.40382609,8.92208696 8.87165217,8.70295652 8.208,8.70295652 Z M8.208,9.16 C8.7213913,9.16 9.12208696,9.32904348 9.41008696,9.6733913 C9.68556522,10.0114783 9.82956522,10.4622609 9.82956522,11.032 C9.82956522,11.5954783 9.68556522,12.04 9.41008696,12.378087 C9.12208696,12.7161739 8.71513043,12.8914783 8.20173913,12.8914783 C7.68834783,12.8914783 7.2813913,12.7161739 6.9933913,12.3655652 C6.71791304,12.0274783 6.58017391,11.5829565 6.58017391,11.032 C6.58017391,10.4747826 6.71791304,10.0302609 6.9933913,9.69217391 C7.28765217,9.33530435 7.6946087,9.16 8.208,9.16 Z M11.0566957,8.7906087 L11.0566957,13.2608696 L11.570087,13.2608696 L11.570087,9.70469565 L11.5888696,9.70469565 L13.1353043,13.2608696 L13.5986087,13.2608696 L15.1450435,9.70469565 L15.1638261,9.70469565 L15.1638261,13.2608696 L15.6772174,13.2608696 L15.6772174,8.7906087 L15.0386087,8.7906087 L13.3794783,12.6034783 L13.3606957,12.6034783 L11.6953043,8.7906087 L11.0566957,8.7906087 Z" id="合并形状"></path>
                </g>
            </g>
        </g>
    </g>
</svg>
