<svg t="1663207304643" class="icon" viewBox="0 0 1024 1024" version="1.1" xmlns="http://www.w3.org/2000/svg" p-id="1997" width="32" height="32"><path d="M511.55621197 208.00284357C343.2169361 208.00284357 206.79683891 344.45954234 206.79683891 512.76160738c0 168.30145459 136.4200978 304.75937367 304.75937367 304.75937368s304.75876322-136.4554785 304.7587632-304.75937368C816.31497578 344.45954234 679.89548784 208.00284357 511.55621197 208.00284357zM542.21082391 568.34093338L542.21082391 494.08652377c-36.86764197 0-130.76401291 0.85585506-130.7640129 101.89614376 0 52.90378863 35.86111288 97.04162257 83.55656983 107.25331934-76.59992767-10.86258582-135.8253302-78.84967348-135.82533019-161.99631136 0-154.44551204 157.6261444-155.74545945 183.03399356-155.74545946L542.21204361 322.28722732l121.72477026 123.49199138L542.21082391 568.34093338z" fill="#d81e06" p-id="1998"></path></svg>