<?xml version="1.0" encoding="UTF-8"?>
<svg width="32px" height="32px" viewBox="0 0 32 32" version="1.1" xmlns="http://www.w3.org/2000/svg" xmlns:xlink="http://www.w3.org/1999/xlink">
    <!-- Generator: Sketch 52.4 (67378) - http://www.bohemiancoding.com/sketch -->
    <title>清除</title>
    <desc>Created with Sketch.</desc>
    <g id="Page-1" stroke="none" stroke-width="1" fill="none" fill-rule="evenodd">
        <g id="补充的icon" transform="translate(-553.000000, -795.000000)" fill="#6D8290" fill-rule="nonzero">
            <g id="批量释放--copy-7" transform="translate(553.000000, 795.000000)">
                <g id="iconfont图标_删除" transform="translate(5.000000, 5.000000)">
                    <path d="M20.3329271,2.97426823 L16.0147396,2.97426823 L16.0147396,1.88005469 C16.0178816,1.63881627 15.9234365,1.40653888 15.7528408,1.23594309 C15.582245,1.0653473 15.3499676,0.970902218 15.1087292,0.974044271 L6.87210677,0.974044271 C6.63087113,0.970822735 6.3985762,1.06524905 6.22800521,1.23586719 C6.05739507,1.40648529 5.9629462,1.63879045 5.96609635,1.88005469 L5.96609635,2.97426823 L1.67134115,2.97426823 C1.48416655,2.97102686 1.30386177,3.04473519 1.1725599,3.17816927 C1.04129706,3.31164939 0.970658077,3.49320815 0.977195313,3.68030208 L0.977195313,4.18630208 C0.953954111,4.38643313 1.01592531,4.58711466 1.14796169,4.73929542 C1.27999807,4.89147618 1.46993271,4.98113297 1.67134115,4.98635156 L20.2271094,4.98635156 C20.4292376,5.0097086 20.631781,4.94617758 20.7843584,4.81156143 C20.9369357,4.67694528 21.0252073,4.48389561 21.0272161,4.28043229 L21.0272161,3.68030208 C21.0337128,3.4931931 20.963033,3.31163585 20.831737,3.17816927 C20.7004397,3.04471077 20.5201154,2.97099868 20.3329271,2.97426823 Z M2.97739063,5.98654948 L2.97739063,20.0239245 C2.95988821,20.2941649 3.0596261,20.5588513 3.25111527,20.7503405 C3.44260443,20.9418296 3.70729086,21.0415675 3.97753125,21.0240651 L18.0620573,21.0240651 C18.3322949,21.0415474 18.5969722,20.9418041 18.7884612,20.7503205 C18.9799502,20.558837 19.0797012,20.2941626 19.0622266,20.0239245 L19.0622266,5.98654948 L2.97739063,5.98654948 Z M6.89565365,17.9177682 L5.38954167,18.0589635 C5.33104998,18.0589319 5.28364098,18.0115229 5.28360938,17.9530312 L5.28360938,9.09281771 C5.2834875,9.06570243 5.29501537,9.03984036 5.31526302,9.02180469 C5.33551265,9.00372371 5.36261745,8.9953299 5.38954167,8.99880208 L6.89565365,8.99880208 C6.92054688,8.99880208 6.94458073,9.0086849 6.96222656,9.02630208 C6.97984375,9.04403385 6.98984115,9.06792448 6.98984115,9.09284635 L6.98984115,17.9177969 L6.89565365,17.9177969 L6.89565365,17.9177682 Z M11.8023411,17.9177682 C11.8023411,18.0235859 11.7081823,18.0235859 11.8023411,17.9177682 L10.2020703,18.0589635 C10.1435786,18.0589319 10.0961696,18.0115229 10.096138,17.9530312 L10.096138,9.09281771 C10.0959852,9.06569588 10.1075279,9.03982375 10.1278133,9.02182036 C10.1480986,9.00381698 10.1751586,8.99542889 10.2020703,8.99880208 L11.7082109,8.99880208 C11.7331578,8.99880024 11.7570877,9.00868948 11.7747552,9.02630208 C11.7923724,9.04403385 11.8023698,9.06792448 11.8023698,9.09284635 L11.8023698,17.9177682 L11.8023411,17.9177682 Z M16.6147266,17.9177682 L15.1087292,18.0589635 C15.0815578,18.0591565 15.0556237,18.0476198 15.0375729,18.0273099 C15.0194784,18.0070679 15.0110826,17.9799568 15.0145703,17.9530312 L15.0145703,9.09281771 C15.0145703,9.06792448 15.0244531,9.04400521 15.0420703,9.02627344 C15.0597924,9.00865503 15.0837682,8.99876813 15.1087578,8.99877344 L16.6147552,8.99877344 C16.6147552,8.99877344 16.7206875,8.99877344 16.7206875,9.09278906 L16.7206875,17.9177396 L16.6147266,17.9177396 L16.6147266,17.9177682 Z" id="形状"></path>
                </g>
            </g>
        </g>
    </g>
</svg>