<?xml version="1.0" standalone="no"?><!DOCTYPE svg PUBLIC "-//W3C//DTD SVG 1.1//EN" "http://www.w3.org/Graphics/SVG/1.1/DTD/svg11.dtd"><svg class="icon" width="32px" height="32.00px" viewBox="0 0 1024 1024" version="1.1" xmlns="http://www.w3.org/2000/svg"><path fill="#f73d47" d="M510.452093 288.029767c74.299535 0 140.264186 35.95907 181.343256 91.445582l28.695814 7.739535c-42.984186-71.084651-120.855814-118.712558-210.03907-118.712558-43.103256 0-83.586977 11.192558-118.712558 30.60093l28.695814 7.739535c27.505116-12.264186 57.986977-18.813023 90.016744-18.813024zM658.455814 275.170233l15.717209 12.859534 4.881861-19.170232 17.622325-10.24-17.622325-10.24-4.881861-19.170233L658.455814 241.711628l-20.59907-1.547907 7.858605 18.217674-7.858605 18.217675 20.59907-1.428837z m-273.146047-42.865117l-16.312558-11.311628-3.572093 19.884652-16.669767 12.264186 17.860465 8.453953 5.953488 18.932093 14.645582-14.645581 20.24186-0.595349-8.930232-17.622326 6.548837-19.289302-19.765582 3.929302zM537.004651 204.8l-12.026046-15.59814-9.406512 17.860466-19.527442 6.786976 14.526512 13.573954-0.11907 19.765581 18.336744-9.525581 19.527442 5.477209-3.095814-19.408372 12.145116-16.431628L537.004651 204.8z m219.445582 123.237209l-17.026977-11.787907-2.381396 19.646512-15.955348 11.668837 18.574883 9.168372 7.144186 18.932093 13.812093-13.931163H781.097674l-9.88279-17.741395 5.477209-18.932093-20.24186 2.976744z m220.874418 148.122791L124.666047 247.784186c-20.956279-5.596279-42.388837 6.906047-47.985117 27.743256L15.717209 502.712558c-5.596279 20.956279 6.906047 42.388837 27.743256 47.985116l852.658605 228.494884c20.956279 5.596279 42.388837-6.906047 47.985116-27.743256L1004.948837 524.264186c5.715349-20.956279-6.667907-42.507907-27.624186-48.104186zM983.516279 528.669767l-55.843721 208.372093c-4.167442 15.717209-20.36093 25.004651-36.078139 20.83721L57.986977 534.504186c-15.717209-4.167442-25.004651-20.36093-20.83721-36.078139l55.843721-208.372094c4.167442-15.717209 20.36093-25.004651 36.07814-20.837209l833.726512 223.374884c15.59814 4.167442 25.004651 20.36093 20.718139 36.078139zM510.452093 160.506047c163.482791 0 300.889302 110.973023 341.134884 261.715348l21.670697 5.834419c-38.697674-164.673488-186.463256-287.315349-362.805581-287.315349-106.924651 0-203.371163 45.127442-271.24093 117.283721l21.670697 5.834419c63.702326-63.940465 151.933023-103.352558 249.570233-103.352558z m90.016744 559.985116c-27.505116 12.026047-57.986977 18.693953-90.016744 18.693953-74.299535 0-140.264186-35.95907-181.343256-91.445581l-28.695814-7.739535c42.984186 71.084651 120.855814 118.712558 210.03907 118.712558 43.103256 0 83.586977-11.192558 118.712558-30.60093l-28.695814-7.620465z m-210.634418 40.60279l-15.59814-12.740465-4.88186 19.051163-17.503256 10.24 17.503256 10.24 4.88186 19.051163 15.59814-12.740465 20.48 1.547907L402.455814 777.525581l7.858605-18.217674-20.48 1.786046zM510.333023 821.581395l11.906977 15.59814 9.406512-17.860465 19.408372-6.786977-14.407442-13.573953 0.11907-19.765582-18.217675 9.525582-19.289302-5.47721 3.095814 19.408372-12.026047 16.431628 20.003721 2.500465zM262.310698 698.225116l15.955349 12.978605L282.195349 691.795349l16.669767-10.597209-17.622325-10.35907-5.715349-19.408372L260.762791 664.409302l-20.241861-1.547907 8.692093 18.455814-6.786976 18.455814 19.884651-1.547907z m248.141395 168.364651c-163.482791 0-300.889302-110.973023-341.134884-261.715348l-21.670697-5.834419c38.578605 164.554419 186.463256 287.196279 362.805581 287.196279 106.924651 0 203.371163-45.127442 271.24093-117.283721l-21.670697-5.834418c-63.821395 64.059535-152.171163 103.471628-249.570233 103.471627z m141.693023-71.918139l16.074419 11.311628 3.453023-19.884651 16.431628-12.264186-17.741395-8.453954-5.953489-18.932093-14.526511 14.407442-20.122791 0.595349 8.811163 17.622325-6.429768 19.289303 20.003721-3.691163z m0 0M344.468837 505.093953l9.049303 20.95628c-4.524651 1.190698-9.049302 2.381395-13.335814 3.333953 7.025116 2.381395 13.931163 4.524651 20.718139 6.310698 4.524651 1.190698 7.501395-0.714419 8.930233-5.953489l4.76279-17.622325-80.848372-21.551628 5.12-19.170233L477.469767 519.144186l-5.12 19.170233-73.466046-19.527442-6.072558 22.861395c-1.905116 7.144186-4.762791 12.145116-8.573023 14.764651-3.810233 2.619535-7.977674 3.810233-12.621396 3.333954-4.643721-0.357209-15.717209-2.976744-33.101395-7.620465 0.595349-9.049302 0.952558-16.550698 1.071628-22.385117-16.907907 4.167442-32.148837 7.144186-45.484651 8.930233-2.500465-8.930233-5.00093-16.669767-7.501396-23.218605 17.741395-1.309767 37.030698-4.762791 57.867907-10.35907z m38.102326-89.659534c5.834419 5.596279 12.026047 11.787907 18.455814 18.693953L385.309767 446.511628c-4.405581-5.477209-9.049302-10.954419-14.169302-16.312558l-6.310698 23.575814-21.551627-5.834419 6.667907-25.123721c-9.882791 8.215814-20.122791 14.526512-30.72 19.051163-2.619535-7.025116-5.596279-13.812093-8.811163-20.48 14.407442-4.167442 27.624186-10.35907 39.531163-18.693954l-26.07628-7.025116 4.762791-17.979535 31.077209 8.334884 4.524652-16.907907 21.551628 5.834419-4.524652 16.907907 26.909768 7.263255-4.762791 17.979535-26.909767-7.263255-3.453024 12.978604 9.525582-7.382325z m-62.035349 31.791628l153.123721 41.079069-4.881861 18.098605-153.123721-41.07907 4.881861-18.098604z m95.017674-46.08l26.195349 7.025116 4.524651-16.907907 21.551628 5.834418-4.524651 16.907907 33.458605 8.930233-4.762791 17.979535-28.100465-7.501396c6.786977 13.693023 16.193488 25.6 27.981395 35.95907-7.025116 5.00093-12.978605 9.644651-17.741395 13.931163-8.215814-10.35907-14.883721-21.908837-20.003721-34.768372l-7.263256 27.266977-21.551628-5.834419 7.263256-26.909767c-10.12093 8.811163-21.075349 16.193488-32.863256 22.027907-2.619535-5.834419-6.072558-12.502326-10.12093-19.884652 16.312558-5.23907 30.243721-12.145116 41.674419-20.599069L410.790698 419.125581l4.76279-17.979534z m1.309768 124.904186c15.12186 10.716279 30.83907 23.218605 47.389767 37.506976L447.940465 579.869767c-14.764651-13.812093-30.243721-26.790698-46.437209-38.816744l15.36-15.00279zM694.891163 618.091163c-2.024186 7.620465-5.35814 12.978605-10.001861 16.312558-4.643721 3.214884-10.597209 4.286512-17.979535 3.095814-7.382326-1.190698-16.907907-3.453023-28.457674-6.667907 0.476279-9.763721 0.357209-19.051163-0.23814-27.981395 12.145116 4.048372 18.813023 6.191628 19.884652 6.429767 7.501395 2.024186 12.264186-0.595349 14.288372-7.977674l4.405581-16.312559-37.387907-10.00186-13.454884 50.366512-25.36186-6.786977 13.454884-50.366512-38.935814-10.478139c-8.930233 25.957209-18.932093 42.984186-30.005582 51.319069-6.191628-7.620465-12.621395-14.645581-19.170232-21.313488 13.216744-10.597209 24.171163-32.744186 32.863256-66.56l22.623255-84.658605 151.099535 40.483721-37.626046 141.097675z m-112.75907-83.348837l38.102326 10.24 5.953488-22.266047-38.102326-10.24-5.953488 22.266047z m12.264186-45.484652l38.102326 10.24 5.953488-22.266046-38.102326-10.24-5.953488 22.266046z m51.2 62.511628l37.387907 10.001861 5.953488-22.266047-37.387907-10.00186-5.953488 22.266046z m55.486512-57.748837l-37.387907-10.00186-5.953489 22.266046 37.387907 10.001861 5.953489-22.266047z" /></svg>