<?xml version="1.0" standalone="no"?><!DOCTYPE svg PUBLIC "-//W3C//DTD SVG 1.1//EN" "http://www.w3.org/Graphics/SVG/1.1/DTD/svg11.dtd"><svg t="1574908117429" class="icon" viewBox="0 0 1024 1024" version="1.1" xmlns="http://www.w3.org/2000/svg" p-id="13437" xmlns:xlink="http://www.w3.org/1999/xlink" width="32" height="32"><defs><style type="text/css"></style></defs><path d="M512 951.99999969C269 951.99999969 72.00000031 755 72.00000031 512S269 72.00000031 512 72.00000031s439.99999969 196.99999969 439.99999969 439.99999969-196.99999969 439.99999969-439.99999969 439.99999969z m41.47999969-439.99999969l149.92000031-149.92000031a29.32000031 29.32000031 0 1 0-41.47999969-41.47999969L512 470.52000031 362.07999969 320.6a29.32000031 29.32000031 0 1 0-41.47999969 41.47999969L470.52000031 512l-149.92000031 149.92000031a29.32000031 29.32000031 0 1 0 41.47999969 41.47999969L512 553.47999969l149.92000031 149.92000031a29.32000031 29.32000031 0 1 0 41.47999969-41.47999969L553.47999969 512z" fill="#f5222d" p-id="13438" data-spm-anchor-id="a313x.7781069.0.i18" class="selected"></path></svg>