<?xml version="1.0" standalone="no"?><!DOCTYPE svg PUBLIC "-//W3C//DTD SVG 1.1//EN" "http://www.w3.org/Graphics/SVG/1.1/DTD/svg11.dtd"><svg t="1588832336009" class="icon" viewBox="0 0 1024 1024" version="1.1" xmlns="http://www.w3.org/2000/svg" p-id="12489" xmlns:xlink="http://www.w3.org/1999/xlink" width="12" height="12"><defs><style type="text/css"></style></defs><path d="M838.592 379.392a350.208 350.208 0 0 0-77.44-116.608A351.36 351.36 0 0 0 512 159.552a351.36 351.36 0 0 0-249.152 103.232A351.36 351.36 0 0 0 159.552 512a351.36 351.36 0 0 0 103.232 249.216A351.36 351.36 0 0 0 512 864.384a351.36 351.36 0 0 0 249.216-103.168A351.36 351.36 0 0 0 864.384 512a351.36 351.36 0 0 0-25.792-132.608zM305.28 305.152A290.816 290.816 0 0 1 512 219.648c68.032 0 132.48 23.104 184.512 65.536l-411.392 411.392A290.496 290.496 0 0 1 219.52 512c0-78.08 30.4-151.488 85.632-206.784z m413.568 413.632a292.736 292.736 0 0 1-391.168 20.096l411.264-411.392a292.992 292.992 0 0 1-20.096 391.296z" fill="#f73d47" p-id="12490"></path></svg>
