<?xml version="1.0" standalone="no"?><!DOCTYPE svg PUBLIC "-//W3C//DTD SVG 1.1//EN" "http://www.w3.org/Graphics/SVG/1.1/DTD/svg11.dtd"><svg t="1591863667686" class="icon" viewBox="0 0 1024 1024" version="1.1" xmlns="http://www.w3.org/2000/svg" p-id="2386" width="25" height="25" xmlns:xlink="http://www.w3.org/1999/xlink"><defs><style type="text/css"></style></defs><path d="M814.545455 608.977455c-27.461818-9.378909-56.785455-14.999273-87.272728-14.999273-153.483636 0-278.574545 150.109091-277.888 192 0.430545 26.682182 50.734545 97.198545 126.824728 144.930909H186.181818a93.090909 93.090909 0 0 1-93.090909-93.090909V186.181818a93.090909 93.090909 0 0 1 93.090909-93.090909h535.272727a93.090909 93.090909 0 0 1 93.09091 93.090909v422.795637zM668.567273 484.072727a32.698182 32.698182 0 0 0 32.791272-32.581818 32.698182 32.698182 0 0 0-32.791272-32.581818H242.245818A32.698182 32.698182 0 0 0 209.454545 451.490909a32.698182 32.698182 0 0 0 32.791273 32.581818h426.321455zM437.410909 679.563636a32.698182 32.698182 0 0 0 32.791273-32.581818 32.698182 32.698182 0 0 0-32.791273-32.581818H240.64a32.698182 32.698182 0 0 0-32.779636 32.581818 32.698182 32.698182 0 0 0 32.791272 32.581818H437.410909zM498.036364 232.727273a32.581818 32.581818 0 1 0 0 65.163636h167.563636a32.581818 32.581818 0 1 0 0-65.163636H498.036364z m-156.846546 14.231272h-14.056727l28.125091-28.462545a19.037091 19.037091 0 0 0-0.023273-26.740364 18.827636 18.827636 0 0 0-26.763636 0.023273l-32.069818 32.465455-31.627637-32.046546a18.664727 18.664727 0 0 0-26.589091 0 18.874182 18.874182 0 0 0-0.023272 26.484364l27.927272 28.276363H251.810909c-10.565818 0-19.083636 8.610909-19.083636 19.176728 0 10.554182 8.517818 19.176727 19.083636 19.176727h25.6v6.900364h-25.6c-10.565818 0-19.083636 8.610909-19.083636 19.176727 0 10.554182 8.517818 19.176727 19.083636 19.176727h25.6v10.984727c0 10.554182 8.517818 19.176727 19.083636 19.176728 10.589091 0 19.083636-8.610909 19.083637-19.176728v-10.984727h25.611636c10.577455 0 19.083636-8.622545 19.083637-19.176727 0-10.565818-8.506182-19.176727-19.083637-19.176727h-25.6v-6.900364h25.6c10.577455 0 19.083636-8.610909 19.083637-19.176727 0-10.554182-8.506182-19.176727-19.083637-19.176728z m386.094546 681.832728c-112.477091 0-203.136-109.149091-203.636364-139.636364-0.512-30.475636 91.159273-139.636364 203.636364-139.636364 112.453818 0 203.776 103.447273 203.636363 139.636364-0.151273 36.189091-91.182545 139.636364-203.636363 139.636364z m0-66.618182c58.798545 0 106.402909-54.085818 106.472727-73.018182 0.081455-18.920727-47.674182-73.018182-106.472727-73.018182-58.821818 0-106.763636 57.088-106.496 73.018182 0.267636 15.941818 47.674182 73.018182 106.484363 73.018182z m0.104727-31.883636c-22.504727 0-40.750545-18.653091-40.750546-41.669819s18.245818-41.681455 40.750546-41.681454c22.504727 0 40.750545 18.664727 40.750545 41.681454 0 23.016727-18.245818 41.669818-40.750545 41.669819z" fill="#9DB1F9" p-id="2387"></path></svg>