<?xml version="1.0" standalone="no"?><!DOCTYPE svg PUBLIC "-//W3C//DTD SVG 1.1//EN" "http://www.w3.org/Graphics/SVG/1.1/DTD/svg11.dtd"><svg t="1588919559874" class="icon" viewBox="0 0 1024 1024" version="1.1" xmlns="http://www.w3.org/2000/svg" p-id="2113" data-spm-anchor-id="a313x.7781069.0.i2" width="16" height="16" xmlns:xlink="http://www.w3.org/1999/xlink"><defs><style type="text/css"></style></defs><path d="M449.058133 877.090133c-32.1536 23.9616-60.757333 22.7328-86.766933-4.846933L113.595733 588.458667a52.0192 52.0192 0 0 1-9.352533-40.004267 52.565333 52.565333 0 0 1 16.5888-33.5872C192.785067 452.266667 256.6144 396.9024 314.026667 348.16l177.9712-154.8288A135.9872 135.9872 0 0 1 510.976 177.493333a107.3152 107.3152 0 0 0 12.561067-7.850666 30.788267 30.788267 0 0 1 21.435733-4.573867l49.493333 3.072c12.9024 0.8192 26.897067 1.706667 42.461867 3.208533l177.493333 13.653334c0 1.092267 0 1.092267 0.955734 1.2288 7.441067 1.501867 13.653333 3.003733 20.48 5.051733a36.386133 36.386133 0 0 1 18.0224 12.4928 42.3936 42.3936 0 0 1 10.922666 19.6608 71.68 71.68 0 0 1 1.774934 19.592533l-20.821334 271.086934-0.6144 7.509333a73.5232 73.5232 0 0 0-1.774933 8.465067 69.632 69.632 0 0 1-12.151467 17.6128z m234.837334-577.536a48.3328 48.3328 0 0 0 13.243733 38.638934 50.5856 50.5856 0 0 0 37.000533 18.0224 54.613333 54.613333 0 0 0 57.7536-50.449067 50.5856 50.5856 0 0 0-12.6976-39.1168 51.8144 51.8144 0 0 0-37.000533-18.0224 55.159467 55.159467 0 0 0-58.504533 50.926933z m0 0" p-id="2114" fill="#515151"></path></svg>