<?xml version="1.0" encoding="UTF-8"?>
<svg width="32px" height="32px" viewBox="0 0 32 32" version="1.1" xmlns="http://www.w3.org/2000/svg" xmlns:xlink="http://www.w3.org/1999/xlink">
    <!-- Generator: Sketch 52.4 (67378) - http://www.bohemiancoding.com/sketch -->
    <title>打开</title>
    <desc>Created with Sketch.</desc>
    <g id="Page-1" stroke="none" stroke-width="1" fill="none" fill-rule="evenodd">
        <g id="补充的icon" transform="translate(-484.000000, -795.000000)">
            <g id="批量释放--copy-6" transform="translate(484.000000, 795.000000)">
                <g id="打开文件" transform="translate(5.000000, 5.000000)">
                    <rect id="矩形" fill="#000000" opacity="0" x="0" y="0" width="22" height="22"></rect>
                    <path d="M17.9250586,8.55572266 C17.9250586,8.56947266 17.9388086,8.58322266 17.9388086,8.61072266 L17.9388086,8.51447266 C17.9250586,8.51447266 17.9250586,8.52822266 17.9250586,8.55572266 Z M19.8257812,10.6798828 L3.96386719,10.6798828 C3.39023437,10.6798828 2.88105469,11.0515625 2.70488281,11.5972656 L1.32128906,15.8597656 L1.32128906,4.37207031 L7.93203125,4.37207031 C7.93203125,5.83300781 9.11367187,7.01464844 10.5724609,7.01464844 L17.1810547,7.01464844 L17.1810547,9.00195312 C17.1853516,9.36289063 17.4775391,9.65507812 17.840625,9.65507812 C18.2058594,9.65507812 18.5001953,9.35859375 18.5001953,8.99550781 C18.5001953,8.99335938 18.4980469,8.99121094 18.4980469,8.98691406 L18.5023438,8.98691406 L18.5023438,7.01464844 C18.5023438,6.28417969 17.9115234,5.69335938 17.1810547,5.69121094 L10.5724609,5.69121094 C9.84199219,5.69121094 9.25117187,5.10039062 9.25117187,4.36992187 C9.25117187,4.01972656 9.11152344,3.68457031 8.86445312,3.4375 C8.61738281,3.19042969 8.28007812,3.05078125 7.93203125,3.05078125 L1.32128906,3.05078125 C0.59296875,3.05078125 0.0021484375,3.64160156 0,4.36992188 L0,19.9289063 C0.0021484375,20.659375 0.59296875,21.2480469 1.3234375,21.2480469 L17.1810547,21.2480469 C17.7568359,21.2480469 18.2660156,20.8785156 18.4421875,20.3306641 L21.1470703,12.0011719 C21.1449219,11.2728516 20.55625,10.6820312 19.8257812,10.6798828 Z" id="形状" fill="#6D8290" fill-rule="nonzero"></path>
                    <path d="M21.1298828,3.71679688 C20.3091797,2.12695313 17.7160156,-1.19238281 11.3115234,2.26660156 C11.3115234,2.26660156 18.3626953,0.519921875 19.215625,4.41074219 L18.046875,4.43867188 L20.934375,6.25410156 L21.9957031,3.01425781 L21.1298828,3.71679688 Z" id="路径" fill="#8BC34A" fill-rule="nonzero"></path>
                </g>
            </g>
        </g>
    </g>
</svg>