<?xml version="1.0" encoding="UTF-8"?>
<svg width="32px" height="32px" viewBox="0 0 32 32" version="1.1" xmlns="http://www.w3.org/2000/svg" xmlns:xlink="http://www.w3.org/1999/xlink">
    <!-- Generator: Sketch 52.4 (67378) - http://www.bohemiancoding.com/sketch -->
    <title>PO缺料</title>
    <desc>Created with Sketch.</desc>
    <defs>
        <path d="M14.3198381,13.8702341 C14.2469636,14.8454849 14.1376518,15.8929766 13.9554656,16.9043478 C13.9190283,17.193311 13.5910931,17.5183946 13.2995951,17.5545151 C11.3319838,17.7712375 9.40080972,17.9157191 7.43319838,17.9157191 C5.50202429,17.9157191 3.53441296,17.8073579 1.60323887,17.5545151 C1.31174089,17.5183946 0.983805668,17.2294314 0.947368421,16.9043478 C0.692307692,15.3150502 0.546558704,13.6896321 0.546558704,12.064214 C0.546558704,10.438796 0.692307692,8.81337793 0.947368421,7.22408027 C0.983805668,6.93511706 1.31174089,6.64615385 1.60323887,6.57391304 C2.80566802,6.42943144 3.97165992,6.35719064 5.13765182,6.28494983 C5.13765182,6.28494983 6.08502024,6.24882943 6.01214575,5.3458194 C5.93927126,4.55117057 4.55465587,4.00936455 4.55465587,2.6729097 C4.55465587,1.58929766 5.64777328,0.722408027 7.43319838,0.722408027 C9.18218623,0.722408027 10.2753036,1.58929766 10.2753036,2.6729097 C10.2753036,4.04548495 8.92712551,4.55117057 8.85425101,5.3458194 C8.78137652,6.21270903 9.72874494,6.28494983 9.72874494,6.28494983 C10.9311741,6.32107023 12.1336032,6.42943144 13.2995951,6.57391304 C13.5910931,6.61003344 13.9190283,6.89899666 13.9554656,7.22408027 C14.1376518,8.34381271 14.2469636,9.39130435 14.3198381,10.5110368 C14.3198381,10.8361204 14.0647773,11.161204 13.7368421,11.161204 L13.4089069,11.161204 C13.0809717,11.161204 12.5708502,10.9083612 12.3522267,10.6555184 C12.3522267,10.6555184 11.5870445,9.86086957 10.7489879,9.82474916 C9.40080972,9.78862876 8.3805668,10.9444816 8.3805668,12.2086957 C8.3805668,13.4729097 9.40080972,14.6648829 10.7125506,14.6287625 C11.51417,14.5926421 12.3157895,13.7979933 12.3157895,13.7979933 C12.5708502,13.5812709 13.0445344,13.3645485 13.3724696,13.3645485 L13.7004049,13.3645485 C14.1012146,13.3645485 14.3562753,13.5812709 14.3198381,13.8702341 L14.3198381,13.8702341 Z" id="path-1"></path>
    </defs>
    <g id="Page-1" stroke="none" stroke-width="1" fill="none" fill-rule="evenodd">
        <g id="补充的icon" transform="translate(-337.000000, -459.000000)">
            <g id="PO缺料" transform="translate(337.000000, 459.000000)">
                <g id="icons/utility/puzzle" transform="translate(9.000000, 7.000000)">
                    <mask id="mask-2" fill="white">
                        <use xlink:href="#path-1"></use>
                    </mask>
                    <use id="Mask" fill="#6D8290" xlink:href="#path-1"></use>
                </g>
            </g>
        </g>
    </g>
</svg>