<?xml version="1.0" standalone="no"?><!DOCTYPE svg PUBLIC "-//W3C//DTD SVG 1.1//EN" "http://www.w3.org/Graphics/SVG/1.1/DTD/svg11.dtd"><svg t="1588829805088" class="icon" viewBox="0 0 1024 1024" version="1.1" xmlns="http://www.w3.org/2000/svg" p-id="6855" xmlns:xlink="http://www.w3.org/1999/xlink" width="32" height="32"><defs><style type="text/css"></style></defs><path d="M328.95 773.5h366.1V668.9h-366.1z m0-261.5h366.1V355.1h-65.38a39.23 39.23 0 0 1-39.23-39.23V250.5H328.95z m470.7 26.15a26.15 26.15 0 1 0-26.15 26.15 26.33 26.33 0 0 0 26.15-26.15z m52.3 0v170a13.43 13.43 0 0 1-13.08 13.07h-91.52v65.38a39.22 39.22 0 0 1-39.22 39.23H315.87a39.23 39.23 0 0 1-39.23-39.23v-65.4h-91.51a13.44 13.44 0 0 1-13.08-13.07v-170c0-42.91 35.54-78.45 78.45-78.45h26.15V237.43a39.23 39.23 0 0 1 39.23-39.23h274.57c21.65 0 51.49 12.26 67 27.77l62.11 62.11c15.53 15.53 27.77 45.34 27.77 67v104.6h26.15c42.91 0 78.45 35.54 78.45 78.45z m0 0" p-id="6856" data-spm-anchor-id="a313x.7781069.0.i6" class="selected" fill="#515151"></path></svg>