<?xml version="1.0" standalone="no"?><!DOCTYPE svg PUBLIC "-//W3C//DTD SVG 1.1//EN" "http://www.w3.org/Graphics/SVG/1.1/DTD/svg11.dtd"><svg t="1591750723725" class="icon" viewBox="0 0 1024 1024" version="1.1" xmlns="http://www.w3.org/2000/svg" p-id="2921" width="32" height="32" xmlns:xlink="http://www.w3.org/1999/xlink"><defs><style type="text/css"></style></defs><path d="M204.8 443.835733c0-37.751467 24.439467-86.528 54.749867-108.817066C259.549867 335.018667 477.866667 170.666667 512 170.666667s252.791467 164.590933 252.791467 164.590933c30.037333 22.186667 54.408533 70.724267 54.408533 108.544v307.029333A68.232533 68.232533 0 0 1 751.104 819.2H272.896A68.164267 68.164267 0 0 1 204.8 750.830933v-306.9952zM512 375.466667c-68.266667 0-102.4 68.266667-170.666667 68.266666 0 170.666667 119.466667 273.066667 170.666667 273.066667s170.666667-102.4 170.666667-273.066667c-68.266667 0-102.4-68.266667-170.666667-68.266666z" fill="#6D8290" p-id="2922"></path></svg>