<?xml version="1.0" encoding="UTF-8"?>
<svg width="18px" height="18px" viewBox="0 0 18 18" version="1.1" xmlns="http://www.w3.org/2000/svg" xmlns:xlink="http://www.w3.org/1999/xlink">
    <path d="M18,4.64516129 L18,0 L12.7741935,0 L12.7741935,4.64516129 L15.0967742,4.64516129 L15.0967742,6.71864516 C14.6906129,6.82432258 14.3724194,7.14222581 14.2670323,7.5483871 L12.9536129,7.5483871 L11.502,4.64516129 L10.7927419,4.64516129 L9.88983871,9.31093548 C9.59719355,9.29758065 9.30077419,9.29032258 9,9.29032258 C8.33748387,9.29032258 7.69441935,9.324 7.07603226,9.387 L6.28809677,7.5483871 L3.73296774,7.5483871 C3.62729032,7.14222581 3.3093871,6.82403226 2.90322581,6.71864516 L2.90322581,4.64516129 L5.22580645,4.64516129 L5.22580645,0 L0,0 L0,4.64516129 L2.32258065,4.64516129 L2.32258065,6.71864516 C1.82293548,6.84841935 1.4516129,7.299 1.4516129,7.83870968 C1.4516129,8.47916129 1.97245161,9 2.61290323,9 C3.1526129,9 3.60319355,8.62867742 3.73296774,8.12903226 L5.90545161,8.12903226 L6.47535484,9.45870968 C2.69564516,9.97490323 0,11.6291613 0,13.6451613 C0,16.0870645 3.95332258,18 9,18 C14.0466774,18 18,16.0870645 18,13.6451613 C18,11.4468387 14.7954194,9.67790323 10.4742581,9.34693548 L11.2360645,5.41132258 L12.5947742,8.12903226 L14.2670323,8.12903226 C14.3968065,8.62867742 14.8473871,9 15.3870968,9 C16.0275484,9 16.5483871,8.47916129 16.5483871,7.83870968 C16.5483871,7.299 16.1770645,6.84841935 15.6774194,6.71864516 L15.6774194,4.64516129 L18,4.64516129 Z M0.580645161,4.06451613 L0.580645161,0.580645161 L4.64516129,0.580645161 L4.64516129,4.06451613 L0.580645161,4.06451613 Z M2.61290323,8.41935484 C2.29267742,8.41935484 2.03225806,8.15893548 2.03225806,7.83870968 C2.03225806,7.51848387 2.29267742,7.25806452 2.61290323,7.25806452 C2.93312903,7.25806452 3.19354839,7.51848387 3.19354839,7.83870968 C3.19354839,8.15893548 2.93312903,8.41935484 2.61290323,8.41935484 Z M9,9.87096774 C9.26245161,9.87096774 9.51851613,9.89825806 9.76616129,9.94935484 L9.54522581,11.0903226 C9.36929032,11.052871 9.18696774,11.0322581 9,11.0322581 C8.60225806,11.0322581 8.22658065,11.124 7.88893548,11.2836774 L7.43167742,10.2167419 C7.91012903,9.99696774 8.43996774,9.87096774 9,9.87096774 Z M9.43490323,11.6608065 L9.05080645,13.6451613 L8.901,13.6451613 L8.11770968,11.8172903 C8.38509677,11.6878065 8.68354839,11.6129032 9,11.6129032 C9.14922581,11.6129032 9.29467742,11.6303226 9.43490323,11.6608065 Z M7.38958065,11.5917097 C6.78048387,12.0704516 6.38709677,12.8119355 6.38709677,13.6451613 C6.38709677,14.2612258 6.60251613,14.8270645 6.96048387,15.2741613 L6.13712903,16.0975161 C5.57041935,15.4373226 5.22580645,14.5814516 5.22580645,13.6451613 C5.22580645,12.3320323 5.90080645,11.1748065 6.921,10.4983548 L7.38958065,11.5917097 Z M0.580645161,13.6451613 C0.580645161,11.9778387 3.14216129,10.5215806 6.56041935,10.0396452 C5.40551613,10.8238065 4.64516129,12.1470968 4.64516129,13.6451613 C4.64516129,15.1432258 5.40551613,16.4665161 6.56041935,17.2506774 C3.14216129,16.7687419 0.580645161,15.3124839 0.580645161,13.6451613 Z M8.70967742,17.4045484 C7.88719355,17.3415484 7.13874194,17.0152258 6.54764516,16.5080323 L7.371,15.6846774 C7.74696774,15.9854516 8.20654839,16.1849032 8.70967742,16.2409355 L8.70967742,17.4045484 Z M17.4193548,13.6451613 C17.4193548,15.3124839 14.8578387,16.7687419 11.4395806,17.2506774 C12.5944839,16.4665161 13.3548387,15.1432258 13.3548387,13.6451613 C13.3548387,12.1470968 12.5944839,10.8238065 11.4395806,10.0396452 C14.8578387,10.5215806 17.4193548,11.9778387 17.4193548,13.6451613 Z M9.29032258,17.4045484 L9.29032258,16.2365806 C9.78677419,16.181129 10.2469355,15.9860323 10.6269677,15.6826452 L11.4523548,16.5080323 C10.8612581,17.0152258 10.1125161,17.3415484 9.29032258,17.4045484 Z M12.7741935,13.6451613 C12.7741935,14.5814516 12.4295806,15.4373226 11.862871,16.0975161 L11.0389355,15.2735806 C11.1832258,15.0927097 11.3080645,14.8932581 11.4024194,14.6734839 L10.8688065,14.445 C10.548,15.1937419 9.81464516,15.6774194 9,15.6774194 C7.87964516,15.6774194 6.96774194,14.7655161 6.96774194,13.6451613 C6.96774194,13.0534839 7.22351613,12.5216129 7.62851613,12.1497097 L8.51835484,14.2258065 L9.52983871,14.2258065 L9.98593548,11.8695484 C10.6092581,12.2170645 11.0322581,12.8824839 11.0322581,13.6451613 C11.0322581,13.7267419 11.0273226,13.8071613 11.0180323,13.886129 L11.5946129,13.9546452 C11.6068065,13.8536129 11.6129032,13.7499677 11.6129032,13.6451613 C11.6129032,12.5976774 10.9921935,11.6947742 10.1003226,11.2784516 L10.3253226,10.1157097 C11.7534194,10.6542581 12.7741935,12.0309677 12.7741935,13.6451613 Z M15.9677419,7.83870968 C15.9677419,8.15893548 15.7073226,8.41935484 15.3870968,8.41935484 C15.066871,8.41935484 14.8064516,8.15893548 14.8064516,7.83870968 C14.8064516,7.51848387 15.066871,7.25806452 15.3870968,7.25806452 C15.7073226,7.25806452 15.9677419,7.51848387 15.9677419,7.83870968 Z M13.3548387,4.06451613 L13.3548387,0.580645161 L17.4193548,0.580645161 L17.4193548,4.06451613 L13.3548387,4.06451613 Z M1.16129032,1.16129032 L1.74193548,1.16129032 L1.74193548,1.74193548 L1.16129032,1.74193548 L1.16129032,1.16129032 Z M2.32258065,1.16129032 L4.06451613,1.16129032 L4.06451613,1.74193548 L2.32258065,1.74193548 L2.32258065,1.16129032 Z M3.48387097,2.90322581 L4.06451613,2.90322581 L4.06451613,3.48387097 L3.48387097,3.48387097 L3.48387097,2.90322581 Z M1.16129032,2.90322581 L2.90322581,2.90322581 L2.90322581,3.48387097 L1.16129032,3.48387097 L1.16129032,2.90322581 Z M13.9354839,1.16129032 L13.9354839,1.74193548 L14.516129,1.74193548 L14.516129,1.16129032 L13.9354839,1.16129032 Z M15.0967742,1.16129032 L15.0967742,1.74193548 L16.8387097,1.74193548 L16.8387097,1.16129032 L15.0967742,1.16129032 Z M16.2580645,2.90322581 L16.2580645,3.48387097 L16.8387097,3.48387097 L16.8387097,2.90322581 L16.2580645,2.90322581 Z M13.9354839,2.90322581 L13.9354839,3.48387097 L15.6774194,3.48387097 L15.6774194,2.90322581 L13.9354839,2.90322581 Z"></path>
</svg>
