<?xml version="1.0" encoding="UTF-8"?>
<svg width="32px" height="32px" viewBox="0 0 32 32" version="1.1" xmlns="http://www.w3.org/2000/svg" xmlns:xlink="http://www.w3.org/1999/xlink">
    <!-- Generator: Sketch 52.4 (67378) - http://www.bohemiancoding.com/sketch -->
    <title>例外信息</title>
    <desc>Created with Sketch.</desc>
    <defs>
        <path d="M17.9120879,0.32967033 L2.08791209,0.32967033 C1.12087912,0.32967033 0.32967033,1.12087912 0.32967033,2.08791209 L0.32967033,17.9120879 C0.32967033,18.8791209 1.12087912,19.6703297 2.08791209,19.6703297 L17.9120879,19.6703297 C18.8791209,19.6703297 19.6703297,18.8791209 19.6703297,17.9120879 L19.6703297,2.08791209 C19.6703297,1.12087912 18.8791209,0.32967033 17.9120879,0.32967033 Z M3.84615385,4.72527473 C3.84615385,4.46153846 4.02197802,4.28571429 4.28571429,4.28571429 L8.68131868,4.28571429 C8.94505495,4.28571429 9.12087912,4.46153846 9.12087912,4.72527473 L9.12087912,9.12087912 C9.12087912,9.38461538 8.94505495,9.56043956 8.68131868,9.56043956 L4.28571429,9.56043956 C4.02197802,9.56043956 3.84615385,9.38461538 3.84615385,9.12087912 L3.84615385,4.72527473 Z M14.3956044,16.1538462 C14.3956044,16.4175824 14.2197802,16.5934066 13.956044,16.5934066 L4.28571429,16.5934066 C4.02197802,16.5934066 3.84615385,16.4175824 3.84615385,16.1538462 L3.84615385,15.2747253 C3.84615385,15.010989 4.02197802,14.8351648 4.28571429,14.8351648 L13.956044,14.8351648 C14.2197802,14.8351648 14.3956044,15.010989 14.3956044,15.2747253 L14.3956044,16.1538462 Z M16.1538462,12.6373626 C16.1538462,12.9010989 15.978022,13.0769231 15.7142857,13.0769231 L4.28571429,13.0769231 C4.02197802,13.0769231 3.84615385,12.9010989 3.84615385,12.6373626 L3.84615385,11.7582418 C3.84615385,11.4945055 4.02197802,11.3186813 4.28571429,11.3186813 L15.7142857,11.3186813 C15.978022,11.3186813 16.1538462,11.4945055 16.1538462,11.7582418 L16.1538462,12.6373626 Z M16.1538462,9.12087912 C16.1538462,9.38461538 15.978022,9.56043956 15.7142857,9.56043956 L11.3186813,9.56043956 C11.0549451,9.56043956 10.8791209,9.38461538 10.8791209,9.12087912 L10.8791209,8.24175824 C10.8791209,7.97802198 11.0549451,7.8021978 11.3186813,7.8021978 L15.7142857,7.8021978 C15.978022,7.8021978 16.1538462,7.97802198 16.1538462,8.24175824 L16.1538462,9.12087912 Z M16.1538462,5.6043956 C16.1538462,5.86813187 15.978022,6.04395604 15.7142857,6.04395604 L11.3186813,6.04395604 C11.0549451,6.04395604 10.8791209,5.86813187 10.8791209,5.6043956 L10.8791209,4.72527473 C10.8791209,4.46153846 11.0549451,4.28571429 11.3186813,4.28571429 L15.7142857,4.28571429 C15.978022,4.28571429 16.1538462,4.46153846 16.1538462,4.72527473 L16.1538462,5.6043956 Z" id="path-1"></path>
    </defs>
    <g id="Page-1" stroke="none" stroke-width="1" fill="none" fill-rule="evenodd">
        <g id="补充的icon" transform="translate(-527.000000, -245.000000)">
            <g id="例外信息" transform="translate(527.000000, 245.000000)">
                <g id="icons/utility/description-copy-2" transform="translate(6.000000, 6.000000)">
                    <mask id="mask-2" fill="white">
                        <use xlink:href="#path-1"></use>
                    </mask>
                    <use id="Mask" fill="#6D8290" xlink:href="#path-1"></use>
                </g>
            </g>
        </g>
    </g>
</svg>