<?xml version="1.0" encoding="UTF-8"?>
<svg width="32px" height="32px" viewBox="0 0 32 32" version="1.1" xmlns="http://www.w3.org/2000/svg" xmlns:xlink="http://www.w3.org/1999/xlink">
    <!-- Generator: Sketch 52.4 (67378) - http://www.bohemiancoding.com/sketch -->
    <title>供需生成</title>
    <desc>Created with Sketch.</desc>
    <defs>
        <path d="M4.38461538,12.9230769 L10.3846154,12.9230769 C10.7538462,12.9230769 11.0769231,12.6 11.0769231,12.2307692 L11.0769231,1.38461538 C11.0769231,0.6 10.2461538,0 9.6,0 L4.38461538,0 C4.01538462,0 3.69230769,0.323076923 3.69230769,0.692307692 L3.69230769,12.2307692 C3.69230769,12.6 4.01538462,12.9230769 4.38461538,12.9230769 Z M22.7076923,2.12307692 C22.4307692,2.03076923 22.1538462,2.26153846 22.1538462,2.58461538 L22.1538462,14.0769231 C22.1538462,14.4461538 21.8307692,14.7692308 21.4615385,14.7692308 L2.53846154,14.7692308 C2.16923077,14.7692308 1.84615385,14.4461538 1.84615385,14.0769231 L1.84615385,2.63076923 C1.84615385,2.30769231 1.47692308,2.07692308 1.2,2.21538462 C0.507692308,2.53846154 0,3.27692308 0,4.15384615 L0,14.7692308 C0,15.7846154 0.830769231,16.6153846 1.84615385,16.6153846 L9.46153846,16.6153846 C9.83076923,16.6153846 10.1538462,16.9384615 10.1538462,17.3076923 C10.1538462,17.6769231 10.4769231,18 10.8461538,18 L13.1538462,18 C13.5230769,18 13.8461538,17.6769231 13.8461538,17.3076923 C13.8461538,16.9384615 14.1692308,16.6153846 14.5384615,16.6153846 L22.1538462,16.6153846 C23.1692308,16.6153846 24,15.7846154 24,14.7692308 L24,4.15384615 C24,3.18461538 23.6769231,2.35384615 22.7076923,2.12307692 L22.7076923,2.12307692 Z" id="path-1"></path>
    </defs>
    <g id="Page-1" stroke="none" stroke-width="1" fill="none" fill-rule="evenodd">
        <g id="补充的icon" transform="translate(-576.000000, -683.000000)">
            <g id="创建工单-copy-3" transform="translate(576.000000, 683.000000)">
                <g id="分组-6" transform="translate(4.000000, 7.000000)">
                    <mask id="mask-2" fill="white">
                        <use xlink:href="#path-1"></use>
                    </mask>
                    <use id="Mask" fill="#6D8290" xlink:href="#path-1"></use>
                    <path d="M13.6153846,12.9230769 C13.2461538,12.9230769 12.9230769,12.6 12.9230769,12.2307692 L12.9230769,1.38461538 C12.9230769,0.6 13.7076923,2.12274642e-13 14.4,2.12274642e-13 L19.6153846,2.12274642e-13 C19.9846154,2.12274642e-13 20.3076923,0.323076923 20.3076923,0.692307692 L20.3076923,12.2307692 C20.3076923,12.6 19.9846154,12.9230769 19.6153846,12.9230769 L13.6153846,12.9230769 Z M15.4196429,3.375 C15.1089827,3.375 14.8571429,3.62683983 14.8571429,3.9375 C14.8571429,4.24816017 15.1089827,4.5 15.4196429,4.5 L17.7232143,4.5 C18.0338745,4.5 18.2857143,4.24816017 18.2857143,3.9375 C18.2857143,3.62683983 18.0338745,3.375 17.7232143,3.375 L15.4196429,3.375 Z M15.4196429,5.625 C15.1089827,5.625 14.8571429,5.87683983 14.8571429,6.1875 C14.8571429,6.49816017 15.1089827,6.75 15.4196429,6.75 L17.7232143,6.75 C18.0338745,6.75 18.2857143,6.49816017 18.2857143,6.1875 C18.2857143,5.87683983 18.0338745,5.625 17.7232143,5.625 L15.4196429,5.625 Z M15.4196429,7.875 C15.1089827,7.875 14.8571429,8.12683983 14.8571429,8.4375 C14.8571429,8.74816017 15.1089827,9 15.4196429,9 L17.7232143,9 C18.0338745,9 18.2857143,8.74816017 18.2857143,8.4375 C18.2857143,8.12683983 18.0338745,7.875 17.7232143,7.875 L15.4196429,7.875 Z" id="合并形状" fill="#8BC34A"></path>
                </g>
            </g>
        </g>
    </g>
</svg>