<?xml version="1.0" encoding="UTF-8"?>
<svg width="32px" height="32px" viewBox="0 0 32 32" version="1.1" xmlns="http://www.w3.org/2000/svg" xmlns:xlink="http://www.w3.org/1999/xlink">
    <!-- Generator: Sketch 52.4 (67378) - http://www.bohemiancoding.com/sketch -->
    <title>全部收缩</title>
    <desc>Created with Sketch.</desc>
    <defs>
        <path d="M10.2375,8.29903846 L15.5682692,8.29903846 C15.9144231,8.29903846 16.0182692,7.91826923 15.7413462,7.64134615 L14.0451923,5.91057692 L17.1605769,2.76057692 C17.3336538,2.5875 17.3336538,2.27596154 17.1605769,2.10288462 L15.8798077,0.822115385 C15.7067308,0.683653846 15.4298077,0.683653846 15.2221154,0.856730769 L12.1067308,3.97211538 L10.3413462,2.27596154 C10.0644231,1.99903846 9.68365385,2.10288462 9.68365385,2.44903846 L9.68365385,7.77980769 C9.68365385,8.02211538 9.99519231,8.29903846 10.2375,8.29903846 Z M7.74519231,9.68365385 L2.41442308,9.68365385 C2.06826923,9.68365385 1.96442308,10.0644231 2.24134615,10.3413462 L3.9375,12.0721154 L0.822115385,15.2221154 C0.649038462,15.3951923 0.649038462,15.7067308 0.822115385,15.8798077 L2.10288462,17.1605769 C2.27596154,17.3336538 2.55288462,17.3336538 2.76057692,17.1605769 L5.91057692,14.0105769 L7.67596154,15.7067308 C7.91826923,16.0182692 8.29903846,15.9144231 8.29903846,15.5682692 L8.29903846,10.2721154 C8.29903846,10.0298077 7.9875,9.68365385 7.74519231,9.68365385 Z M9.68365385,10.2375 L9.68365385,15.5682692 C9.68365385,15.9144231 10.0644231,16.0182692 10.3413462,15.7413462 L12.0721154,14.0451923 L15.2221154,17.1605769 C15.3951923,17.3336538 15.7067308,17.3336538 15.8798077,17.1605769 L17.1605769,15.8798077 C17.2990385,15.7067308 17.2990385,15.4298077 17.1259615,15.2221154 L14.0105769,12.1067308 L15.7067308,10.3413462 C15.9836538,10.0644231 15.8798077,9.68365385 15.5336538,9.68365385 L10.2028846,9.68365385 C9.96057692,9.68365385 9.68365385,9.99519231 9.68365385,10.2375 Z M8.29903846,7.74519231 L8.29903846,2.41442308 C8.29903846,2.06826923 7.91826923,1.96442308 7.64134615,2.24134615 L5.91057692,3.9375 L2.76057692,0.822115385 C2.5875,0.649038462 2.27596154,0.649038462 2.10288462,0.822115385 L0.822115385,2.10288462 C0.649038462,2.27596154 0.649038462,2.55288462 0.822115385,2.76057692 L3.97211538,5.91057692 L2.27596154,7.67596154 C1.96442308,7.91826923 2.06826923,8.29903846 2.41442308,8.29903846 L7.71057692,8.29903846 C7.95288462,8.29903846 8.29903846,7.9875 8.29903846,7.74519231 Z" id="path-1"></path>
    </defs>
    <g id="Page-1" stroke="none" stroke-width="1" fill="none" fill-rule="evenodd">
        <g id="补充的icon" transform="translate(-75.000000, -355.000000)">
            <g id="全部收缩" transform="translate(75.000000, 355.000000)">
                <g id="icons/utility/contract-copy-2" transform="translate(7.000000, 7.000000)">
                    <mask id="mask-2" fill="white">
                        <use xlink:href="#path-1"></use>
                    </mask>
                    <use id="Mask" fill="#6D8290" xlink:href="#path-1"></use>
                </g>
            </g>
        </g>
    </g>
</svg>