<?xml version="1.0" encoding="UTF-8"?>
<svg width="32px" height="32px" viewBox="0 0 32 32" version="1.1" xmlns="http://www.w3.org/2000/svg" xmlns:xlink="http://www.w3.org/1999/xlink">
    <!-- Generator: Sketch 52.4 (67378) - http://www.bohemiancoding.com/sketch -->
    <title>全部展开</title>
    <desc>Created with Sketch.</desc>
    <defs>
        <path d="M16.8923077,0.692307692 L11.5269231,0.692307692 C11.1807692,0.692307692 11.0769231,1.00384615 11.3538462,1.28076923 L13.05,2.97692308 L9.93461538,6.09230769 C9.76153846,6.26538462 9.76153846,6.54230769 9.93461538,6.75 L11.2153846,8.03076923 C11.3884615,8.20384615 11.6653846,8.20384615 11.8730769,8.03076923 L15.0230769,4.88076923 L16.7192308,6.57692308 C16.9961538,6.85384615 17.3076923,6.75 17.3076923,6.40384615 L17.3076923,1.07307692 C17.3076923,0.865384615 17.1,0.692307692 16.8923077,0.692307692 L16.8923077,0.692307692 Z M1.21153846,17.3076923 L6.54230769,17.3076923 C6.88846154,17.3076923 6.99230769,16.9269231 6.71538462,16.65 L5.01923077,14.9192308 L8.13461538,11.7692308 C8.30769231,11.5961538 8.30769231,11.2846154 8.13461538,11.1115385 L6.85384615,9.83076923 C6.68076923,9.65769231 6.40384615,9.65769231 6.19615385,9.83076923 L3.08076923,12.9461538 L1.35,11.25 C1.03846154,10.9730769 0.692307692,11.0769231 0.692307692,11.4230769 L0.692307692,16.7538462 C0.692307692,16.9961538 0.969230769,17.3076923 1.21153846,17.3076923 L1.21153846,17.3076923 Z M17.3076923,16.8923077 L17.3076923,11.5269231 C17.3076923,11.1807692 16.9961538,11.0769231 16.7192308,11.3538462 L15.0230769,13.05 L11.9076923,9.93461538 C11.7346154,9.76153846 11.4576923,9.76153846 11.25,9.93461538 L9.96923077,11.2153846 C9.79615385,11.3884615 9.79615385,11.6653846 9.96923077,11.8730769 L13.1192308,15.0230769 L11.4230769,16.7192308 C11.1461538,16.9961538 11.25,17.3076923 11.5961538,17.3076923 L16.9269231,17.3076923 C17.1346154,17.3076923 17.3076923,17.1 17.3076923,16.8923077 Z M0.692307692,1.21153846 L0.692307692,6.54230769 C0.692307692,6.88846154 1.07307692,6.99230769 1.35,6.71538462 L3.08076923,5.01923077 L6.23076923,8.13461538 C6.40384615,8.30769231 6.71538462,8.30769231 6.88846154,8.13461538 L8.16923077,6.85384615 C8.34230769,6.68076923 8.34230769,6.40384615 8.16923077,6.19615385 L5.05384615,3.08076923 L6.75,1.35 C7.02692308,1.03846154 6.92307692,0.692307692 6.57692308,0.692307692 L1.24615385,0.692307692 C1.00384615,0.692307692 0.692307692,0.969230769 0.692307692,1.21153846 L0.692307692,1.21153846 Z" id="path-1"></path>
    </defs>
    <g id="Page-1" stroke="none" stroke-width="1" fill="none" fill-rule="evenodd">
        <g id="补充的icon" transform="translate(-164.000000, -355.000000)">
            <g id="全部展开" transform="translate(164.000000, 355.000000)">
                <g id="icons/utility/expand-copy" transform="translate(7.000000, 7.000000)">
                    <mask id="mask-2" fill="white">
                        <use xlink:href="#path-1"></use>
                    </mask>
                    <use id="Mask" fill="#6D8290" xlink:href="#path-1"></use>
                </g>
            </g>
        </g>
    </g>
</svg>