<?xml version="1.0" encoding="UTF-8"?>
<svg width="32px" height="32px" viewBox="0 0 32 32" version="1.1" xmlns="http://www.w3.org/2000/svg" xmlns:xlink="http://www.w3.org/1999/xlink">
    <!-- Generator: Sketch 52.4 (67378) - http://www.bohemiancoding.com/sketch -->
    <title>冲减记录</title>
    <desc>Created with Sketch.</desc>
    <g id="Page-1" stroke="none" stroke-width="1" fill="none" fill-rule="evenodd">
        <g id="补充的icon" transform="translate(-164.000000, -683.000000)" fill-rule="nonzero">
            <g id="冲减记录" transform="translate(164.000000, 683.000000)">
                <path d="M23.9107565,22.0713788 C23.8462404,22.0837929 23.7793216,22.09 23.71,22.09 L19.29,22.09 C19.09,22.09 18.9066667,22.0383333 18.74,21.935 C18.5733333,21.8316667 18.49,21.6766667 18.49,21.47 C18.49,21.27 18.5733333,21.1216667 18.74,21.025 C18.9066667,20.9283333 19.09,20.88 19.29,20.88 L23.71,20.88 C23.7793216,20.88 23.8462404,20.8858066 23.9107565,20.8974199 C23.8462404,20.8858066 23.7793216,20.88 23.71,20.88 L19.29,20.88 C19.09,20.88 18.9066667,20.9283333 18.74,21.025 C18.5733333,21.1216667 18.49,21.27 18.49,21.47 C18.49,21.6766667 18.5733333,21.8316667 18.74,21.935 C18.9066667,22.0383333 19.09,22.09 19.29,22.09 L23.71,22.09 C23.7793216,22.09 23.8462404,22.0837929 23.9107565,22.0713788 Z M18.3785562,24.7173097 C18.3571811,24.6967656 18.3359957,24.6759957 18.315,24.655 C17.9116667,24.2516667 17.5916667,23.7766667 17.355,23.23 C17.1183333,22.6833333 17,22.1 17,21.48 C17,21.1610815 17.03131,20.8523057 17.09393,20.5536726 L17.788964,20.5536726 C17.5945183,20.8100873 17.49,21.1259502 17.49,21.47 C17.49,22.0173669 17.7474503,22.4962245 18.2130603,22.7849027 C18.538808,22.9868662 18.9047665,23.09 19.29,23.09 L23.71,23.09 C23.7776014,23.09 23.844561,23.086821 23.9107565,23.0804762 L23.9107565,23.8845743 C23.9107765,24.3445024 23.5379693,24.7173097 23.0780411,24.7173097 L18.3785562,24.7173097 Z M17.0568194,24.7173097 L10.5871699,24.7173097 C10.1272617,24.7173097 9.75445449,24.3445024 9.75445449,23.8845943 L9.75445447,20.9700503 L8.08900365,20.9700503 L8.08900365,17.6391487 L9.75445447,17.6391487 L9.75445447,14.308247 L8.08900365,14.308247 L8.08900365,10.9773454 L9.75445447,10.9773454 L9.75445447,8.06280143 C9.75445447,7.60289324 10.1272617,7.23008602 10.5871699,7.23008602 L23.0780411,7.23008602 C23.5379493,7.23008602 23.9107565,7.60289326 23.9107565,8.06280143 L23.9107565,16.5689068 C23.8179901,16.5228256 23.723496,16.478957 23.6272933,16.4373083 C22.9538923,16.145775 22.2352834,16 21.48,16 C21.4574962,16 21.4350262,16.0001294 21.4125903,16.0003883 L21.4125903,15.5573401 L12.2526207,15.5573401 L12.2526207,16.3900555 L19.449846,16.3900555 C19.4116343,16.4056362 19.3735708,16.4216838 19.335657,16.4381984 C18.6786156,16.7243944 18.1006648,17.1151216 17.6078932,17.6078932 C17.1151216,18.1006648 16.7243944,18.6786156 16.4381984,19.335657 C16.3829755,19.4624363 16.3329744,19.5908892 16.2881938,19.7209572 L12.2526207,19.7209572 L12.2526207,20.5536726 L16.076398,20.5536726 C16.0254613,20.8553688 16,21.1643552 16,21.48 C16,22.2352834 16.145775,22.9538923 16.4373083,23.6272933 C16.6070872,24.0194587 16.8137549,24.3832339 17.0568194,24.7173097 Z M23.9107565,17.7163004 L23.9107565,19.889193 C23.8445514,19.8830647 23.7775946,19.88 23.71,19.88 L21.4125903,19.88 L21.4125903,19.7209572 L17.3611422,19.7209572 C17.5971927,19.1835071 17.9151453,18.7148547 18.315,18.315 C18.7183333,17.9116667 19.1916667,17.5916667 19.735,17.355 C20.2783333,17.1183333 20.86,17 21.48,17 C22.1,17 22.6833333,17.1183333 23.23,17.355 C23.4708274,17.4592607 23.6977463,17.5796941 23.9107565,17.7163004 Z M19.0817086,11.3937031 L12.2526207,11.3937031 L12.2526207,12.2264385 L19.0817086,12.2264385 L19.0817086,11.3937031 Z" id="合并形状" fill="#6D8290"></path>
                <path d="M21.48,17 C22.1,17 22.6833333,17.1183333 23.23,17.355 C23.7766667,17.5916667 24.2516667,17.9116667 24.655,18.315 C25.0583333,18.7183333 25.3783333,19.1916667 25.615,19.735 C25.8516667,20.2783333 25.97,20.86 25.97,21.48 C25.97,22.1 25.8516667,22.6833333 25.615,23.23 C25.3783333,23.7766667 25.0583333,24.2516667 24.655,24.655 C24.2516667,25.0583333 23.7766667,25.3783333 23.23,25.615 C22.6833333,25.8516667 22.1,25.97 21.48,25.97 C20.86,25.97 20.2783333,25.8516667 19.735,25.615 C19.1916667,25.3783333 18.7183333,25.0583333 18.315,24.655 C17.9116667,24.2516667 17.5916667,23.7766667 17.355,23.23 C17.1183333,22.6833333 17,22.1 17,21.48 C17,20.86 17.1183333,20.2783333 17.355,19.735 C17.5916667,19.1916667 17.9116667,18.7183333 18.315,18.315 C18.7183333,17.9116667 19.1916667,17.5916667 19.735,17.355 C20.2783333,17.1183333 20.86,17 21.48,17 Z M23.71,22.09 C23.91,22.09 24.09,22.0383333 24.25,21.935 C24.41,21.8316667 24.49,21.6766667 24.49,21.47 C24.49,21.27 24.41,21.1216667 24.25,21.025 C24.09,20.9283333 23.91,20.88 23.71,20.88 L19.29,20.88 C19.09,20.88 18.9066667,20.9283333 18.74,21.025 C18.5733333,21.1216667 18.49,21.27 18.49,21.47 C18.49,21.6766667 18.5733333,21.8316667 18.74,21.935 C18.9066667,22.0383333 19.09,22.09 19.29,22.09 L23.71,22.09 Z" id="形状" fill="#8BC34A"></path>
            </g>
        </g>
    </g>
</svg>