<?xml version="1.0" encoding="UTF-8"?>
<svg width="32px" height="32px" viewBox="0 0 32 32" version="1.1" xmlns="http://www.w3.org/2000/svg" xmlns:xlink="http://www.w3.org/1999/xlink">
    <!-- Generator: Sketch 52.4 (67378) - http://www.bohemiancoding.com/sketch -->
    <title>净需求生成</title>
    <desc>Created with Sketch.</desc>
    <defs>
        <path d="M18.7307692,4 C19,4 19.2307692,4.23076923 19.2307692,4.5 L19.2307692,18.7307692 C19.2307692,19 19,19.2307692 18.7307692,19.2307692 L1.26923077,19.2307692 C1,19.2307692 0.769230769,19 0.769230769,18.7692308 L0.769230769,1.26923077 C0.769230769,1 1,0.769230769 1.26923077,0.769230769 L5.53846154,0.769230769 C5.80769231,0.769230769 6.03846154,1 6.03846154,1.26923077 L6.03846154,3.5 C6.03846154,3.76923077 6.26923077,4 6.53846154,4 L18.7307692,4 Z M7.26923077,6.76923077 C6.99308839,6.76923077 6.76923077,6.99308839 6.76923077,7.26923077 C6.76923077,7.54537314 6.99308839,7.76923077 7.26923077,7.76923077 L16.9713725,7.76923077 C17.2475149,7.76923077 17.4713725,7.54537314 17.4713725,7.26923077 C17.4713725,6.99308839 17.2475149,6.76923077 16.9713725,6.76923077 L7.26923077,6.76923077 Z M3.26923077,6.76923077 C2.99308839,6.76923077 2.76923077,6.99308839 2.76923077,7.26923077 C2.76923077,7.54537314 2.99308839,7.76923077 3.26923077,7.76923077 L5.1546818,7.76923077 C5.43082418,7.76923077 5.6546818,7.54537314 5.6546818,7.26923077 C5.6546818,6.99308839 5.43082418,6.76923077 5.1546818,6.76923077 L3.26923077,6.76923077 Z M7.26923077,10.7692308 C6.99308839,10.7692308 6.76923077,10.9930884 6.76923077,11.2692308 C6.76923077,11.5453731 6.99308839,11.7692308 7.26923077,11.7692308 L16.9713725,11.7692308 C17.2475149,11.7692308 17.4713725,11.5453731 17.4713725,11.2692308 C17.4713725,10.9930884 17.2475149,10.7692308 16.9713725,10.7692308 L7.26923077,10.7692308 Z M3.26923077,10.7692308 C2.99308839,10.7692308 2.76923077,10.9930884 2.76923077,11.2692308 C2.76923077,11.5453731 2.99308839,11.7692308 3.26923077,11.7692308 L5.1546818,11.7692308 C5.43082418,11.7692308 5.6546818,11.5453731 5.6546818,11.2692308 C5.6546818,10.9930884 5.43082418,10.7692308 5.1546818,10.7692308 L3.26923077,10.7692308 Z M7.26923077,14.7692308 C6.99308839,14.7692308 6.76923077,14.9930884 6.76923077,15.2692308 C6.76923077,15.5453731 6.99308839,15.7692308 7.26923077,15.7692308 L16.9713725,15.7692308 C17.2475149,15.7692308 17.4713725,15.5453731 17.4713725,15.2692308 C17.4713725,14.9930884 17.2475149,14.7692308 16.9713725,14.7692308 L7.26923077,14.7692308 Z M3.26923077,14.7692308 C2.99308839,14.7692308 2.76923077,14.9930884 2.76923077,15.2692308 C2.76923077,15.5453731 2.99308839,15.7692308 3.26923077,15.7692308 L5.1546818,15.7692308 C5.43082418,15.7692308 5.6546818,15.5453731 5.6546818,15.2692308 C5.6546818,14.9930884 5.43082418,14.7692308 5.1546818,14.7692308 L3.26923077,14.7692308 Z" id="path-1"></path>
    </defs>
    <g id="Page-1" stroke="none" stroke-width="1" fill="none" fill-rule="evenodd">
        <g id="补充的icon" transform="translate(-164.000000, -795.000000)">
            <g id="批量释放--copy-2" transform="translate(164.000000, 795.000000)">
                <g id="icons/utility/tabset" transform="translate(6.000000, 6.000000)">
                    <mask id="mask-2" fill="white">
                        <use xlink:href="#path-1"></use>
                    </mask>
                    <use id="合并形状" fill="#6D8290" xlink:href="#path-1"></use>
                    <path d="M12.1538462,0.769230769 L7.84615385,0.769230769 C7.57692308,0.769230769 7.38461538,1 7.38461538,1.26923077 L7.38461538,2.23076923 C7.38461538,2.5 7.61538462,2.73076923 7.84615385,2.73076923 L12.1538462,2.73076923 C12.4230769,2.73076923 12.6153846,2.5 12.6153846,2.23076923 L12.6153846,1.26923077 C12.6538462,1 12.4230769,0.769230769 12.1538462,0.769230769 L12.1538462,0.769230769 Z" id="Path" fill="#8BC34A"></path>
                    <path d="M18.7307692,0.769230769 L14.4230769,0.769230769 C14.1538462,0.769230769 13.9230769,1 13.9230769,1.26923077 L13.9230769,2.23076923 C13.9230769,2.5 14.1538462,2.73076923 14.4230769,2.73076923 L18.7307692,2.73076923 C19,2.69230769 19.2307692,2.5 19.2307692,2.23076923 L19.2307692,1.26923077 C19.2307692,1 19,0.769230769 18.7307692,0.769230769 L18.7307692,0.769230769 Z" id="Path" fill="#8BC34A"></path>
                </g>
            </g>
        </g>
    </g>
</svg>