<svg t="1656920748163" class="icon" viewBox="0 0 1024 1024" version="1.1" xmlns="http://www.w3.org/2000/svg" p-id="1660" width="32" height="32"><path d="M798.20243073 337.83075762H366.14683819c-20.8568573 0-37.73063422-17.59797335-37.73063422-39.32386636s16.87377692-39.32386637 37.73063422-39.32386637h432.05559254c20.8568573 0 37.73063422 17.59797335 37.73063422 39.32386637s-16.87377692 39.32386637-37.73063422 39.32386636z m-1e-8 213.49310875H366.14683819c-20.8568573 0-37.73063422-17.59797335-37.73063422-39.32386637 0-21.72589302 16.87377692-39.32386637 37.73063422-39.32386637h432.05559254c20.8568573 0 37.73063422 17.59797335 37.73063422 39.32386637 0 21.72589302-16.87377692 39.32386637-37.73063422 39.32386636z m0 213.56552839H366.14683819c-20.8568573 0-37.73063422-17.59797335-37.73063422-39.32386637s16.87377692-39.32386637 37.73063422-39.32386636h432.05559254c20.8568573 0 37.73063422 17.59797335 37.73063422 39.32386637s-16.87377692 39.32386637-37.73063422 39.32386636zM187.70483684 298.50689126c0 27.01252699 21.00169658 48.88325931 47.00034857 48.88325928s47.00034857-21.87073231 47.00034857-48.88325928-21.00169658-48.88325931-47.00034857-48.88325931-47.00034857 21.87073231-47.00034857 48.88325931zM187.70483684 512c0 27.01252699 21.00169658 48.88325931 47.00034857 48.88325931S281.70553398 539.01252699 281.70553398 512s-21.00169658-48.88325931-47.00034857-48.88325931-47.00034857 21.87073231-47.00034857 48.88325931zM187.70483684 725.5655284c0 27.01252699 21.00169658 48.88325931 47.00034857 48.88325929s47.00034857-21.87073231 47.00034857-48.8832593-21.00169658-48.88325931-47.00034857-48.8832593-47.00034857 21.87073231-47.00034857 48.8832593z" fill="#6D8290" p-id="1661"></path></svg>