<?xml version="1.0" encoding="UTF-8"?>
<svg width="32px" height="32px" viewBox="0 0 32 32" version="1.1" xmlns="http://www.w3.org/2000/svg" xmlns:xlink="http://www.w3.org/1999/xlink">
    <!-- Generator: Sketch 52.4 (67378) - http://www.bohemiancoding.com/sketch -->
    <title>创建工单</title>
    <desc>Created with Sketch.</desc>
    <defs>
        <path d="M24.3142857,12.08125 C24.7,12.08125 25,12.3875 25,12.78125 L25,20.875 C25,21.96875 24.1,22.8875 22.9857143,22.8875 L13,22.8875 C11.8857143,22.8875 10.9857143,22.0125 10.9857143,20.875 L10.9857143,8.0125 C10.9857143,6.91875 11.8857143,6 13,6 L18.3142857,6 C18.7,6 19,6.30625 18.9571429,6.65625 L18.9571429,10.06875 C18.9571429,11.1625 19.8571429,12.08125 20.9714286,12.08125 L24.3142857,12.08125 Z M24.8714286,9.2375 C24.9571429,9.36875 25,9.45625 25,9.5875 C25,9.85 24.7857143,10.06875 24.5285714,10.06875 L22.3428571,10.06875 C21.6142857,10.06875 21.0142857,9.45625 21.0142857,8.7125 L21.0142857,6.48125 C21.0142857,6.21875 21.2285714,6 21.4857143,6 C21.6142857,6 21.7,6.04375 21.7857143,6.13125 L24.8714286,9.2375 Z M15,14 C14.4477153,14 14,14.4477153 14,15 C14,15.5522847 14.4477153,16 15,16 L21,16 C21.5522847,16 22,15.5522847 22,15 C22,14.4477153 21.5522847,14 21,14 L15,14 Z M15,18 C14.4477153,18 14,18.4477153 14,19 C14,19.5522847 14.4477153,20 15,20 L21,20 C21.5522847,20 22,19.5522847 22,19 C22,18.4477153 21.5522847,18 21,18 L15,18 Z" id="path-1"></path>
    </defs>
    <g id="Page-1" stroke="none" stroke-width="1" fill="none" fill-rule="evenodd">
        <g id="补充的icon" transform="translate(-406.000000, -683.000000)">
            <g id="创建工单" transform="translate(406.000000, 683.000000)">
                <mask id="mask-2" fill="white">
                    <use xlink:href="#path-1"></use>
                </mask>
                <use id="合并形状" fill="#6D8290" xlink:href="#path-1"></use>
                <path d="M9.01428571,20.91875 L9.01428571,10.06875 C7.9,10.06875 7,10.9875 7,12.08125 L7,24.94375 C7,26.08125 7.9,27 9.01428571,27 L19,27 C20.1142857,27 21.0142857,26.08125 21.0142857,24.9875 L13,24.9875 C10.8142857,24.9875 9.01428571,24.9875 9.01428571,20.91875 L9.01428571,20.91875 Z" id="Path" fill="#8BC34A"></path>
            </g>
        </g>
    </g>
</svg>