<svg t="1655350901144" class="icon" style="width: 1em;height: 1em;vertical-align: middle;fill: currentColor;overflow: hidden;" viewBox="0 0 1024 1024" version="1.1" xmlns="http://www.w3.org/2000/svg" p-id="10170" data-spm-anchor-id="a313x.7781069.0.i28"><path d="M563.0219019 733.50226869c-0.61104074-1.22208149-1.52760185-2.1386426-2.74968335-2.44416297-1.22208149-0.30552037-2.74968334-0.30552037-3.66624445 0.30552036l-51.938463 30.2465167-214.16977979-123.73575009 30.55203707-18.33122223c0.30552037 0 0.61104074-0.30552037 0.91656111-0.61104076l0.30552037-0.30552035 1.22208147-0.61104074c9.16561111-6.72144816 11.60977409-19.24778335 5.80488705-28.41339448-2.74968334-4.88832593-7.63800925-8.55457038-13.13737593-10.08217223-5.80488704-1.52760185-11.60977409-0.61104074-16.80362039 2.44416296L235.80958498 619.54317046c-4.88832593 2.74968334-8.55457038 7.63800925-10.08217223 13.13737593-1.52760185 5.49936668-0.61104074 11.60977409 2.13864259 16.19257964 0.91656112 1.83312222 2.44416295 3.66624444 4.27728519 5.1938463 0.30552037 0.61104074 0.91656112 1.22208149 1.52760185 1.52760186L493.66877776 806.21611689c3.36072409 1.83312222 7.02696852 3.05520371 10.99873334 3.0552037 3.66624444 0 7.63800925-0.91656112 11.30425371-3.0552037l62.93719636-36.3569241c1.22208149-0.61104074 1.83312222-1.83312222 2.13864258-3.05520371 0.30552037-1.22208149 0-2.74968334-0.9165611-3.66624444-6.72144816-8.86009074-12.5263352-18.6367426-17.10914076-29.63547595zM585.93592969 587.76905191l-81.87945933 47.35565744-214.47530015-123.43022972 31.1630778-18.33122224 0.30552037-0.30552037c0.30552037 0 0.30552037-0.30552037 0.61104073-0.30552037h0.30552038c0.30552037 0 0.30552037-0.30552037 0.61104073-0.30552037 9.16561111-6.41592779 11.91529446-19.24778335 6.11040741-28.41339447-2.74968334-4.88832593-7.63800925-8.55457038-13.13737593-10.08217224-5.80488704-1.52760185-11.60977409-0.61104074-16.80362037 2.44416298l-15.27601854 9.16561112-48.57773893 27.49683336c-10.38769261 6.11040741-14.05393705 19.24778335-7.94352963 29.63547594l0.30552037 0.30552037c1.83312222 2.44416295 3.36072409 4.27728519 5.1938463 5.80488704 0.30552037 0 0.30552037 0.30552037 0.61104075 0.30552038l260.30335574 150.31602232c3.36072409 1.83312222 7.02696852 3.05520371 10.99873336 3.05520371 3.66624444 0 7.63800925-0.91656112 10.99873334-3.05520371l40.32868892-23.52506852c0.91656112-0.61104074 1.83312222-1.52760185 2.13864258-2.74968334 5.80488704-21.69194631 17.7201815-41.85629077 34.21828152-58.35439079 1.52760185-1.52760185 1.83312222-4.27728519 0.30552036-6.11040741-1.83312222-1.52760185-4.58280556-1.83312222-6.41592778-0.91656111zM772.9143965 493.05773702l-37.57900559-21.69194631-25.35819077-14.97049814c-10.38769261-5.80488704-23.8305889-2.44416295-29.94099631 7.63800924-4.88832593 9.16561111-3.05520371 20.46986483 4.58280555 26.88579262 0.30552037 0.61104074 0.91656112 0.91656112 1.52760186 1.52760185l32.69067965 18.94226299-76.68561302 43.99493335c-2.1386426 1.22208149-2.74968334 3.66624444-1.83312222 5.80488704 0.61104074 1.83312222 2.44416295 2.74968334 4.27728519 2.74968335 0.30552037 0 0.91656112 0 1.22208147-0.30552038 10.99873334-3.05520371 21.99746668-4.58280556 33.60724077-4.58280555s22.9140278 1.52760185 33.30172041 4.58280555c1.22208149 0.30552037 2.44416295 0.30552037 3.66624444-0.30552037l56.82678894-32.69067966c4.88832593-2.74968334 8.55457038-7.63800925 10.08217223-13.13737592 1.52760185-5.49936668 0.61104074-11.60977409-2.13864261-16.49810002-2.1386426-3.66624444-5.1938463-6.41592779-8.24905-7.94352964z" fill="#6D8290" p-id="10171" data-spm-anchor-id="a313x.7781069.0.i24" class=""></path><path d="M227.56053495 397.73538139l0.91656114 1.22208149c1.22208149 1.52760185 2.44416295 3.05520371 3.97176481 4.27728519 0.30552037 0 0.30552037 0.30552037 0.61104075 0.30552036l260.30335575 150.31602234c3.36072409 1.83312222 7.02696852 3.05520371 10.99873335 3.05520372 3.66624444 0 7.63800925-0.91656112 11.30425369-3.05520371l258.47023354-149.09394086c10.38769261-6.11040741 14.05393705-19.24778335 7.94352963-29.94099632-1.83312222-3.05520371-4.58280556-5.80488704-7.94352963-7.63800927L515.97176481 217.78388311c-7.3324889-3.97176481-16.19257964-3.66624444-22.60850741 0.61104074L235.19854423 367.48886473c-10.38769261 6.11040741-14.05393705 19.24778335-7.94352962 29.63547592 0 0.30552037 0.30552037 0.61104074 0.30552034 0.61104075z m61.71511488-11.60977408L504.6675111 261.47329611l214.16977979 124.04127047-214.78082053 124.6523112-214.78082053-124.04127047z" fill="#6D8290" p-id="10172" data-spm-anchor-id="a313x.7781069.0.i23" class=""></path><path d="M682.78588717 802.85539281c-62.02063523 0-112.73701675-50.41086114-112.73701675-112.73701674s50.41086114-112.73701675 112.73701675-112.73701677c62.02063523 0 112.73701675 50.41086114 112.73701674 112.73701677s-50.71638153 112.73701675-112.73701674 112.73701674z m0-194.61647606c-44.91149449 0-81.57393895 36.3569241-81.57393895 81.57393893 0 44.91149449 36.3569241 81.57393895 81.57393895 81.57393897 44.91149449 0 81.57393895-36.3569241 81.57393895-81.57393896-0.30552037-44.91149449-36.66244448-81.57393895-81.57393895-81.57393894z" fill="#8BC34A" p-id="10173" data-spm-anchor-id="a313x.7781069.0.i25" class=""></path><path d="M663.23258345 741.14027795h-0.61104074c-4.27728519-0.30552037-8.24905001-2.1386426-10.99873334-5.1938463l-28.41339446-31.77411854c-5.49936668-6.41592779-4.88832593-16.19257964 1.22208147-22.30298705 6.41592779-5.49936668 16.19257964-4.88832593 22.30298705 1.22208147l17.41466114 19.85882409 52.24398336-48.88325929c6.11040741-5.80488704 16.19257964-5.49936668 22.30298707 0.61104074 5.80488704 6.11040741 5.49936668 16.19257964-0.61104075 22.30298706l-63.54823709 60.187513c-3.36072409 2.44416295-7.02696852 3.97176481-11.30425371 3.97176482z" fill="#8BC34A" p-id="10174" data-spm-anchor-id="a313x.7781069.0.i26" class=""></path></svg>