<svg t="1658111855434" class="icon" viewBox="0 0 1025 1024" version="1.1" xmlns="http://www.w3.org/2000/svg" p-id="1752" width="32" height="32"><path d="M691.17369433 228.12065565c28.29818782 0 51.23831216 22.94012433 51.23831217 51.23831216L742.41327949 566.06819458c-13.2793156-4.69164719-27.56939445-7.24465179-42.4558745-7.24465178-70.34097332 0-127.3638045 56.99673464-127.36380449 127.30588293 0 46.7490722 25.21052258 87.61305828 62.78252666 109.74991862l-295.54958601-0.0031825c-28.29818782 0-51.23831216-22.94012433-51.23831215-51.23831216V279.3589678c0-28.29818782 22.94012433-51.23831216 51.23831215-51.23831215h351.34715318zM560.89089731 529.5578738H347.13738901c-10.50608173 0-19.02246208 8.51638033-19.02246206 19.02246206s8.51638033 19.02309857 19.02246206 19.02309859h213.75350829c10.50608173 0 19.02309857-8.51701683 19.02309858-19.02309859s-8.51638033-19.02246208-19.02309857-19.02246206z m122.97194916-102.43015975H347.13738901c-10.50608173 0-19.02246208 8.51638033-19.02246206 19.02246207s8.51638033 19.02309857 19.02246206 19.02309858h336.72545746c10.50608173 0 19.02246208-8.51638033 19.02246207-19.02309858 0-10.50544524-8.51638033-19.02246208-19.02246206-19.02246207z m-122.97194916-102.43015976H347.13738901c-10.50608173 0-19.02246208 8.51638033-19.02246206 19.02246209s8.51638033 19.02309857 19.02246206 19.02309856h213.75350829c10.50608173 0 19.02309857-8.51638033 19.02309858-19.02309856 0-10.50544524-8.51638033-19.02246208-19.02309857-19.02246209z" fill="#6D8290" p-id="1753"></path><path d="M700.08597816 576.28657798c60.63942857 0 109.79638319 49.15695463 109.79638318 109.79638319S760.72540671 795.87934435 700.08597816 795.87934435 590.28959496 746.72238972 590.28959496 686.08296117 639.4465496 576.28657798 700.08597816 576.28657798z m9.77983436 49.77436037c-4.25309815 0-7.70102285 3.44792468-7.70102284 7.70102285v57.63896392l-40.83152453 40.34078243-0.06237709 0.06174058c-2.91644654 2.94954458-2.8897135 7.70484186 0.05983108 10.62192488 2.99409963 2.9603651 7.81304698 2.96163809 10.80905611 0.00190951l43.2756875-42.75502987 0.06237707-0.06174057a7.4992521 7.4992521 0 0 0 2.08963205-6.38092024l-0.0006365-59.46826715c0-4.25246167-3.44792468-7.70038634-7.70102285-7.70038633z" fill="#8BC34A" p-id="1754"></path></svg>