<?xml version="1.0" encoding="UTF-8"?>
<svg width="32px" height="32px" viewBox="0 0 32 32" version="1.1" xmlns="http://www.w3.org/2000/svg" xmlns:xlink="http://www.w3.org/1999/xlink">
    <!-- Generator: Sketch 52.4 (67378) - http://www.bohemiancoding.com/sketch -->
    <title>取消订单</title>
    <desc>Created with Sketch.</desc>
    <g id="Page-1" stroke="none" stroke-width="1" fill="none" fill-rule="evenodd">
        <g id="补充的icon" transform="translate(-244.000000, -683.000000)">
            <g id="取消订单" transform="translate(244.000000, 683.000000)">
                <g id="取消订单-copy-10" transform="translate(8.000000, 7.000000)">
                    <path d="M16,9.20703249 C15.5231682,9.07216716 15.0200119,9 14.5,9 C11.4624339,9 9,11.4624339 9,14.5 C9,15.8296292 9.47181764,17.0490595 10.2571621,18 L2,18 C0.8954305,18 -3.41744293e-15,17.1045695 -3.55271368e-15,16 L-3.55271368e-15,2 C-3.68798443e-15,0.8954305 0.8954305,-2.19537415e-12 2,-2.19557705e-12 L14,-2.19557705e-12 C15.1045695,-2.19577996e-12 16,0.8954305 16,2 L16,9.20703249 Z M10.8780919,4.34586568 C10.8780919,4.04598217 10.6408918,3.79997426 10.3445812,3.8 L4.3335088,3.8 C4.03720525,3.8 3.8,4.04598964 3.8,4.34586568 C3.8,4.64575834 4.03718977,4.89176335 4.3335088,4.89176335 L10.3445986,4.89176335 C10.6409099,4.89176335 10.8780919,4.64576633 10.8780919,4.34586568 Z M10.8780919,8.34586568 C10.8780919,8.04600117 10.6408983,7.8 10.3445986,7.8 L4.3335088,7.8 C4.03720525,7.8 3.8,8.04598964 3.8,8.34586568 C3.8,8.64575834 4.03718977,8.89176335 4.3335088,8.89176335 L10.3445986,8.89176335 C10.6409099,8.89176335 10.8780919,8.64576633 10.8780919,8.34586568 Z M7.70578494,12.3458657 C7.70578494,12.045997 7.4686029,11.8 7.17229158,11.8 L4.3335088,11.8 C4.03720525,11.8 3.8,12.0459896 3.8,12.3458657 C3.8,12.6457583 4.03718977,12.8917633 4.3335088,12.8917633 L7.17229157,12.8917633 C7.46860288,12.8917633 7.70578494,12.6457663 7.70578494,12.3458657 Z" id="合并形状" fill="#6D8290"></path>
                    <path d="M13.885,15.09 L13.885,16.705 C13.885,16.905 13.9366667,17.085 14.04,17.245 C14.1433333,17.405 14.2983333,17.485 14.505,17.485 C14.705,17.485 14.8533333,17.405 14.95,17.245 C15.0466667,17.085 15.095,16.905 15.095,16.705 L15.095,15.09 L16.71,15.09 C16.91,15.09 17.09,15.0383333 17.25,14.935 C17.41,14.8316667 17.49,14.6766667 17.49,14.47 C17.49,14.27 17.41,14.1216667 17.25,14.025 C17.09,13.9283333 16.91,13.88 16.71,13.88 L15.095,13.88 L15.095,12.285 C15.095,12.085 15.0466667,11.9016667 14.95,11.735 C14.8533333,11.5683333 14.705,11.485 14.505,11.485 C14.2983333,11.485 14.1433333,11.5683333 14.04,11.735 C13.9366667,11.9016667 13.885,12.085 13.885,12.285 L13.885,13.88 L12.29,13.88 C12.09,13.88 11.9066667,13.9283333 11.74,14.025 C11.5733333,14.1216667 11.49,14.27 11.49,14.47 C11.49,14.6766667 11.5733333,14.8316667 11.74,14.935 C11.9066667,15.0383333 12.09,15.09 12.29,15.09 L13.885,15.09 Z M14.48,10 C15.1,10 15.6833333,10.1183333 16.23,10.355 C16.7766667,10.5916667 17.2516667,10.9116667 17.655,11.315 C18.0583333,11.7183333 18.3783333,12.1916667 18.615,12.735 C18.8516667,13.2783333 18.97,13.86 18.97,14.48 C18.97,15.1 18.8516667,15.6833333 18.615,16.23 C18.3783333,16.7766667 18.0583333,17.2516667 17.655,17.655 C17.2516667,18.0583333 16.7766667,18.3783333 16.23,18.615 C15.6833333,18.8516667 15.1,18.97 14.48,18.97 C13.86,18.97 13.2783333,18.8516667 12.735,18.615 C12.1916667,18.3783333 11.7183333,18.0583333 11.315,17.655 C10.9116667,17.2516667 10.5916667,16.7766667 10.355,16.23 C10.1183333,15.6833333 10,15.1 10,14.48 C10,13.86 10.1183333,13.2783333 10.355,12.735 C10.5916667,12.1916667 10.9116667,11.7183333 11.315,11.315 C11.7183333,10.9116667 12.1916667,10.5916667 12.735,10.355 C13.2783333,10.1183333 13.86,10 14.48,10 Z" id="形状" fill="#8BC34A" fill-rule="nonzero" transform="translate(14.485000, 14.485000) rotate(-315.000000) translate(-14.485000, -14.485000) "></path>
                </g>
            </g>
        </g>
    </g>
</svg>