<?xml version="1.0" encoding="UTF-8"?>
<svg width="16px" height="16px" viewBox="0 0 16 16" version="1.1" xmlns="http://www.w3.org/2000/svg" xmlns:xlink="http://www.w3.org/1999/xlink">
    <!-- Generator: Sketch 52.4 (67378) - http://www.bohemiancoding.com/sketch -->
    <title>取消订单 copy</title>
    <desc>Created with Sketch.</desc>
    <g id="Page-1" stroke="none" stroke-width="1" fill="none" fill-rule="evenodd">
        <g id="取消订单-copy" fill="#FE5723">
            <rect id="矩形" stroke="#979797" opacity="0" x="0" y="0" width="16" height="16"></rect>
            <path d="M13.9145083,10.6262104 C14.0284792,10.7443955 14.0284792,10.9360264 13.9145218,11.0542115 L10.1953502,14.9113611 C10.0813927,15.0295463 9.89661691,15.0295463 9.78264596,14.9113471 C9.66868851,14.7931759 9.66868851,14.6015311 9.78264596,14.4833599 L13.5018176,10.6262104 C13.6157885,10.5080112 13.8005508,10.5080112 13.9145083,10.6262104 Z M13.9145218,14.9113471 C13.8005643,15.0295463 13.6157885,15.0295463 13.5018311,14.9113751 L9.78265946,11.0542256 C9.66870201,10.9360404 9.66870201,10.7443956 9.78267296,10.6262104 C9.89661691,10.5080252 10.0814062,10.5080252 10.1953502,10.6262104 L13.9145218,14.48336 C14.0284927,14.6015451 14.0284927,14.7931759 13.9145218,14.9113471 Z M10.9080433,4.40083438 C10.9080433,4.56800198 10.7773973,4.70349484 10.6162366,4.70349484 L5.35653307,4.70349484 C5.19535889,4.70349484 5.06471288,4.56798798 5.06471288,4.40083438 C5.06471288,4.23369477 5.19537239,4.09820191 5.35653307,4.09820191 L10.6162366,4.09820191 C10.7773973,4.09818791 10.9080433,4.23369477 10.9080433,4.40083438 Z M10.9080433,7.7366249 C10.9080433,7.9037925 10.7773973,8.03928537 10.6162366,8.03928537 L5.35653307,8.03928537 C5.19535889,8.03928537 5.06471288,7.90377851 5.06471288,7.7366249 C5.06471288,7.5694853 5.19537239,7.43399244 5.35653307,7.43399244 L10.6162366,7.43399244 C10.7773973,7.43399244 10.9080433,7.5694993 10.9080433,7.7366249 Z M8.1322747,10.8617265 C8.1322747,11.0288941 8.00162868,11.164387 7.840468,11.164387 L5.35653307,11.164387 C5.19535889,11.164387 5.06471288,11.0288801 5.06471288,10.8617265 C5.06471288,10.6945869 5.19537239,10.5590941 5.35653307,10.5590941 L7.840468,10.5590941 C8.00164219,10.5590941 8.1322747,10.694601 8.1322747,10.8617265 Z M12.2785707,1 L3.72141914,1 C2.77222377,1 2,1.80087258 2,2.78528226 L2,13.2140316 C2,14.1984413 2.77222377,14.9993138 3.72141914,14.9993138 L8.40912109,14.9993138 C8.41537255,14.9997199 8.42165101,15 8.42799698,15 C8.59222263,15 8.72536653,14.8619166 8.72536653,14.6915983 C8.72536653,14.5272733 8.60143104,14.3930127 8.44523912,14.3837567 C8.44515811,14.3835607 8.44507709,14.3833787 8.44500959,14.3831966 L3.72141914,14.3831966 C3.09981094,14.3831966 2.59409099,13.8587149 2.59409099,13.2140456 L2.59409099,2.78529627 C2.59409099,2.14062696 3.09981095,1.61614525 3.72141914,1.61614525 L12.2785707,1.61614525 C12.9001789,1.61614525 13.4058989,2.14062697 13.4058989,2.78529627 L13.4058989,9.18411322 C13.4055073,9.19056859 13.4052508,9.19706598 13.4052508,9.20361938 C13.4052508,9.37393766 13.5383812,9.51202108 13.7026203,9.51202108 C13.866846,9.51202108 13.9999899,9.37393767 13.9999899,9.20361938 L13.9999899,2.78529629 C13.9999899,1.80088659 13.2277661,1 12.2785707,1 Z" id="形状" stroke="#FE5723" stroke-width="0.4" fill-rule="nonzero"></path>
        </g>
    </g>
</svg>