<svg t="1659509726456" class="icon" viewBox="0 0 1024 1024" version="1.1" xmlns="http://www.w3.org/2000/svg" p-id="1208" width="32" height="32"><path d="M461.30624991 743.74285896H323.70892729c-21.72589282 0-43.45178625-18.10491056-43.45178625-43.45178625V323.70892729c0-25.34687504 21.72589282-47.0727685 43.45178626-47.0727685h307.78348411c21.72589282 0 43.45178625 21.72589282 43.45178625 43.45178626v162.94419766c0 10.86294671 14.48392898 21.72589282 25.34687505 21.7258928s28.96785729-7.24196448 28.96785729-21.7258928V312.84598058C729.25893 262.15223047 689.42812662 222.32142646 645.97634036 222.32142646H305.60401609C258.53124824 222.32142646 222.32142646 262.15223047 222.32142646 312.84598058v401.92902109C222.32142646 761.84776953 258.53124824 801.67857354 305.60401609 801.67857354h152.08125157c10.86294671 0 21.72589282-18.10491056 21.72589281-28.96785729 3.62098223-14.48392898-7.24196448-28.96785729-18.10491056-28.96785729z" fill="#6D8290" p-id="1209"></path><path d="M595.28258963 367.16071291H356.29776683c-14.48392898 0-25.34687504 10.86294671-25.34687505 28.96785793s10.86294671 28.96785729 25.34687504 28.96785729h242.60580505c14.48392898 0 25.34687504-10.86294671 25.34687569-28.96785729s-14.48392898-28.96785729-28.96785793-28.96785793zM475.79017824 519.24196448c0-14.48392898-3.62098223-28.96785729-10.86294674-28.9678573H341.81383787c-7.24196448 3.62098223-10.86294671 14.48392898-10.86294609 28.9678573s3.62098223 28.96785729 10.86294609 28.96785728h119.49241204c10.86294671 0 14.48392898-14.48392898 14.48392833-28.96785727zM363.53973132 617.00848308c-18.10491056 0-32.58883953 10.86294671-32.58883954 28.96785728 0 14.48392898 14.48392898 28.96785729 32.58883954 28.9678573h79.66160738c18.10491056 0 32.58883953-10.86294671 32.58883954-28.9678573 0-14.48392898-14.48392898-28.96785729-32.58883954-28.96785729H363.53973132zM772.71071625 729.25893c10.86294671 10.86294671 10.86294671 32.58883953-1e-8 43.45178624s-28.96785729 10.86294671-43.45178624 0l-72.41964291-72.41964353-72.41964354 72.41964353c-7.24196448 7.24196448-14.48392898 7.24196448-21.72589346 7.2419645-7.24196448 0-14.48392898-3.62098223-21.7258928-7.2419645-7.24196448-7.24196448-7.24196448-14.48392898-7.24196447-21.7258928 0-7.24196448 3.62098223-14.48392898 7.24196447-21.72589344l72.41964354-72.41964291-72.41964354-72.41964354c-10.86294671-10.86294671-10.86294671-32.58883953 0-43.45178626 10.86294671-10.86294671 28.96785729-10.86294671 43.45178626 0l72.41964354 72.41964354 72.41964291-72.41964354c10.86294671-10.86294671 32.58883953-10.86294671 43.45178625 0 10.86294671 10.86294671 10.86294671 32.58883953 0 43.45178626l-72.41964355 72.41964354 72.41964355 72.41964291z" fill="#8BC34A" p-id="1210"></path></svg>