<svg t="1655351379211" class="icon" style="width: 1em;height: 1em;vertical-align: middle;fill: currentColor;overflow: hidden;" viewBox="0 0 1024 1024" version="1.1" xmlns="http://www.w3.org/2000/svg" p-id="10533"><path d="M755.15490723 373.07788086L616.23278809 512H720.46557617c0 114.94445801-93.4387207 208.38317872-208.38317871 208.38317872-35.10131836 0-68.47229004-8.6517334-97.2290039-24.30725099L364.01416016 746.83276367c42.76428223 27.10876465 93.4387207 43.09387208 147.98583984 43.09387208 153.50646973 0 277.92663575-124.33776856 277.92663575-277.92663575h104.23278808L755.15490723 373.07788086zM303.61682128 512c0-114.94445801 93.4387207-208.38317872 208.38317872-208.38317872 35.10131836 0 68.47229004 8.6517334 97.22900391 24.30725099l50.75683593-50.75683594c-42.76428223-27.10876465-93.4387207-43.09387208-147.98583984-43.09387208-153.50646973 0-277.92663575 124.33776856-277.92663575 277.92663575H129.92297363l138.92211915 138.92211914L407.76721191 512H303.61682128z" p-id="10534" fill="#6D8290" opacity="0.297433036"></path></svg>