<svg t="1653370804736" class="icon" viewBox="0 0 1024 1024" version="1.1" xmlns="http://www.w3.org/2000/svg" p-id="897" width="32" height="32"><path d="M729.74691413 491.69562537H409.20512531V364.33182088c0-55.56651741 45.19155482-100.75807222 100.75807222-100.75807223 55.56651741 0 100.75807222 45.19155482 100.75807223 100.75807222 0 19.09502317 15.46696877 34.625642 34.62564198 34.62564201s34.625642-15.46696877 34.62564202-34.625642c0-93.75656374-76.25279249-170.00935623-170.00935623-170.00935623s-169.94570615 76.31644257-169.94570615 170.00935623v127.3638045h-49.77436038c-19.03137309 0-34.625642 15.59426891-34.625642 34.62564199v269.36712675c0 19.03137309 15.59426891 34.625642 34.625642 34.625642h439.50378313c19.03137309 0 34.625642-15.59426891 34.625642-34.625642V526.25761729c0-19.03137309-15.59426891-34.56199193-34.62564199-34.56199192zM538.60573228 656.74027557v64.92307876c0 15.46696877-12.66636537 28.13333412-28.13333414 28.13333413H509.45399691c-15.46696877 0-28.13333412-12.66636537-28.13333412-28.13333413v-64.92307876c-13.55746644-9.16561112-22.46847727-24.69622995-22.46847727-42.32730135 0-28.26063428 22.9140278-51.11101201 51.11101201-51.11101199 28.26063428 0 51.11101201 22.9140278 51.111012 51.111012 0.06365008 17.56742131-8.84736074 33.09804015-22.46847725 42.32730134z m-1e-8 0" fill="#6D8290" p-id="898"></path></svg>