<?xml version="1.0" encoding="UTF-8"?>
<svg width="32px" height="32px" viewBox="0 0 32 32" version="1.1" xmlns="http://www.w3.org/2000/svg" xmlns:xlink="http://www.w3.org/1999/xlink">
    <!-- Generator: Sketch 52.4 (67378) - http://www.bohemiancoding.com/sketch -->
    <title>基础icon-导入</title>
    <desc>Created with Sketch.</desc>
    <defs>
        <path d="M3.31318681,1.34615385 L3.31318681,6.15384615 L0.583516484,6.15384615 C0.187912088,6.15384615 -0.00989010989,6.5 0.227472527,6.69230769 L4.18351648,11.4230769 C4.34175824,11.5384615 4.57912088,11.5384615 4.73736264,11.4230769 L8.69340659,6.69230769 C8.93076923,6.46153846 8.73296703,6.15384615 8.33736264,6.15384615 L5.68681319,6.15384615 L5.68681319,1.34615385 C5.68681319,1.03846154 5.40989011,0.769230769 5.09340659,0.769230769 L3.90659341,0.769230769 C3.59010989,0.769230769 3.31318681,1.03846154 3.31318681,1.34615385 L3.31318681,1.34615385 Z" id="path-1"></path>
    </defs>
    <g id="Page-1" stroke="none" stroke-width="1" fill="none" fill-rule="evenodd">
        <g id="补充的icon" transform="translate(-617.000000, -55.000000)">
            <g id="基础icon-导入" transform="translate(617.000000, 55.000000)">
                <g id="分组-13" transform="translate(7.000000, 6.000000)">
                    <g id="icons/utility/package" transform="translate(4.500000, 0.000000)">
                        <mask id="mask-2" fill="white">
                            <use xlink:href="#path-1"></use>
                        </mask>
                        <use id="Mask" fill="#8BC34A" xlink:href="#path-1"></use>
                    </g>
                    <path d="M16.2791209,9.23076923 L13.1538462,9.23076923 L11.8483516,10.7692308 L16.1208791,10.7692308 L16.1208791,13.0769231 L1.87912088,13.0769231 L1.87912088,10.7692308 L6.11208791,10.7692308 L4.80659341,9.23076923 L1.72087912,9.23076923 C0.92967033,9.23076923 0.296703297,9.84615385 0.296703297,10.6153846 L0.296703297,18.0769231 C0.296703297,18.7307692 0.810989011,19.2307692 1.48351648,19.2307692 L16.5164835,19.2307692 C17.189011,19.2307692 17.7032967,18.7307692 17.7032967,18.0769231 L17.7032967,10.6153846 C17.7032967,9.84615385 17.0703297,9.23076923 16.2791209,9.23076923 Z" id="Path" fill="#6D8290"></path>
                </g>
            </g>
        </g>
    </g>
</svg>