<?xml version="1.0" encoding="UTF-8"?>
<svg width="32px" height="32px" viewBox="0 0 32 32" version="1.1" xmlns="http://www.w3.org/2000/svg" xmlns:xlink="http://www.w3.org/1999/xlink">
    <!-- Generator: Sketch 52.4 (67378) - http://www.bohemiancoding.com/sketch -->
    <title>基础icon-查询</title>
    <desc>Created with Sketch.</desc>
    <defs>
        <path d="M10,7.34615385 C7.23076923,7.34615385 5,9.57692308 5,12.3461538 C5,13.1923077 5.23076923,14.0384615 5.61538462,14.7307692 L2.88461538,17.4615385 C2.65384615,17.6923077 2.65384615,18.0384615 2.88461538,18.2692308 L3.69230769,19.0769231 C3.92307692,19.3076923 4.26923077,19.3076923 4.5,19.0769231 L7.15384615,16.4230769 C7.96153846,17 8.96153846,17.3461538 10,17.3461538 C12.7692308,17.3461538 15,15.1153846 15,12.3461538 C15,9.57692308 12.7692308,7.34615385 10,7.34615385 L10,7.34615385 Z M10,15.0384615 C8.5,15.0384615 7.30769231,13.8461538 7.30769231,12.3461538 C7.30769231,10.8461538 8.5,9.65384615 10,9.65384615 C11.5,9.65384615 12.6923077,10.8461538 12.6923077,12.3461538 C12.6923077,13.8461538 11.5,15.0384615 10,15.0384615 Z" id="path-1"></path>
    </defs>
    <g id="Page-1" stroke="none" stroke-width="1" fill="none" fill-rule="evenodd">
        <g id="补充的icon" transform="translate(-793.000000, -55.000000)">
            <g id="基础icon-查询" transform="translate(793.000000, 55.000000)">
                <g id="icons/utility/cases" transform="translate(6.000000, 6.000000)">
                    <mask id="mask-2" fill="white">
                        <use xlink:href="#path-1"></use>
                    </mask>
                    <use id="Mask" fill="#8BC34A" xlink:href="#path-1"></use>
                    <path d="M3.46153846,1.34615385 C3.46153846,1.03846154 3.19230769,0.769230769 2.88461538,0.769230769 L1.34615385,0.769230769 C1.03846154,0.769230769 0.769230769,1.03846154 0.769230769,1.34615385 L0.769230769,13.2692308 C0.769230769,13.5769231 1.03846154,13.8461538 1.34615385,13.8461538 L2.88461538,13.8461538 C3.19230769,13.8461538 3.46153846,13.5769231 3.46153846,13.2692308 L3.46153846,1.34615385 Z" id="Path" fill="#6D8290"></path>
                    <path d="M19.2307692,1.34615385 C19.2307692,1.03846154 18.9615385,0.769230769 18.6538462,0.769230769 L17.1153846,0.769230769 C16.8076923,0.769230769 16.5384615,1.03846154 16.5384615,1.34615385 L16.5384615,13.2692308 C16.5384615,13.5769231 16.8076923,13.8461538 17.1153846,13.8461538 L18.6538462,13.8461538 C18.9615385,13.8461538 19.2307692,13.5769231 19.2307692,13.2692308 L19.2307692,1.34615385 Z" id="Path" fill="#6D8290"></path>
                    <path d="M14.4230769,0.769230769 L13.2692308,0.769230769 C12.9615385,0.769230769 12.6923077,1.07692308 12.6923077,1.38461538 L12.6923077,6.15384615 C12.6923077,6.30769231 12.7692308,6.42307692 12.9230769,6.5 C13.5769231,6.84615385 14.1538462,7.26923077 14.6538462,7.76923077 C14.7692308,7.88461538 15,7.80769231 15,7.65384615 L15,1.38461538 C15,1.07692308 14.7307692,0.769230769 14.4230769,0.769230769 L14.4230769,0.769230769 Z" id="Path" fill="#6D8290"></path>
                    <path d="M9.26923077,5.84615385 C9.5,5.80769231 9.76923077,5.80769231 10,5.80769231 C10.2307692,5.80769231 10.5,5.80769231 10.7307692,5.84615385 C10.9615385,5.88461538 11.1538462,5.69230769 11.1538462,5.46153846 L11.1538462,1.38461538 C11.1538462,1.07692308 10.8846154,0.769230769 10.5769231,0.769230769 L9.42307692,0.769230769 C9.11538462,0.769230769 8.84615385,1.07692308 8.84615385,1.38461538 L8.84615385,5.46153846 C8.84615385,5.69230769 9.03846154,5.88461538 9.26923077,5.84615385 Z" id="Path" fill="#6D8290"></path>
                    <path d="M5.34615385,7.76923077 C5.84615385,7.23076923 6.46153846,6.80769231 7.11538462,6.5 C7.23076923,6.42307692 7.30769231,6.30769231 7.30769231,6.15384615 L7.30769231,1.38461538 C7.30769231,1.07692308 7.03846154,0.769230769 6.73076923,0.769230769 L5.57692308,0.769230769 C5.26923077,0.769230769 5,1.07692308 5,1.38461538 L5,7.65384615 C5,7.80769231 5.19230769,7.88461538 5.34615385,7.76923077 L5.34615385,7.76923077 Z" id="Path" fill="#6D8290"></path>
                </g>
            </g>
        </g>
    </g>
</svg>