<?xml version="1.0" encoding="UTF-8"?>
<svg width="32px" height="32px" viewBox="0 0 32 32" version="1.1" xmlns="http://www.w3.org/2000/svg" xmlns:xlink="http://www.w3.org/1999/xlink">
    <!-- Generator: Sketch 52.4 (67378) - http://www.bohemiancoding.com/sketch -->
    <title>基础icon-导出@1x</title>
    <desc>Created with Sketch.</desc>
    <defs>
        <path d="M10.1076923,10.9326923 L10.1076923,6.125 L12.8373626,6.125 C13.232967,6.125 13.4307692,5.77884615 13.1934066,5.58653846 L9.23736264,0.855769231 C9.07912088,0.740384615 8.84175824,0.740384615 8.68351648,0.855769231 L4.72747253,5.58653846 C4.49010989,5.81730769 4.68791209,6.125 5.08351648,6.125 L7.73406593,6.125 L7.73406593,10.9326923 C7.73406593,11.2403846 8.01098901,11.5096154 8.32747253,11.5096154 L9.51428571,11.5096154 C9.83076923,11.5096154 10.1076923,11.2403846 10.1076923,10.9326923 L10.1076923,10.9326923 Z" id="path-1"></path>
    </defs>
    <g id="Page-1" stroke="none" stroke-width="1" fill="none" fill-rule="evenodd">
        <g id="补充的icon" transform="translate(-527.000000, -55.000000)">
            <g id="分组-19-copy-2" transform="translate(527.000000, 55.000000)">
                <g id="基础icon-导出">
                    <g id="分组-12" transform="translate(7.000000, 6.000000)">
                        <mask id="mask-2" fill="white">
                            <use xlink:href="#path-1"></use>
                        </mask>
                        <use id="Mask" fill="#8BC34A" xlink:href="#path-1"></use>
                        <path d="M16.2791209,9.23076923 L13.1538462,9.23076923 L11.8483516,10.7692308 L16.1208791,10.7692308 L16.1208791,13.0769231 L1.87912088,13.0769231 L1.87912088,10.7692308 L6.11208791,10.7692308 L4.80659341,9.23076923 L1.72087912,9.23076923 C0.92967033,9.23076923 0.296703297,9.84615385 0.296703297,10.6153846 L0.296703297,18.0769231 C0.296703297,18.7307692 0.810989011,19.2307692 1.48351648,19.2307692 L16.5164835,19.2307692 C17.189011,19.2307692 17.7032967,18.7307692 17.7032967,18.0769231 L17.7032967,10.6153846 C17.7032967,9.84615385 17.0703297,9.23076923 16.2791209,9.23076923 Z" id="Path" fill="#6D8290"></path>
                    </g>
                </g>
            </g>
        </g>
    </g>
</svg>