<?xml version="1.0" encoding="UTF-8"?>
<svg width="32px" height="32px" viewBox="0 0 32 32" version="1.1" xmlns="http://www.w3.org/2000/svg" xmlns:xlink="http://www.w3.org/1999/xlink">
    <!-- Generator: Sketch 52.4 (67378) - http://www.bohemiancoding.com/sketch -->
    <title>基础icon-删除</title>
    <desc>Created with Sketch.</desc>
    <defs>
        <path d="M9,0.331103679 C4.19598662,0.331103679 0.331103679,4.19598662 0.331103679,9 C0.331103679,13.8040134 4.19598662,17.6688963 9,17.6688963 C13.8040134,17.6688963 17.6688963,13.8040134 17.6688963,9 C17.6688963,4.19598662 13.8040134,0.331103679 9,0.331103679 Z M10.7698997,9.28896321 L13.587291,12.1063545 C13.7317726,12.2508361 13.7317726,12.4675585 13.587291,12.6120401 L12.5759197,13.6234114 C12.4314381,13.767893 12.2147157,13.767893 12.0702341,13.6234114 L9.25284281,10.8060201 C9.1083612,10.6615385 8.8916388,10.6615385 8.74715719,10.8060201 L5.92976589,13.6234114 C5.78528428,13.767893 5.56856187,13.767893 5.42408027,13.6234114 L4.41270903,12.6120401 C4.26822742,12.4675585 4.26822742,12.2508361 4.41270903,12.1063545 L7.23010033,9.28896321 C7.37458194,9.14448161 7.37458194,8.9277592 7.23010033,8.78327759 L4.37658863,5.92976589 C4.23210702,5.78528428 4.23210702,5.56856187 4.37658863,5.42408027 L5.38795987,4.41270903 C5.53244147,4.26822742 5.74916388,4.26822742 5.89364548,4.41270903 L8.74715719,7.26622074 C8.8916388,7.41070234 9.1083612,7.41070234 9.25284281,7.26622074 L12.0702341,4.44882943 C12.2147157,4.30434783 12.4314381,4.30434783 12.5759197,4.44882943 L13.587291,5.46020067 C13.7317726,5.60468227 13.7317726,5.82140468 13.587291,5.96588629 L10.7698997,8.78327759 C10.6615385,8.9277592 10.6615385,9.14448161 10.7698997,9.28896321 L10.7698997,9.28896321 Z" id="path-1"></path>
    </defs>
    <g id="Page-1" stroke="none" stroke-width="1" fill="none" fill-rule="evenodd">
        <g id="补充的icon" transform="translate(-164.000000, -55.000000)">
            <g id="分组-24" transform="translate(164.000000, 55.000000)">
                <g id="基础icon-删除">
                    <g id="icons/utility/clear" transform="translate(7.000000, 7.000000)">
                        <mask id="mask-2" fill="white">
                            <use xlink:href="#path-1"></use>
                        </mask>
                        <use id="Mask" fill="#6D8290" xlink:href="#path-1"></use>
                    </g>
                </g>
            </g>
        </g>
    </g>
</svg>