<?xml version="1.0" encoding="UTF-8"?>
<svg width="32px" height="32px" viewBox="0 0 32 32" version="1.1" xmlns="http://www.w3.org/2000/svg" xmlns:xlink="http://www.w3.org/1999/xlink">
    <!-- Generator: Sketch 52.4 (67378) - http://www.bohemiancoding.com/sketch -->
    <title>基础icon-刷新</title>
    <desc>Created with Sketch.</desc>
    <defs>
        <path d="M17.1508015,0.296703297 L15.9639883,0.296703297 C15.6475048,0.296703297 15.3705818,0.573626374 15.3705818,0.89010989 L15.3705818,3.65934066 C15.3705818,4.01538462 15.1727796,4.17362637 14.8958565,3.93626374 C14.7771752,3.77802198 14.6584938,3.65934066 14.5002521,3.54065934 C12.5222301,1.56263736 9.75299933,0.731868132 6.90464769,1.28571429 C5.9156367,1.48351648 4.96618615,1.87912088 4.13541692,2.43296703 C1.7222301,4.01538462 0.337614719,6.58681319 0.298054279,9.35604396 C0.25849384,11.4923077 1.08926307,13.6285714 2.59255977,15.1714286 C4.17497736,16.832967 6.31124109,17.7428571 8.60574659,17.7428571 C10.623329,17.7428571 12.5222301,17.0307692 14.0255268,15.7648352 C14.3024499,15.5274725 14.3024499,15.1318681 14.0650872,14.8945055 L13.234318,14.0637363 C13.0365158,13.8659341 12.6804719,13.8263736 12.4431092,14.0241758 C11.0189334,15.210989 9.08047186,15.6857143 7.14201032,15.210989 C6.62772461,15.0923077 6.11343889,14.8549451 5.63871362,14.578022 C3.38376856,13.1934066 2.3156367,10.5824176 2.94860373,7.97142857 C3.06728505,7.45714286 3.30464769,6.94285714 3.58157076,6.46813187 C4.68926307,4.52967033 6.62772461,3.46153846 8.68486747,3.46153846 C10.267285,3.46153846 11.7705818,4.09450549 12.8782741,5.2021978 C13.0760763,5.36043956 13.234318,5.55824176 13.3529993,5.75604396 C13.4716807,6.07252747 13.1947576,6.23076923 12.8387136,6.23076923 L10.0694829,6.23076923 C9.75299933,6.23076923 9.47607626,6.50769231 9.47607626,6.82417582 L9.47607626,8.05054945 C9.47607626,8.36703297 9.71343889,8.6043956 10.0299224,8.6043956 L17.2694829,8.6043956 C17.5464059,8.6043956 17.7837686,8.36703297 17.7837686,8.09010989 L17.7837686,0.89010989 C17.7442081,0.573626374 17.467285,0.296703297 17.1508015,0.296703297 L17.1508015,0.296703297 Z" id="path-1"></path>
    </defs>
    <g id="Page-1" stroke="none" stroke-width="1" fill="none" fill-rule="evenodd">
        <g id="补充的icon" transform="translate(-337.000000, -55.000000)">
            <g id="分组-26" transform="translate(337.000000, 55.000000)">
                <g id="基础icon-刷新">
                    <g id="icons/utility/refresh-copy" transform="translate(7.000000, 7.000000)">
                        <mask id="mask-2" fill="white">
                            <use xlink:href="#path-1"></use>
                        </mask>
                        <use id="Mask" fill="#6D8290" xlink:href="#path-1"></use>
                    </g>
                </g>
            </g>
        </g>
    </g>
</svg>