<?xml version="1.0" encoding="UTF-8"?>
<svg width="32px" height="32px" viewBox="0 0 32 32" version="1.1" xmlns="http://www.w3.org/2000/svg" xmlns:xlink="http://www.w3.org/1999/xlink">
    <defs>
        <path d="M15.1314381,2.85050167 C11.7361204,-0.508695652 6.2458194,-0.508695652 2.85050167,2.85050167 C-0.508695652,6.2458194 -0.508695652,11.7361204 2.85050167,15.1314381 C6.2458194,18.5267559 11.7361204,18.5267559 15.0953177,15.1314381 C18.4906355,11.7361204 18.4906355,6.2458194 15.1314381,2.85050167 Z M14.7702341,9.71337793 C14.7702341,9.93010033 14.6257525,10.0745819 14.4090301,10.0745819 L10.435786,10.0745819 C10.2551839,10.0745819 10.0745819,10.2551839 10.0745819,10.435786 L10.0745819,14.4090301 C10.0745819,14.5896321 9.89397993,14.7702341 9.71337793,14.7702341 L8.26856187,14.7702341 C8.05183946,14.7702341 7.90735786,14.6257525 7.90735786,14.4090301 L7.90735786,10.435786 C7.90735786,10.2190635 7.76287625,10.0745819 7.54615385,10.0745819 L3.5729097,10.0745819 C3.35618729,10.0745819 3.21170569,9.93010033 3.21170569,9.71337793 L3.21170569,8.26856187 C3.21170569,8.08795987 3.39230769,7.90735786 3.5729097,7.90735786 L7.54615385,7.90735786 C7.76287625,7.90735786 7.90735786,7.76287625 7.90735786,7.54615385 L7.90735786,3.5729097 C7.90735786,3.39230769 8.08795987,3.21170569 8.26856187,3.21170569 L9.71337793,3.21170569 C9.89397993,3.21170569 10.0745819,3.35618729 10.0745819,3.5729097 L10.0745819,7.54615385 C10.0745819,7.76287625 10.2190635,7.90735786 10.435786,7.90735786 L14.4090301,7.90735786 C14.5896321,7.90735786 14.7702341,8.08795987 14.7702341,8.26856187 L14.7702341,9.71337793 Z" id="path-1"></path>
    </defs>
    <g id="Page-1" stroke="none" stroke-width="1">
        <g id="补充的icon" transform="translate(-75.000000, -55.000000)">
            <g id="基础icon-新增" transform="translate(75.000000, 55.000000)">
                <g id="icons/utility/new-copy" transform="translate(7.000000, 7.000000)">
                    <mask id="mask-2" fill="white">
                        <use xlink:href="#path-1"></use>
                    </mask>
                    <use id="Mask" fill="#6D8290" xlink:href="#path-1"></use>
                </g>
            </g>
        </g>
    </g>
</svg>
