<?xml version="1.0" encoding="UTF-8"?>
<svg width="18px" height="18px" viewBox="0 0 18 18" version="1.1" xmlns="http://www.w3.org/2000/svg"
     xmlns:xlink="http://www.w3.org/1999/xlink">
  <path
    d="M5.19557503,2.4408104 C4.95258199,2.79688713 4.82446784,3.21505848 4.82446784,3.65655756 C4.82446784,4.84570885 5.78194076,5.81319025 6.95887327,5.81319025 C7.66223702,5.81319025 8.32225164,5.45775212 8.71878834,4.87576069 L12.6205815,4.87576069 C12.675716,4.95735143 12.7367245,5.03574917 12.8034212,5.11065338 L12.8034212,8.46800731 L13.3601191,8.46800731 L13.3601191,9.75046956 L14.2878871,9.75046956 L14.2878871,10.7811725 L14.8455517,10.7811725 L14.8455517,9.75046956 L15.7733197,9.75046956 L15.7733197,8.46800731 L16.3300176,8.46800731 L16.3300176,4.59402469 L16.3019485,4.59402469 C16.4419223,4.30455035 16.5155712,3.98299567 16.5155712,3.65655756 C16.5155712,2.46740628 15.5580611,1.49996244 14.3811658,1.49996244 C13.6772816,1.49996244 13.0168208,1.85596404 12.6211392,2.437392 L8.7221715,2.437392 L8.7221715,0.563471989 L11.7833783,0.563471989 L11.7833783,0 L2.13440543,0 L2.13440543,0.563471989 L5.19557503,0.563471989 L5.19557503,2.4408104 L5.19557503,2.4408104 Z M15.2156551,9.18699757 L13.9177837,9.18699757 L13.9177837,8.46800731 L15.2156551,8.46800731 L15.2156551,9.18699757 L15.2156551,9.18699757 Z M15.7723159,7.90453532 L13.3610858,7.90453532 L13.3610858,7.12559165 L15.7723159,7.12559165 L15.7723159,7.90453532 L15.7723159,7.90453532 L15.7723159,7.90453532 Z M15.7723902,6.56208209 L13.3611229,6.56208209 L13.3611229,5.55324184 C13.6702922,5.72265909 14.0188325,5.81315269 14.381203,5.81315269 C14.9000541,5.81315269 15.3914681,5.62221081 15.7723902,5.2905512 L15.7723902,6.56208209 L15.7723902,6.56208209 Z M14.1023335,4.59402469 L14.6599981,4.59402469 L14.6599981,3.93829356 L15.308971,3.93829356 L15.308971,3.37482157 L14.6599981,3.37482157 L14.6599981,2.719128 L14.1023335,2.719128 L14.1023335,3.37482157 L13.4533978,3.37482157 L13.4533978,3.93829356 L14.1023335,3.93829356 L14.1023335,4.59402469 L14.1023335,4.59402469 Z M13.0154081,2.86048434 C13.301899,2.36132328 13.8124595,2.06339686 14.3811658,2.06339686 C15.2506021,2.06339686 15.9579067,2.77806717 15.9579067,3.65652 C15.9579067,3.92755002 15.8894626,4.1935088 15.7600101,4.42569683 L15.7588204,4.42787559 C15.4819213,4.93481255 14.954036,5.24971826 14.3811658,5.24971826 C14.0019167,5.24971826 13.6433756,5.11632566 13.3610858,4.87429566 L13.3610858,4.84897699 L13.3317526,4.84897699 C13.3140189,4.83297438 13.2965082,4.81663369 13.2794065,4.79972953 C13.1756437,4.69492374 13.0870122,4.5784353 13.0144414,4.4510155 C12.8770329,4.21525882 12.8043878,3.94050988 12.8043878,3.65655756 C12.8043878,3.37260524 12.8770329,3.09789387 13.0154081,2.86048434 L13.0154081,2.86048434 Z M8.99312214,3.00086399 L12.3469169,3.00086399 C12.2810382,3.21036288 12.2467232,3.43154441 12.2467232,3.65655756 C12.2467232,3.88175853 12.2810753,4.10316546 12.3467682,4.3122887 L8.99312214,4.3122887 C9.05900091,4.10282738 9.0932787,3.88160827 9.0932787,3.65655756 C9.0932787,3.43146928 9.05900091,3.21028775 8.99312214,3.00086399 L8.99312214,3.00086399 Z M5.75323962,0.563471989 L8.16446974,0.563471989 L8.16446974,1.87955473 C7.81247186,1.63647292 7.39202994,1.49992487 6.95887327,1.49992487 C6.52567942,1.49992487 6.10508879,1.63654805 5.75323962,1.8794796 L5.75323962,0.563471989 L5.75323962,0.563471989 Z M6.68004098,4.59402469 L7.23770556,4.59402469 L7.23770556,3.93829356 L7.88667843,3.93829356 L7.88667843,3.37482157 L7.23770556,3.37482157 L7.23770556,2.719128 L6.68004098,2.719128 L6.68004098,3.37482157 L6.03110529,3.37482157 L6.03110529,3.93829356 L6.68004098,3.93829356 L6.68004098,4.59402469 L6.68004098,4.59402469 Z M5.69728727,2.70094663 C5.99444814,2.30174551 6.46608367,2.06339686 6.95891045,2.06339686 C7.45173723,2.06339686 7.92337276,2.30174551 8.22031056,2.70064611 C8.26410582,2.75962285 8.29548374,2.80755553 8.32214011,2.85597656 L8.32559763,2.86209962 C8.46304336,3.09781874 8.53565129,3.37253011 8.53565129,3.65652 C8.53565129,3.94050988 8.46300618,4.21525882 8.32559763,4.45097794 L8.32463101,4.45263079 C8.03814013,4.95171671 7.52757961,5.2496807 6.95891045,5.2496807 C6.08951136,5.2496807 5.3821696,4.53501039 5.3821696,3.65652 C5.3821696,3.3058526 5.49087702,2.97569557 5.69728727,2.70094663 L5.69728727,2.70094663 Z M15.7733197,13.8742205 L15.7733197,11.624352 L12.2467604,11.624352 L12.2467604,13.8742205 L10.5777446,13.8742205 L10.5777446,11.624352 L7.05118535,11.624352 L7.05118535,13.8742205 L5.3821696,13.8742205 L5.3821696,11.624352 L1.85557313,11.624352 L1.85557313,13.8742205 L0,13.8742205 L0,16.9682828 C0,17.5372017 0.458028511,18 1.02104667,18 L16.9789161,18 C17.5419715,18 18,17.5372017 18,16.9682828 L18,13.8742205 L15.7733197,13.8742205 L15.7733197,13.8742205 Z M12.804425,12.187824 L15.2156551,12.187824 L15.2156551,13.8742205 L12.804425,13.8742205 L12.804425,12.187824 L12.804425,12.187824 L12.804425,12.187824 Z M10.0200801,12.187824 L10.0200801,13.8742205 L7.60884993,13.8742205 L7.60884993,12.187824 L10.0200801,12.187824 L10.0200801,12.187824 Z M2.41323772,12.187824 L4.82446784,12.187824 L4.82446784,13.8742205 L2.41323772,13.8742205 L2.41323772,12.187824 L2.41323772,12.187824 Z M17.4422982,16.9682828 C17.4423726,17.2264657 17.2344752,17.436528 16.9789533,17.436528 L1.02104667,17.436528 C0.765524762,17.436528 0.557664583,17.2264657 0.557664583,16.9682828 L0.557664583,15.7500939 L2.78337829,15.7500939 L2.78337829,16.9682828 L3.34104287,16.9682828 L3.34104287,15.7500939 L5.752273,15.7500939 L5.752273,16.9682828 L6.30993758,16.9682828 L6.30993758,15.7500939 L8.72116771,15.7500939 L8.72116771,16.9682828 L9.27883229,16.9682828 L9.27883229,15.7500939 L11.6900624,15.7500939 L11.6900624,16.9682828 L12.247727,16.9682828 L12.247727,15.7500939 L14.6589571,15.7500939 L14.6589571,16.9682828 L15.2166217,16.9682828 L15.2166217,15.7500939 L17.4422982,15.7500939 L17.4422982,16.9682828 L17.4422982,16.9682828 L17.4422982,16.9682828 Z M17.4423726,15.1866219 L0.557664583,15.1866219 L0.557664583,14.437655 L17.4423726,14.437655 L17.4423726,15.1866219 L17.4423726,15.1866219 Z M10.1133588,16.3115374 L10.8556103,16.3115374 L10.8556103,16.8750094 L10.1133588,16.8750094 L10.1133588,16.3115374 L10.1133588,16.3115374 Z M13.0822535,16.3115374 L13.824505,16.3115374 L13.824505,16.8750094 L13.0822535,16.8750094 L13.0822535,16.3115374 L13.0822535,16.3115374 Z M16.0511853,16.3115374 L16.7934369,16.3115374 L16.7934369,16.8750094 L16.0511853,16.8750094 L16.0511853,16.3115374 L16.0511853,16.3115374 Z M7.14442687,16.3115374 L7.88664125,16.3115374 L7.88664125,16.8750094 L7.14442687,16.8750094 L7.14442687,16.3115374 L7.14442687,16.3115374 Z M4.17553216,16.3115374 L4.91774654,16.3115374 L4.91774654,16.8750094 L4.17553216,16.8750094 L4.17553216,16.3115374 L4.17553216,16.3115374 Z M1.20663745,16.3115374 L1.94885183,16.3115374 L1.94885183,16.8750094 L1.20663745,16.8750094 L1.20663745,16.3115374 L1.20663745,16.3115374 Z"></path>
</svg>
