<?xml version="1.0" encoding="UTF-8"?>
<svg width="18px" height="18px" viewBox="0 0 18 18" version="1.1" xmlns="http://www.w3.org/2000/svg"
     xmlns:xlink="http://www.w3.org/1999/xlink">
    <path
      d="M16.9897959,16.4606742 L16.9897959,6.6135191 L13.1326531,8.23149663 L13.1326531,1.53932584 L13.5918367,1.53932584 L13.5918367,1 L9.18367347,1 L9.18367347,1.53932584 L9.64285714,1.53932584 L9.64285714,7.53799551 L7.98979592,8.23146067 L7.98979592,1.53932584 L8.44897959,1.53932584 L8.44897959,1 L4.04081633,1 L4.04081633,1.53932584 L4.5,1.53932584 L4.5,7.53799551 L1.01020408,9.00194157 L1.01020408,16.4606742 L0,16.4606742 L0,17 L18,17 L18,16.4606742 L16.9897959,16.4606742 L16.9897959,16.4606742 L16.9897959,16.4606742 Z M10.1938776,1.53932584 L12.5816327,1.53932584 L12.5816327,2.07865169 L10.1938776,2.07865169 L10.1938776,1.53932584 L10.1938776,1.53932584 L10.1938776,1.53932584 Z M10.1938776,2.61797753 L12.5816327,2.61797753 L12.5816327,8.46265169 L11.8469388,8.77082247 L11.8469388,6.61337528 L10.1938776,7.30684045 L10.1938776,2.61797753 L10.1938776,2.61797753 L10.1938776,2.61797753 Z M11.8469388,11.0674157 L15.3367347,11.0674157 L15.3367347,11.9662921 L11.8469388,11.9662921 L11.8469388,11.0674157 L11.8469388,11.0674157 L11.8469388,11.0674157 Z M5.05102041,1.53932584 L7.43877551,1.53932584 L7.43877551,2.07865169 L5.05102041,2.07865169 L5.05102041,1.53932584 L5.05102041,1.53932584 L5.05102041,1.53932584 Z M5.05102041,2.61797753 L7.43877551,2.61797753 L7.43877551,8.46261573 L6.70408163,8.77082247 L6.70408163,6.61341124 L5.05102041,7.30684045 L5.05102041,2.61797753 L5.05102041,2.61797753 L5.05102041,2.61797753 Z M6.70408163,11.0674157 L10.1938776,11.0674157 L10.1938776,11.9662921 L6.70408163,11.9662921 L6.70408163,11.0674157 L6.70408163,11.0674157 L6.70408163,11.0674157 Z M1.56122449,11.0674157 L5.05102041,11.0674157 L5.05102041,11.9662921 L1.56122449,11.9662921 L1.56122449,11.0674157 L1.56122449,11.0674157 L1.56122449,11.0674157 Z M6.15306122,16.4606742 L1.56122449,16.4606742 L1.56122449,12.505618 L5.60204082,12.505618 L5.60204082,10.5280899 L1.56122449,10.5280899 L1.56122449,9.35760899 L4.88409796,7.96420674 L6.15306122,7.43153258 L6.15306122,16.4606742 L6.15306122,16.4606742 L6.15306122,16.4606742 Z M11.2959184,16.4606742 L6.70408163,16.4606742 L6.70408163,12.505618 L10.744898,12.505618 L10.744898,10.5280899 L6.70408163,10.5280899 L6.70408163,9.35757303 L7.98557143,8.82022472 L7.98979592,8.82022472 L7.98979592,8.81846292 L10.0269551,7.96420674 L11.2959184,7.43153258 L11.2959184,16.4606742 L11.2959184,16.4606742 L11.2959184,16.4606742 Z M16.4387755,16.4606742 L11.8469388,16.4606742 L11.8469388,12.505618 L15.8877551,12.505618 L15.8877551,10.5280899 L11.8469388,10.5280899 L11.8469388,9.35757303 L13.1279878,8.82022472 L13.1326531,8.82022472 L13.1326531,8.81824719 L16.4387755,7.43142472 L16.4387755,16.4606742 L16.4387755,16.4606742 Z M2.3877551,13.2247191 L3.12244898,13.2247191 L3.12244898,13.7640449 L2.3877551,13.7640449 L2.3877551,13.2247191 L2.3877551,13.2247191 Z M3.48979592,13.2247191 L4.2244898,13.2247191 L4.2244898,13.7640449 L3.48979592,13.7640449 L3.48979592,13.2247191 L3.48979592,13.2247191 Z M4.59183673,13.2247191 L5.32653061,13.2247191 L5.32653061,13.7640449 L4.59183673,13.7640449 L4.59183673,13.2247191 L4.59183673,13.2247191 Z M4.95918367,8.91011236 L5.69387755,8.91011236 L5.69387755,9.4494382 L4.95918367,9.4494382 L4.95918367,8.91011236 L4.95918367,8.91011236 Z M10.1020408,8.91011236 L10.8367347,8.91011236 L10.8367347,9.4494382 L10.1020408,9.4494382 L10.1020408,8.91011236 L10.1020408,8.91011236 Z M15.244898,8.91011236 L15.9795918,8.91011236 L15.9795918,9.4494382 L15.244898,9.4494382 L15.244898,8.91011236 L15.244898,8.91011236 Z M2.3877551,14.3033708 L3.12244898,14.3033708 L3.12244898,14.8426966 L2.3877551,14.8426966 L2.3877551,14.3033708 L2.3877551,14.3033708 Z M3.48979592,14.3033708 L4.2244898,14.3033708 L4.2244898,14.8426966 L3.48979592,14.8426966 L3.48979592,14.3033708 L3.48979592,14.3033708 Z M4.59183673,14.3033708 L5.32653061,14.3033708 L5.32653061,14.8426966 L4.59183673,14.8426966 L4.59183673,14.3033708 L4.59183673,14.3033708 Z M2.3877551,15.3820225 L3.12244898,15.3820225 L3.12244898,15.9213483 L2.3877551,15.9213483 L2.3877551,15.3820225 L2.3877551,15.3820225 Z M3.48979592,15.3820225 L4.2244898,15.3820225 L4.2244898,15.9213483 L3.48979592,15.9213483 L3.48979592,15.3820225 L3.48979592,15.3820225 Z M4.59183673,15.3820225 L5.32653061,15.3820225 L5.32653061,15.9213483 L4.59183673,15.9213483 L4.59183673,15.3820225 L4.59183673,15.3820225 Z M7.53061224,13.2247191 L8.26530612,13.2247191 L8.26530612,13.7640449 L7.53061224,13.7640449 L7.53061224,13.2247191 L7.53061224,13.2247191 Z M8.63265306,13.2247191 L9.36734694,13.2247191 L9.36734694,13.7640449 L8.63265306,13.7640449 L8.63265306,13.2247191 L8.63265306,13.2247191 Z M9.73469388,13.2247191 L10.4693878,13.2247191 L10.4693878,13.7640449 L9.73469388,13.7640449 L9.73469388,13.2247191 L9.73469388,13.2247191 Z M7.53061224,14.3033708 L8.26530612,14.3033708 L8.26530612,14.8426966 L7.53061224,14.8426966 L7.53061224,14.3033708 L7.53061224,14.3033708 Z M8.63265306,14.3033708 L9.36734694,14.3033708 L9.36734694,14.8426966 L8.63265306,14.8426966 L8.63265306,14.3033708 L8.63265306,14.3033708 Z M9.73469388,14.3033708 L10.4693878,14.3033708 L10.4693878,14.8426966 L9.73469388,14.8426966 L9.73469388,14.3033708 L9.73469388,14.3033708 Z M7.53061224,15.3820225 L8.26530612,15.3820225 L8.26530612,15.9213483 L7.53061224,15.9213483 L7.53061224,15.3820225 L7.53061224,15.3820225 Z M8.63265306,15.3820225 L9.36734694,15.3820225 L9.36734694,15.9213483 L8.63265306,15.9213483 L8.63265306,15.3820225 L8.63265306,15.3820225 Z M9.73469388,15.3820225 L10.4693878,15.3820225 L10.4693878,15.9213483 L9.73469388,15.9213483 L9.73469388,15.3820225 L9.73469388,15.3820225 Z M12.6734694,13.2247191 L13.4081633,13.2247191 L13.4081633,13.7640449 L12.6734694,13.7640449 L12.6734694,13.2247191 L12.6734694,13.2247191 Z M13.7755102,13.2247191 L14.5102041,13.2247191 L14.5102041,13.7640449 L13.7755102,13.7640449 L13.7755102,13.2247191 L13.7755102,13.2247191 Z M14.877551,13.2247191 L15.6122449,13.2247191 L15.6122449,13.7640449 L14.877551,13.7640449 L14.877551,13.2247191 L14.877551,13.2247191 Z M12.6734694,14.3033708 L13.4081633,14.3033708 L13.4081633,14.8426966 L12.6734694,14.8426966 L12.6734694,14.3033708 L12.6734694,14.3033708 Z M13.7755102,14.3033708 L14.5102041,14.3033708 L14.5102041,14.8426966 L13.7755102,14.8426966 L13.7755102,14.3033708 L13.7755102,14.3033708 Z M14.877551,14.3033708 L15.6122449,14.3033708 L15.6122449,14.8426966 L14.877551,14.8426966 L14.877551,14.3033708 L14.877551,14.3033708 Z M12.6734694,15.3820225 L13.4081633,15.3820225 L13.4081633,15.9213483 L12.6734694,15.9213483 L12.6734694,15.3820225 L12.6734694,15.3820225 Z M13.7755102,15.3820225 L14.5102041,15.3820225 L14.5102041,15.9213483 L13.7755102,15.9213483 L13.7755102,15.3820225 L13.7755102,15.3820225 Z M14.877551,15.3820225 L15.6122449,15.3820225 L15.6122449,15.9213483 L14.877551,15.9213483 L14.877551,15.3820225 L14.877551,15.3820225 Z"></path>
</svg>
