<?xml version="1.0" encoding="UTF-8"?>
<svg width="32px" height="32px" viewBox="0 0 32 32" version="1.1" xmlns="http://www.w3.org/2000/svg" xmlns:xlink="http://www.w3.org/1999/xlink">
    <!-- Generator: Sketch 53.2 (72643) - https://sketchapp.com -->
    <title>工单指定</title>
    <desc>Created with Sketch.</desc>
    <g id="Page-1" stroke="none" stroke-width="1" fill="none" fill-rule="evenodd">
        <g id="补充的icon" transform="translate(-75.000000, -891.000000)" fill-rule="nonzero">
            <g id="批量释放--copy-9" transform="translate(75.000000, 891.000000)">
                <g id="手指" transform="translate(7.000000, 5.000000)">
                    <path d="M0.958135254,14.6401705 C0.0640637431,13.8078135 0.69021167,12.1089185 3.07873169,13.1752287 C4.45682812,13.8086916 4.94868604,15.1385032 4.94868604,15.1385032 C4.98160547,8.24929081 4.99806519,4.8046846 4.99806519,4.8046846 C4.99806519,4.8046846 6.42280957,2.62841542 7.66241235,4.8046846 L7.68498706,11.3471339 C7.68498706,11.3471339 9.28052903,9.7797675 11.0384912,11.4972675 C11.0384912,11.4972675 12.9072988,10.2660333 14.8235294,11.7985076 C14.8235294,11.7985076 15.8823529,10.9604437 17.021707,12.3296703 C18.1610611,13.698897 17.4119768,19.3345389 17.021707,20.0589448 C16.6314372,20.7833508 16.2551923,21.4242349 15.4565266,21.4242349 L6.26026685,21.4242349 C3.39280187,17.6185202 1.70558879,15.439317 1.19862759,14.8866254 C1.10416167,14.7836382 1.02399756,14.7014866 0.958135254,14.6401705 Z" id="形状" fill="#6D8290"></path>
                    <path d="M9.08587108,8.48189615 L9.08587108,7.16299136 C9.41569783,6.65428224 9.6097878,6.04781674 9.6097878,5.39264726 C9.6097878,3.59297581 8.17147224,2.13303956 6.39836613,2.13303956 C4.62529882,2.13303956 3.18704144,3.59299549 3.18704144,5.39264726 C3.18704144,6.07403541 3.39702871,6.70164143 3.75152408,7.22204955 L3.75152408,8.52418992 C3.75228852,8.52488448 3.75305321,8.52557893 3.75381816,8.5262731 L3.75381816,10.2219364 C2.15043388,9.27436641 1.05882353,7.51997669 1.05882353,5.4870574 C1.05882353,2.45747264 3.45788163,-1.07469589e-13 6.41550663,-1.07469589e-13 C9.37313163,-1.07469589e-13 11.7722139,2.45747264 11.7722139,5.4870574 C11.7722139,7.51591635 10.6832864,9.26758266 9.08514702,10.217777 L9.08514702,8.48257491 Z" id="合并形状" fill="#8BC34A"></path>
                </g>
            </g>
        </g>
    </g>
</svg>