<?xml version="1.0" encoding="UTF-8"?>
<svg width="32px" height="32px" viewBox="0 0 32 32" version="1.1" xmlns="http://www.w3.org/2000/svg" xmlns:xlink="http://www.w3.org/1999/xlink">
    <!-- Generator: Sketch 52.4 (67378) - http://www.bohemiancoding.com/sketch -->
    <title>工艺路线</title>
    <desc>Created with Sketch.</desc>
    <defs>
        <path d="M17.2750795,3.66216899 C16.5481564,2.24293822 14.713541,-0.387831014 11.3212333,1.16986129 C9.20969485,2.13909206 8.03277177,2.69293822 8.03277177,2.69293822 L4.98661793,4.00832283 C4.12123331,4.42370745 2.25200254,3.83524591 1.17892562,3.45447668 C0.867387158,3.35063052 0.590464081,3.66216899 0.72892562,3.97370745 C1.4558487,5.39293822 3.29046408,8.02370745 6.68277177,6.46601514 C8.79431024,5.49678437 13.0173872,3.66216899 13.0173872,3.66216899 C13.8827718,3.24678437 15.7520025,3.83524591 16.8250795,4.21601514 C17.1366179,4.28524591 17.413541,3.97370745 17.2750795,3.66216899 Z M8.863541,14.2198613 C8.55200254,14.3929382 8.03277177,14.7044767 8.03277177,14.7044767 C7.44431024,15.0852459 6.23277177,14.6006305 5.5058487,14.2544767 C5.29815639,14.1506305 5.12507947,14.462169 5.22892562,14.7390921 C5.67892562,15.9852459 6.89046408,18.2352459 9.14046408,16.8506305 C9.97123331,16.3313998 9.97123331,16.3660151 9.97123331,16.3660151 C10.5943102,16.0544767 11.7712333,16.4698613 12.4981564,16.8160151 C12.7058487,16.9198613 12.8789256,16.6083228 12.7750795,16.3313998 C12.3250795,15.0852459 11.1827718,12.9390921 8.863541,14.2198613 L8.863541,14.2198613 Z" id="path-1"></path>
    </defs>
    <g id="Page-1" stroke="none" stroke-width="1" fill="none" fill-rule="evenodd">
        <g id="补充的icon" transform="translate(-251.000000, -355.000000)">
            <g id="工艺路线" transform="translate(251.000000, 355.000000)">
                <g id="icons/utility/flow-copy" transform="translate(7.000000, 7.000000)">
                    <mask id="mask-2" fill="white">
                        <use xlink:href="#path-1"></use>
                    </mask>
                    <use id="Mask" fill="#6D8290" xlink:href="#path-1"></use>
                    <path d="M9.97123331,8.09293822 C9.59046408,8.30063052 8.06738716,8.99293822 8.06738716,8.99293822 L6.54431024,9.65063052 C5.78277177,10.0660151 4.1558487,9.51216899 3.18661793,9.13139975 C2.90969485,8.99293822 2.66738716,9.33909206 2.8058487,9.61601514 C3.42892562,11.0006305 5.0558487,13.4929382 8.03277177,11.9698613 C9.90200254,11.0352459 11.4596949,10.412169 11.4596949,10.412169 C12.2212333,9.99678437 13.8481564,10.5506305 14.8173872,10.9313998 C15.0943102,11.0352459 15.3366179,10.7237074 15.1981564,10.412169 C14.5750795,9.06216899 12.9481564,6.56986129 9.97123331,8.09293822 L9.97123331,8.09293822 Z" id="Path" fill="#8BC34A"></path>
                </g>
            </g>
        </g>
    </g>
</svg>