<?xml version="1.0" encoding="UTF-8"?>
<svg width="26px" height="21px" viewBox="0 0 26 21" version="1.1" xmlns="http://www.w3.org/2000/svg" xmlns:xlink="http://www.w3.org/1999/xlink">
    <!-- Generator: Sketch 55.2 (78181) - https://sketchapp.com -->
    <title>建立模型@3x</title>
    <desc>Created with Sketch.</desc>
    <g id="Page-1" stroke="none" stroke-width="1" fill="none" fill-rule="evenodd">
        <g id="补充的icon" transform="translate(-167.000000, -1005.000000)" fill-rule="nonzero">
            <g id="建立模型" transform="translate(164.000000, 999.000000)">
                <g id="模型" transform="translate(3.000000, 3.000000)">
                    <rect id="矩形" fill="#000000" opacity="0" x="0" y="0" width="26" height="26"></rect>
                    <path d="M25.1757188,14.8138047 C25.2172578,13.8778047 24.3353906,13.5377734 24.3353906,13.5377734 L19.4627266,11.4522891 C19.4627266,11.4522891 19.4746094,7.82894531 19.4627266,6.85384375 C19.4478984,5.87275 18.5808594,5.53271875 18.5808594,5.53271875 C18.5808594,5.53271875 14.7266641,3.97678125 13.5805312,3.40498438 C12.98375,3.10710156 12.3631016,3.40498438 12.3631016,3.40498438 C12.3631016,3.40498438 8.737625,5.0301875 7.61525781,5.49067188 C6.59079688,5.90900781 6.60572656,6.81179687 6.60572656,6.81179687 L6.60572656,11.4252734 C6.60572656,11.4252734 3.41067187,12.8247031 2.06852344,13.3603437 C0.785789062,13.8719141 0.821323803,14.9463437 0.821323803,14.9463437 C0.821323803,14.9463437 0.833320312,18.6268672 0.821323803,19.5868359 C0.809554687,20.6220625 1.7330625,20.9501094 1.7330625,20.9501094 C1.7330625,20.9501094 4.83295312,22.5300156 6.31464844,23.2132266 C7.41030469,23.7188047 8.12002344,23.2282578 8.12002344,23.2282578 L12.9866953,20.8026406 C12.9866953,20.8026406 16.8348984,22.6383828 17.7405313,23.2161719 C18.7917031,23.8843516 19.5043672,23.3305312 19.5043672,23.3305312 C19.5043672,23.3305312 23.7920313,21.1276406 24.4630547,20.8176719 C25.1786641,20.4865781 25.1786641,19.6680859 25.1786641,19.6680859 C25.1786641,19.6680859 25.1340781,15.7498047 25.1756172,14.8139062 L25.1757188,14.8138047 Z M7.27969531,16.6435547 L2.82577344,14.6632891 L7.27969531,12.683125 L11.8167969,14.6422656 L7.27969531,16.6435547 Z M13.7498359,10.2153594 L17.9929141,8.3435625 L17.9929141,11.4943359 L13.7498359,13.4083828 L13.7498359,10.2153594 Z M18.8124219,16.6435547 L14.3792187,14.6632891 L18.6225,12.683125 L23.2425781,14.6632891 L18.8124219,16.6435547 Z M23.7059063,19.7101328 L19.5042656,21.7535703 L19.5042656,17.8773359 L23.7059063,16.0055391 L23.7059063,19.7101328 Z" id="形状" fill="#6D8290"></path>
                    <polygon id="路径" fill="#8BC34A" points="8.1615625 6.85079687 12.9807031 4.69310156 17.9928125 6.85079687 12.9807031 8.93638281"></polygon>
                    <polygon id="路径" fill="#8BC34A" points="12.2770781 19.5807422 7.99235938 21.7505234 7.99235938 17.8773359 12.2770781 16.0055391"></polygon>
                </g>
            </g>
        </g>
    </g>
</svg>