<?xml version="1.0" encoding="UTF-8"?>
<svg width="18px" height="18px" viewBox="0 0 18 18" version="1.1" xmlns="http://www.w3.org/2000/svg" xmlns:xlink="http://www.w3.org/1999/xlink">
    <!-- Generator: Sketch 52.4 (67378) - http://www.bohemiancoding.com/sketch -->
    <title>快捷菜单-白</title>
    <desc>Created with Sketch.</desc>
    <g id="Page-1" stroke="none" stroke-width="1" fill="none" fill-rule="evenodd">
        <g id="快捷菜单-白" fill-rule="nonzero">
            <rect id="矩形" stroke="#FFFFFF" stroke-width="0.615384615" x="1.30769231" y="1.30769231" width="6.76923077" height="6.76923077"></rect>
            <rect id="矩形-copy-38" stroke="#FFFFFF" stroke-width="0.615384615" x="9.92307692" y="1.30769231" width="6.76923077" height="6.76923077"></rect>
            <path d="M9.92307692,9.92307692 L9.92307692,16.6923077 L13.180242,16.6923077 L16.6923077,13.180242 L16.6923077,9.92307692 L9.92307692,9.92307692 Z" id="矩形-copy-39" stroke="#FFFFFF" stroke-width="0.615384615"></path>
            <rect id="矩形-copy-37" stroke="#FFFFFF" stroke-width="0.615384615" x="1.30769231" y="9.92307692" width="6.76923077" height="6.76923077"></rect>
            <path d="M16.2571651,13.6153846 L13.6153846,13.6153846 L13.6153846,16.2571651 L16.2571651,13.6153846 Z" id="路径-5" stroke="#FFFFFF" stroke-width="0.615384615"></path>
            <rect id="矩形" fill="#FFFFFF" x="2.84615385" y="2.23076923" width="1.23076923" height="1.23076923"></rect>
            <rect id="矩形-copy-70" fill="#FFFFFF" x="2.84615385" y="10.8461538" width="1.23076923" height="1.23076923"></rect>
            <rect id="矩形-copy-76" fill="#FFFFFF" x="11.4615385" y="10.8461538" width="1.23076923" height="1.23076923"></rect>
            <rect id="矩形-copy-46" fill="#FFFFFF" x="11.4615385" y="2.23076923" width="1.23076923" height="1.23076923"></rect>
            <rect id="矩形-copy-41" fill="#FFFFFF" x="2.84615385" y="4.07692308" width="1.23076923" height="1.23076923"></rect>
            <rect id="矩形-copy-71" fill="#FFFFFF" x="2.84615385" y="12.6923077" width="1.23076923" height="1.23076923"></rect>
            <rect id="矩形-copy-77" fill="#FFFFFF" x="11.4615385" y="12.6923077" width="1.23076923" height="1.23076923"></rect>
            <rect id="矩形-copy-47" fill="#FFFFFF" x="11.4615385" y="4.07692308" width="1.23076923" height="1.23076923"></rect>
            <rect id="矩形-copy-44" fill="#FFFFFF" x="2.84615385" y="5.92307692" width="1.23076923" height="1.23076923"></rect>
            <rect id="矩形-copy-72" fill="#FFFFFF" x="2.84615385" y="14.5384615" width="1.23076923" height="1.23076923"></rect>
            <rect id="矩形-copy-66" fill="#FFFFFF" x="11.4615385" y="5.92307692" width="1.23076923" height="1.23076923"></rect>
            <rect id="矩形-copy-40" fill="#FFFFFF" x="5.30769231" y="2.23076923" width="1.23076923" height="1.23076923"></rect>
            <rect id="矩形-copy-73" fill="#FFFFFF" x="5.30769231" y="10.8461538" width="1.23076923" height="1.23076923"></rect>
            <rect id="矩形-copy-78" fill="#FFFFFF" x="13.9230769" y="10.8461538" width="1.23076923" height="1.23076923"></rect>
            <rect id="矩形-copy-67" fill="#FFFFFF" x="13.9230769" y="2.23076923" width="1.23076923" height="1.23076923"></rect>
            <rect id="矩形-copy-43" fill="#FFFFFF" x="5.30769231" y="4.07692308" width="1.23076923" height="1.23076923"></rect>
            <rect id="矩形-copy-74" fill="#FFFFFF" x="5.30769231" y="12.6923077" width="1.23076923" height="1.23076923"></rect>
            <rect id="矩形-copy-68" fill="#FFFFFF" x="13.9230769" y="4.07692308" width="1.23076923" height="1.23076923"></rect>
            <rect id="矩形-copy-45" fill="#FFFFFF" x="5.30769231" y="5.92307692" width="1.23076923" height="1.23076923"></rect>
            <rect id="矩形-copy-75" fill="#FFFFFF" x="5.30769231" y="14.5384615" width="1.23076923" height="1.23076923"></rect>
            <rect id="矩形-copy-69" fill="#FFFFFF" x="13.9230769" y="5.92307692" width="1.23076923" height="1.23076923"></rect>
        </g>
    </g>
</svg>