<svg t="1654501195898" class="icon" viewBox="0 0 1024 1024" version="1.1" xmlns="http://www.w3.org/2000/svg" p-id="1138" data-spm-anchor-id="a313x.7781069.0.i3" width="32" height="32"><path d="M620.62946511 631.49241162v135.78683138c0 2.98731029-2.44416295 5.43147326-5.43147327 5.43147325H408.80200814c-2.98731029 0-5.43147326-2.44416295-5.43147325-5.43147326V631.49241162h217.25893022m-249.84776975-43.45178605c-5.97462057 0-10.86294651 4.88832593-10.8629465 10.86294652v195.53303718c0 12.01713458 9.70875845 21.72589302 21.72589303 21.72589302h260.71071624c12.01713458 0 21.72589302-9.70875845 21.72589301-21.72589302V598.90357209c0-5.97462057-4.88832593-10.86294651-10.8629465-10.86294652H370.78169536z" fill="#6D8290" p-id="1139" data-spm-anchor-id="a313x.7781069.0.i4" class=""></path><path d="M772.71071625 349.05580234H691.23861743c-2.98731029 0-5.43147326-2.44416295-5.43147326-5.43147325v-20.3001313c0-25.05267039-10.79505309-48.88325932-29.66942266-65.3813593l-32.65673294-28.583128C607.66182271 215.50945367 587.29379801 207.83749771 566.24683914 207.83749771H338.19285583v135.78683138c0 2.98731029-2.44416295 5.43147326-5.43147326 5.43147325H251.28928375C203.28863885 349.05580234 164.38571167 387.95872953 164.38571167 435.95937443v238.98482323c0 12.01713458 9.70875845 21.72589302 21.72589302 21.725893h130.35535812c12.01713458 0 21.72589302-9.70875845 21.72589302-21.725893V577.17767906c0-5.97462057 4.88832593-10.86294651 10.86294651-10.86294651h325.88839532c5.97462057 0 10.86294651 4.88832593 10.86294651 10.86294651v97.7665186c0 12.01713458 9.70875845 21.72589302 21.72589302 21.72589302h130.35535812c12.01713458 0 21.72589302-9.70875845 21.72589302-21.72589302V435.95937443c0-48.0006449-38.90292719-86.90357209-86.90357208-86.90357209zM598.90357209 265.54690105l43.45178602 38.0203128v2.03680246h-40.7360494c-1.49365514 0-2.71573663-1.22208149-2.71573662-2.71573663v-37.34137863z m-217.25893022-14.25761728h173.80714417v76.04062555c0 12.01713458 9.70875845 21.72589302 21.72589302 21.72589302h65.17767905v65.17767907H381.64464187V251.28928375zM251.28928375 468.54821397c0-17.99175516 14.59708438-32.58883953 32.58883952-32.58883954s32.58883953 14.59708438 32.58883954 32.58883954-14.59708438 32.58883953-32.58883954 32.58883952-32.58883953-14.59708438-32.58883952-32.58883952z" fill="#6D8290" p-id="1140"></path><path d="M598.90357209 653.21830464H425.09642791v43.45178604h173.80714418v-43.45178604zM598.90357209 707.53303719H425.09642791v43.45178603h173.80714418v-43.45178603z" fill="#8BC34A" p-id="1141" data-spm-anchor-id="a313x.7781069.0.i2" class=""></path></svg>