<?xml version="1.0" encoding="UTF-8"?>
<svg width="32px" height="32px" viewBox="0 0 32 32" version="1.1" xmlns="http://www.w3.org/2000/svg" xmlns:xlink="http://www.w3.org/1999/xlink">
    <!-- Generator: Sketch 52.4 (67378) - http://www.bohemiancoding.com/sketch -->
    <title>批量释放</title>
    <desc>Created with Sketch.</desc>
    <defs>
        <path d="M17.7904295,18.4517884 C16.470135,17.748582 15.5270675,16.4984373 15.0555338,15.0659799 C14.8669203,14.5450862 14.7490369,13.9460586 14.7018835,13.4251649 L14.7018835,12.5136011 L17.2481657,12.5136011 C17.4367791,12.5136011 17.5782393,12.279199 17.4367791,12.0447969 L14.0888896,7.61720106 C13.9710062,7.46093298 13.7116626,7.46093298 13.6173559,7.61720106 L10.3637731,12.0447969 C10.2458897,12.2010649 10.3637731,12.5136011 10.5523866,12.5136011 L13.1222455,12.5136011 L13.1222455,13.4251649 C13.0515154,13.9721033 12.933632,14.5711309 12.7685952,15.0659799 C12.2970614,16.4984373 11.3539939,17.748582 10.0336995,18.4517884 C9.84508599,18.5299224 9.77435593,18.7903693 9.84508599,18.972682 L10.1515829,19.7800671 C10.2458897,19.9884246 10.4580799,20.0665586 10.6466933,19.9363352 C12.0612946,19.1810395 13.1929755,17.9829841 13.8766994,16.5505267 C14.584,17.9829841 15.6921043,19.1810395 17.1302822,19.9363352 C17.3188957,20.0405139 17.5546626,20.0144693 17.6253926,19.7800671 L17.9318896,18.972682 C18.0733497,18.7903693 17.9790429,18.5559671 17.7904295,18.4517884 Z" id="path-1"></path>
    </defs>
    <g id="Page-1" stroke="none" stroke-width="1" fill="none" fill-rule="evenodd">
        <g id="补充的icon" transform="translate(-75.000000, -683.000000)">
            <g id="批量释放-" transform="translate(75.000000, 683.000000)">
                <g id="分组-3" transform="translate(7.000000, 6.000000)">
                    <path d="M13.0909091,6.96504293 C13.0271916,7.02711735 12.9697005,7.09900055 12.920322,7.1808217 L9.70874064,11.5454589 C9.20363321,12.214928 9.64768611,13.3469344 10.5523866,13.3469344 L12.3040636,13.3469344 L12.3040636,13.3694728 C12.2330395,13.8978458 12.1243268,14.4068424 11.9938887,14.79795 C11.8732454,15.1644425 11.7198875,15.5112985 11.5373242,15.8333333 L2.45454545,15.8333333 L2.45454545,2.5 L13.0909091,2.5 L13.0909091,6.96504293 Z M13.0909091,8.33360933 L13.0909091,12.5136011 L10.5523866,12.5136011 C10.3637731,12.5136011 10.2458897,12.2010649 10.3637731,12.0447969 L13.0909091,8.33360933 Z M13.0909091,13.6498912 L13.0909091,15.8333333 L12.4622239,15.8333333 C12.5798144,15.5851774 12.682132,15.3286436 12.7685952,15.0659799 C12.9112778,14.638158 13.0187158,14.132468 13.0909091,13.6498912 Z M13.0909091,1.66666667 L1.63636364,1.66666667 L1.63636364,15.8333333 L-1.77635684e-15,15.8333333 L-1.77635684e-15,-3.55271368e-15 L13.0909091,-3.55271368e-15 L13.0909091,1.66666667 Z" id="合并形状" fill="#6D8290"></path>
                    <path d="M15.5454545,8.17776334 L14.7371139,7.10872994 C14.2833192,6.50717192 13.3268652,6.50717192 12.920322,7.1808217 L9.70874064,11.5454589 C9.20363321,12.214928 9.64768611,13.3469344 10.5523866,13.3469344 L12.3040636,13.3469344 L12.3040636,13.3694728 C12.2330395,13.8978458 12.1243268,14.4068424 11.9938887,14.79795 C11.5689172,16.0889368 10.7380111,17.1362671 9.65455821,17.7133285 C9.38598513,17.8225933 9.18937414,18.05507 9.08460562,18.3333333 L2.45454545,18.3333333 L2.45454545,2.5 L15.5454545,2.5 L15.5454545,8.17776334 Z M15.5454545,9.54351335 L15.5454545,12.5136011 L14.7018835,12.5136011 L14.7018835,13.4251649 C14.7490369,13.9460586 14.8669203,14.5450862 15.0555338,15.0659799 C15.1843114,15.4571893 15.3482586,15.8348008 15.5454545,16.1913872 L15.5454545,18.3333333 L15.0778853,18.3333333 C14.5996466,17.800059 14.1970606,17.1993367 13.8766994,16.5505267 C13.567017,17.1993367 13.1654362,17.800059 12.6872921,18.3333333 L10.2439504,18.3333333 C11.4543163,17.6132462 12.3224847,16.4212048 12.7685952,15.0659799 C12.933632,14.5711309 13.0515154,13.9721033 13.1222455,13.4251649 L13.1222455,12.5136011 L10.5523866,12.5136011 C10.3637731,12.5136011 10.2458897,12.2010649 10.3637731,12.0447969 L13.6173559,7.61720106 C13.7116626,7.46093298 13.9710062,7.46093298 14.0888896,7.61720106 L15.5454545,9.54351335 Z M15.5454545,13.3469344 L15.5454545,13.6038122 C15.5339026,13.5175496 15.5242647,13.4317324 15.5166168,13.3469344 L15.5454545,13.3469344 Z M14.0115342,18.3333333 L13.7529482,18.3333333 C13.7967151,18.275052 13.8397354,18.2161806 13.8819952,18.1567343 C13.924479,18.2162168 13.9676616,18.2750872 14.0115342,18.3333333 Z" id="合并形状" fill="#6D8290"></path>
                    <mask id="mask-2" fill="white">
                        <use xlink:href="#path-1"></use>
                    </mask>
                    <use id="Mask" fill="#8BC34A" xlink:href="#path-1"></use>
                </g>
            </g>
        </g>
    </g>
</svg>