<?xml version="1.0" encoding="UTF-8"?>
<svg width="18px" height="18px" viewBox="0 0 18 18" version="1.1" xmlns="http://www.w3.org/2000/svg" xmlns:xlink="http://www.w3.org/1999/xlink">
    <g id="Page-1" stroke="none" stroke-width="1">
        <g id="报表-白">
            <path d="M16.5079664,1 L1.41557143,1 C0.635029412,1 -2.27373675e-13,1.6277757 -2.27373675e-13,2.39936449 L-2.27373675e-13,10.2324112 C-2.27373675e-13,11.0040374 0.635029412,11.6317757 1.41557143,11.6317757 L7.73485714,11.6317757 L7.73485714,14.8010467 L6.41427731,14.8010467 L6.41427731,16.2930467 L3.4907521,16.2930467 L3.4907521,16.8537944 L14.4327479,16.8537944 L14.4327479,16.2930467 L11.5092227,16.2930467 L11.5092227,14.8010467 L10.1886429,14.8010467 L10.1886429,11.6317757 L16.5079286,11.6317757 C17.2884706,11.6317757 17.9235,11.0040374 17.9235,10.2324112 L17.9235,2.39936449 C17.9235378,1.6277757 17.2885084,1 16.5079664,1 L16.5079664,1 L16.5079664,1 Z M10.9419958,15.3617944 L10.9419958,16.2930467 L6.9815042,16.2930467 L6.9815042,15.3617944 L10.9419958,15.3617944 L10.9419958,15.3617944 L10.9419958,15.3617944 Z M8.30208403,14.8010467 L8.30208403,11.6317757 L9.62145378,11.6317757 L9.62145378,14.8010467 L8.30208403,14.8010467 L8.30208403,14.8010467 L8.30208403,14.8010467 Z M16.5079664,11.071028 L1.41557143,11.071028 C0.947798319,11.071028 0.567226891,10.6948411 0.567226891,10.2324112 L0.567226891,2.39936449 C0.567226891,1.93693458 0.947760504,1.56074766 1.41557143,1.56074766 L16.5079664,1.56074766 C16.9757395,1.56074766 17.3563109,1.93693458 17.3563109,2.39936449 L17.3563109,10.2324112 C17.3563109,10.6948411 16.9757773,11.071028 16.5079664,11.071028 L16.5079664,11.071028 Z M1.5092395,10.3262804 L16.4142605,10.3262804 L16.4142605,2.30553271 L1.5092395,2.30553271 L1.5092395,10.3262804 L1.5092395,10.3262804 Z M15.7957941,2.86628037 L15.7957941,9.81581308 L2.07646639,9.81581308 L2.07646639,2.86628037 L15.7957941,2.86628037 Z"></path>
            <polygon id="Path" points="14.7304688 4.35910213 14.7304688 5.25576769 15.1260504 5.25576769 15.1260504 3.69158879 13.5437241 3.69158879 13.5437241 4.08263351 14.4507927 4.08263351 11.1702347 7.32556743 9.19232682 5.3703438 7.86554622 6.68151676 8.14561797 6.95798539 9.19232682 5.92328104 11.1702347 7.87850467"></polygon>
            <path d="M2.87394958,9 L15.1260504,9" id="直线-copy" stroke-width="0.5" stroke-linecap="square" fill-rule="nonzero"></path>
            <rect id="矩形" stroke-width="0.5" fill-rule="nonzero" x="3.12394958" y="3.94158879" width="1" height="3.93291837"></rect>
            <rect id="矩形-copy" stroke-width="0.5" fill-rule="nonzero" x="4.78781513" y="5.13506681" width="1" height="2.73944035"></rect>
            <rect id="矩形-copy-3" stroke-width="0.5" fill-rule="nonzero" x="6.45168067" y="6.32854483" width="1" height="1.54596233"></rect>
        </g>
    </g>
</svg>
