<svg t="1655349652494" class="icon" style="width: 1em;height: 1em;vertical-align: middle;fill: currentColor;overflow: hidden;" viewBox="0 0 1024 1024" version="1.1" xmlns="http://www.w3.org/2000/svg" p-id="24399"><path d="M584.81568833 773.72911749c-10.69321297-4.58280556-17.312821-15.27601854-17.31282101-26.98763274V276.74931463c0-16.29441978 13.23921607-29.53363582 29.53363583-29.53363583 16.29441978 0 29.53363582 13.23921607 29.53363582 29.53363584v409.90649722L736.04827177 615.876926c12.73001544-8.14720987 30.04283644-4.58280556 38.19004633 8.65641051 0.50920062 1.01840124 1.52760185 2.54600309 2.03680248 3.56440431 8.14720987 15.78521916 3.56440432 35.13484262-10.69321298 45.31885498l-153.26938592 98.78491982c-8.14720987 5.60120678-18.84042286 6.11040741-27.49683335 1.52760187z m-187.38582731-26.47843213V337.34418814L287.95172823 408.123074c-12.73001544 8.14720987-30.04283644 4.58280556-38.19004633-8.14720989-0.50920062-1.01840124-1.52760185-2.54600309-2.03680248-3.56440431-8.14720987-15.78521916-3.56440432-35.13484262 10.69321298-45.31885498L411.68747832 252.30768499c8.14720987-5.60120678 18.84042286-6.11040741 27.49683335-1.01840123 10.69321297 4.58280556 17.312821 15.27601854 17.31282101 26.98763273v469.99217011c0 16.29441978-13.23921607 29.53363582-29.53363583 29.53363583-16.29441978-1.01840124-29.53363582-14.25761729-29.53363582-30.55203706z" p-id="24400" fill="#6D8290"></path></svg>