<svg t="1655349376605" class="icon" style="width: 1em;height: 1em;vertical-align: middle;fill: currentColor;overflow: hidden;" viewBox="0 0 1024 1024" version="1.1" xmlns="http://www.w3.org/2000/svg" p-id="7672"><path d="M766.60030903 817.5203706H512a50.92006157 50.92006157 0 0 1-50.92006157-50.92006157v-50.92006215a50.92006157 50.92006157 0 0 1 50.92006157-50.92006157h89.1101079c-28.89713525-40.99064952-63.65007741-96.74811716-63.65007682-129.10781681a101.84012373 101.84012373 0 0 1 203.68024687 0c0 32.25785933-34.67656207 88.1171667-63.65007741 129.10781681H766.60030903a50.92006157 50.92006157 0 0 1 50.92006157 50.92006157v50.92006215a50.92006157 50.92006157 0 0 1-50.92006157 50.92006157z m-76.38009265-280.06033953a50.92006157 50.92006157 0 0 0-101.84012374 1e-8c0 28.13333433 50.92006157 101.84012373 50.92006158 101.84012314s50.92006157-73.70678941 50.92006216-101.84012314z m76.38009265 195.20205661a18.9677232 18.9677232 0 0 0-20.3680251-16.9818408h-213.86425941a18.9677232 18.9677232 0 0 0-20.36802452 16.9818408v16.95638055a18.9677232 18.9677232 0 0 0 20.36802452 16.9818408h213.86425941a18.9677232 18.9677232 0 0 0 20.3680251-16.9818408v-16.95638055zM718.86275112 257.39969097H257.39969097v483.74058698h154.3387076v50.92006158H257.39969097a50.92006157 50.92006157 0 0 1-50.92006157-50.92006158V257.39969097a50.92006157 50.92006157 0 0 1 50.92006157-50.92006157h461.46306015a50.92006157 50.92006157 0 0 1 50.92006157 50.92006157v152.7601853h-50.92006156V257.39969097zM334.56904477 359.23981469a25.46003107 25.46003107 0 0 1 25.46003107-25.46003107h230.74425991a25.46003107 25.46003107 0 0 1 0 50.92006216H360.02907584a25.46003107 25.46003107 0 0 1-25.46003107-25.46003109z m154.36416725 152.76018531H360.02907584a25.46003107 25.46003107 0 0 1 0-50.92006157h128.90413618a25.46003107 25.46003107 0 0 1 0 50.92006157z m-154.36416725 101.84012373a25.46003107 25.46003107 0 0 1 25.46003107-25.46003109h77.16935323a25.46003107 25.46003107 0 0 1 0 50.92006158H360.02907584a25.46003107 25.46003107 0 0 1-25.46003107-25.46003049z" fill="#6D8290" p-id="7673"></path></svg>