<?xml version="1.0" encoding="UTF-8"?>
<svg width="32px" height="32px" viewBox="0 0 32 32" version="1.1" xmlns="http://www.w3.org/2000/svg" xmlns:xlink="http://www.w3.org/1999/xlink">
    <!-- Generator: Sketch 52.4 (67378) - http://www.bohemiancoding.com/sketch -->
    <title>提交新请求</title>
    <desc>Created with Sketch.</desc>
    <g id="Page-1" stroke="none" stroke-width="1" fill="none" fill-rule="evenodd">
        <g id="补充的icon" transform="translate(-617.000000, -459.000000)">
            <g id="提交新请求" transform="translate(617.000000, 459.000000)">
                <g id="分组-9-copy-2" transform="translate(6.000000, 7.000000)">
                    <path d="M10.1587399,14.7283217 C9.80797905,15.6655331 10.4680812,16.7816866 11.586562,16.7816866 L12.2188895,16.7816866 L12.2188895,17.7576923 L2.52173913,17.7576923 C1.27759197,17.7576923 0.234113712,16.7213287 0.234113712,15.4856643 L0.234113712,2.57097902 C0.234113712,1.33531469 1.27759197,0.298951049 2.56187291,0.298951049 L14.7625418,0.298951049 C16.0468227,0.298951049 17.090301,1.33531469 17.0501672,2.57097902 L17.0501672,9.87702553 L16.8877347,9.6904294 C16.2434378,8.94008407 15.0490628,8.94302855 14.409083,9.69926284 L11.9764615,12.4935402 C11.9047874,12.4694563 11.8293841,12.4562937 11.7525084,12.4562937 L4.08695652,12.4562937 C3.68561873,12.4562937 3.32441472,12.815035 3.32441472,13.2136364 L3.32441472,13.970979 C3.32441472,14.3695804 3.68561873,14.7283217 4.08695652,14.7283217 L10.1587399,14.7283217 Z M14,9.42692308 L14.0401338,9.42692308 L14.0401338,8.66958042 C14.0401338,8.27097902 13.6789298,7.91223776 13.277592,7.91223776 L4.08695652,7.91223776 C3.68561873,7.91223776 3.32441472,8.27097902 3.32441472,8.66958042 L3.32441472,9.42692308 C3.32441472,9.82552448 3.68561873,10.1842657 4.08695652,10.1842657 L13.2374582,10.1842657 C13.638796,10.1842657 14,9.82552448 14,9.42692308 Z M3.32441472,4.08566434 L3.32441472,4.84300699 C3.32441472,5.24160839 3.68561873,5.60034965 4.08695652,5.60034965 L11.7525084,5.60034965 C12.1538462,5.60034965 12.5150502,5.24160839 12.5150502,4.84300699 L12.5150502,4.08566434 C12.5150502,3.68706294 12.1538462,3.32832168 11.7525084,3.32832168 L4.08695652,3.32832168 C3.68561873,3.32832168 3.32441472,3.68706294 3.32441472,4.08566434 Z" id="合并形状" fill="#6D8290"></path>
                    <path d="M15.9443137,10.4930894 C15.7982438,10.3204854 15.506104,10.3204854 15.3600341,10.4930894 L11.3674572,15.0794238 C11.2213873,15.2520278 11.3431122,15.5479203 11.586562,15.5479203 L13.4611256,15.5479203 L13.4611256,18.6301343 C13.4611256,18.827396 13.6315404,19 13.8263003,19 L17.4780475,19 C17.6728074,19 17.8432223,18.827396 17.8432223,18.6301343 L17.8432223,15.5479203 L19.7177858,15.5479203 C19.9612356,15.5479203 20.0829606,15.2520278 19.9368907,15.0794238 L15.9443137,10.4930894 Z" id="Path" fill="#8BC34A"></path>
                </g>
            </g>
        </g>
    </g>
</svg>