<?xml version="1.0" encoding="UTF-8"?>
<svg width="32px" height="32px" viewBox="0 0 32 32" version="1.1" xmlns="http://www.w3.org/2000/svg" xmlns:xlink="http://www.w3.org/1999/xlink">
    <!-- Generator: Sketch 52.4 (67378) - http://www.bohemiancoding.com/sketch -->
    <title>提交审核</title>
    <desc>Created with Sketch.</desc>
    <g id="Page-1" stroke="none" stroke-width="1" fill="none" fill-rule="evenodd">
        <g id="补充的icon" transform="translate(-333.000000, -571.000000)">
            <g id="审核" transform="translate(333.000000, 571.000000)">
                <rect id="矩形" fill="#000000" opacity="0" x="6" y="6" width="20" height="20"></rect>
                <path d="M8.45,23.7 L23.85,23.7 C24.35,23.65 24.3,23.8 24.3,23.25 L24.3,22 C24.3,21.3 24.15,21.15 23.45,21.15 L20.45,21.15 C20.05,20.85 20,20.45 19.9,20.35 C18.15,18.4 19.15,17.1 20.25,15.3 C20.45,15.05 20.65,14.8 20.8,14.5 C21.25,13.7 21.5,12.8 21.5,11.8 C21.5,8.7 19,6.15 15.85,6.15 C12.75,6.15 10.2,8.65 10.2,11.8 C10.2,13.1 10.65,14.3 11.4,15.25 C12.6,17.15 14.55,18.7 11.4,21.15 L8.4,21.15 C7.85,21.15 7.55,21.45 7.55,22 L7.55,23.3 C7.55,23.8 7.9,23.7 8.45,23.7 Z M25.15,24.55 L6.7,24.55 C6.45,24.55 6.25,24.75 6.25,25 L6.25,25.45 C6.25,25.7 6.45,25.9 6.7,25.9 L25.1,25.9 C25.35,25.9 25.55,25.7 25.55,25.45 L25.55,25 C25.55,24.75 25.35,24.55 25.15,24.55 Z" id="形状" fill="#6D8290" fill-rule="nonzero"></path>
            </g>
        </g>
    </g>
</svg>