<?xml version="1.0" encoding="UTF-8"?>
<svg width="32px" height="32px" viewBox="0 0 32 32" version="1.1" xmlns="http://www.w3.org/2000/svg" xmlns:xlink="http://www.w3.org/1999/xlink">
    <!-- Generator: Sketch 52.4 (67378) - http://www.bohemiancoding.com/sketch -->
    <title>收集数据</title>
    <desc>Created with Sketch.</desc>
    <g id="Page-1" stroke="none" stroke-width="1" fill="none" fill-rule="evenodd">
        <g id="补充的icon" transform="translate(-508.000000, -571.000000)">
            <g id="收集数据" transform="translate(508.000000, 571.000000)">
                <g id="交易明细" transform="translate(6.000000, 6.000000)">
                    <rect id="矩形" fill="#000000" opacity="0" x="0" y="0" width="20" height="20"></rect>
                    <g id="工程数据" fill-rule="nonzero">
                        <path d="M17.8928571,7.14285714 L6.94285714,7.14285714 L6.28571429,5.84285714 C6.0019399,5.27086372 5.41707766,4.91052206 4.77857143,4.91428571 L2.10714286,4.91428571 C1.17812101,4.91428571 0.425,5.66740672 0.425,6.59642857 L0.425,17.8928571 C0.425,18.821879 1.17812101,19.575 2.10714286,19.575 L17.8928571,19.575 C18.821879,19.575 19.575,18.821879 19.575,17.8928571 L19.575,8.83928571 C19.5788099,8.39068364 19.403268,7.95914485 19.0873912,7.64058537 C18.7715143,7.3220259 18.3414754,7.14284096 17.8928571,7.14285714 Z M16.7857143,13.9642857 L13.4035714,13.9642857 C13.0938975,13.9642857 12.8428571,13.7132454 12.8428571,13.4035714 C12.8428571,13.0938975 13.0938975,12.8428571 13.4035714,12.8428571 L16.7857143,12.8428571 C17.0953882,12.8428571 17.3464286,13.0938975 17.3464286,13.4035714 C17.3464286,13.7132454 17.0953882,13.9642857 16.7857143,13.9642857 Z M16.7857143,11.6464286 L13.4035714,11.6464286 C13.0938975,11.6464286 12.8428571,11.3953882 12.8428571,11.0857143 C12.8428571,10.7760403 13.0938975,10.525 13.4035714,10.525 L16.7857143,10.525 C17.0953882,10.525 17.3464286,10.7760403 17.3464286,11.0857143 C17.3464286,11.3953882 17.0953882,11.6464286 16.7857143,11.6464286 Z" id="形状" fill="#6D8290"></path>
                        <path d="M7.28928571,5.35714286 L7.64642857,6.05 L16.2178571,6.05 L16.2178571,4.91428571 L12.2892857,4.91428571 C12.1399542,4.91428874 11.9967904,4.85472365 11.8915328,4.74879563 C11.7862752,4.6428676 11.7276203,4.49932851 11.7285714,4.35 L11.7285714,0.421428571 L3.21428571,0.421428571 C2.90461177,0.421428571 2.65357143,0.672468908 2.65357143,0.982142857 L2.65357143,3.78571429 L4.76428571,3.78571429 C5.83805564,3.78057052 6.81968994,4.39148861 7.28928571,5.35714286 Z" id="路径" fill="#8BC34A"></path>
                        <polygon id="路径" fill="#8BC34A" points="12.8428571 0.753571429 12.8428571 3.78928571 15.8821429 3.78928571"></polygon>
                    </g>
                </g>
            </g>
        </g>
    </g>
</svg>