<?xml version="1.0" encoding="UTF-8"?>
<svg width="32px" height="32px" viewBox="0 0 32 32" version="1.1" xmlns="http://www.w3.org/2000/svg" xmlns:xlink="http://www.w3.org/1999/xlink">
    <!-- Generator: Sketch 52.4 (67378) - http://www.bohemiancoding.com/sketch -->
    <title>数字化工作台</title>
    <desc>Created with Sketch.</desc>
    <defs>
        <path d="M19.5266272,4.20466761 C19.3126581,4.06566783 18.9954163,3.99616887 18.5748948,3.99616887 C18.1617317,3.99616887 17.8423614,4.07714763 17.6167743,4.23910757 C17.3911873,4.40106752 17.2387324,4.63408802 17.159405,4.93817608 L18.1138071,5.10922476 C18.1402495,4.92908564 18.1906547,4.80307278 18.265024,4.73118239 C18.3393934,4.65929201 18.4360721,4.62334736 18.5550631,4.62334736 C18.6707488,4.62334736 18.7616433,4.65639991 18.8277494,4.72250601 C18.8938555,4.78861211 18.9269081,4.87702769 18.9269081,4.98775541 C18.9269081,5.10344108 18.8827003,5.20342506 18.7942834,5.28771034 C18.7058664,5.37199561 18.5955535,5.41413762 18.4633413,5.41413762 C18.4319409,5.41413762 18.3881463,5.41000605 18.3319561,5.40174279 L18.2798978,6.123122 C18.4187206,6.08345834 18.5277941,6.0636268 18.6071214,6.0636268 C18.7558601,6.0636268 18.8736098,6.10990038 18.9603741,6.20244892 C19.0471384,6.29499746 19.0905198,6.42555505 19.0905198,6.5941256 C19.0905198,6.75939085 19.0454857,6.89160107 18.9554162,6.99076022 C18.8653466,7.08991937 18.7525548,7.1394982 18.6170373,7.1394982 C18.4881304,7.1394982 18.381949,7.10024829 18.2984901,7.0217473 C18.2150311,6.9432463 18.1534708,6.80235979 18.1138071,6.59908353 L17.1048678,6.73294772 C17.1709739,6.95936111 17.2655868,7.14734751 17.3887094,7.29691256 C17.511832,7.44647761 17.6688317,7.56009577 17.859713,7.63777043 C18.0505944,7.7154451 18.3112964,7.75428185 18.6418269,7.75428185 C18.9806207,7.75428185 19.2541306,7.70181092 19.4623648,7.59686749 C19.484328,7.58579873 19.5057488,7.5742336 19.5266272,7.56217209 L19.5266272,10.1656073 C18.4559688,10.978293 17.0869646,11.4702986 15.5990374,11.4816568 C14.4014043,11.4816568 13.2818776,11.1692308 12.3445995,10.6485207 C12.1883865,10.5704142 12.0321735,10.5443787 11.901996,10.5964497 L9.66294273,11.4556213 C9.45465871,11.5076923 9.24637468,11.3254438 9.32448119,11.1171598 L10.1315818,8.90414201 C10.1836528,8.74792899 10.1576173,8.59171598 10.0795108,8.46153846 C9.61087173,7.62840237 9.32448119,6.69112426 9.32448119,5.70177515 C9.32448119,3.60362318 10.5486549,1.77109381 12.3893573,0.781065089 L17.964497,0.781065089 C18.8236686,0.781065089 19.5266272,1.48402367 19.5266272,2.34319527 L19.5266272,4.20466761 Z M19.5266272,5.61321987 L19.5266272,5.72409346 C19.4887039,5.71191405 19.4474513,5.7003172 19.4028696,5.68930288 C19.446948,5.6649548 19.4882005,5.63959382 19.5266272,5.61321987 Z M19.5266272,11.1927127 L19.5266272,12.4970414 C19.5266272,13.356213 18.8236686,14.0591716 17.964497,14.0591716 L2.34319527,14.0591716 C1.48402367,14.0591716 0.781065089,13.356213 0.781065089,12.4970414 L0.781065089,2.34319527 C0.781065089,1.48402367 1.48402367,0.781065089 2.34319527,0.781065089 L10.8715382,0.781065089 C9.62699762,1.79495909 8.77246053,3.21058571 8.54123999,4.8186781 L5.85971562,7.32105025 L2.77801456,5.20410165 C2.58541961,5.07180017 2.32203901,5.12067769 2.18973753,5.31327264 C2.05743605,5.50586759 2.10631357,5.76924818 2.29890852,5.90154966 L5.94044557,8.40307289 L8.48713643,6.02652604 C8.53852799,6.97405914 8.81360416,7.9005932 9.28144153,8.76649771 L8.96708995,9.62804972 C8.94041439,9.6227788 8.9128376,9.62001544 8.88461538,9.62001544 L2.53846154,9.62001544 C2.30480261,9.62001544 2.11538462,9.80943343 2.11538462,10.0430924 C2.11538462,10.2767513 2.30480261,10.4661693 2.53846154,10.4661693 L8.66128809,10.4661693 L8.52954479,10.8272418 C8.20209301,11.7003477 9.02768947,12.48663 9.86816518,12.2765111 L9.96607862,12.2456118 L12.044314,11.4481494 C13.0904556,12.0125172 14.3253768,12.3278107 15.5990374,12.3278107 C17.0505783,12.3167394 18.4028921,11.9000766 19.5266272,11.1927127 Z M12.887574,17.183432 C13.7467456,17.183432 14.4497041,17.8863905 14.4497041,18.7455621 L14.4497041,18.9408284 C14.4497041,19.2532544 14.1763314,19.5266272 13.8639053,19.5266272 L6.44378698,19.5266272 C6.13136095,19.5266272 5.85798817,19.2532544 5.85798817,18.9408284 L5.85798817,18.7455621 C5.85798817,17.8863905 6.56094675,17.183432 7.42011834,17.183432 L8.59171598,17.183432 C8.8260355,17.183432 8.98224852,17.0272189 8.98224852,16.7928994 L8.98224852,14.8053187 C8.98224852,14.5709992 9.13846154,14.4147862 9.37278107,14.4147862 L10.9349112,14.4147862 C11.1692308,14.4147862 11.3254438,14.5709992 11.3254438,14.8053187 L11.3254438,16.7928994 C11.3254438,17.0272189 11.4816568,17.183432 11.7159763,17.183432 L12.887574,17.183432 Z M12.6501653,3.99616887 L11.8147536,3.99616887 C11.7073312,4.22423491 11.5585947,4.41593973 11.3685397,4.57128906 C11.1784846,4.7266384 10.9115853,4.85967493 10.5678335,4.97040264 L10.5678335,5.7983774 C10.8008575,5.72731335 10.9946281,5.6529451 11.1491511,5.57527043 C11.3036742,5.49759577 11.4635659,5.39595916 11.6288311,5.27035757 L11.6288311,7.69230769 L12.6501653,7.69230769 L12.6501653,3.99616887 Z M16.7032752,7.69230769 L16.7032752,6.86929087 L15.1266526,6.86929087 C15.2192012,6.77839498 15.2997668,6.70485305 15.3683519,6.64866286 C15.4369369,6.59247268 15.5728656,6.49414133 15.7761418,6.35366587 C16.1182409,6.1123786 16.3541535,5.89092649 16.4838867,5.68930288 C16.6136199,5.48767928 16.6784856,5.27614293 16.6784856,5.0546875 C16.6784856,4.84645329 16.6218831,4.65846688 16.5086764,4.49072266 C16.3954697,4.32297843 16.2401227,4.19861819 16.0426307,4.11763822 C15.8451387,4.03665825 15.5687368,3.99616887 15.2134165,3.99616887 C14.8729701,3.99616887 14.6064838,4.03872403 14.4139498,4.12383564 C14.2214158,4.20894724 14.0722662,4.33124169 13.9664964,4.49072266 C13.8607266,4.65020362 13.788011,4.87206889 13.7483474,5.15632512 L14.7597656,5.23813101 C14.7878607,5.0332021 14.8428106,4.8902498 14.9246169,4.80926983 C15.0064232,4.72828986 15.1117782,4.68780048 15.2406851,4.68780048 C15.364634,4.68780048 15.4675101,4.72705039 15.5493164,4.80555138 C15.6311227,4.88405238 15.6720252,4.97866531 15.6720252,5.08939303 C15.6720252,5.19185748 15.6307095,5.3001046 15.5480769,5.41413762 C15.4654443,5.52817064 15.2762184,5.69508604 14.9803936,5.91488882 C14.4961664,6.27351441 14.1660541,6.58462158 13.9900466,6.84821965 C13.8140391,7.11181772 13.7086841,7.39317759 13.6739784,7.69230769 L16.7032752,7.69230769 Z" id="path-1"></path>
        <path d="M15.5469664,-1.49828342e-12 C18.9836528,-1.49828342e-12 21.7694516,2.55147929 21.7954871,5.75384615 C21.7954871,8.90414201 19.0096883,11.4556213 15.5990374,11.4816568 C14.4014043,11.4816568 13.2818776,11.1692308 12.3445995,10.6485207 C12.1883865,10.5704142 12.0321735,10.5443787 11.901996,10.5964497 L9.66294273,11.4556213 C9.45465871,11.5076923 9.24637468,11.3254438 9.32448119,11.1171598 L10.1315818,8.90414201 C10.1836528,8.74792899 10.1576173,8.59171598 10.0795108,8.46153846 C9.61087173,7.62840237 9.32448119,6.69112426 9.32448119,5.70177515 C9.32448119,2.55147929 12.0842445,-1.50013335e-12 15.5469664,-1.50013335e-12 Z M12.6501653,3.99616887 L11.8147536,3.99616887 C11.7073312,4.22423491 11.5585947,4.41593973 11.3685397,4.57128906 C11.1784846,4.7266384 10.9115853,4.85967493 10.5678335,4.97040264 L10.5678335,5.7983774 C10.8008575,5.72731335 10.9946281,5.6529451 11.1491511,5.57527043 C11.3036742,5.49759577 11.4635659,5.39595916 11.6288311,5.27035757 L11.6288311,7.69230769 L12.6501653,7.69230769 L12.6501653,3.99616887 Z M16.7032752,7.69230769 L16.7032752,6.86929087 L15.1266526,6.86929087 C15.2192012,6.77839498 15.2997668,6.70485305 15.3683519,6.64866286 C15.4369369,6.59247268 15.5728656,6.49414133 15.7761418,6.35366587 C16.1182409,6.1123786 16.3541535,5.89092649 16.4838867,5.68930288 C16.6136199,5.48767928 16.6784856,5.27614293 16.6784856,5.0546875 C16.6784856,4.84645329 16.6218831,4.65846688 16.5086764,4.49072266 C16.3954697,4.32297843 16.2401227,4.19861819 16.0426307,4.11763822 C15.8451387,4.03665825 15.5687368,3.99616887 15.2134165,3.99616887 C14.8729701,3.99616887 14.6064838,4.03872403 14.4139498,4.12383564 C14.2214158,4.20894724 14.0722662,4.33124169 13.9664964,4.49072266 C13.8607266,4.65020362 13.788011,4.87206889 13.7483474,5.15632512 L14.7597656,5.23813101 C14.7878607,5.0332021 14.8428106,4.8902498 14.9246169,4.80926983 C15.0064232,4.72828986 15.1117782,4.68780048 15.2406851,4.68780048 C15.364634,4.68780048 15.4675101,4.72705039 15.5493164,4.80555138 C15.6311227,4.88405238 15.6720252,4.97866531 15.6720252,5.08939303 C15.6720252,5.19185748 15.6307095,5.3001046 15.5480769,5.41413762 C15.4654443,5.52817064 15.2762184,5.69508604 14.9803936,5.91488882 C14.4961664,6.27351441 14.1660541,6.58462158 13.9900466,6.84821965 C13.8140391,7.11181772 13.7086841,7.39317759 13.6739784,7.69230769 L16.7032752,7.69230769 Z M18.1138071,5.10922476 C18.1402495,4.92908564 18.1906547,4.80307278 18.265024,4.73118239 C18.3393934,4.65929201 18.4360721,4.62334736 18.5550631,4.62334736 C18.6707488,4.62334736 18.7616433,4.65639991 18.8277494,4.72250601 C18.8938555,4.78861211 18.9269081,4.87702769 18.9269081,4.98775541 C18.9269081,5.10344108 18.8827003,5.20342506 18.7942834,5.28771034 C18.7058664,5.37199561 18.5955535,5.41413762 18.4633413,5.41413762 C18.4319409,5.41413762 18.3881463,5.41000605 18.3319561,5.40174279 L18.2798978,6.123122 C18.4187206,6.08345834 18.5277941,6.0636268 18.6071214,6.0636268 C18.7558601,6.0636268 18.8736098,6.10990038 18.9603741,6.20244892 C19.0471384,6.29499746 19.0905198,6.42555505 19.0905198,6.5941256 C19.0905198,6.75939085 19.0454857,6.89160107 18.9554162,6.99076022 C18.8653466,7.08991937 18.7525548,7.1394982 18.6170373,7.1394982 C18.4881304,7.1394982 18.381949,7.10024829 18.2984901,7.0217473 C18.2150311,6.9432463 18.1534708,6.80235979 18.1138071,6.59908353 L17.1048678,6.73294772 C17.1709739,6.95936111 17.2655868,7.14734751 17.3887094,7.29691256 C17.511832,7.44647761 17.6688317,7.56009577 17.859713,7.63777043 C18.0505944,7.7154451 18.3112964,7.75428185 18.6418269,7.75428185 C18.9806207,7.75428185 19.2541306,7.70181092 19.4623648,7.59686749 C19.670599,7.49192405 19.8300776,7.34236125 19.9408053,7.14817458 C20.051533,6.95398791 20.106896,6.75112786 20.106896,6.53958834 C20.106896,6.37101779 20.0734303,6.22599971 20.0064979,6.10452975 C19.9395655,5.98305979 19.8457788,5.8851416 19.7251352,5.81077224 C19.6507659,5.76449797 19.5433451,5.72400859 19.4028696,5.68930288 C19.5763981,5.59344904 19.7061294,5.48189667 19.7920673,5.35464243 C19.8780052,5.22738819 19.9209736,5.0852622 19.9209736,4.92826022 C19.9209736,4.66053051 19.8152054,4.43825209 19.6036659,4.26141827 C19.3921263,4.08458445 19.0492061,3.99616887 18.5748948,3.99616887 C18.1617317,3.99616887 17.8423614,4.07714763 17.6167743,4.23910757 C17.3911873,4.40106752 17.2387324,4.63408802 17.159405,4.93817608 L18.1138071,5.10922476 Z" id="path-3"></path>
    </defs>
    <g id="Page-1" stroke="none" stroke-width="1" fill="none" fill-rule="evenodd">
        <g id="补充的icon" transform="translate(-75.000000, -795.000000)">
            <g id="批量释放--copy" transform="translate(75.000000, 795.000000)">
                <g id="分组-8" transform="translate(5.000000, 6.000000)">
                    <mask id="mask-2" fill="white">
                        <use xlink:href="#path-1"></use>
                    </mask>
                    <use id="合并形状" fill="#6D8290" xlink:href="#path-1"></use>
                    <mask id="mask-4" fill="white">
                        <use xlink:href="#path-3"></use>
                    </mask>
                    <use id="合并形状" fill="#8BC34A" xlink:href="#path-3"></use>
                </g>
            </g>
        </g>
    </g>
</svg>