<svg t="1659694377357" class="icon" viewBox="0 0 1024 1024" version="1.1" xmlns="http://www.w3.org/2000/svg" p-id="1956" width="32" height="32"><path d="M500.45811933 620.54799301l43.45178604 65.16410038h-19.55330371c8.54574423 41.90177936 40.89016747 74.88983217 82.62221329 84.26659181 41.73272475 9.3760807 85.08402854-6.60602934 110.73823459-40.82431085h50.53442717c-28.71212549 60.64715143-93.7893223 95.30877694-160.14902574 85.29857173-66.35970343-10.01020521-118.31242405-62.32479773-127.84941214-128.7408527H457.00633329l43.45178604-65.16410037zM653.21830464 223.45298332c23.9976067 0 43.45178603 19.45010573 43.45178603 43.4429599v198.20735883h-46.16752266v-195.49230113H264.86796689V752.91299623l167.69673675-0.00067893v46.15801759H262.15223026c-23.9976067 0-43.45178603-19.44942679-43.45178604-43.44228096V266.89594322C218.70044422 242.90241011 238.15462355 223.45298332 262.15223026 223.45298332h391.06607438z m0.3061993 290.07529747c66.35970343 10.01020521 118.31242405 62.32479773 127.84941215 128.7408527H804.62062162l-43.45178604 65.16410037-43.45178605-65.16410037h19.55330373c-8.54574423-41.90177936-40.89016747-74.88983217-82.62221329-84.26659182-41.73272475-9.3760807-85.08402854 6.60602934-110.7382346 40.82431086h-50.53442715c28.71212549-60.64715143 93.7893223-95.30877694 160.14902572-85.29857174zM462.49212128 442.34882378c11.99676655 0 21.72114049 9.72505287 21.72114049 21.72114048 0 11.99676655-9.72505287 21.72181942-21.72114049 21.72181941H342.99088352c-11.99676655 0-21.72181942-9.72505287-21.72181941-21.72181941s9.72505287-21.72114049 21.72181941-21.72114048H462.49212128z m109.30839926-98.42508472c11.99676655 0 21.72114049 9.72505287 21.72114049 21.72114047 0 11.99676655-9.72505287 21.72181942-21.72114049 21.72181942H343.66981768c-11.99676655 0-21.72181942-9.72505287-21.72181942-21.72181942s9.72505287-21.72114049 21.72181942-21.72114047H571.80052054z" fill="#6D8290" p-id="1957"></path></svg>