<?xml version="1.0" encoding="UTF-8"?>
<svg width="32px" height="32px" viewBox="0 0 32 32" version="1.1" xmlns="http://www.w3.org/2000/svg" xmlns:xlink="http://www.w3.org/1999/xlink">
    <!-- Generator: Sketch 52.4 (67378) - http://www.bohemiancoding.com/sketch -->
    <title>智能排产</title>
    <desc>Created with Sketch.</desc>
    <defs>
        <path d="M6.87716311,-1.81571425e-12 C7.11452246,1.89576799 8.62335993,3.39772491 10.5263158,3.63420275 L10.5263158,8.42040098 L8.28947368,9.91208791 L3.78177065,4.89017083 L-5.68434189e-14,7.97802198 L-5.68434189e-14,2.03039702 C1.72105511,1.81680645 3.28082352,1.08633751 4.51752504,-1.81932247e-12 L6.87716311,-1.8189894e-12 Z" id="path-1"></path>
    </defs>
    <g id="Page-1" stroke="none" stroke-width="1" fill="none" fill-rule="evenodd">
        <g id="补充的icon" transform="translate(-325.000000, -683.000000)">
            <g id="参与排产-copy-2" transform="translate(325.000000, 683.000000)">
                <g id="分组-4" transform="translate(7.000000, 6.000000)">
                    <path d="M2.27219282,8.24888096 C2.7338599,8.39649009 3.22604609,8.47619048 3.73684211,8.47619048 C5.40648842,8.47619048 6.87729811,7.62463218 7.73334489,6.33333333 L11.4136273,6.33333333 C11.21639,6.81857227 11.1077694,7.34900651 11.1077694,7.9047619 C11.1077694,10.2196592 12.9923224,12.0952381 15.3157895,12.0952381 C15.8741391,12.0952381 16.4071421,11.9869266 16.8947368,11.7902351 L16.8947368,17.3358152 L12.1578947,20.7582418 L7.94736842,15.7619048 L2.15789474,20.9185831 L2.27219282,8.24888096 Z M2.28222661,7.1366559 L2.28947368,6.33333333 L6.38656162,6.33333333 C5.70975182,7.00980423 4.77249811,7.42857143 3.73684211,7.42857143 C3.22086576,7.42857143 2.72931436,7.32462701 2.28222661,7.1366559 Z" id="合并形状" fill="#6D8290"></path>
                    <g id="椭圆形" transform="translate(4.263158, 8.428571)">
                        <mask id="mask-2" fill="white">
                            <use xlink:href="#path-1"></use>
                        </mask>
                        <use id="合并形状" fill="#8BC34A" xlink:href="#path-1"></use>
                    </g>
                    <ellipse id="椭圆形" fill="#6D8290" cx="3.73684211" cy="3.71428571" rx="3.73684211" ry="3.71428571"></ellipse>
                    <ellipse id="椭圆形-copy" fill="#6D8290" cx="15.3157895" cy="7.9047619" rx="2.68421053" ry="2.66666667"></ellipse>
                </g>
            </g>
        </g>
    </g>
</svg>