<?xml version="1.0" encoding="UTF-8"?>
<svg width="18px" height="18px" viewBox="0 0 18 18" version="1.1" xmlns="http://www.w3.org/2000/svg" xmlns:xlink="http://www.w3.org/1999/xlink">
    <!-- Generator: Sketch 52.4 (67378) - http://www.bohemiancoding.com/sketch -->
    <title>注塑排产-默认</title>
    <desc>Created with Sketch.</desc>
        <g id="注塑排产">
            <path d="M10.7419355,10.7419355 C11.6033226,10.7419355 12.3186774,10.1128065 12.4577419,9.29032258 L15.6774194,9.29032258 L15.6774194,7.83870968 L18,7.83870968 L18,3.77419355 L12.7741935,3.77419355 L12.7741935,7.83870968 L15.0967742,7.83870968 L15.0967742,8.70967742 L12.4577419,8.70967742 C12.3189677,7.88719355 11.6036129,7.25806452 10.7419355,7.25806452 L9.29032258,7.25806452 L9.29032258,4.62512903 C10.4341935,4.48141935 11.3225806,3.50477419 11.3225806,2.32258065 C11.3225806,1.04196774 10.2806129,0 9,0 C7.7193871,0 6.67741935,1.04196774 6.67741935,2.32258065 C6.67741935,3.50477419 7.56580645,4.48141935 8.70967742,4.62512903 L8.70967742,7.25806452 L7.25806452,7.25806452 C6.39667742,7.25806452 5.68132258,7.88719355 5.54225806,8.70967742 L2.90322581,8.70967742 L2.90322581,7.83870968 L5.22580645,7.83870968 L5.22580645,3.77419355 L0,3.77419355 L0,7.83870968 L2.32258065,7.83870968 L2.32258065,9.29032258 L5.54225806,9.29032258 C5.68103226,10.1128065 6.3963871,10.7419355 7.25806452,10.7419355 L8.70967742,10.7419355 L8.70967742,12.1935484 L2.61290323,12.1935484 C2.13270968,12.1935484 1.74193548,12.5843226 1.74193548,13.0645161 L1.74193548,13.9354839 L0,13.9354839 L0,18 L4.06451613,18 L4.06451613,13.9354839 L2.32258065,13.9354839 L2.32258065,13.0645161 C2.32258065,12.9042581 2.45293548,12.7741935 2.61290323,12.7741935 L8.70967742,12.7741935 L8.70967742,13.9354839 L6.96774194,13.9354839 L6.96774194,18 L11.0322581,18 L11.0322581,13.9354839 L9.29032258,13.9354839 L9.29032258,12.7741935 L15.3870968,12.7741935 C15.5470645,12.7741935 15.6774194,12.9042581 15.6774194,13.0645161 L15.6774194,13.9354839 L13.9354839,13.9354839 L13.9354839,18 L18,18 L18,13.9354839 L16.2580645,13.9354839 L16.2580645,13.0645161 C16.2580645,12.5843226 15.8672903,12.1935484 15.3870968,12.1935484 L9.29032258,12.1935484 L9.29032258,10.7419355 L10.7419355,10.7419355 Z M13.3548387,7.25806452 L13.3548387,4.35483871 L17.4193548,4.35483871 L17.4193548,7.25806452 L13.3548387,7.25806452 Z M0.580645161,7.25806452 L0.580645161,4.35483871 L4.64516129,4.35483871 L4.64516129,7.25806452 L0.580645161,7.25806452 Z M3.48387097,14.516129 L3.48387097,17.4193548 L0.580645161,17.4193548 L0.580645161,14.516129 L3.48387097,14.516129 Z M17.4193548,14.516129 L17.4193548,17.4193548 L14.516129,17.4193548 L14.516129,14.516129 L17.4193548,14.516129 Z M7.25806452,2.32258065 C7.25806452,1.36190323 8.03932258,0.580645161 9,0.580645161 C9.96067742,0.580645161 10.7419355,1.36190323 10.7419355,2.32258065 C10.7419355,3.28325806 9.96067742,4.06451613 9,4.06451613 C8.03932258,4.06451613 7.25806452,3.28325806 7.25806452,2.32258065 Z M10.4516129,14.516129 L10.4516129,17.4193548 L7.5483871,17.4193548 L7.5483871,14.516129 L10.4516129,14.516129 Z M7.25806452,10.1612903 C6.6176129,10.1612903 6.09677419,9.64045161 6.09677419,9 C6.09677419,8.35954839 6.6176129,7.83870968 7.25806452,7.83870968 L10.7419355,7.83870968 C11.3823871,7.83870968 11.9032258,8.35954839 11.9032258,9 C11.9032258,9.64045161 11.3823871,10.1612903 10.7419355,10.1612903 L7.25806452,10.1612903 Z M1.16129032,4.93548387 L4.06451613,4.93548387 L4.06451613,5.51612903 L1.16129032,5.51612903 L1.16129032,4.93548387 Z M3.48387097,6.09677419 L4.06451613,6.09677419 L4.06451613,6.67741935 L3.48387097,6.67741935 L3.48387097,6.09677419 Z M1.16129032,6.09677419 L2.90322581,6.09677419 L2.90322581,6.67741935 L1.16129032,6.67741935 L1.16129032,6.09677419 Z M13.9354839,4.93548387 L16.8387097,4.93548387 L16.8387097,5.51612903 L13.9354839,5.51612903 L13.9354839,4.93548387 Z M13.9354839,6.09677419 L14.516129,6.09677419 L14.516129,6.67741935 L13.9354839,6.67741935 L13.9354839,6.09677419 Z M15.0967742,6.09677419 L16.8387097,6.09677419 L16.8387097,6.67741935 L15.0967742,6.67741935 L15.0967742,6.09677419 Z M6.67741935,8.70967742 L6.67741935,9.29032258 L10.1612903,9.29032258 L10.1612903,8.70967742 L6.67741935,8.70967742 Z M10.7419355,8.70967742 L10.7419355,9.29032258 L11.3225806,9.29032258 L11.3225806,8.70967742 L10.7419355,8.70967742 Z" id="browser-3"></path>
        </g>
</svg>
