<?xml version="1.0" encoding="UTF-8"?>
<svg width="32px" height="32px" viewBox="0 0 32 32" version="1.1" xmlns="http://www.w3.org/2000/svg" xmlns:xlink="http://www.w3.org/1999/xlink">
    <!-- Generator: Sketch 52.4 (67378) - http://www.bohemiancoding.com/sketch -->
    <title>清除计划</title>
    <desc>Created with Sketch.</desc>
    <defs>
        <path d="M4.13043478,0 C1.84148551,0 0,1.85763889 0,4.16666667 C0,6.47569444 1.84148551,8.33333333 4.13043478,8.33333333 C6.41938406,8.33333333 8.26086957,6.47569444 8.26086957,4.16666667 C8.26086957,1.85763889 6.41938406,0 4.13043478,0 Z M4.97373188,4.30555556 L6.31612319,5.65972222 C6.38496377,5.72916667 6.38496377,5.83333333 6.31612319,5.90277778 L5.83423913,6.38888889 C5.76539855,6.45833333 5.66213768,6.45833333 5.5932971,6.38888889 L4.2509058,5.03472222 C4.18206522,4.96527778 4.07880435,4.96527778 4.00996377,5.03472222 L2.66757246,6.38888889 C2.59873188,6.45833333 2.49547101,6.45833333 2.42663043,6.38888889 L1.94474638,5.90277778 C1.8759058,5.83333333 1.8759058,5.72916667 1.94474638,5.65972222 L3.28713768,4.30555556 C3.35597826,4.23611111 3.35597826,4.13194444 3.28713768,4.0625 L1.92753623,2.69097222 C1.85869565,2.62152778 1.85869565,2.51736111 1.92753623,2.44791667 L2.40942029,1.96180556 C2.47826087,1.89236111 2.58152174,1.89236111 2.65036232,1.96180556 L4.00996377,3.33333333 C4.07880435,3.40277778 4.18206522,3.40277778 4.2509058,3.33333333 L5.5932971,1.97916667 C5.66213768,1.90972222 5.76539855,1.90972222 5.83423913,1.97916667 L6.31612319,2.46527778 C6.38496377,2.53472222 6.38496377,2.63888889 6.31612319,2.70833333 L4.97373188,4.0625 C4.92210145,4.13194444 4.92210145,4.23611111 4.97373188,4.30555556 L4.97373188,4.30555556 Z" id="path-1"></path>
    </defs>
    <g id="Page-1" stroke="none" stroke-width="1" fill="none" fill-rule="evenodd">
        <g id="补充的icon" transform="translate(-251.000000, -459.000000)">
            <g id="清除计划" transform="translate(251.000000, 459.000000)">
                <g id="分组-5" transform="translate(7.000000, 6.000000)">
                    <path d="M9.89405199,18.8141026 L1.81103679,18.8141026 C0.972240803,18.8141026 0.285953177,18.1217949 0.285953177,17.275641 L0.285953177,3.42948718 C0.285953177,2.58333333 0.972240803,1.89102564 1.81103679,1.89102564 L2.76421405,1.89102564 C3.06923077,1.89102564 3.3361204,2.16025641 3.3361204,2.46794872 L3.3361204,4.19871795 C3.3361204,5.04487179 4.02240803,5.73717949 4.86120401,5.73717949 L12.4866221,5.73717949 C13.3254181,5.73717949 14.0117057,5.04487179 14.0117057,4.19871795 L14.0117057,2.46794872 C14.0117057,2.16025641 14.2785953,1.89102564 14.583612,1.89102564 L15.5367893,1.89102564 C16.3755853,1.89102564 17.0618729,2.58333333 17.0618729,3.42948718 L17.0618729,10.4314265 C16.3862619,10.1532212 15.6461622,10 14.8695652,10 C13.5898685,10 12.4092738,10.4160463 11.4530263,11.1217949 L4.47993311,11.1217949 C4.25117057,11.1217949 4.09866221,11.275641 4.09866221,11.5064103 L4.09866221,12.275641 C4.09866221,12.5064103 4.25117057,12.6602564 4.47993311,12.6602564 L10.0123021,12.6602564 C9.71047826,13.1304458 9.47399465,13.6475736 9.31566058,14.1987179 L4.47993311,14.1987179 C4.25117057,14.1987179 4.09866221,14.3525641 4.09866221,14.5833333 L4.09866221,15.3525641 C4.09866221,15.5833333 4.25117057,15.7371795 4.47993311,15.7371795 L9.08772028,15.7371795 C9.08721175,15.7691676 9.08695652,15.8012195 9.08695652,15.8333333 C9.08695652,16.9236026 9.38113855,17.9425632 9.89405199,18.8141026 Z M5.43311037,4.19871795 C5.12809365,4.19871795 4.86120401,3.92948718 4.86120401,3.62179487 L4.86120401,1.89102564 C4.86120401,1.04487179 5.54749164,0.352564103 6.38628763,0.352564103 L10.9615385,0.352564103 C11.8003344,0.352564103 12.4866221,1.04487179 12.4866221,1.89102564 L12.4866221,3.62179487 C12.4866221,3.92948718 12.2197324,4.19871795 11.9147157,4.19871795 L5.43311037,4.19871795 Z M13.2491639,9.19871795 L13.2491639,8.42948718 C13.2491639,8.19871795 13.0966555,8.04487179 12.867893,8.04487179 L4.47993311,8.04487179 C4.25117057,8.04487179 4.09866221,8.19871795 4.09866221,8.42948718 L4.09866221,9.19871795 C4.09866221,9.42948718 4.25117057,9.58333333 4.47993311,9.58333333 L12.867893,9.58333333 C13.0966555,9.58333333 13.2491639,9.42948718 13.2491639,9.19871795 Z" id="合并形状" fill="#6D8290"></path>
                    <g id="icons/utility/clear" transform="translate(10.739130, 11.666667)">
                        <mask id="mask-2" fill="white">
                            <use xlink:href="#path-1"></use>
                        </mask>
                        <use id="Mask" fill="#8BC34A" xlink:href="#path-1"></use>
                    </g>
                </g>
            </g>
        </g>
    </g>
</svg>