<svg t="1665977713453" class="icon" viewBox="0 0 1024 1024" version="1.1" xmlns="http://www.w3.org/2000/svg" p-id="2299" width="32" height="32"><path d="M579.18670722 220.3669188a55.54915823 55.54915823 0 0 1 55.54915824 55.54915825v100.59952604l85.57347807 0.01388686a69.43644765 69.43644765 0 0 1 69.3670116 66.42290629l0.06943605 3.01354195V720.30934353a69.43644765 69.43644765 0 0 1-69.43644764 69.43644765H303.69065647a69.43644765 69.43644765 0 0 1-69.43644765-69.43644764V445.9659382a69.43644765 69.43644765 0 0 1 69.43644764-69.43644825l87.51769873-0.01388686V275.91607706a55.54915823 55.54915823 0 0 1 52.78558804-55.47972159l2.77745764-0.06943667zM289.80336704 553.66186883v166.6474747a13.8872894 13.8872894 0 0 0 13.88728942 13.88728944h180.53476412v-97.21102709a27.77457942 27.77457942 0 1 1 55.54915884 0v97.21102709h55.54915824v-97.21102709a27.77457942 27.77457942 0 1 1 55.54915824 0v97.21102709h69.43644763a13.8872894 13.8872894 0 0 0 13.88728943-13.88728943V553.66186883H289.80336704z m0-55.54915823h444.39326592v-52.1467724a13.8872894 13.8872894 0 0 0-13.88728942-13.88728942h-99.46076808a41.66186883 41.66186883 0 0 1-41.66186823-41.66186883V275.91607706h-132.41530635v114.50070289a41.66186883 41.66186883 0 0 1-41.66186883 41.66186883H303.69065647a13.8872894 13.8872894 0 0 0-13.88728943 13.88728941V498.1127106z" fill="#8BC34A" p-id="2300"></path></svg>