<?xml version="1.0" encoding="UTF-8"?>
<svg width="18px" height="18px" viewBox="0 0 18 18" version="1.1" xmlns="http://www.w3.org/2000/svg"
     xmlns:xlink="http://www.w3.org/1999/xlink">
  <path
    d="M15.9579251,0 L15.9579251,5.5667152 L14.474456,5.5667152 L14.474456,2.59777564 L8.90769212,2.59777564 L8.90769212,1.11334304 L3.15449085,1.11334304 L3.15449085,5.5667152 L1.85652975,5.5667152 L1.85652975,0 L0,0 L0,18 L1.85649257,18 L1.85649257,14.6599709 L15.9578879,14.6599709 L15.9578879,18 L18,18 L18,0 L15.9579251,0 L15.9579251,0 L15.9579251,0 Z M0.557639245,17.4423619 L0.557639245,0.557638093 L1.29885333,0.557638093 L1.29885333,17.4423619 L0.557639245,17.4423619 L0.557639245,17.4423619 L0.557639245,17.4423619 Z M8.90769212,3.15541374 L13.9167796,3.15541374 L13.9167796,5.56667803 L8.90769212,5.56667803 L8.90769212,3.15541374 L8.90769212,3.15541374 L8.90769212,3.15541374 Z M5.5676561,1.67098113 L6.4944897,1.67098113 L6.4944897,3.34002912 L5.5676561,3.34002912 L5.5676561,1.67098113 L5.5676561,1.67098113 L5.5676561,1.67098113 Z M3.7121301,1.67098113 L5.01005403,1.67098113 L5.01005403,3.89766721 L7.05216612,3.89766721 L7.05216612,1.67098113 L8.35009005,1.67098113 L8.35009005,5.5667152 L3.7121301,5.5667152 L3.7121301,1.67098113 L3.7121301,1.67098113 L3.7121301,1.67098113 Z M15.9579251,14.1023328 L1.85652975,14.1023328 L1.85652975,13.5466278 L15.9579251,13.5466278 L15.9579251,14.1023328 L15.9579251,14.1023328 L15.9579251,14.1023328 Z M4.08322043,12.9889897 L4.08322043,10.5777255 L9.09230788,10.5777255 L9.09230788,12.9889897 L4.08322043,12.9889897 L4.08322043,12.9889897 L4.08322043,12.9889897 Z M12.989946,11.3199418 L12.989946,9.09325568 L14.2878699,9.09325568 L14.2878699,12.9889897 L9.64994713,12.9889897 L9.64994713,9.09325568 L10.9478711,9.09325568 L10.9478711,11.3199418 L12.989946,11.3199418 L12.989946,11.3199418 L12.989946,11.3199418 Z M11.5055475,10.7623037 L11.5055475,9.09325568 L12.4323811,9.09325568 L12.4323811,10.7623037 L11.5055475,10.7623037 L11.5055475,10.7623037 L11.5055475,10.7623037 Z M15.9579251,12.9889897 L14.8455463,12.9889897 L14.8455463,8.53561758 L9.09230788,8.53561758 L9.09230788,10.0200874 L3.52558118,10.0200874 L3.52558118,12.9889897 L1.85652975,12.9889897 L1.85652975,7.23769634 L15.9579251,7.23769634 L15.9579251,12.9889897 L15.9579251,12.9889897 L15.9579251,12.9889897 Z M15.9579251,6.68005824 L1.85652975,6.68005824 L1.85652975,6.12435329 L15.9579251,6.12435329 L15.9579251,6.68005824 L15.9579251,6.68005824 L15.9579251,6.68005824 Z M17.4423608,17.4423619 L16.5155272,17.4423619 L16.5155272,0.557638093 L17.4423608,0.557638093 L17.4423608,17.4423619 L17.4423608,17.4423619 Z M12.1544537,4.08224542 L13.267799,4.08224542 L13.267799,4.63988352 L12.1544537,4.63988352 L12.1544537,4.08224542 L12.1544537,4.08224542 Z M9.927763,4.08224542 L11.7833262,4.08224542 L11.7833262,4.63988352 L9.927763,4.63988352 L9.927763,4.08224542 L9.927763,4.08224542 Z M7.32994481,11.50452 L8.44329015,11.50452 L8.44329015,12.0621581 L7.32994481,12.0621581 L7.32994481,11.50452 L7.32994481,11.50452 Z M5.10332849,11.50452 L6.95889166,11.50452 L6.95889166,12.0621581 L5.10332849,12.0621581 L5.10332849,11.50452 L5.10332849,11.50452 Z"></path>
</svg>
