<?xml version="1.0" encoding="UTF-8"?>
<svg width="18px" height="18px" viewBox="0 0 18 18" version="1.1" xmlns="http://www.w3.org/2000/svg" xmlns:xlink="http://www.w3.org/1999/xlink">
    <!-- Generator: Sketch 52.4 (67378) - http://www.bohemiancoding.com/sketch -->
    <title>物料计划-白</title>
    <desc>Created with Sketch.</desc>
    <g id="Page-1" stroke="none" stroke-width="1" fill="none" fill-rule="evenodd">
        <g id="物料计划-白" fill="#FFFFFF">
            <path d="M17.3501272,2.69401516 L16.7011467,2.69401516 L16.7011467,1 L11.6901261,1 L11.6901261,2.69401516 L11.0411827,2.69401516 C10.6827694,2.69401516 10.3912356,2.99316975 10.3912356,3.36084367 L10.3912356,9.28186448 L8.72218413,9.28186448 L8.72218413,4.38803033 L2.59778101,4.38803033 L2.59778101,9.28186448 L0,9.28186448 L0,17 L1.67098458,17 L1.67098458,11.7297055 L10.3911984,11.7297055 L10.3911984,16.9999623 L12.062183,16.9999623 L12.062183,13.2354716 L16.3290154,13.2354716 L16.3290154,16.9999623 L18,16.9999623 L18,3.36080596 C18.0000372,2.99313204 17.7084662,2.69401516 17.3501272,2.69401516 L17.3501272,2.69401516 L17.3501272,2.69401516 Z M5.0110206,4.95368251 L6.30894453,4.95368251 L6.30894453,6.64671721 L5.0110206,6.64671721 L5.0110206,4.95368251 L5.0110206,4.95368251 L5.0110206,4.95368251 Z M3.15542025,4.95368251 L4.45338136,4.95368251 L4.45338136,7.2123694 L6.86658378,7.2123694 L6.86658378,4.95368251 L8.16454488,4.95368251 L8.16454488,9.28186448 L3.15542025,9.28186448 L3.15542025,4.95368251 L3.15542025,4.95368251 L3.15542025,4.95368251 Z M1.11334534,16.4343478 L0.557639245,16.4343478 L0.557639245,11.7297055 L1.11334534,11.7297055 L1.11334534,16.4343478 L1.11334534,16.4343478 L1.11334534,16.4343478 Z M10.3911984,11.1640533 L0.557639245,11.1640533 L0.557639245,9.84747896 L10.3911984,9.84747896 L10.3911984,11.1640533 L10.3911984,11.1640533 L10.3911984,11.1640533 Z M12.2477653,1.56565219 L16.1435074,1.56565219 L16.1435074,2.69401516 L12.2477653,2.69401516 L12.2477653,1.56565219 L12.2477653,1.56565219 L12.2477653,1.56565219 Z M11.5045437,16.4343478 L10.9488376,16.4343478 L10.9488376,13.2278918 C10.9790989,13.2324171 11.5045437,13.2355093 11.5045437,13.2355093 L11.5045437,16.4343478 L11.5045437,16.4343478 L11.5045437,16.4343478 Z M17.4423979,16.4343478 L16.8866918,16.4343478 L16.8866918,13.2355093 C16.8866918,13.2355093 17.4121739,13.2324171 17.4423979,13.228005 L17.4423979,16.4343478 L17.4423979,16.4343478 L17.4423979,16.4343478 Z M17.4423979,12.5686808 C17.4423979,12.6235113 17.4001289,12.6698194 17.3501272,12.6698194 L11.0411827,12.6698194 C10.9934488,12.6698194 10.9506964,12.6246426 10.9488748,12.5727535 L10.9488748,3.36080596 C10.9488748,3.30597541 10.991181,3.25962964 11.0411827,3.25962964 L17.3501272,3.25962964 C17.4001661,3.25962964 17.4423979,3.30597541 17.4423979,3.36080596 L17.4423979,12.5686808 L17.4423979,12.5686808 Z M16.7011467,7.0231776 L11.6901261,7.0231776 L11.6901261,9.47105628 L16.7011467,9.47105628 L16.7011467,7.0231776 L16.7011467,7.0231776 Z M13.9168167,8.90536639 L12.2477653,8.90536639 L12.2477653,7.58879207 L13.9168167,7.58879207 L13.9168167,8.90536639 L13.9168167,8.90536639 Z M16.1435074,8.90536639 L14.474456,8.90536639 L14.474456,7.58879207 L16.1435074,7.58879207 L16.1435074,8.90536639 L16.1435074,8.90536639 L16.1435074,8.90536639 Z M16.7011467,4.01156994 L11.6901261,4.01156994 L11.6901261,6.45944863 L16.7011467,6.45944863 L16.7011467,4.01156994 L16.7011467,4.01156994 Z M13.9168167,5.89375874 L12.2477653,5.89375874 L12.2477653,4.57718442 L13.9168167,4.57718442 L13.9168167,5.89375874 L13.9168167,5.89375874 Z M16.1435074,5.89375874 L14.474456,5.89375874 L14.474456,4.57718442 L16.1435074,4.57718442 L16.1435074,5.89375874 L16.1435074,5.89375874 L16.1435074,5.89375874 Z M16.0511995,10.4111325 L16.7934174,10.4111325 L16.7934174,10.9767847 L16.0511995,10.9767847 L16.0511995,10.4111325 L16.0511995,10.4111325 Z M14.9378542,10.4111325 L15.6801092,10.4111325 L15.6801092,10.9767847 L14.9378542,10.9767847 L14.9378542,10.4111325 L14.9378542,10.4111325 Z M14.3811815,11.5405514 L16.7934174,11.5405514 L16.7934174,12.1062036 L14.3811815,12.1062036 L14.3811815,11.5405514 L14.3811815,11.5405514 Z" id="物料计划-默认"></path>
        </g>
    </g>
</svg>