<?xml version="1.0" encoding="UTF-8"?>
<svg width="18px" height="18px" viewBox="0 0 18 18" version="1.1" xmlns="http://www.w3.org/2000/svg"
     xmlns:xlink="http://www.w3.org/1999/xlink">
  <path
    d="M17.9999589,11.8092519 L15.8414587,11.8092519 L15.8414587,8.27957146 L10.4966012,8.27957146 L10.4966012,2.25835185 L4.94617226,2.25835185 L4.94617226,6.82617362 L3.30160072,6.82617362 L3.30160072,11.8092519 L1.86260062,11.8092519 L1.86260062,2.44081556 L0.436058145,1 L0,1.4404626 L1.24588629,2.69881444 L1.24588629,14.0932043 L3.10153859,14.0932043 C2.84198408,14.4012416 2.68488639,14.7999294 2.68488639,15.2351598 C2.68488639,16.2083134 3.4687303,17 4.43224365,17 C5.39575701,17 6.17960092,16.2083134 6.17960092,15.2351598 C6.17960092,14.7999294 6.02246211,14.4012416 5.76294872,14.0932043 L12.5578661,14.0932043 C12.2983116,14.4012416 12.1412139,14.7999294 12.1412139,15.2351598 C12.1412139,16.2083134 12.9250578,17 13.8885711,17 C14.8520845,17 15.6359284,16.2083134 15.6359284,15.2351598 C15.6359284,14.7999294 15.4787896,14.4012416 15.2192762,14.0932043 L17.0749285,14.0932043 L17.0749285,12.4321782 L18,12.4321782 L17.9999589,11.8092519 L17.9999589,11.8092519 L17.9999589,11.8092519 L17.9999589,11.8092519 Z M10.4966012,8.90245624 L15.2247444,8.90245624 L15.2247444,9.73296929 L11.8328156,9.73296929 L11.8328156,10.3558541 L15.2247444,10.3558541 L15.2247444,11.8092519 L10.4966012,11.8092519 L10.4966012,8.90245624 L10.4966012,8.90245624 L10.4966012,8.90245624 Z M7.20745813,2.88123663 L8.23531535,2.88123663 L8.23531535,4.33463447 L7.20745813,4.33463447 L7.20745813,2.88123663 L7.20745813,2.88123663 L7.20745813,2.88123663 Z M5.56288659,2.88123663 L6.5907438,2.88123663 L6.5907438,4.95751926 L8.85202968,4.95751926 L8.85202968,2.88123663 L9.87988689,2.88123663 L9.87988689,6.82617362 L5.56288659,6.82617362 L5.56288659,2.88123663 L5.56288659,2.88123663 L5.56288659,2.88123663 Z M7.82417246,7.44905841 L7.82417246,8.90245624 L5.97402947,8.90245624 L5.97402947,7.44905841 L7.82417246,7.44905841 L7.82417246,7.44905841 L7.82417246,7.44905841 Z M5.35731515,7.44905841 L5.35731515,9.52534103 L8.44088679,9.52534103 L8.44088679,7.44905841 L9.87988689,7.44905841 L9.87988689,11.8092519 L3.91831505,11.8092519 L3.91831505,7.44905841 L5.35731515,7.44905841 L5.35731515,7.44905841 L5.35731515,7.44905841 Z M4.43224365,16.3770737 C3.80878658,16.3770737 3.30160072,15.8647717 3.30160072,15.2351182 C3.30160072,14.6054648 3.80878658,14.0931628 4.43224365,14.0931628 C5.05570072,14.0931628 5.56288659,14.6054648 5.56288659,15.2351182 C5.56288659,15.8647717 5.05570072,16.3770737 4.43224365,16.3770737 L4.43224365,16.3770737 L4.43224365,16.3770737 Z M13.88853,16.3770737 C13.2651141,16.3770737 12.7578871,15.8647717 12.7578871,15.2351182 C12.7578871,14.6054648 13.2651141,14.0931628 13.88853,14.0931628 C14.511946,14.0931628 15.019173,14.6054648 15.019173,15.2351182 C15.019173,15.8647717 14.511946,16.3770737 13.88853,16.3770737 L13.88853,16.3770737 L13.88853,16.3770737 Z M16.4581731,13.470278 L1.86260062,13.470278 L1.86260062,12.4321367 L16.4581731,12.4321367 L16.4581731,13.470278 L16.4581731,13.470278 Z M4.02110077,14.9236759 L4.84338654,14.9236759 L4.84338654,15.5465606 L4.02110077,15.5465606 L4.02110077,14.9236759 L4.02110077,14.9236759 Z M13.4773871,14.9236759 L14.2996729,14.9236759 L14.2996729,15.5465606 L13.4773871,15.5465606 L13.4773871,14.9236759 L13.4773871,14.9236759 Z"></path>
</svg>
