<?xml version="1.0" encoding="UTF-8"?>
<svg width="32px" height="32px" viewBox="0 0 32 32" version="1.1" xmlns="http://www.w3.org/2000/svg" xmlns:xlink="http://www.w3.org/1999/xlink">
    <!-- Generator: Sketch 52.4 (67378) - http://www.bohemiancoding.com/sketch -->
    <title>生成流水号</title>
    <desc>Created with Sketch.</desc>
    <defs>
        <path d="M19.2307692,1.28571429 L19.2307692,2.47252747 C19.2307692,2.78901099 18.9615385,3.06593407 18.6538462,3.06593407 L8.26923077,3.06593407 C7.96153846,3.06593407 7.69230769,2.78901099 7.69230769,2.47252747 L7.69230769,1.28571429 C7.69230769,0.969230769 7.96153846,0.692307692 8.26923077,0.692307692 L18.6538462,0.692307692 C18.9615385,0.692307692 19.2307692,0.969230769 19.2307692,1.28571429 Z M8.26923077,7.02197802 L15.1923077,7.02197802 C15.5,7.02197802 15.7692308,6.74505495 15.7692308,6.42857143 L15.7692308,5.24175824 C15.7692308,4.92527473 15.5,4.64835165 15.1923077,4.64835165 L8.26923077,4.64835165 C7.96153846,4.64835165 7.69230769,4.92527473 7.69230769,5.24175824 L7.69230769,6.42857143 C7.69230769,6.74505495 7.96153846,7.02197802 8.26923077,7.02197802 Z M18.6538462,10.5824176 L8.26923077,10.5824176 C7.96153846,10.5824176 7.69230769,10.8593407 7.69230769,11.1758242 L7.69230769,12.3626374 C7.69230769,12.6791209 7.96153846,12.956044 8.26923077,12.956044 L18.6538462,12.956044 C18.9615385,12.956044 19.2307692,12.6791209 19.2307692,12.3626374 L19.2307692,11.1758242 C19.2307692,10.8593407 18.9615385,10.5824176 18.6538462,10.5824176 Z M15.1923077,14.5384615 L8.26923077,14.5384615 C7.96153846,14.5384615 7.69230769,14.8153846 7.69230769,15.1318681 L7.69230769,16.3186813 C7.69230769,16.6351648 7.96153846,16.9120879 8.26923077,16.9120879 L15.1923077,16.9120879 C15.5,16.9120879 15.7692308,16.6351648 15.7692308,16.3186813 L15.7692308,15.1318681 C15.7692308,14.8153846 15.5,14.5384615 15.1923077,14.5384615 Z M1.34615385,1.87912088 L2.30769231,1.87912088 L2.30769231,6.82417582 C2.30769231,7.14065934 2.57692308,7.41758242 2.88461538,7.41758242 L3.26923077,7.41758242 C3.57692308,7.41758242 3.84615385,7.14065934 3.84615385,6.82417582 L3.84615385,1.08791209 C3.84615385,0.652747253 3.5,0.296703297 3.07692308,0.296703297 L1.34615385,0.296703297 C1.03846154,0.296703297 0.769230769,0.573626374 0.769230769,0.89010989 L0.769230769,1.28571429 C0.769230769,1.6021978 1.03846154,1.87912088 1.34615385,1.87912088 Z M4.61538462,9.79120879 L1.34615385,9.79120879 C1.03846154,9.79120879 0.769230769,10.0681319 0.769230769,10.3846154 L0.769230769,10.7802198 C0.769230769,11.0967033 1.03846154,11.3736264 1.34615385,11.3736264 L3.84615385,11.3736264 L3.84615385,12.956044 L1.53846154,12.956044 C1.11538462,12.956044 0.769230769,13.3120879 0.769230769,13.7472527 L0.769230769,16.9120879 C0.769230769,17.3472527 1.11538462,17.7032967 1.53846154,17.7032967 L4.80769231,17.7032967 C5.11538462,17.7032967 5.38461538,17.4263736 5.38461538,17.1098901 L5.38461538,16.7142857 C5.38461538,16.3978022 5.11538462,16.1208791 4.80769231,16.1208791 L2.30769231,16.1208791 L2.30769231,14.5384615 L4.61538462,14.5384615 C5.03846154,14.5384615 5.38461538,14.1824176 5.38461538,13.7472527 L5.38461538,10.5824176 C5.38461538,10.1472527 5.03846154,9.79120879 4.61538462,9.79120879 Z" id="path-1"></path>
    </defs>
    <g id="Page-1" stroke="none" stroke-width="1" fill="none" fill-rule="evenodd">
        <g id="补充的icon" transform="translate(-164.000000, -245.000000)">
            <g id="生成流水号" transform="translate(164.000000, 245.000000)">
                <g id="icons/utility/richtextnumberedlist-copy" transform="translate(6.000000, 7.000000)">
                    <mask id="mask-2" fill="white">
                        <use xlink:href="#path-1"></use>
                    </mask>
                    <use id="Mask" fill="#6D8290" xlink:href="#path-1"></use>
                    <path d="M1.34615385,1.87912088 L2.30769231,1.87912088 L2.30769231,6.82417582 C2.30769231,7.14065934 2.57692308,7.41758242 2.88461538,7.41758242 L3.26923077,7.41758242 C3.57692308,7.41758242 3.84615385,7.14065934 3.84615385,6.82417582 L3.84615385,1.08791209 C3.84615385,0.652747253 3.5,0.296703297 3.07692308,0.296703297 L1.34615385,0.296703297 C1.03846154,0.296703297 0.769230769,0.573626374 0.769230769,0.89010989 L0.769230769,1.28571429 C0.769230769,1.6021978 1.03846154,1.87912088 1.34615385,1.87912088 Z" id="Path" fill="#8BC34A" mask="url(#mask-2)"></path>
                    <path d="M4.61538462,9.79120879 L1.34615385,9.79120879 C1.03846154,9.79120879 0.769230769,10.0681319 0.769230769,10.3846154 L0.769230769,10.7802198 C0.769230769,11.0967033 1.03846154,11.3736264 1.34615385,11.3736264 L3.84615385,11.3736264 L3.84615385,12.956044 L1.53846154,12.956044 C1.11538462,12.956044 0.769230769,13.3120879 0.769230769,13.7472527 L0.769230769,16.9120879 C0.769230769,17.3472527 1.11538462,17.7032967 1.53846154,17.7032967 L4.80769231,17.7032967 C5.11538462,17.7032967 5.38461538,17.4263736 5.38461538,17.1098901 L5.38461538,16.7142857 C5.38461538,16.3978022 5.11538462,16.1208791 4.80769231,16.1208791 L2.30769231,16.1208791 L2.30769231,14.5384615 L4.61538462,14.5384615 C5.03846154,14.5384615 5.38461538,14.1824176 5.38461538,13.7472527 L5.38461538,10.5824176 C5.38461538,10.1472527 5.03846154,9.79120879 4.61538462,9.79120879 Z" id="Path" fill="#8BC34A" mask="url(#mask-2)"></path>
                </g>
            </g>
        </g>
    </g>
</svg>