<svg t="1659509604292" class="icon" viewBox="0 0 1024 1024" version="1.1" xmlns="http://www.w3.org/2000/svg" p-id="1064" width="32" height="32"><path d="M460.69068237 743.56180949h-137.23522367c-23.24670575 0-42.25686172-20.06024094-42.25686237-44.57429038V321.68117714c0-24.47783953 19.01015661-44.53808048 42.22065245-44.53808048h312.59939026c23.21049586 0 42.22065182 20.06024094 42.22065246 44.53808048v198.57466242c0 12.4923887 12.45617881 20.82064741 24.29679008 20.82064741 11.8406119 0 26.72284842-8.3282587 26.72284842-20.82064741v-208.93067128c0-48.99188898-38.02031257-89.0761616-84.47751354-89.0761616H306.79894063C260.34173905 222.21279678 222.32142646 262.29706941 222.32142646 311.28895838v401.13240474c0 48.99188898 38.02031257 89.11237149 84.47751416 89.1123715h153.89174175c11.8406119 0 20.53096891-17.38071462 20.5309689-29.87310334s-8.69035701-28.13503168-20.5309689-28.13503104z" fill="#6D8290" p-id="1065"></path><path d="M596.47751416 367.16071291H355.10284228C341.56036925 367.16071291 330.95089178 379.10995449 330.95089178 394.3180794s10.60947748 27.15736648 24.1519505 27.15736649h241.37467189c13.54247303 0 24.15195114-11.94924096 24.15195114-27.15736649S610.0199872 367.16071291 596.47751416 367.16071291zM620.62946531 519.60406277c0-15.20812491-10.60947748-27.15736648-24.15195115-27.15736649H355.10284228c-13.54247303 0-24.15195114 11.94924096-24.1519505 27.15736649s10.60947748 27.15736648 24.1519505 27.15736586h241.37467189c13.54247303 0 24.15195114-11.94924096 24.15195114-27.15736586zM355.10284228 617.8050988c-13.54247303 0-24.15195114 11.94924096-24.1519505 27.15736649s10.60947748 27.15736648 24.1519505 27.15736648h60.32556303c13.54247303 0 24.15195114-11.94924096 24.15195115-27.15736648s-10.60947748-27.15736648-24.15195115-27.15736649H355.10284228zM795.26943532 555.45178625c-8.79898668-9.66802218-29.25753579-9.66802218-38.02031322 0l-160.40950964 173.30020653-74.23013498-77.45280842c-8.76277678-9.66802218-30.81455797-8.47309828-40.19290166 0-8.83519657 9.66802218-8.83519657 32.29916102 0 41.42403546l88.82269235 97.62167967c12.99932592 13.7597324 26.86768798 13.7597324 36.10119209 6.62639758l187.92897506-206.43219381c8.3282587-9.66802218 8.76277678-25.41929483 0-35.08731701z" fill="#8BC34A" p-id="1066"></path></svg>