<svg t="1653371973550" class="icon" viewBox="0 0 1024 1024" version="1.1" xmlns="http://www.w3.org/2000/svg" p-id="957" width="32" height="32"><path d="M727.51916143 492.96862691h-49.64706023v-125.39065209c0-0.38190046 0.19095024-0.63650077 0.19095024-1.01840125 0-0.44555055-0.06365008-0.89110107-0.06365008-1.3366516 0.12730015-1.01840124 0.25460031-2.03680247 0.31825039-3.05520372h-0.44555055c-2.35505286-91.01961041-76.88929327-164.34449935-168.48175436-164.34449935-93.05641288 0-168.73635468 75.67994181-168.73635469 168.73635468v126.40905334h-49.39245991c-18.90407293 0-34.3710417 15.46696877-34.3710417 34.37104169v267.33032428c0 18.90407293 15.46696877 34.3710417 34.3710417 34.37104168h436.19397911c18.90407293 0 34.3710417-15.46696877 34.37104169-34.37104167V527.27601854c0.06365008-18.84042286-15.40331868-34.30739161-34.30739161-34.30739162zM409.39607554 366.55957357c0-55.18461694 44.87330444-99.9942713 100.05792137-99.99427128 54.67541633 0 99.16682029 44.17315358 99.86697115 98.72126975 0 0.44555055-0.06365008 0.89110107-0.06365008 1.27300153v126.40905335h-199.86124244V366.55957357z m128.44585581 290.180702v64.41387814c0 15.33966861-12.53906521 27.87873382-27.87873382 27.87873382h-1.08205131c-15.33966861 0-27.87873382-12.53906521-27.87873382-27.87873382V656.74027557c-13.49381636-9.10196105-22.34117709-24.5689298-22.3411771-42.00905096 0-28.00603397 22.72307757-50.72911154 50.72911155-50.72911154s50.72911154 22.72307757 50.72911152 50.72911154c0 17.50377124-8.84736074 32.90708992-22.27752702 42.00905096z" fill="#6D8290" p-id="958"></path></svg>