<?xml version="1.0" encoding="UTF-8"?>
<svg width="18px" height="18px" viewBox="0 0 18 18" version="1.1" xmlns="http://www.w3.org/2000/svg" xmlns:xlink="http://www.w3.org/1999/xlink">
    <path d="M10.5420642,1.48446978 L10.0606821,1.48446978 L10.0606821,0 L7.93931795,0 L7.93931795,1.48446978 L7.45793578,1.48446978 C7.08565146,1.48446978 6.78280357,1.77604015 6.78280357,2.13437839 L6.78280357,6.95887729 C6.78280357,7.3172527 7.08569008,7.6087859 7.45793578,7.6087859 L7.93931795,7.6087859 L7.93931795,18 L10.0606821,18 L10.0606821,7.6087859 L10.5420642,7.6087859 C10.9143485,7.6087859 11.217235,7.31721553 11.217235,6.95887729 L11.217235,2.13437839 C11.217235,1.77600297 10.9143485,1.48446978 10.5420642,1.48446978 L10.5420642,1.48446978 L10.5420642,1.48446978 Z M8.51859853,0.557638093 L9.48140147,0.557638093 L9.48140147,1.48446978 L8.51859853,1.48446978 L8.51859853,0.557638093 L8.51859853,0.557638093 L8.51859853,0.557638093 Z M9.48140147,17.4423619 L8.51859853,17.4423619 L8.51859853,7.6087859 L9.48140147,7.6087859 L9.48140147,17.4423619 L9.48140147,17.4423619 L9.48140147,17.4423619 Z M10.6379545,6.95887729 C10.6379545,7.00891601 10.594045,7.05114781 10.5420642,7.05114781 L7.45793578,7.05114781 C7.405955,7.05114781 7.36208415,7.00887884 7.36208415,6.95887729 L7.36208415,2.13437839 C7.36208415,2.08433966 7.40599362,2.04210787 7.45793578,2.04210787 L10.5420642,2.04210787 C10.594045,2.04210787 10.6379545,2.08437684 10.6379545,2.13437839 L10.6379545,6.95887729 L10.6379545,6.95887729 Z M16.3248292,5.5667152 L15.843447,5.5667152 L15.843447,0 L13.7221215,0 L13.7221215,5.5667152 L13.2407394,5.5667152 C12.868455,5.5667152 12.5655685,5.85828557 12.5655685,6.21666099 L12.5655685,11.0411227 C12.5655685,11.3994981 12.868455,11.6910685 13.2407394,11.6910685 L13.7221215,11.6910685 L13.7221215,18 L15.843447,18 L15.843447,11.6910685 L16.3248292,11.6910685 C16.6971135,11.6910685 17,11.3994981 17,11.0411227 L17,6.21666099 C17,5.85828557 16.6971135,5.5667152 16.3248292,5.5667152 L16.3248292,5.5667152 Z M14.3013635,0.557638093 L15.2641278,0.557638093 L15.2641278,5.5667152 L14.3013635,5.5667152 L14.3013635,0.557638093 L14.3013635,0.557638093 Z M15.2641664,17.4423619 L14.3014021,17.4423619 L14.3014021,11.6910685 L15.2641664,11.6910685 L15.2641664,17.4423619 L15.2641664,17.4423619 Z M16.4207194,11.0411227 C16.4207194,11.0911614 16.37681,11.1334304 16.3248292,11.1334304 L13.2407007,11.1334304 C13.18872,11.1334304 13.1448105,11.0911614 13.1448105,11.0411227 L13.1448105,6.21666099 C13.1448105,6.16662226 13.18872,6.12435329 13.2407007,6.12435329 L16.3248292,6.12435329 C16.37681,6.12435329 16.4207194,6.16662226 16.4207194,6.21666099 L16.4207194,11.0411227 L16.4207194,11.0411227 Z M4.75929926,8.90674432 L4.2779171,8.90674432 L4.2779171,0 L2.15655299,0 L2.15655299,8.90674432 L1.67517083,8.90674432 C1.30288651,8.90674432 1,9.19831469 1,9.55665293 L1,14.3811147 C1,14.7394901 1.30288651,15.0310604 1.67517083,15.0310604 L2.15655299,15.0310604 L2.15655299,17.9999628 L4.2779171,17.9999628 L4.2779171,15.0310604 L4.75929926,15.0310604 C5.13158358,15.0310604 5.43443147,14.7394901 5.43443147,14.3811147 L5.43443147,9.55665293 C5.43447009,9.19831469 5.13158358,8.90674432 4.75929926,8.90674432 L4.75929926,8.90674432 Z M2.73583357,0.557638093 L3.69863652,0.557638093 L3.69863652,8.90674432 L2.73583357,8.90674432 L2.73583357,0.557638093 L2.73583357,0.557638093 Z M3.69863652,17.4423619 L2.73583357,17.4423619 L2.73583357,15.0310976 L3.69863652,15.0310976 L3.69863652,17.4423619 L3.69863652,17.4423619 Z M4.75933788,14.4734595 L1.67517083,14.4734595 C1.62319005,14.4734595 1.57928058,14.4311906 1.57928058,14.3811518 L1.57928058,9.55665293 C1.57928058,9.50661421 1.62319005,9.46438242 1.67517083,9.46438242 L4.75929926,9.46438242 C4.81128004,9.46438242 4.85515089,9.50665138 4.85515089,9.55665293 L4.85515089,14.3811518 L4.85518951,14.3811518 C4.85518951,14.4311906 4.81128004,14.4734595 4.75933788,14.4734595 L4.75933788,14.4734595 Z M13.8189772,8.3500728 L15.7465913,8.3500728 L15.7465913,8.9077109 L13.8189772,8.9077109 L13.8189772,8.3500728 L13.8189772,8.3500728 Z M13.8189772,6.86560302 L15.7465913,6.86560302 L15.7465913,7.42324112 L13.8189772,7.42324112 L13.8189772,6.86560302 L13.8189772,6.86560302 Z M13.8189772,9.83454258 L15.7465913,9.83454258 L15.7465913,10.3921807 L13.8189772,10.3921807 L13.8189772,9.83454258 L13.8189772,9.83454258 Z M8.03621228,4.26782738 L9.96382634,4.26782738 L9.96382634,4.82546547 L8.03621228,4.82546547 L8.03621228,4.26782738 L8.03621228,4.26782738 Z M8.03621228,2.7833576 L9.96382634,2.7833576 L9.96382634,3.34099569 L8.03621228,3.34099569 L8.03621228,2.7833576 L8.03621228,2.7833576 Z M8.03621228,5.75225998 L9.96382634,5.75225998 L9.96382634,6.30989808 L8.03621228,6.30989808 L8.03621228,5.75225998 L8.03621228,5.75225998 Z M2.25344732,11.6901019 L4.18102277,11.6901019 L4.18102277,12.24774 L2.25344732,12.24774 L2.25344732,11.6901019 L2.25344732,11.6901019 Z M2.25344732,10.2056321 L4.18102277,10.2056321 L4.18102277,10.7632702 L2.25344732,10.7632702 L2.25344732,10.2056321 L2.25344732,10.2056321 Z M2.25344732,13.1745345 L4.18102277,13.1745345 L4.18102277,13.7321726 L2.25344732,13.7321726 L2.25344732,13.1745345 L2.25344732,13.1745345 Z" id="系统管理-默认"></path>
</svg>
