<svg t="1655348483154" class="icon" style="width: 1em;height: 1em;vertical-align: middle;fill: currentColor;overflow: hidden;" viewBox="0 0 1024 1024" version="1.1" xmlns="http://www.w3.org/2000/svg" p-id="6984">
<g stroke="#6D8290">
<path stroke-width="16" d="M758.67035788 266.02147602c-18.47855095-18.45343039-43.02541539-28.61164325-69.13654413-28.61164324h-0.07128808c-21.36062645 0.01833123-41.65872093 6.80020451-58.69861041 19.612371l-0.78756363 0.59067272-109.74766965 109.90586132-0.09505077 0.09505077c-18.78746599 19.18260568-29.12967001 43.51560586-29.119486 68.53161379 0.01833123 13.60719837 2.77412497 26.77444741 8.18998274 39.1337648a0.17788075 0.17788075 0 0 0 0.0081472 0.01697336l0.00611041 0.01493655a95.92524916 95.92524916 0 0 0 1.61043183 3.49786878l24.99835565-12.1407006a66.58986211 66.58986211 0 0 1-1.144683-2.48761475l-12.76396214 5.56047075 12.75038348-5.59238066c-3.8780719-8.8410806-5.85037563-18.2748707-5.8632754-28.02843879-0.00678934-17.66382997 7.50018563-35.06966495 21.13929391-49.01633038l108.27641936-108.42985847c12.03682366-8.80577601 26.28493588-13.46122752 41.26561805-13.47412728h0.05092006c18.69105734 0 36.26798373 7.27410055 49.49701577 20.48548031 13.24125286 13.22360058 20.53979505 30.81003204 20.55269479 49.52417316 0.01357868 14.98747151-4.62354161 29.23965733-13.41641786 41.27919673L645.53480679 477.26437067l-0.58863593 0.78416894c-13.37500289 17.82134269-33.79734233 28.0542383-56.03107809 28.07392738h-0.0495622c-9.71894245 0-19.12014373-1.9498989-27.94560883-5.79538195l-11.10193134 25.47632529c12.34777551 5.38123213 25.48379357 8.10918956 39.04889805 8.10918959h0.06925128c15.42674191-0.01357868 30.79509548-3.71376984 44.44574563-10.70000231 12.88888603-6.59788214 24.33978952-16.1518436 33.1761176-27.67131944l100.69136693-100.83258525 0.58863592-0.78281107c12.80130352-17.05278922 19.55737733-37.36514133 19.53836716-58.73663072-0.01765229-26.13489144-10.21252759-50.69872923-28.70533615-69.16777511zM337.18871222 785.93295896c-26.11180767 0.00067894-50.65935105-10.15753392-69.137902-28.6109643-18.49484538-18.4697248-28.68904174-43.03288366-28.70533615-69.16709618-0.01833123-25.00514501 10.32115704-49.33814519 29.11473345-68.51599832l0.09165611-0.09301397 109.75581686-109.9112928 0.78552683-0.59135164c17.03310012-12.81216648 37.32915781-19.59403977 58.69385785-19.61304992h0.0692513c13.57868314 0 26.72081162 2.73542572 39.06858712 8.13023651L465.79853062 523.02589071c-8.8173179-3.8522724-18.2171613-5.80488704-27.94017736-5.80488705h-0.04956219c-14.98204005 0.01289975-29.22675758 4.66835125-41.25611296 13.47141155L288.26607474 639.13313663c-13.63978721 13.93851824-21.14336752 31.33960068-21.1311467 49.00343062 0.01222081 18.71142536 7.310763 36.2971779 20.5526948 49.52077847 13.22971098 13.21137976 30.80731631 20.48480137 49.49837364 20.48480139h0.05092007c22.24324085-0.02036803 42.66558029-10.25190577 56.02904129-28.07053272l0.59067272-0.78688469L494.49707743 628.51121173c8.79016054-12.05108129 13.42795975-26.3053039 13.42184935-41.28870181-0.01357868-9.75764171-1.98180879-19.17785314-5.84698096-27.98295021l25.44713113-11.17050369c5.41517884 12.33623362 8.17029365 25.50076693 8.18998275 39.12901226 0.0081472 21.37420512-6.74656872 41.67976789-19.5349725 58.74002539l-0.59135167 0.78756362-100.70155094 100.83394312c-8.83157551 11.51947583-20.28180007 21.07479517-33.17408076 27.67335623-13.64997123 6.98623248-29.02104053 10.68642364-44.44846139 10.70000232h-0.07060916zM579.02437997 426.24518451l19.66396998 19.63613369-150.99291968 151.20678395-19.66396998-19.63613368L579.02437997 426.24518451z" p-id="6985" fill="#6D8290"></path>
</g>
</svg>