<?xml version="1.0" encoding="UTF-8"?>
<svg width="32px" height="32px" viewBox="0 0 32 32" version="1.1" xmlns="http://www.w3.org/2000/svg" xmlns:xlink="http://www.w3.org/1999/xlink">
    <!-- Generator: Sketch 52.4 (67378) - http://www.bohemiancoding.com/sketch -->
    <title>自动计算</title>
    <desc>Created with Sketch.</desc>
    <g id="Page-1" stroke="none" stroke-width="1" fill="none" fill-rule="evenodd">
        <g id="补充的icon" transform="translate(-166.000000, -571.000000)">
            <g id="计算" transform="translate(166.000000, 571.000000)">
                <rect id="矩形" fill="#000000" opacity="0" x="6" y="6" width="20" height="20"></rect>
                <path d="M13.5555609,6 L7.33334134,6 C6.59696622,6 6,6.59696682 6,7.33334268 L6,13.5555684 C6,14.2919443 6.59696622,14.8888911 7.33334134,14.8888911 L13.5555609,14.8888911 C14.291936,14.8888911 14.8889022,14.2919443 14.8889022,13.5555684 L14.8889022,7.33332266 C14.8889022,6.5969468 14.291936,6 13.5555609,6 Z M13.2222406,10.99997 L10.999985,10.99997 L10.999985,13.2222278 L9.88889723,13.2222278 L9.88889721,10.99997 L7.66668168,10.99997 L7.66668168,9.88888111 L9.88889723,9.88888111 L9.88889721,7.66666333 L10.999985,7.66666333 L10.999985,9.88888111 L13.2222406,9.88888111 L13.2222406,10.99997 Z M24.6666787,6 L18.4444591,6 C17.708084,6 17.1111178,6.59696682 17.1111178,7.33334268 L17.1111178,13.5555684 C17.1111178,14.2919443 17.708084,14.8888911 18.4444591,14.8888911 L24.6666787,14.8888911 C25.4030338,14.8888911 26,14.2919443 26,13.5555684 L26,7.33332266 C26,6.5969468 25.4030338,6 24.6666787,6 Z M24.3333784,10.99997 L18.7777794,10.99997 L18.7777794,9.88888111 L24.3333784,9.88888111 L24.3333784,10.99997 Z M13.5555609,17.1111489 L7.33334134,17.1111489 C6.59696622,17.1111489 6,17.7080957 6,18.4444716 L6,24.6666773 C6,25.4030932 6.59696622,26 7.33334134,26 L13.5555609,26 C14.291936,26 14.8889022,25.4030932 14.8889022,24.6666773 L14.8889022,18.4444916 C14.8889022,17.7081157 14.291936,17.1111489 13.5555609,17.1111489 Z M12.8014719,23.1269533 L12.0157983,23.9126677 L10.4444511,22.3412989 L8.87308388,23.9126677 L8.08741028,23.1269533 L9.6587575,21.5555845 L8.08741028,19.9842157 L8.87308388,19.1985813 L10.4444311,20.7699301 L12.0157783,19.1985813 L12.8014519,19.9842157 L11.2301047,21.5555845 L12.8014719,23.1269533 Z" id="形状" fill="#6D8290" fill-rule="nonzero"></path>
                <path d="M24.6666787,17.1111489 C25.4030338,17.1111489 26,17.7081157 26,18.4444916 L26,24.6666773 C26,25.4030932 25.4030338,26 24.6666787,26 L18.4444591,26 C17.708084,26 17.1111178,25.4030932 17.1111178,24.6666773 L17.1111178,18.4444716 C17.1111178,17.7080957 17.708084,17.1111489 18.4444591,17.1111489 L24.6666787,17.1111489 Z M23.7778245,23.2222678 L23.7778245,22.1111589 L19.3333734,22.1111589 L19.3333734,23.2222678 L23.7778245,23.2222678 Z M23.7778245,21.00003 L23.7778245,19.8889412 L19.3333734,19.8889412 L19.3333734,21.00003 L23.7778245,21.00003 Z" id="合并形状" fill="#8BC34A" fill-rule="nonzero"></path>
            </g>
        </g>
    </g>
</svg>