<?xml version="1.0" encoding="UTF-8"?>
<svg width="32px" height="32px" viewBox="0 0 32 32" version="1.1" xmlns="http://www.w3.org/2000/svg" xmlns:xlink="http://www.w3.org/1999/xlink">
    <!-- Generator: Sketch 52.4 (67378) - http://www.bohemiancoding.com/sketch -->
    <title>自动拆分合并</title>
    <desc>Created with Sketch.</desc>
    <defs>
        <path d="M12.5003497,3.42692308 L4.83251748,3.42692308 C4.08356643,3.42692308 3.51293706,4.01538462 3.51293706,4.70769231 L3.51293706,4.91538462 C3.51293706,5.01923077 3.61993007,5.12307692 3.72692308,5.12307692 L10.7171329,5.12307692 C11.4660839,5.12307692 12.0367133,5.71153846 12.0367133,6.40384615 L12.0367133,14.0538462 C12.0367133,14.1576923 12.1437063,14.2615385 12.2506993,14.2615385 L12.4646853,14.2615385 C13.2136364,14.2615385 13.7842657,13.6730769 13.7842657,12.9807692 L13.7842657,4.70769231 C13.8199301,4.01538462 13.2136364,3.42692308 12.5003497,3.42692308 L12.5003497,3.42692308 Z M15.3534965,0.692307692 L7.68566434,0.692307692 C6.93671329,0.692307692 6.36608392,1.28076923 6.36608392,1.97307692 L6.36608392,2.18076923 C6.36608392,2.28461538 6.47307692,2.38846154 6.58006993,2.38846154 L13.5702797,2.38846154 C14.3192308,2.38846154 14.8898601,2.97692308 14.8898601,3.66923077 L14.8898601,11.3192308 C14.8898601,11.4230769 14.9968531,11.5269231 15.1038462,11.5269231 L15.3178322,11.5269231 C16.0667832,11.5269231 16.6374126,10.9384615 16.6374126,10.2461538 L16.6374126,1.97307692 C16.6730769,1.28076923 16.0667832,0.692307692 15.3534965,0.692307692 L15.3534965,0.692307692 Z M10.8241259,7.54615385 C10.8241259,6.85384615 10.2178322,6.26538462 9.50454545,6.26538462 L1.58706294,6.26538462 C0.838111888,6.26538462 0.267482517,6.85384615 0.267482517,7.54615385 L0.267482517,16.0269231 C0.267482517,16.7192308 0.873776224,17.3076923 1.58706294,17.3076923 L9.50454545,17.3076923 C10.2534965,17.3076923 10.8241259,16.7192308 10.8241259,16.0269231 L10.8241259,7.54615385 L10.8241259,7.54615385 Z" id="path-1"></path>
    </defs>
    <g id="Page-1" stroke="none" stroke-width="1" fill="none" fill-rule="evenodd">
        <g id="补充的icon" transform="translate(-251.000000, -245.000000)">
            <g id="自动拆分合并" transform="translate(251.000000, 245.000000)">
                <g id="icons/utility/overflow-copy" transform="translate(8.000000, 7.000000)">
                    <mask id="mask-2" fill="white">
                        <use xlink:href="#path-1"></use>
                    </mask>
                    <use id="Mask" fill="#6D8290" xlink:href="#path-1"></use>
                </g>
            </g>
        </g>
    </g>
</svg>