<svg t="1662618714380" class="icon" viewBox="0 0 1024 1024" version="1.1" xmlns="http://www.w3.org/2000/svg" p-id="1875" width="32" height="32"><path d="M214.55894586 520.01142306l274.83254672 150.99495649c13.91815022 8.48667697 31.36675805 8.48667697 45.21701484 1e-8l274.83254672-150.9949565c6.85723499-4.20939177 6.99302182-14.12183047 0.20368024-18.39911567l-46.23541609-29.60152923c-3.59835103-2.30837614-8.14720987-2.30837614-11.67766749 0l-32.8604132 21.04695886c-3.19099055 2.03680247-3.19099055 6.5177679-0.06789341 8.48667697l11.13452017 7.12880864c1.6973354 1.08629466 1.62944197 3.59835103-0.06789342 4.61675226L534.20114693 613.56854986c-13.71446997 8.14720987-30.75571732 8.14720987-44.47018728 0L294.13002905 513.2899749c-1.76522881-1.01840124-1.76522881-3.53045762-0.06789341-4.61675227l11.33820042-7.26459549c3.05520371-1.96890906 3.05520371-6.4498745 0-8.48667695l-32.8604132-21.04695886c-3.59835103-2.30837614-8.14720987-2.30837614-11.67766749-1e-8l-46.50698975 29.73731607c-6.78934157 4.34517861-6.65355473 14.25761729 0.20368025 18.39911566z" fill="#8BC34A" p-id="1876"></path><path d="M809.64473438 623.14152149l-46.23541609-29.60152925c-3.59835103-2.30837614-8.14720987-2.30837614-11.67766749 0l-32.8604132 21.04695886c-3.19099055 2.03680247-3.19099055 6.5177679-0.06789341 8.48667696l11.13452017 7.12880865c1.6973354 1.08629466 1.62944197 3.59835103-0.06789342 4.61675227L534.20114693 735.09776396c-13.71446997 8.14720987-30.75571732 8.14720987-44.47018728 0L294.13002905 634.81918899c-1.76522881-1.01840124-1.76522881-3.53045762-0.06789341-4.61675228l11.33820042-7.26459547c3.05520371-1.96890906 3.05520371-6.4498745 0-8.48667697l-32.8604132-21.04695887c-3.59835103-2.30837614-8.14720987-2.30837614-11.67766749 0l-46.50698975 29.73731608c-6.78934157 4.34517861-6.65355473 14.25761729 0.20368025 18.39911565l274.8325467 150.99495649c13.91815022 8.48667697 31.36675805 8.48667697 45.21701486 0l274.8325467-150.99495649c6.85723499-4.20939177 6.99302182-14.12183047 0.20368025-18.39911565zM215.10209319 400.72269169l274.49307963 150.72338283c13.91815022 8.48667697 31.36675805 8.48667697 45.21701486-1e-8l274.49307963-150.72338282c6.9251284-4.20939177 6.9251284-14.25761729-1e-8-18.53490248l-274.49307962-150.72338283c-13.91815022-8.48667697-31.36675805-8.48667697-45.21701486 0l-274.49307963 150.72338283c-6.9251284 4.20939177-6.9251284 14.32551071 1e-8 18.53490248zM411.51774478 377.77471718c0-5.90672718 4.82043252-10.72715968 10.72715968-10.72715968h72.51016795V294.67317637c0-5.90672718 4.82043252-10.72715968 10.72715969-10.72715965h13.10342923c5.90672718 0 10.72715968 4.7525391 10.72715966 10.72715966v72.44227454h72.51016798c5.90672718 0 10.72715968 4.82043252 10.72715967 10.72715968v13.17132264h-0.06789342c0 5.90672718-4.82043252 10.72715968-10.72715968 10.72715968H529.24492759v72.51016796c0 5.90672718-4.82043252 10.72715968-10.72715969 10.72715968h-13.10342923c-5.90672718 0-10.72715968-4.7525391-10.72715966-10.72715968v-72.64595479H422.31279788c-5.90672718 0-10.72715968-4.7525391-10.72715968-10.72715968v-13.10342923z" fill="#6D8290" p-id="1877"></path></svg>