<svg t="1655347923455" class="icon" style="width: 1em;height: 1em;vertical-align: middle;fill: currentColor;overflow: hidden;" viewBox="0 0 1024 1024" version="1.1" xmlns="http://www.w3.org/2000/svg" p-id="6811">
<g stroke="#6D8290">
<path stroke-width="16" d="M554.64364223 483.3116372c-15.60572594 0-31.80976259-3.08575574-42.67228477-10.91153273l15.22891749-21.13819065c11.42582536 8.23059148 42.33239334 7.04288105 53.79513574 1.68545404L740.77874552 378.16298264c8.91928532-4.17544507 18.59282406-17.67371693 24.64403688-34.3901367 6.05121284-16.71832927 7.25992781-33.28899038 3.08002724-42.21591371L762.01113827 287.72258794c-4.18435607-8.93328833-17.68071845-18.60682707-34.38886371-24.6529479-16.70687227-6.04612084-33.26543985-7.2510168-42.18918069-3.07047972L525.62748153 334.78927403c-11.55567152 5.41025656-32.27504465 28.79402193-33.10185915 43.1865774l-26.01060405-1.49450381c1.51869085-26.43005806 29.93654082-56.7994194 48.0659923-65.2877937l159.80370285-74.78884072c15.30975307-7.1733637 38.52739174-6.36564423 62.10338034 2.16664863 23.5772616 8.53165636 41.93712637 22.77208812 49.11239957 38.0920252L792.09216475 290.49773131c7.17909221 15.3294846 6.36500772 38.55730728-2.17237713 62.14347989-8.53738486 23.58744561-22.77972612 41.94985639-38.09648071 49.11876458L592.03360708 476.54690699c-8.67932453 4.05705592-22.77272463 6.76473021-37.38996485 6.76600321zM311.12990384 792.96035182c-11.44682989 0-21.6747608-2.13546009-29.56164186-6.38473926l-13.47726735-7.2554723c-14.90175607-8.05300777-28.07923156-27.201497-35.26723478-51.23131064-7.18927622-24.03172315-6.68835011-47.25890933 1.34047062-62.13202287l83.8398817-155.25908733c9.42212092-17.42739114 40.86334957-43.99238737 66.78802603-44.33227877l0.34243741 26.0500671c-14.07621457 0.18585822-38.19259232 19.53866421-44.20943413 30.66788019L257.08971529 678.33483727c-10.2190199 18.93335197 4.41285985 67.81024625 23.36912585 78.05599918l13.46199132 7.2465613c18.94671848 10.20565337 67.79560674-4.41858836 78.01589964-23.35575933L455.76515679 585.0486476c6.06585235-11.23169263 8.78752966-42.36676439 0.87837106-54.43100003l21.78805792-14.28435031c14.5198556 22.14768087 9.77155985 63.476949 0.25905583 81.09465387l-83.82715169 155.2304448c-8.03009374 14.87820554-27.16203395 28.05249853-51.17593506 35.24113824-11.28834119 3.37981911-22.40291768 5.06081764-32.55765101 5.06081764z" p-id="6812" fill="#6D8290"></path>
<path stroke-width="16" d="M501.6950525 408.54825652l18.00787985 18.82896582-105.90481748 101.28891388-18.00851633-18.82832934zM282.77506744 404.92784012l92.07747471 13.0272613-92.0774747 13.02662481z m34.35449268-101.23290179l67.74468667 63.72136529-82.76164938-42.43105098z m124.10110153-25.94886348l-24.68286343 89.67022877-1.1565219-92.99912781z" p-id="6813" fill="#6D8290"></path>
</g>
</svg>