<?xml version="1.0" encoding="UTF-8"?>
<svg width="18px" height="18px" viewBox="0 0 18 18" version="1.1" xmlns="http://www.w3.org/2000/svg"
     xmlns:xlink="http://www.w3.org/1999/xlink">
  <path
    d="M15.5081613,0 L6.38709677,0 L6.38709677,2.772 C5.4783871,3.09396774 4.62454839,3.58867742 3.89003226,4.22012903 L3.09658065,3.36367742 L2.88377419,3.56109677 C1.05096774,5.26035484 0,7.66596774 0,10.1612903 C0,12.6566129 1.05096774,15.0622258 2.88377419,16.7611935 L3.09658065,16.9586129 L3.88916129,16.1033226 C5.31116129,17.3281935 7.11319355,18 9,18 C10.8868065,18 12.6888387,17.3281935 14.1108387,16.1033226 L14.9034194,16.9586129 L15.1162258,16.7611935 C15.9860323,15.9549677 16.6740968,15.003871 17.1685161,13.9354839 L18,13.9354839 L18,2.511 L15.5081613,0 Z M15.6774194,0.994935484 L16.9949032,2.32258065 L15.6774194,2.32258065 L15.6774194,0.994935484 Z M16.2580645,2.90322581 L16.2580645,3.48387097 L8.12903226,3.48387097 L8.12903226,1.74193548 L15.0967742,1.74193548 L15.0967742,2.90322581 L16.2580645,2.90322581 Z M13.0224194,13.9354839 C11.9824839,15.048871 10.5474194,15.6774194 9,15.6774194 C5.95829032,15.6774194 3.48387097,13.203 3.48387097,10.1612903 C3.48387097,8.11974194 4.61032258,6.25964516 6.38709677,5.30332258 L6.38709677,13.9354839 L13.0224194,13.9354839 Z M6.38709677,3.38806452 L6.38709677,4.6556129 C5.90893548,4.88293548 5.46764516,5.16512903 5.0733871,5.49696774 L4.28458065,4.64574194 C4.90877419,4.11241935 5.62470968,3.68332258 6.38709677,3.38806452 Z M3.06870968,16.1343871 C1.48383871,14.5588065 0.580645161,12.3988065 0.580645161,10.1612903 C0.580645161,7.92377419 1.48383871,5.76348387 3.06870968,4.18819355 L4.64922581,5.89354839 C3.55209677,7.01303226 2.90322581,8.53432258 2.90322581,10.1612903 C2.90322581,11.8210645 3.57183871,13.3260968 4.65125806,14.4267097 L3.06870968,16.1343871 Z M9,17.4193548 C7.26067742,17.4193548 5.60293548,16.7969032 4.28864516,15.6721935 L5.07716129,14.8215484 C6.13829032,15.7163226 7.50629032,16.2580645 9,16.2580645 C10.466129,16.2580645 11.8408065,15.7473871 12.9277742,14.8267742 L13.7113548,15.6721935 C12.3973548,16.7969032 10.7396129,17.4193548 9,17.4193548 Z M14.9312903,16.1343871 L13.3519355,14.4301935 C13.5040645,14.2742903 13.6483548,14.1090968 13.7853871,13.9354839 L16.5173226,13.9354839 C16.1082581,14.7489677 15.5819032,15.4895806 14.9312903,16.1343871 Z M17.4193548,13.3548387 L6.96774194,13.3548387 L6.96774194,0.580645161 L15.0967742,0.580645161 L15.0967742,1.16129032 L7.5483871,1.16129032 L7.5483871,4.06451613 L16.8387097,4.06451613 L16.8387097,2.90322581 L17.4193548,2.90322581 L17.4193548,13.3548387 Z M8.70967742,4.64516129 C8.06922581,4.64516129 7.5483871,5.166 7.5483871,5.80645161 C7.5483871,6.44690323 8.06922581,6.96774194 8.70967742,6.96774194 C9.35012903,6.96774194 9.87096774,6.44690323 9.87096774,5.80645161 C9.87096774,5.166 9.35012903,4.64516129 8.70967742,4.64516129 Z M8.70967742,6.38709677 C8.38945161,6.38709677 8.12903226,6.12667742 8.12903226,5.80645161 C8.12903226,5.48622581 8.38945161,5.22580645 8.70967742,5.22580645 C9.02990323,5.22580645 9.29032258,5.48622581 9.29032258,5.80645161 C9.29032258,6.12667742 9.02990323,6.38709677 8.70967742,6.38709677 Z M16.2580645,4.93548387 L16.2580645,5.51612903 L16.8387097,5.51612903 L16.8387097,4.93548387 L16.2580645,4.93548387 Z M10.4516129,4.93548387 L10.4516129,5.51612903 L15.6774194,5.51612903 L15.6774194,4.93548387 L10.4516129,4.93548387 Z M10.4516129,6.09677419 L10.4516129,6.67741935 L16.8387097,6.67741935 L16.8387097,6.09677419 L10.4516129,6.09677419 Z M8.70967742,7.5483871 C8.06922581,7.5483871 7.5483871,8.06922581 7.5483871,8.70967742 C7.5483871,9.35012903 8.06922581,9.87096774 8.70967742,9.87096774 C9.35012903,9.87096774 9.87096774,9.35012903 9.87096774,8.70967742 C9.87096774,8.06922581 9.35012903,7.5483871 8.70967742,7.5483871 Z M8.70967742,9.29032258 C8.38945161,9.29032258 8.12903226,9.02990323 8.12903226,8.70967742 C8.12903226,8.38945161 8.38945161,8.12903226 8.70967742,8.12903226 C9.02990323,8.12903226 9.29032258,8.38945161 9.29032258,8.70967742 C9.29032258,9.02990323 9.02990323,9.29032258 8.70967742,9.29032258 Z M10.4516129,7.83870968 L10.4516129,8.41935484 L16.8387097,8.41935484 L16.8387097,7.83870968 L10.4516129,7.83870968 Z M11.6129032,9 L11.6129032,9.58064516 L16.8387097,9.58064516 L16.8387097,9 L11.6129032,9 Z M10.4516129,9 L10.4516129,9.58064516 L11.0322581,9.58064516 L11.0322581,9 L10.4516129,9 Z M8.70967742,10.4516129 C8.06922581,10.4516129 7.5483871,10.9724516 7.5483871,11.6129032 C7.5483871,12.2533548 8.06922581,12.7741935 8.70967742,12.7741935 C9.35012903,12.7741935 9.87096774,12.2533548 9.87096774,11.6129032 C9.87096774,10.9724516 9.35012903,10.4516129 8.70967742,10.4516129 Z M8.70967742,12.1935484 C8.38945161,12.1935484 8.12903226,11.933129 8.12903226,11.6129032 C8.12903226,11.2926774 8.38945161,11.0322581 8.70967742,11.0322581 C9.02990323,11.0322581 9.29032258,11.2926774 9.29032258,11.6129032 C9.29032258,11.933129 9.02990323,12.1935484 8.70967742,12.1935484 Z M10.4516129,10.7419355 L10.4516129,11.3225806 L16.8387097,11.3225806 L16.8387097,10.7419355 L10.4516129,10.7419355 Z M16.2580645,11.9032258 L16.2580645,12.483871 L16.8387097,12.483871 L16.8387097,11.9032258 L16.2580645,11.9032258 Z M10.4516129,11.9032258 L10.4516129,12.483871 L15.6774194,12.483871 L15.6774194,11.9032258 L10.4516129,11.9032258 Z"></path>
</svg>
