<?xml version="1.0" encoding="UTF-8"?>
<svg width="32px" height="32px" viewBox="0 0 32 32" version="1.1" xmlns="http://www.w3.org/2000/svg" xmlns:xlink="http://www.w3.org/1999/xlink">
    <!-- Generator: Sketch 51.2 (57519) - http://www.bohemiancoding.com/sketch -->
    <title>计划发布</title>
    <desc>Created with Sketch.</desc>
    <defs></defs>
    <g id="Page-1" stroke="none" stroke-width="1" fill="none" fill-rule="evenodd">
        <g id="1-01数据化排产" transform="translate(-947.000000, -112.000000)">
            <g id="1" transform="translate(181.000000, 98.000000)">
                <g id="top">
                    <g id="6" transform="translate(766.000000, 14.000000)">
                        <g id="计划发布">
                            <rect id="Rectangle-2" x="0" y="0" width="32" height="32" rx="2"></rect>
                            <path d="M18.0599614,16.999904 L21.0599614,16.999904 L16.0599614,11.999904 L11.0599614,16.999904 L14.0599614,16.999904 L14.0599614,20.999904 L18.0599614,20.999904 L18.0599614,16.999904 Z M9.41134181,23.6743295 C6.03007483,23.2137402 4.23202631,21.4771548 4.01719625,18.4645735 C3.80236619,15.4519921 5.60041471,13.3690758 9.41134181,12.2158244 C10.2917825,8.86113742 12.6229913,7.3581192 16.4049682,7.70676973 C20.1869452,8.05542026 22.5462147,10.0264769 23.4827769,13.6199397 C26.7467137,14.3272605 28.2435766,16.1207316 27.9733654,19.000353 C27.7031543,21.8799744 26.0710149,23.4379666 23.0769475,23.6743295 L9.41134181,23.6743295 Z" id="Path-6" fill="#6D8290"></path>
                        </g>
                    </g>
                </g>
            </g>
        </g>
    </g>
</svg>