<?xml version="1.0" encoding="UTF-8"?>
<svg width="18px" height="18px" viewBox="0 0 18 18" version="1.1" xmlns="http://www.w3.org/2000/svg" xmlns:xlink="http://www.w3.org/1999/xlink">
    <!-- Generator: Sketch 52.4 (67378) - http://www.bohemiancoding.com/sketch -->
    <title>订单承诺-白</title>
    <desc>Created with Sketch.</desc>
    <g id="Page-1" stroke="none" stroke-width="1" fill="none" fill-rule="evenodd">
        <g id="订单承诺-白" fill="#FFFFFF">
            <path d="M17.7543929,7.46980219 L9.28092927,5.37395844 L9.28092927,2.98204687 L17.9999625,2.98204687 L17.9999625,1 L0,1 L0,2.98204687 L8.71907073,2.98204687 L8.71907073,5.37399473 L0.245607099,7.46980219 L0,7.46980219 L0,17 L18,17 L18,7.46980219 L17.7543929,7.46980219 L17.7543929,7.46980219 L17.7543929,7.46980219 Z M0.561858545,2.43773785 L0.561858545,1.54430902 L17.4381415,1.54430902 L17.4381415,2.43773785 L0.561858545,2.43773785 L0.561858545,2.43773785 L0.561858545,2.43773785 Z M9,5.86626781 L15.4830985,7.46980219 L2.51690154,7.46980219 L9,5.86626781 L9,5.86626781 L9,5.86626781 Z M0.561858545,8.01411121 L2.78269809,8.01411121 L2.78269809,13.8523698 L3.34455663,13.8523698 L3.34455663,8.01411121 L5.75088441,8.01411121 L5.75088441,13.8523698 L6.31274295,13.8523698 L6.31274295,8.01411121 L8.71907073,8.01411121 L8.71907073,13.8523698 L9.28092927,13.8523698 L9.28092927,8.01411121 L11.687257,8.01411121 L11.687257,13.8523698 L12.2491156,13.8523698 L12.2491156,8.01411121 L14.6554434,8.01411121 L14.6554434,13.8523698 L15.2173019,13.8523698 L15.2173019,8.01411121 L17.438104,8.01411121 L17.438104,15.0179531 L0.561858545,15.0179531 L0.561858545,8.01411121 L0.561858545,8.01411121 L0.561858545,8.01411121 Z M17.4381415,16.455691 L0.561858545,16.455691 L0.561858545,15.5622621 L17.4381415,15.5622621 L17.4381415,16.455691 L17.4381415,16.455691 Z M7.23497757,8.82026916 L7.79683611,8.82026916 L7.79683611,9.53915623 L7.23497757,9.53915623 L7.23497757,8.82026916 L7.23497757,8.82026916 Z M10.2032013,8.82026916 L10.7650599,8.82026916 L10.7650599,9.53915623 L10.2032013,9.53915623 L10.2032013,8.82026916 L10.2032013,8.82026916 Z M13.1713877,8.82026916 L13.7332462,8.82026916 L13.7332462,9.53915623 L13.1713877,9.53915623 L13.1713877,8.82026916 L13.1713877,8.82026916 Z M16.139574,8.82026916 L16.7014325,8.82026916 L16.7014325,9.53915623 L16.139574,9.53915623 L16.139574,8.82026916 L16.139574,8.82026916 Z M4.26679125,8.82026916 L4.82864979,8.82026916 L4.82864979,9.53915623 L4.26679125,9.53915623 L4.26679125,8.82026916 L4.26679125,8.82026916 Z M1.29860493,8.82026916 L1.86046347,8.82026916 L1.86046347,9.53915623 L1.29860493,9.53915623 L1.29860493,8.82026916 L1.29860493,8.82026916 Z" id="订单承诺-默认"></path>
        </g>
    </g>
</svg>