<?xml version="1.0" encoding="UTF-8"?>
<svg width="18px" height="18px" viewBox="0 0 18 18" version="1.1" xmlns="http://www.w3.org/2000/svg"
     xmlns:xlink="http://www.w3.org/1999/xlink">
  <path
    d="M17.2409639,15.5555556 L16.6987952,15.5555556 L16.6987952,13.7777778 L15.1807229,13.7777778 L15.1807229,4.33333333 C15.1807229,1.94391111 13.283653,0 10.9518072,0 L7.04819277,0 C4.71634699,0 2.81927711,1.94391111 2.81927711,4.33333333 L2.81927711,13.7777778 L1.30120482,13.7777778 L1.30120482,15.5555556 L0.759036145,15.5555556 C0.340525301,15.5555556 0,15.9044889 0,16.3333333 L0,17.2222222 C0,17.6510667 0.340525301,18 0.759036145,18 L17.2409639,18 C17.6594747,18 18,17.6510667 18,17.2222222 L18,16.3333333 C18,15.9044889 17.6594747,15.5555556 17.2409639,15.5555556 L17.2409639,15.5555556 L17.2409639,15.5555556 Z M3.46987952,4.33333333 C3.46987952,2.31151111 5.07513253,0.666666667 7.04819277,0.666666667 L10.9518072,0.666666667 C12.9248675,0.666666667 14.5301205,2.31151111 14.5301205,4.33333333 L14.5301205,13.7777778 L13.4457831,13.7777778 L13.4457831,9.22222222 L12.7951807,9.22222222 L12.7951807,13.7777778 L9.3253012,13.7777778 L9.3253012,9.08693333 C10.4272916,8.92466667 11.2771084,7.9512 11.2771084,6.77777778 C11.2771084,5.49115556 10.2555759,4.44444444 9,4.44444444 C7.7444241,4.44444444 6.72289157,5.49115556 6.72289157,6.77777778 C6.72289157,7.9512 7.57270843,8.92462222 8.6746988,9.08693333 L8.6746988,13.7777778 L5.20481928,13.7777778 L5.20481928,9.22222222 L4.55421687,9.22222222 L4.55421687,13.7777778 L3.46987952,13.7777778 L3.46987952,4.33333333 L3.46987952,4.33333333 L3.46987952,4.33333333 Z M8.6746988,6.11111111 L8.6746988,8.41088889 C7.93318554,8.25604444 7.37349398,7.58266667 7.37349398,6.77777778 C7.37349398,5.85875556 8.10312289,5.11111111 9,5.11111111 C9.89687711,5.11111111 10.626506,5.85875556 10.626506,6.77777778 C10.626506,7.58266667 10.0668145,8.25604444 9.3253012,8.41088889 L9.3253012,6.11111111 L8.6746988,6.11111111 L8.6746988,6.11111111 L8.6746988,6.11111111 Z M1.95180723,14.4444444 L16.0481928,14.4444444 L16.0481928,15.5555556 L1.95180723,15.5555556 L1.95180723,14.4444444 L1.95180723,14.4444444 L1.95180723,14.4444444 Z M17.3493976,17.2222222 C17.3493976,17.2824444 17.2997349,17.3333333 17.2409639,17.3333333 L0.759036145,17.3333333 C0.70026506,17.3333333 0.65060241,17.2824444 0.65060241,17.2222222 L0.65060241,16.3333333 C0.65060241,16.2731111 0.70026506,16.2222222 0.759036145,16.2222222 L17.2409639,16.2222222 C17.2997349,16.2222222 17.3493976,16.2731111 17.3493976,16.3333333 L17.3493976,17.2222222 L17.3493976,17.2222222 L17.3493976,17.2222222 Z"></path>
</svg>
