<?xml version="1.0" encoding="UTF-8"?>
<svg width="18px" height="18px" viewBox="0 0 18 18" version="1.1" xmlns="http://www.w3.org/2000/svg"
     xmlns:xlink="http://www.w3.org/1999/xlink">
  <path
    d="M1.74193548,0 L1.74193548,4.06451613 L1.4516129,4.06451613 C0.651193548,4.06451613 0,4.71570968 0,5.51612903 L0,14.8064516 C0,15.606871 0.651193548,16.2580645 1.4516129,16.2580645 L4.06451613,16.2580645 L4.06451613,17.4193548 L2.90322581,17.4193548 L2.90322581,18 L4.06451613,18 L12.1935484,18 L13.3548387,18 L13.3548387,17.4193548 L12.1935484,17.4193548 L12.1935484,16.2580645 L14.8064516,16.2580645 C15.606871,16.2580645 16.2580645,15.606871 16.2580645,14.8064516 L16.2580645,12.7741935 L18,12.7741935 L18,0 L1.74193548,0 Z M11.6129032,17.4193548 L4.64516129,17.4193548 L4.64516129,16.2580645 L11.6129032,16.2580645 L11.6129032,17.4193548 Z M15.6774194,14.8064516 C15.6774194,15.2866452 15.2866452,15.6774194 14.8064516,15.6774194 L12.1935484,15.6774194 L4.06451613,15.6774194 L1.4516129,15.6774194 C0.971419355,15.6774194 0.580645161,15.2866452 0.580645161,14.8064516 L0.580645161,14.516129 L15.6774194,14.516129 L15.6774194,14.8064516 Z M15.6774194,13.9354839 L0.580645161,13.9354839 L0.580645161,5.51612903 C0.580645161,5.03593548 0.971419355,4.64516129 1.4516129,4.64516129 L1.74193548,4.64516129 L1.74193548,12.7741935 L15.6774194,12.7741935 L15.6774194,13.9354839 Z M17.4193548,12.1935484 L2.32258065,12.1935484 L2.32258065,2.90322581 L17.4193548,2.90322581 L17.4193548,12.1935484 Z M17.4193548,2.32258065 L2.32258065,2.32258065 L2.32258065,0.580645161 L17.4193548,0.580645161 L17.4193548,2.32258065 Z M14.8064516,4.64516129 L14.8064516,11.0322581 L4.93548387,11.0322581 L4.93548387,4.64516129 L14.8064516,4.64516129 Z M7.25806452,10.4516129 L7.25806452,9.29032258 L5.51612903,9.29032258 L5.51612903,10.4516129 L7.25806452,10.4516129 Z M7.25806452,8.70967742 L7.25806452,7.5483871 L5.51612903,7.5483871 L5.51612903,8.70967742 L7.25806452,8.70967742 Z M9.58064516,10.4516129 L9.58064516,9.29032258 L7.83870968,9.29032258 L7.83870968,10.4516129 L9.58064516,10.4516129 Z M9.58064516,8.70967742 L9.58064516,7.5483871 L7.83870968,7.5483871 L7.83870968,8.70967742 L9.58064516,8.70967742 Z M11.9032258,10.4516129 L11.9032258,9.29032258 L10.1612903,9.29032258 L10.1612903,10.4516129 L11.9032258,10.4516129 Z M11.9032258,8.70967742 L11.9032258,7.5483871 L10.1612903,7.5483871 L10.1612903,8.70967742 L11.9032258,8.70967742 Z M14.2258065,10.4516129 L14.2258065,9.29032258 L12.483871,9.29032258 L12.483871,10.4516129 L14.2258065,10.4516129 Z M14.2258065,6.96774194 L14.2258065,5.22580645 L5.51612903,5.22580645 L5.51612903,6.96774194 L13.0645161,6.96774194 L13.0645161,7.5483871 L12.483871,7.5483871 L12.483871,8.70967742 L14.2258065,8.70967742 L14.2258065,7.5483871 L13.6451613,7.5483871 L13.6451613,6.96774194 L14.2258065,6.96774194 Z M2.90322581,1.16129032 L2.90322581,1.74193548 L3.48387097,1.74193548 L3.48387097,1.16129032 L2.90322581,1.16129032 Z M4.06451613,1.16129032 L4.06451613,1.74193548 L4.64516129,1.74193548 L4.64516129,1.16129032 L4.06451613,1.16129032 Z M5.22580645,1.16129032 L5.22580645,1.74193548 L5.80645161,1.74193548 L5.80645161,1.16129032 L5.22580645,1.16129032 Z M15.9677419,4.64516129 L16.5483871,4.64516129 L16.5483871,5.22580645 L15.9677419,5.22580645 L15.9677419,4.64516129 Z M15.9677419,5.80645161 L16.5483871,5.80645161 L16.5483871,6.38709677 L15.9677419,6.38709677 L15.9677419,5.80645161 Z M15.9677419,6.96774194 L16.5483871,6.96774194 L16.5483871,7.5483871 L15.9677419,7.5483871 L15.9677419,6.96774194 Z M15.9677419,8.12903226 L16.5483871,8.12903226 L16.5483871,8.70967742 L15.9677419,8.70967742 L15.9677419,8.12903226 Z M15.9677419,9.29032258 L16.5483871,9.29032258 L16.5483871,9.87096774 L15.9677419,9.87096774 L15.9677419,9.29032258 Z M15.9677419,10.4516129 L16.5483871,10.4516129 L16.5483871,11.0322581 L15.9677419,11.0322581 L15.9677419,10.4516129 Z M3.19354839,4.64516129 L3.77419355,4.64516129 L3.77419355,5.22580645 L3.19354839,5.22580645 L3.19354839,4.64516129 Z M3.19354839,5.80645161 L3.77419355,5.80645161 L3.77419355,6.38709677 L3.19354839,6.38709677 L3.19354839,5.80645161 Z M3.19354839,6.96774194 L3.77419355,6.96774194 L3.77419355,7.5483871 L3.19354839,7.5483871 L3.19354839,6.96774194 Z M3.19354839,8.12903226 L3.77419355,8.12903226 L3.77419355,8.70967742 L3.19354839,8.70967742 L3.19354839,8.12903226 Z M3.19354839,9.29032258 L3.77419355,9.29032258 L3.77419355,9.87096774 L3.19354839,9.87096774 L3.19354839,9.29032258 Z M3.19354839,10.4516129 L3.77419355,10.4516129 L3.77419355,11.0322581 L3.19354839,11.0322581 L3.19354839,10.4516129 Z"></path>
</svg>
