<?xml version="1.0" encoding="UTF-8"?>
<svg width="18px" height="18px" viewBox="0 0 18 18" version="1.1" xmlns="http://www.w3.org/2000/svg" xmlns:xlink="http://www.w3.org/1999/xlink">
    <!-- Generator: Sketch 52.4 (67378) - http://www.bohemiancoding.com/sketch -->
    <title>遗传算法-默认</title>
    <desc>Created with Sketch.</desc>
        <g id="遗传算法">
            <polygon id="矩形" fill="#A8A8C3" points="3 4.06422581 4.51557123 4.06422581 4.51557123 4.64707947 3 4.64707947"></polygon>
            <polygon id="矩形" fill="#A8A8C3" points="13.5676561 4.06422581 15 4.06422581 15 4.64707947 13.5676561 4.64707947"></polygon>
            <path d="M3,4.64516129 L2.90322581,4.64516129 L2.90322581,13.3548387 L7.5483871,13.3548387 L7.5483871,18 L0,18 L0,13.3548387 L2.32258065,13.3548387 L2.32258065,4.06422581 L3,4.06422581 L3,4.64516129 Z M15,4.64516129 L15,4.06451613 L15.6774194,4.06451613 L15.6774194,12.1935484 L18,12.1935484 L18,16.8387097 L12.1935484,16.8387097 L12.1935484,12.1935484 L15.0967742,12.1935484 L15.0967742,4.64516129 L15,4.64516129 Z M17.4193548,12.7741935 L12.7741935,12.7741935 L12.7741935,16.2580645 L17.4193548,16.2580645 L17.4193548,12.7741935 Z M0.580645161,13.9354839 L0.580645161,17.4193548 L6.96774194,17.4193548 L6.96774194,13.9354839 L0.580645161,13.9354839 Z M6.38709677,16.8387097 L5.80645161,16.8387097 L5.80645161,16.2580645 L6.38709677,16.2580645 L6.38709677,16.8387097 Z M5.22580645,16.8387097 L1.16129032,16.8387097 L1.16129032,16.2580645 L5.22580645,16.2580645 L5.22580645,16.8387097 Z M1.74193548,15.0967742 L1.16129032,15.0967742 L1.16129032,14.516129 L1.74193548,14.516129 L1.74193548,15.0967742 Z M6.38709677,15.0967742 L2.32258065,15.0967742 L2.32258065,14.516129 L6.38709677,14.516129 L6.38709677,15.0967742 Z M16.8387097,15.6774194 L16.2580645,15.6774194 L16.2580645,15.0967742 L16.8387097,15.0967742 L16.8387097,15.6774194 Z M15.6774194,15.6774194 L13.3548387,15.6774194 L13.3548387,15.0967742 L15.6774194,15.0967742 L15.6774194,15.6774194 Z M13.9354839,13.9354839 L13.3548387,13.9354839 L13.3548387,13.3548387 L13.9354839,13.3548387 L13.9354839,13.9354839 Z M16.8387097,13.9354839 L14.516129,13.9354839 L14.516129,13.3548387 L16.8387097,13.3548387 L16.8387097,13.9354839 Z" id="合并形状"></path>
            <rect id="矩形" stroke="#A8A8C3" stroke-width="0.6" x="4.3" y="0.3" width="9.4" height="6.4"></rect>
            <polygon id="矩形" fill="#A8A8C3" points="6 2 7 2 7 2.72238206 6 2.72238206"></polygon>
            <polygon id="矩形-copy-81" fill="#A8A8C3" points="11 4.30298913 12 4.30298913 12 5 11 5"></polygon>
            <polygon id="矩形-copy-80" fill="#A8A8C3" points="8 2 12 2 12 2.72238206 8 2.72238206"></polygon>
            <polygon id="矩形-copy-82" fill="#A8A8C3" points="6 4.30298913 10 4.30298913 10 5 6 5"></polygon>
        </g>
</svg>
