<?xml version="1.0" encoding="UTF-8"?>
<svg width="18px" height="18px" viewBox="0 0 18 18" version="1.1" xmlns="http://www.w3.org/2000/svg" xmlns:xlink="http://www.w3.org/1999/xlink">
    <!-- Generator: Sketch 52.4 (67378) - http://www.bohemiancoding.com/sketch -->
    <title>采购申请-白</title>
    <desc>Created with Sketch.</desc>
    <g id="Page-1" stroke="none" stroke-width="1" fill="none" fill-rule="evenodd">
        <g id="采购申请-白" fill="#FFFFFF">
            <path d="M16.4226804,5.76768425 C14.1452536,5.76768425 13.0064289,4.87003801 11.8008,3.91971238 C10.732899,3.07796545 9.62866392,2.20753876 7.72741856,2.02490192 C6.04718351,1.86323199 4.46941856,2.49111635 3.16421443,3.83992577 C2.40576495,4.62375159 1.94967835,5.42903106 1.77561649,5.76772169 L0,5.76772169 L0,7.63976808 L0.371134021,7.63976808 L0.371134021,12.9751003 C0.371134021,14.1053296 0.8784,14.7535443 1.7628866,14.7535443 L2.47464742,14.7535443 C2.43367423,14.9046185 2.41237113,15.0620201 2.41237113,15.2215559 C2.41237113,16.2021713 3.20322062,17 4.17525773,17 C4.90705979,17 5.55246186,16.5478634 5.81366598,15.8767722 L12.186334,15.8767722 C12.4475381,16.5478634 13.0929402,17 13.8247423,17 C14.7967794,17 15.5876289,16.2021713 15.5876289,15.2215559 C15.5876289,15.0620201 15.5662887,14.9046185 15.5253526,14.7535443 L16.2371134,14.7535443 C17.1216,14.7535443 17.628866,14.1053296 17.628866,12.9751003 L17.628866,7.63976808 L18,7.63976808 L18,5.76768425 L16.4226804,5.76768425 L16.4226804,5.76768425 L16.4226804,5.76768425 Z M3.56258969,4.23219437 C4.76298557,2.99166411 6.14635052,2.43727629 7.6746433,2.58393241 C9.41396289,2.75106871 10.4068577,3.53365898 11.4580206,4.36226415 C12.104833,4.87209726 12.7634474,5.3909162 13.6032495,5.76768425 L2.41155464,5.76768425 C2.62729485,5.39237639 3.00985979,4.80335572 3.56258969,4.23219437 L3.56258969,4.23219437 Z M3.80412371,14.9406741 L4.54639175,14.9406741 L4.54639175,15.502288 L3.80412371,15.502288 L3.80412371,14.9406741 L3.80412371,14.9406741 Z M5.34355052,15.5199227 L5.34176907,15.5266995 C5.20645361,16.0634526 4.72676289,16.4383486 4.17522062,16.4383486 C3.51011134,16.4383486 2.96903505,15.8924974 2.96903505,15.2215185 C2.96903505,15.0078806 3.02385155,14.800645 3.12754639,14.6222016 L3.13003299,14.6177461 C3.34068866,14.2395927 3.74117938,14.0046883 4.17522062,14.0046883 C4.60926186,14.0046883 5.00975258,14.2395927 5.22040825,14.6177461 L5.22289485,14.6222016 C5.32658969,14.800645 5.38140619,15.0078806 5.38140619,15.2215185 C5.3814433,15.3308086 5.36904742,15.4284919 5.34355052,15.5199227 L5.34355052,15.5199227 Z M12.0647134,15.3150834 L5.93532371,15.3150834 C5.93680825,15.2842695 5.93814433,15.2533433 5.93814433,15.2214811 C5.93814433,15.0619453 5.91680412,14.9045436 5.87586804,14.7534695 L12.124132,14.7534695 C12.0829732,14.9043938 12.0618928,15.0606723 12.0618928,15.2214811 C12.0618928,15.2533433 12.0632289,15.2842695 12.0647134,15.3150834 L12.0647134,15.3150834 Z M13.4536082,14.9406741 L14.1958763,14.9406741 L14.1958763,15.502288 L13.4536082,15.502288 L13.4536082,14.9406741 L13.4536082,14.9406741 Z M13.8247423,16.4383112 C13.2732371,16.4383112 12.7935464,16.0634152 12.6581938,15.5266621 L12.6564124,15.5198852 C12.6309155,15.4284545 12.6185196,15.3308086 12.6185196,15.2214436 C12.6185196,15.0078806 12.6721856,14.8056621 12.7795175,14.6176712 C12.9901732,14.2395178 13.3906639,14.0046135 13.8247052,14.0046135 C14.2587464,14.0046135 14.6592371,14.2395178 14.8698928,14.6176712 L14.8723794,14.6221267 C14.9760742,14.8005701 15.0308907,15.0078057 15.0308907,15.2214436 C15.0309278,15.8924225 14.4898515,16.4383112 13.8247423,16.4383112 L13.8247423,16.4383112 Z M17.0721649,12.9750254 C17.0721649,13.2759756 17.0721649,14.1918555 16.2371134,14.1918555 L15.2597691,14.1918555 C14.9342845,13.7263899 14.3997773,13.443037 13.8247423,13.443037 C13.2488907,13.443037 12.7136784,13.7271762 12.3894928,14.1918555 L5.61028454,14.1918555 C5.2848,13.7263899 4.75029278,13.443037 4.17525773,13.443037 C3.60022268,13.443037 3.06571546,13.7263899 2.74023093,14.1918555 L1.7628866,14.1918555 C1.55635052,14.1918555 0.927835052,14.1918555 0.927835052,12.9750254 L0.927835052,7.6396932 L17.0721649,7.6396932 L17.0721649,12.9750254 L17.0721649,12.9750254 Z M17.443299,7.07811672 L0.556701031,7.07811672 L0.556701031,6.32929817 L17.443299,6.32929817 L17.443299,7.07811672 L17.443299,7.07811672 Z M8.53608247,8.48215151 L9.09278351,8.48215151 L9.09278351,13.3494721 L8.53608247,13.3494721 L8.53608247,8.48215151 L8.53608247,8.48215151 Z M12.2474227,8.48215151 L12.8041237,8.48215151 L12.8041237,12.6006536 L12.2474227,12.6006536 L12.2474227,8.48215151 L12.2474227,8.48215151 Z M4.82474227,8.48215151 L5.3814433,8.48215151 L5.3814433,12.6006536 L4.82474227,12.6006536 L4.82474227,8.48215151 L4.82474227,8.48215151 Z M2.59793814,8.48215151 L3.15463918,8.48215151 L3.15463918,12.6006536 L2.59793814,12.6006536 L2.59793814,8.48215151 L2.59793814,8.48215151 Z M6.68041237,8.48215151 L7.2371134,8.48215151 L7.2371134,13.3494721 L6.68041237,13.3494721 L6.68041237,8.48215151 L6.68041237,8.48215151 Z M10.3917526,8.48215151 L10.9484536,8.48215151 L10.9484536,13.3494721 L10.3917526,13.3494721 L10.3917526,8.48215151 L10.3917526,8.48215151 Z M14.4742268,8.48215151 L15.0309278,8.48215151 L15.0309278,12.6006536 L14.4742268,12.6006536 L14.4742268,8.48215151 L14.4742268,8.48215151 Z" id="采购申请-默认"></path>
        </g>
    </g>
</svg>