<?xml version="1.0" encoding="UTF-8"?>
<svg width="32px" height="32px" viewBox="0 0 32 32" version="1.1" xmlns="http://www.w3.org/2000/svg" xmlns:xlink="http://www.w3.org/1999/xlink">
    <!-- Generator: Sketch 52.4 (67378) - http://www.bohemiancoding.com/sketch -->
    <title>释放</title>
    <desc>Created with Sketch.</desc>
    <defs>
        <path d="M12.9474458,16.9423077 C10.8189391,15.9038462 9.29857706,14.0576923 8.53839607,11.9423077 C8.23432367,11.1730769 8.04427842,10.2884615 7.96826032,9.51923077 L7.96826032,8.17307692 L12.0732377,8.17307692 C12.3773101,8.17307692 12.6053644,7.82692308 12.3773101,7.48076923 L6.98002503,0.942307692 C6.78997978,0.711538462 6.37188023,0.711538462 6.21984403,0.942307692 L0.974595164,7.48076923 C0.784549915,7.71153846 0.974595164,8.17307692 1.27866756,8.17307692 L5.42165399,8.17307692 L5.42165399,9.51923077 C5.30762684,10.3269231 5.11758159,11.2115385 4.85151824,11.9423077 C4.09133725,14.0576923 2.57097525,15.9038462 0.442468467,16.9423077 C0.138396069,17.0576923 0.0243689196,17.4423077 0.138396069,17.7115385 L0.632513716,18.9038462 C0.784549915,19.2115385 1.12663136,19.3269231 1.43070376,19.1346154 C3.71124675,18.0192308 5.53568114,16.25 6.63794358,14.1346154 C7.77821507,16.25 9.56464041,18.0192308 11.8831924,19.1346154 C12.1872648,19.2884615 12.5673553,19.25 12.6813825,18.9038462 L13.1755001,17.7115385 C13.4035544,17.4423077 13.2515182,17.0961538 12.9474458,16.9423077 Z" id="path-1"></path>
    </defs>
    <g id="Page-1" stroke="none" stroke-width="1" fill="none" fill-rule="evenodd">
        <g id="补充的icon" transform="translate(-75.000000, -571.000000)">
            <g id="释放-copy-2" transform="translate(75.000000, 571.000000)">
                <g id="icons/utility/merge-copy-2" transform="translate(9.000000, 6.000000)">
                    <mask id="mask-2" fill="white">
                        <use xlink:href="#path-1"></use>
                    </mask>
                    <use id="Mask" fill="#6D8290" xlink:href="#path-1"></use>
                </g>
            </g>
        </g>
    </g>
</svg>