<svg t="1665977785253" class="icon" viewBox="0 0 1024 1024" version="1.1" xmlns="http://www.w3.org/2000/svg" p-id="2599"
  width="32" height="32">
  <path
    d="M763.61299854 635.29444288c-11.54188067-6.9251284-26.61421896-3.19099055-33.53934734 8.35089015-26.75000578 44.53808069-66.06029347 79.43529636-113.65357787 100.95750913-48.54379222 21.99746668-101.97591037 28.1078741-154.52541411 17.72018149-66.80712103-13.23921607-124.44863096-51.73478275-162.26526349-108.28999803-37.88452596-56.62310869-51.39531568-124.51652437-38.15609962-191.32364541s51.73478275-124.44863096 108.28999802-162.2652635c56.62310869-37.88452596 124.51652437-51.39531568 191.3236454-38.15609962C611.80332107 272.33624262 657.22401616 296.84576567 693.13963306 333.44031673l-34.35406833 35.37246959c-3.8699247 4.00571152-1.01840124 10.65926626 4.54885884 10.59137284l103.19799185-1.49365515c3.4625642-0.06789342 6.17830083-2.85152347 6.17830082-6.31408765l-1.49365514-103.19799185c-0.06789342-5.56726009-6.85723499-8.21510331-10.72715968-4.2772852l-33.26777369 34.21828152C684.51716927 255.15920845 630.60979721 226.23661336 570.59201774 214.28737219c-40.19290209-8.01142306-80.79316467-7.8077428-120.64659968 0.40736051-38.49556671 7.94352964-74.61486385 23.15165475-107.40738362 45.08122801s-60.5609268 49.56219344-82.6262869 82.01524616c-22.81218768 33.67513418-38.42767328 71.15229964-46.43909633 111.34520173s-7.8077428 80.79316467 0.40736051 120.64659967c7.94352964 38.49556671 23.15165475 74.61486385 45.08122801 107.40738363s49.56219344 60.5609268 82.01524615 82.62628689c33.67513418 22.81218768 71.15229964 38.42767328 111.34520173 46.43909633 19.82487738 3.9378181 39.78554159 5.90672718 59.61041897 5.90672717 42.77285189 0 85.00255643-9.09771771 124.58441779-27.02157944 27.90419385-12.62817532 53.6357984-29.32995558 76.51587949-49.63008687 23.15165475-20.50381154 42.97653214-44.33440044 58.8635914-70.74493915 6.99302182-11.47398726 3.25888396-26.47843212-8.28299672-33.47145395z"
    fill="#6D8290" p-id="2600"></path>
  <path
    d="M545.03447411 368.60935221a27.31250429 27.31250429 0 0 1 27.31250429 27.31250431v49.46294551l42.07491279 0.00682792a34.14063031 34.14063031 0 0 1 34.10648987 32.65892717l0.03414042 1.48170342V614.42189119a34.14063031 34.14063031 0 0 1-34.14063028 34.14063029H409.57810881a34.14063031 34.14063031 0 0 1-34.14063029-34.14063029V479.53226054a34.14063031 34.14063031 0 0 1 34.14063029-34.1406306l43.03085048-0.00682791V395.92185652a27.31250429 27.31250429 0 0 1 25.95370742-27.27836357l1.3656251-0.03414074zM402.74998281 532.4843783v81.93751289a6.828126 6.828126 0 0 0 6.828126 6.82812601h88.76563889v-47.79688261a13.6562523 13.6562523 0 1 1 27.3125046 0v47.79688261h27.3125043v-47.79688261a13.6562523 13.6562523 0 1 1 27.3125043 0v47.79688261h34.14063029a6.828126 6.828126 0 0 0 6.828126-6.828126V532.4843783H402.74998281z m0-27.3125043h218.50003438v-25.63961347a6.828126 6.828126 0 0 0-6.82812599-6.828126h-48.90303908a20.4843783 20.4843783 0 0 1-20.484378-20.4843783V395.92185652h-65.10618231v56.29789971a20.4843783 20.4843783 0 0 1-20.4843783 20.4843783H409.57810881a6.828126 6.828126 0 0 0-6.828126 6.82812601V505.171874z"
    fill="#8BC34A" p-id="2183"></path>
</svg>