<?xml version="1.0" encoding="UTF-8"?>
<svg width="18px" height="18px" viewBox="0 0 18 18" version="1.1" xmlns="http://www.w3.org/2000/svg"
     xmlns:xlink="http://www.w3.org/1999/xlink">
  <path
    d="M16.1443299,11.5696203 L16.1443299,5.72151899 L16.1443299,5.4556962 L16.1443299,2 L10.7628866,2 L10.7628866,5.18987342 L8.90721649,5.18987342 L8.90721649,9.08860759 L8.16494845,9.08860759 L8.16494845,5.36708861 L2.04123711,5.36708861 L2.04123711,9.08860759 L0,9.08860759 L0,16 L18,16 L18,11.5696203 L16.1443299,11.5696203 L16.1443299,11.5696203 L16.1443299,11.5696203 Z M2.59793814,5.89873418 L7.60824742,5.89873418 L7.60824742,6.60759494 L2.59793814,6.60759494 L2.59793814,5.89873418 L2.59793814,5.89873418 L2.59793814,5.89873418 Z M2.59793814,7.13924051 L7.60824742,7.13924051 L7.60824742,9.08860759 L2.59793814,9.08860759 L2.59793814,7.13924051 L2.59793814,7.13924051 L2.59793814,7.13924051 Z M5.56701031,9.62025316 L5.56701031,12.1012658 L3.89690722,12.1012658 L3.89690722,9.62025316 L5.56701031,9.62025316 L5.56701031,9.62025316 L5.56701031,9.62025316 Z M8.90721649,15.4683544 L0.556701031,15.4683544 L0.556701031,9.62025316 L3.34020619,9.62025316 L3.34020619,12.6329114 L6.12371134,12.6329114 L6.12371134,9.62025316 L8.90721649,9.62025316 L8.90721649,15.4683544 L8.90721649,15.4683544 L8.90721649,15.4683544 Z M11.3195876,2.53164557 L15.5876289,2.53164557 L15.5876289,5.18987342 L11.3195876,5.18987342 L11.3195876,2.53164557 L11.3195876,2.53164557 L11.3195876,2.53164557 Z M13.1752577,5.72151899 L13.1752577,8.37974684 L11.8762887,8.37974684 L11.8762887,5.72151899 L13.1752577,5.72151899 L13.1752577,5.72151899 L13.1752577,5.72151899 Z M11.8762887,15.4683544 L9.46391753,15.4683544 L9.46391753,5.72151899 L11.3195876,5.72151899 L11.3195876,8.91139241 L13.7319588,8.91139241 L13.7319588,5.72151899 L15.5876289,5.72151899 L15.5876289,11.5696203 L11.8762887,11.5696203 L11.8762887,15.4683544 L11.8762887,15.4683544 L11.8762887,15.4683544 Z M17.443299,15.4683544 L12.4329897,15.4683544 L12.4329897,12.1012658 L17.443299,12.1012658 L17.443299,15.4683544 L17.443299,15.4683544 Z M6.21649485,7.84810127 L6.95876289,7.84810127 L6.95876289,8.37974684 L6.21649485,8.37974684 L6.21649485,7.84810127 L6.21649485,7.84810127 Z M5.10309278,7.84810127 L5.84536082,7.84810127 L5.84536082,8.37974684 L5.10309278,8.37974684 L5.10309278,7.84810127 L5.10309278,7.84810127 Z M15.1237113,12.9873418 L16.6082474,12.9873418 L16.6082474,13.5189873 L15.1237113,13.5189873 L15.1237113,12.9873418 L15.1237113,12.9873418 Z M14.0103093,14.0506329 L16.6082474,14.0506329 L16.6082474,14.5822785 L14.0103093,14.5822785 L14.0103093,14.0506329 L14.0103093,14.0506329 Z M14.0103093,3.94936709 L14.7525773,3.94936709 L14.7525773,4.48101266 L14.0103093,4.48101266 L14.0103093,3.94936709 L14.0103093,3.94936709 Z M12.8969072,3.94936709 L13.6391753,3.94936709 L13.6391753,4.48101266 L12.8969072,4.48101266 L12.8969072,3.94936709 L12.8969072,3.94936709 Z"></path>
</svg>
