<?xml version="1.0" encoding="UTF-8"?>
<svg width="18px" height="18px" viewBox="0 0 18 18" version="1.1" xmlns="http://www.w3.org/2000/svg" xmlns:xlink="http://www.w3.org/1999/xlink">
    <!-- Generator: Sketch 52.4 (67378) - http://www.bohemiancoding.com/sketch -->
    <title>需求计划-默认</title>
    <desc>Created with Sketch.</desc>
        <g id="需求计划">
            <path d="M15.5,0 L4.7,0 C3.9662,0 3.3563,0.5304 3.2276,1.2276 C2.5304,1.3563 2,1.9662 2,2.7 L2,16.5 C2,17.3271 2.6729,18 3.5,18 L14.3,18 C15.0338,18 15.6437,17.4696 15.7724,16.7724 C16.4696,16.6437 17,16.0338 17,15.3 L17,1.5 C17,0.6729 16.3271,0 15.5,0 Z M15.2,16.5 C15.2,16.9962 14.7962,17.4 14.3,17.4 L3.5,17.4 C3.0038,17.4 2.6,16.9962 2.6,16.5 L2.6,2.7 C2.6,2.2038 3.0038,1.8 3.5,1.8 L12.5,1.8 L12.5,4.2 C12.5,4.3659 12.6341,4.5 12.8,4.5 L15.2,4.5 L15.2,16.5 Z M13.1,3.9 L13.1,2.2242 L14.7758,3.9 L13.1,3.9 Z M16.4,15.3 C16.4,15.6906 16.1483,16.0206 15.8,16.1448 L15.8,4.2 C15.8,4.1169 15.7661,4.0419 15.7118,3.9876 L13.0127,1.2885 C12.9581,1.2339 12.8831,1.2 12.8,1.2 L3.8552,1.2 C3.9794,0.8517 4.3094,0.6 4.7,0.6 L15.5,0.6 C15.9962,0.6 16.4,1.0038 16.4,1.5 L16.4,15.3 Z M8.9,2.7 C9.7271,2.7 10.4,3.3729 10.4,4.2 C10.4,5.0271 9.7271,5.7 8.9,5.7 C8.0729,5.7 7.4,5.0271 7.4,4.2 C7.4,3.3729 8.0729,2.7 8.9,2.7 Z M8.9,5.1 C9.3962,5.1 9.8,4.6962 9.8,4.2 C9.8,3.7038 9.3962,3.3 8.9,3.3 C8.4038,3.3 8,3.7038 8,4.2 C8,4.6962 8.4038,5.1 8.9,5.1 Z M3.5,6.6 L6.5,6.6 L6.5,7.2 L3.5,7.2 L3.5,6.6 Z M7.4,6.6 L8.3,6.6 L8.3,7.2 L7.4,7.2 L7.4,6.6 Z M9.5,6.6 L12.5,6.6 L12.5,7.2 L9.5,7.2 L9.5,6.6 Z M13.4,6.6 L14.3,6.6 L14.3,7.2 L13.4,7.2 L13.4,6.6 Z M3.5,7.8 L6.5,7.8 L6.5,8.4 L3.5,8.4 L3.5,7.8 Z M7.4,7.8 L8.3,7.8 L8.3,8.4 L7.4,8.4 L7.4,7.8 Z M9.5,7.8 L12.5,7.8 L12.5,8.4 L9.5,8.4 L9.5,7.8 Z M13.4,7.8 L14.3,7.8 L14.3,8.4 L13.4,8.4 L13.4,7.8 Z M3.5,9 L6.5,9 L6.5,9.6 L3.5,9.6 L3.5,9 Z M7.4,9 L8.3,9 L8.3,9.6 L7.4,9.6 L7.4,9 Z M9.5,9 L12.5,9 L12.5,9.6 L9.5,9.6 L9.5,9 Z M13.4,9 L14.3,9 L14.3,9.6 L13.4,9.6 L13.4,9 Z M3.5,10.2 L6.5,10.2 L6.5,10.8 L3.5,10.8 L3.5,10.2 Z M7.4,10.2 L8.3,10.2 L8.3,10.8 L7.4,10.8 L7.4,10.2 Z M9.5,10.2 L12.5,10.2 L12.5,10.8 L9.5,10.8 L9.5,10.2 Z M13.4,10.2 L14.3,10.2 L14.3,10.8 L13.4,10.8 L13.4,10.2 Z M3.5,12 L6.5,12 L6.5,12.6 L3.5,12.6 L3.5,12 Z M7.4,12 L8.3,12 L8.3,12.6 L7.4,12.6 L7.4,12 Z M9.5,12 L12.5,12 L12.5,12.6 L9.5,12.6 L9.5,12 Z M13.4,12 L14.3,12 L14.3,12.6 L13.4,12.6 L13.4,12 Z M3.5,13.2 L6.5,13.2 L6.5,13.8 L3.5,13.8 L3.5,13.2 Z M7.4,13.2 L8.3,13.2 L8.3,13.8 L7.4,13.8 L7.4,13.2 Z M9.5,13.2 L12.5,13.2 L12.5,13.8 L9.5,13.8 L9.5,13.2 Z M13.4,13.2 L14.3,13.2 L14.3,13.8 L13.4,13.8 L13.4,13.2 Z M3.5,14.4 L6.5,14.4 L6.5,15 L3.5,15 L3.5,14.4 Z M7.4,14.4 L8.3,14.4 L8.3,15 L7.4,15 L7.4,14.4 Z M9.5,14.4 L12.5,14.4 L12.5,15 L9.5,15 L9.5,14.4 Z M13.4,14.4 L14.3,14.4 L14.3,15 L13.4,15 L13.4,14.4 Z M3.5,15.6 L6.5,15.6 L6.5,16.2 L3.5,16.2 L3.5,15.6 Z M7.4,15.6 L8.3,15.6 L8.3,16.2 L7.4,16.2 L7.4,15.6 Z M9.5,15.6 L12.5,15.6 L12.5,16.2 L9.5,16.2 L9.5,15.6 Z M13.4,15.6 L14.3,15.6 L14.3,16.2 L13.4,16.2 L13.4,15.6 Z" id="newspaper"></path>
        </g>
</svg>
