<?xml version="1.0" encoding="UTF-8"?>
<svg width="18px" height="18px" viewBox="0 0 18 18" version="1.1" xmlns="http://www.w3.org/2000/svg" xmlns:xlink="http://www.w3.org/1999/xlink">
    <!-- Generator: Sketch 52.4 (67378) - http://www.bohemiancoding.com/sketch -->
    <title>预测管理-默认 copy</title>
    <desc>Created with Sketch.</desc>
    <g id="Page-1" stroke="none" stroke-width="1" fill="none" fill-rule="evenodd">
        <g id="预测管理-白" fill="#FFFFFF">
            <path d="M16.9793814,3 L1.02061856,3 C0.457868041,3 0,3.47167059 0,4.05147059 L0,13.7058824 L2.41237113,13.7058824 L2.41237113,16 L15.5876289,16 L15.5876289,13.7058824 L18,13.7058824 L18,4.05147059 C18,3.47167059 17.542132,3 16.9793814,3 L16.9793814,3 L16.9793814,3 Z M15.0309278,15.4264706 L2.96907216,15.4264706 L2.96907216,13.7058824 L15.0309278,13.7058824 L15.0309278,15.4264706 L15.0309278,15.4264706 L15.0309278,15.4264706 Z M17.443299,13.1323529 L9.27835052,13.1323529 L9.27835052,11.125 L8.72164948,11.125 L8.72164948,13.1323529 L0.556701031,13.1323529 L0.556701031,4.05147059 C0.556701031,3.78791471 0.764795876,3.57352941 1.02061856,3.57352941 L8.72164948,3.57352941 L8.72164948,5.58088235 L9.27835052,5.58088235 L9.27835052,3.57352941 L16.9793814,3.57352941 C17.2352041,3.57352941 17.443299,3.78791471 17.443299,4.05147059 L17.443299,13.1323529 L17.443299,13.1323529 Z M4.91752577,4.52941176 C2.92223505,4.52941176 1.29896907,6.20174706 1.29896907,8.25735294 C1.29896907,10.3129588 2.92223505,11.9852941 4.91752577,11.9852941 C6.91281649,11.9852941 8.53608247,10.3129588 8.53608247,8.25735294 C8.53608247,6.20174706 6.91281649,4.52941176 4.91752577,4.52941176 L4.91752577,4.52941176 Z M7.96616907,8.54407941 C7.82498969,10.1495029 6.51195464,11.4117647 4.91752577,11.4117647 C3.32309691,11.4117647 2.01006186,10.1495029 1.86888247,8.54411765 L2.87628866,8.54411765 L2.87628866,7.97058824 L1.86888247,7.97058824 C1.92225155,7.36352647 2.14307629,6.80575 2.48355464,6.34654412 L3.0505732,6.93070294 L3.44423505,6.52517941 L2.85999588,5.92327941 C3.33946392,5.47424412 3.95755052,5.18017647 4.63917526,5.11655294 L4.63917526,6.15441176 L5.19587629,6.15441176 L5.19587629,5.11655294 C5.87750103,5.18017647 6.49558763,5.47424412 6.97505567,5.92324118 L6.20524948,6.71631765 L6.59891134,7.12184118 L7.35149691,6.34650588 C7.69197526,6.80571176 7.9128,7.36348824 7.96616907,7.97055 L6.95876289,7.97055 L6.95876289,8.54407941 L7.96616907,8.54407941 L7.96616907,8.54407941 Z M5.19587629,8.20183529 L5.19587629,6.91911765 L4.63917526,6.91911765 L4.63917526,8.20183529 C4.21133196,8.32701765 3.89690722,8.73288529 3.89690722,9.21323529 C3.89690722,9.79303529 4.35477526,10.2647059 4.91752577,10.2647059 C5.48027629,10.2647059 5.93814433,9.79303529 5.93814433,9.21323529 C5.93814433,8.73288529 5.62371959,8.32701765 5.19587629,8.20183529 L5.19587629,8.20183529 Z M4.91752577,9.69117647 C4.66170309,9.69117647 4.45360825,9.47679118 4.45360825,9.21323529 C4.45360825,8.94967941 4.66170309,8.73529412 4.91752577,8.73529412 C5.17334845,8.73529412 5.3814433,8.94967941 5.3814433,9.21323529 C5.3814433,9.47679118 5.17334845,9.69117647 4.91752577,9.69117647 L4.91752577,9.69117647 Z M13.0824742,4.52941176 C11.0871835,4.52941176 9.46391753,6.20174706 9.46391753,8.25735294 C9.46391753,10.3129588 11.0871835,11.9852941 13.0824742,11.9852941 C15.0777649,11.9852941 16.7010309,10.3129588 16.7010309,8.25735294 C16.7010309,6.20174706 15.0777649,4.52941176 13.0824742,4.52941176 L13.0824742,4.52941176 Z M16.1311175,8.54407941 C15.9899381,10.1495029 14.6769031,11.4117647 13.0824742,11.4117647 C11.4880454,11.4117647 10.1750103,10.1495029 10.0338309,8.54411765 L11.0412371,8.54411765 L11.0412371,7.97058824 L10.0338309,7.97058824 C10.0872,7.36352647 10.3080247,6.80575 10.6485031,6.34654412 L11.2155216,6.93070294 L11.6091835,6.52517941 L11.0249443,5.92327941 C11.5044124,5.47428235 12.1224619,5.18021471 12.8041237,5.11659118 L12.8041237,6.15441176 L13.3608247,6.15441176 L13.3608247,5.11655294 C14.0424495,5.18017647 14.6605361,5.47424412 15.1400041,5.92324118 L14.3701979,6.71631765 L14.7638598,7.12184118 L15.5164454,6.34650588 C15.8569237,6.80571176 16.0777485,7.36348824 16.1311175,7.97055 L15.1237113,7.97055 L15.1237113,8.54407941 L16.1311175,8.54407941 L16.1311175,8.54407941 Z M13.3608247,8.20183529 L13.3608247,6.91911765 L12.8041237,6.91911765 L12.8041237,8.20183529 C12.3762804,8.32701765 12.0618557,8.73288529 12.0618557,9.21323529 C12.0618557,9.79303529 12.5197237,10.2647059 13.0824742,10.2647059 C13.6452247,10.2647059 14.1030928,9.79303529 14.1030928,9.21323529 C14.1030928,8.73288529 13.788668,8.32701765 13.3608247,8.20183529 L13.3608247,8.20183529 Z M13.0824742,9.69117647 C12.8266515,9.69117647 12.6185567,9.47679118 12.6185567,9.21323529 C12.6185567,8.94967941 12.8266515,8.73529412 13.0824742,8.73529412 C13.3382969,8.73529412 13.5463918,8.94967941 13.5463918,9.21323529 C13.5463918,9.47679118 13.3382969,9.69117647 13.0824742,9.69117647 L13.0824742,9.69117647 Z M3.6185567,14.2794118 L8.44329897,14.2794118 L8.44329897,14.8529412 L3.6185567,14.8529412 L3.6185567,14.2794118 L3.6185567,14.2794118 Z M9.55670103,14.2794118 L14.3814433,14.2794118 L14.3814433,14.8529412 L9.55670103,14.8529412 L9.55670103,14.2794118 L9.55670103,14.2794118 Z" id="预测管理-默认"></path>
        </g>
    </g>
</svg>