<?xml version="1.0" encoding="UTF-8"?>
<svg width="32px" height="32px" viewBox="0 0 32 32" version="1.1" xmlns="http://www.w3.org/2000/svg" xmlns:xlink="http://www.w3.org/1999/xlink">
    <!-- Generator: Sketch 52.4 (67378) - http://www.bohemiancoding.com/sketch -->
    <title>基础icon-清除@1.5x</title>
    <desc>Created with Sketch.</desc>
    <g id="Page-1" stroke="none" stroke-width="1" fill="none" fill-rule="evenodd">
        <g id="补充的icon" transform="translate(-430.000000, -55.000000)" fill="#6D8290" fill-rule="nonzero">
            <g id="分组-27" transform="translate(430.000000, 55.000000)">
                <g id="基础icon-清除">
                    <g id="已清除告警" transform="translate(7.000000, 7.000000)">
                        <path d="M0.3375,15.525 L17.6625,15.525 L17.6625,17.6625 L0.3375,17.6625 L0.3375,15.525 Z M17.1994043,6.42125391 L11.9284277,1.1390625 C11.6386966,0.845055585 11.244071,0.67813604 10.8313066,0.675 C10.4793926,0.675 10.1365664,0.802423828 9.87939844,1.06036523 L0.720931641,10.248416 C0.179525391,10.7911758 0.215683594,11.7146602 0.800402344,12.3007324 L2.78310938,14.2875 L11.4842813,14.2875 L17.2790684,8.47357031 C17.8200879,7.93081055 17.784123,7.00732617 17.1994043,6.42125391 Z M10.9701387,13.05 L3.29589844,13.05 L1.67593359,11.4257812 C1.55991797,11.3086055 1.55817773,11.1599121 1.59684961,11.1212402 L6.63908203,6.06411914 L12.2954238,11.7202676 L10.9701387,13.05 Z" id="形状"></path>
                    </g>
                </g>
            </g>
        </g>
    </g>
</svg>