<?xml version="1.0" encoding="UTF-8"?>
<svg width="32px" height="32px" viewBox="0 0 32 32" version="1.1" xmlns="http://www.w3.org/2000/svg" xmlns:xlink="http://www.w3.org/1999/xlink">
    <!-- Generator: Sketch 52.4 (67378) - http://www.bohemiancoding.com/sketch -->
    <title>基础icon-修改</title>
    <desc>Created with Sketch.</desc>
    <defs>
        <path d="M12.0769231,5.20174825 L15.2307692,5.20174825 C15.4615385,5.20174825 15.6538462,5.00244755 15.6538462,4.76328671 C15.6538462,4.64370629 15.6153846,4.56398601 15.5384615,4.44440559 L11.6153846,0.418531469 C11.5,0.338811189 11.4230769,0.298951049 11.3076923,0.298951049 C11.0769231,0.298951049 10.8846154,0.498251748 10.8846154,0.737412587 L10.8846154,3.96608392 C10.8846154,4.64370629 11.4230769,5.20174825 12.0769231,5.20174825 Z M19.0384615,9.3472028 L18.6923077,8.98846154 C18.4615385,8.7493007 18.1153846,8.7493007 17.8461538,8.98846154 L13.2692308,13.7318182 C13.2307692,13.7716783 13.2692308,13.8115385 13.2692308,13.8513986 L13.2692308,14.8479021 C13.2692308,14.9276224 13.2692308,15.0073427 13.3461538,15.0073427 L14.3461538,15.0073427 C14.3846154,15.0073427 14.4230769,14.9674825 14.4615385,14.9674825 L19.0384615,10.263986 C19.3076923,9.9451049 19.3076923,9.58636364 19.0384615,9.3472028 L19.0384615,9.3472028 Z M15.3461538,16.801049 L12.6153846,16.801049 C12,16.801049 11.5,16.2828671 11.5,15.6451049 L11.5,13.4926573 C11.5,13.1737762 11.5769231,12.8548951 11.8461538,12.6555944 L15.5,8.86888112 C15.6153846,8.7493007 15.6923077,8.58986014 15.6923077,8.43041958 L15.6923077,7.63321678 C15.6923077,7.31433566 15.4230769,7.03531469 15.1153846,7.03531469 L10.8846154,7.03531469 C9.88461538,7.03531469 9.11538462,6.19825175 9.11538462,5.20174825 L9.11538462,0.896853147 C9.11538462,0.577972028 8.84615385,0.298951049 8.5,0.298951049 L2.53846154,0.298951049 C1.57692308,0.298951049 0.769230769,1.13601399 0.769230769,2.13251748 L0.769230769,16.801049 C0.769230769,17.7975524 1.57692308,18.6346154 2.53846154,18.6346154 L13.8461538,18.6346154 C14.6923077,18.6346154 15.4615385,17.9968531 15.6153846,17.1597902 C15.6538462,17.0003497 15.5,16.801049 15.3461538,16.801049 L15.3461538,16.801049 Z M3.15384615,5.79965035 C3.15384615,5.48076923 3.42307692,5.20174825 3.73076923,5.20174825 L6.11538462,5.20174825 C6.46153846,5.20174825 6.69230769,5.48076923 6.69230769,5.79965035 L6.69230769,6.39755245 C6.69230769,6.71643357 6.42307692,6.99545455 6.11538462,6.99545455 L3.73076923,6.99545455 C3.38461538,6.99545455 3.15384615,6.71643357 3.15384615,6.39755245 L3.15384615,5.79965035 Z M9.11538462,13.7318182 C9.11538462,14.0506993 8.84615385,14.3297203 8.53846154,14.3297203 L3.73076923,14.3297203 C3.38461538,14.3297203 3.15384615,14.0506993 3.15384615,13.7318182 L3.15384615,13.1339161 C3.15384615,12.815035 3.42307692,12.536014 3.73076923,12.536014 L8.5,12.536014 C8.84615385,12.536014 9.07692308,12.815035 9.07692308,13.1339161 L9.07692308,13.7318182 L9.11538462,13.7318182 Z M10.3076923,10.0646853 C10.3076923,10.3835664 10.0384615,10.6625874 9.73076923,10.6625874 L3.73076923,10.6625874 C3.38461538,10.6625874 3.15384615,10.3835664 3.15384615,10.0646853 L3.15384615,9.46678322 C3.15384615,9.1479021 3.42307692,8.86888112 3.73076923,8.86888112 L9.69230769,8.86888112 C10.0384615,8.86888112 10.2692308,9.1479021 10.2692308,9.46678322 L10.2692308,10.0646853 L10.3076923,10.0646853 Z" id="path-1"></path>
    </defs>
    <g id="Page-1" stroke="none" stroke-width="1" fill="none" fill-rule="evenodd">
        <g id="补充的icon" transform="translate(-251.000000, -55.000000)">
            <g id="分组-25" transform="translate(251.000000, 55.000000)">
                <g id="基础icon-修改">
                    <g id="分组-11" transform="translate(6.000000, 7.000000)">
                        <g id="icons/utility/edit_form">
                            <mask id="mask-2" fill="white">
                                <use xlink:href="#path-1"></use>
                            </mask>
                            <use id="Mask" fill="#6D8290" xlink:href="#path-1"></use>
                        </g>
                        <path d="M19.0384615,9.3472028 L18.6923077,8.98846154 C18.4615385,8.7493007 18.1153846,8.7493007 17.8461538,8.98846154 L13.2692308,13.7318182 C13.2307692,13.7716783 13.2692308,13.8115385 13.2692308,13.8513986 L13.2692308,14.8479021 C13.2692308,14.9276224 13.2692308,15.0073427 13.3461538,15.0073427 L14.3461538,15.0073427 C14.3846154,15.0073427 14.4230769,14.9674825 14.4615385,14.9674825 L19.0384615,10.263986 C19.3076923,9.9451049 19.3076923,9.58636364 19.0384615,9.3472028 L19.0384615,9.3472028 Z" id="Path" fill="#8BC34A"></path>
                    </g>
                </g>
            </g>
        </g>
    </g>
</svg>