<?xml version="1.0" encoding="UTF-8"?>
<svg width="32px" height="32px" viewBox="0 0 32 32" version="1.1" xmlns="http://www.w3.org/2000/svg" xmlns:xlink="http://www.w3.org/1999/xlink">
    <!-- Generator: Sketch 52.4 (67378) - http://www.bohemiancoding.com/sketch -->
    <title>基础icon-工作台设置</title>
    <desc>Created with Sketch.</desc>
    <defs>
        <path d="M9.13501795,7.62541806 C7.5921608,7.62541806 6.36578718,8.86956522 6.36578718,10.4347826 C6.36578718,12 7.5921608,13.2441472 9.13501795,13.2441472 C10.6778751,13.2441472 11.9042487,12 11.9042487,10.4347826 C11.9042487,8.86956522 10.6778751,7.62541806 9.13501795,7.62541806 Z M17.4427103,12.9632107 L15.978974,11.7190635 C16.0580949,11.277592 16.0976553,10.7959866 16.0976553,10.3545151 C16.0976553,9.91304348 16.0580949,9.43143813 15.978974,8.98996656 L17.4427103,7.7458194 C17.9174355,7.34448161 18.0756773,6.62207358 17.7591938,6.06020067 L17.1262267,4.93645485 C16.8888641,4.53511706 16.4536993,4.29431438 15.978974,4.29431438 C15.8207322,4.29431438 15.6624905,4.33444816 15.5438092,4.37458194 L13.7240289,5.05685619 C13.011941,4.41471572 12.2207322,3.97324415 11.389963,3.69230769 L11.0734795,1.80602007 C10.9547982,1.1638796 10.400952,0.802675585 9.76798498,0.802675585 L8.50205091,0.802675585 C7.86908388,0.802675585 7.31523773,1.1638796 7.19655641,1.80602007 L6.88007289,3.65217391 C6.00974322,3.93311037 5.21853443,4.41471572 4.50644652,5.01672241 L2.6866663,4.33444816 C2.52842454,4.29431438 2.40974322,4.2541806 2.25150146,4.2541806 C1.77677619,4.2541806 1.34161135,4.49498328 1.10424872,4.89632107 L0.471281684,6.02006689 C0.154798167,6.5819398 0.273479486,7.30434783 0.7877652,7.70568562 L2.25150146,8.94983278 C2.17238059,9.39130435 2.13282015,9.8729097 2.13282015,10.3143813 C2.13282015,10.7959866 2.17238059,11.2374582 2.25150146,11.6789298 L0.7877652,12.9230769 C0.313039926,13.3244147 0.154798167,14.0468227 0.471281684,14.6086957 L1.10424872,15.7324415 C1.34161135,16.1337793 1.77677619,16.3745819 2.25150146,16.3745819 C2.40974322,16.3745819 2.56798498,16.3344482 2.6866663,16.2943144 L4.50644652,15.6120401 C5.21853443,16.2541806 6.00974322,16.6956522 6.84051245,16.9765886 L7.15699597,18.90301 C7.27567729,19.5451505 7.789963,19.9866221 8.46249048,19.9866221 L9.72842454,19.9866221 C10.3613916,19.9866221 10.9152377,19.5050167 11.033919,18.8628763 L11.3504026,16.9364548 C12.2602927,16.6153846 13.0910619,16.1337793 13.8031498,15.451505 L15.5042487,16.1337793 C15.6624905,16.173913 15.8207322,16.2140468 15.978974,16.2140468 C16.4536993,16.2140468 16.8888641,15.9732441 17.1262267,15.5719064 L17.7196333,14.5284281 C18.0756773,14.0869565 17.9174355,13.3645485 17.4427103,12.9632107 L17.4427103,12.9632107 Z M9.13501795,14.8494983 C6.72183113,14.8494983 4.7833696,12.8829431 4.7833696,10.4347826 C4.7833696,7.98662207 6.72183113,6.02006689 9.13501795,6.02006689 C11.5482048,6.02006689 13.4866663,7.98662207 13.4866663,10.4347826 C13.4866663,12.8829431 11.5482048,14.8494983 9.13501795,14.8494983 Z" id="path-1"></path>
    </defs>
    <g id="Page-1" stroke="none" stroke-width="1" fill="none" fill-rule="evenodd">
        <g id="补充的icon" transform="translate(-696.000000, -55.000000)">
            <g id="基础icon-工作台设置" transform="translate(696.000000, 55.000000)">
                <g id="icons/utility/settings" transform="translate(7.000000, 6.000000)">
                    <mask id="mask-2" fill="white">
                        <use xlink:href="#path-1"></use>
                    </mask>
                    <use id="Mask" fill="#6D8290" xlink:href="#path-1"></use>
                </g>
            </g>
        </g>
    </g>
</svg>