<?xml version="1.0" encoding="UTF-8"?>
<svg width="32px" height="32px" viewBox="0 0 32 32" version="1.1" xmlns="http://www.w3.org/2000/svg" xmlns:xlink="http://www.w3.org/1999/xlink">
    <!-- Generator: Sketch 51.2 (57519) - http://www.bohemiancoding.com/sketch -->
    <title>置尾单</title>
    <desc>Created with Sketch.</desc>
    <defs></defs>
    <g id="Page-1" stroke="none" stroke-width="1" fill="none" fill-rule="evenodd">
        <g id="1-01数据化排产" transform="translate(-400.000000, -112.000000)">
            <g id="1" transform="translate(181.000000, 98.000000)">
                <g id="top">
                    <g id="2" transform="translate(135.000000, 14.000000)">
                        <g id="置尾单" transform="translate(84.000000, 0.000000)">
                            <rect id="Rectangle-2" x="0" y="0" width="32" height="32" rx="2"></rect>
                            <path d="M17.5573892,21.4607613 C17.3788558,21.7411288 17.3406592,21.9811031 17.3925447,22.2017942 C17.4117963,22.2836797 17.4432741,22.3576413 17.478362,22.4127037 C17.7178966,22.5374898 18.0844585,22.6028271 18.4167712,22.5268602 C18.9628279,22.4020313 19.4871317,21.9226758 19.9473578,20.8737549 C20.1169387,20.4872559 20.2545225,20.0956092 20.3616359,19.7062962 C18.8693596,20.2257569 17.9581221,20.8314533 17.5573892,21.4607613 Z M22.1490934,21.8397918 C20.750098,25.0283015 18.0735798,25.6401551 16.1262497,24.4062189 C14.9743338,23.6763012 14.5218079,21.7515168 15.529323,20.1693224 C16.3500709,18.8804258 18.0169262,17.8523387 20.6326493,17.1080405 C20.530617,15.8374791 20.0472549,14.848124 19.2640639,14.5393107 C18.3415134,14.1755478 17.7792077,14.3788683 16.82635,15.3536861 C16.5121029,15.6751756 15.3002318,17.0621912 15.2223905,17.1480639 C15.118816,17.2623247 15.0121886,17.3805953 14.7979446,17.6184204 C14.2711822,18.2025793 13.9591085,18.5391365 13.6160237,18.8838471 C11.6510154,20.8581667 9.96580485,21.566753 8.26905755,20.212627 C7.06805612,19.2541418 6.73058514,18.0134401 7.20959497,16.5819019 C7.53059119,15.622593 8.06591839,14.7609991 9.49490509,12.729326 C10.3964678,11.447522 10.8588466,10.4640117 10.925382,9.84478054 C10.9562361,9.55762766 10.9363766,9.52264798 10.7673215,9.45270897 C10.4416032,9.31795749 9.98230707,9.49250559 9.26876743,10.244785 L7.52431679,8.59016761 C8.85125192,7.19118994 10.278855,6.64865234 11.6864605,7.23098657 C14.0783289,8.22051587 13.8029261,10.7836315 11.4615155,14.1125505 C9.28645221,17.204964 9.09011574,17.7917227 9.76882826,18.3333839 C10.1370981,18.6272897 10.7252686,18.3799797 11.9118824,17.1877429 C12.2192024,16.8789666 12.5107254,16.5645724 13.0123606,16.0082786 C13.2256806,15.7714761 13.3348774,15.6503557 13.4410018,15.5332818 C13.4786242,15.4917776 14.7370657,14.051461 15.1069662,13.6730356 C16.6693888,12.0746043 18.1813616,11.5279 20.1460155,12.3025657 C21.8156133,12.9608904 22.7586241,14.5925761 23.0009618,16.5601763 C23.5382096,16.4598817 24.1039891,16.3680583 24.6988129,16.2848208 L25.0320214,18.6659632 C24.2830629,18.7707697 23.5933178,18.8882027 22.9607864,19.0164866 C22.8243733,19.9596345 22.553063,20.9190876 22.1490934,21.8397918 Z" id="Path-4" fill="#8BC34A" fill-rule="nonzero"></path>
                        </g>
                    </g>
                </g>
            </g>
        </g>
    </g>
</svg>