<?xml version="1.0" encoding="UTF-8"?>
<svg width="32px" height="32px" viewBox="0 0 32 32" version="1.1" xmlns="http://www.w3.org/2000/svg" xmlns:xlink="http://www.w3.org/1999/xlink">
    <!-- Generator: Sketch 51.2 (57519) - http://www.bohemiancoding.com/sketch -->
    <title>调整保存-禁用</title>
    <desc>Created with Sketch.</desc>
    <defs></defs>
    <g id="Page-1" stroke="none" stroke-width="1" fill="none" fill-rule="evenodd">
        <g id="1-01数据化排产" transform="translate(-516.000000, -112.000000)">
            <g id="1" transform="translate(181.000000, 98.000000)">
                <g id="top">
                    <g id="3" transform="translate(293.000000, 14.000000)">
                        <g id="调整保存" transform="translate(42.000000, 0.000000)">
                            <rect id="Rectangle-2" x="0" y="0" width="32" height="32" rx="2"></rect>
                            <path d="M16,25 C11.0294373,25 7,20.9705627 7,16 C7,11.0294373 11.0294373,7 16,7 C20.9705627,7 25,11.0294373 25,16 C25,20.9705627 20.9705627,25 16,25 Z M20.445955,12.8878984 L19.7185202,12.1604636 C19.5045688,11.9465121 19.2050368,11.9465121 18.9910854,12.1604636 L14.4553154,16.6534433 L12.6153332,14.8562514 C12.4013818,14.6423 12.1018498,14.6423 11.8878984,14.8562514 L11.1604636,15.5836862 C10.9465121,15.7976376 10.9465121,16.0971696 11.1604636,16.311121 L13.6850903,18.8357477 C13.8990417,19.0496991 14.1557834,19.1352797 14.4125251,19.1352797 C14.6692668,19.1352797 14.9260085,19.0496991 15.1399599,18.8357477 L20.445955,13.6153332 C20.6171161,13.4441721 20.6171161,13.1018498 20.445955,12.8878984 Z" id="Combined-Shape" fill="#8BC34A" opacity="0.297433036"></path>
                        </g>
                    </g>
                </g>
            </g>
        </g>
    </g>
</svg>