<?xml version="1.0" encoding="UTF-8"?>
<svg width="32px" height="32px" viewBox="0 0 32 32" version="1.1" xmlns="http://www.w3.org/2000/svg" xmlns:xlink="http://www.w3.org/1999/xlink">
    <!-- Generator: Sketch 51.2 (57519) - http://www.bohemiancoding.com/sketch -->
    <title>工单联动</title>
    <desc>Created with Sketch.</desc>
    <defs></defs>
    <g id="Page-1" stroke="none" stroke-width="1" fill="none" fill-rule="evenodd">
        <g id="1-01数据化排产" transform="translate(-673.000000, -112.000000)">
            <g id="1" transform="translate(181.000000, 98.000000)">
                <g id="top">
                    <g id="4" transform="translate(450.000000, 14.000000)">
                        <g id="工单联动" transform="translate(42.000000, 0.000000)">
                            <rect id="Rectangle-2" x="0" y="0" width="32" height="32" rx="2"></rect>
                            <g id="Group-15" transform="translate(7.000000, 7.000000)" fill="#6D8290">
                                <path d="M6,0 L18,0 L18,5 L6,5 L6,0 Z M8,3.5 C8.55228475,3.5 9,3.05228475 9,2.5 C9,1.94771525 8.55228475,1.5 8,1.5 C7.44771525,1.5 7,1.94771525 7,2.5 C7,3.05228475 7.44771525,3.5 8,3.5 Z" id="Combined-Shape"></path>
                                <path d="M3,6.5 L18,6.5 L18,11.5 L3,11.5 L3,6.5 Z M5,10 C5.55228475,10 6,9.55228475 6,9 C6,8.44771525 5.55228475,8 5,8 C4.44771525,8 4,8.44771525 4,9 C4,9.55228475 4.44771525,10 5,10 Z" id="Combined-Shape"></path>
                                <path d="M0,13 L18,13 L18,18 L0,18 L0,13 Z M2,16.5 C2.55228475,16.5 3,16.0522847 3,15.5 C3,14.9477153 2.55228475,14.5 2,14.5 C1.44771525,14.5 1,14.9477153 1,15.5 C1,16.0522847 1.44771525,16.5 2,16.5 Z" id="Combined-Shape"></path>
                            </g>
                        </g>
                    </g>
                </g>
            </g>
        </g>
    </g>
</svg>