<?xml version="1.0" encoding="UTF-8"?>
<svg width="32px" height="32px" viewBox="0 0 32 32" version="1.1" xmlns="http://www.w3.org/2000/svg" xmlns:xlink="http://www.w3.org/1999/xlink">
    <!-- Generator: Sketch 51.2 (57519) - http://www.bohemiancoding.com/sketch -->
    <title>固定时间</title>
    <desc>Created with Sketch.</desc>
    <defs></defs>
    <g id="Page-1" stroke="none" stroke-width="1" fill="none" fill-rule="evenodd">
        <g id="1-01数据化排产" transform="translate(-358.000000, -112.000000)">
            <g id="1" transform="translate(181.000000, 98.000000)">
                <g id="top">
                    <g id="2" transform="translate(135.000000, 14.000000)">
                        <g id="固定时间" transform="translate(42.000000, 0.000000)">
                            <rect id="Rectangle-2" x="0" y="0" width="32" height="32" rx="2"></rect>
                            <path d="M17,8.06189375 C20.6187173,8.51314142 23.4868586,11.3812827 23.9381062,15 L26,15 L26,17 L23.9381062,17 C23.4868586,20.6187173 20.6187173,23.4868586 17,23.9381062 L17,26 L15,26 L15,23.9381062 C11.3812827,23.4868586 8.51314142,20.6187173 8.06189375,17 L6,17 L6,15 L8.06189375,15 C8.51314142,11.3812827 11.3812827,8.51314142 15,8.06189375 L15,6 L17,6 L17,8.06189375 Z M16,22 C19.3137085,22 22,19.3137085 22,16 C22,12.6862915 19.3137085,10 16,10 C12.6862915,10 10,12.6862915 10,16 C10,19.3137085 12.6862915,22 16,22 Z" id="Oval-5" fill="#6D8290" fill-rule="nonzero"></path>
                            <circle id="Oval-7" fill="#8BC34A" cx="16" cy="16" r="4"></circle>
                        </g>
                    </g>
                </g>
            </g>
        </g>
    </g>
</svg>