<?xml version="1.0" encoding="UTF-8"?>
<svg width="32px" height="32px" viewBox="0 0 32 32" version="1.1" xmlns="http://www.w3.org/2000/svg" xmlns:xlink="http://www.w3.org/1999/xlink">
    <!-- Generator: Sketch 51.2 (57519) - http://www.bohemiancoding.com/sketch -->
    <title>批量资源调整</title>
    <desc>Created with Sketch.</desc>
    <defs></defs>
    <g id="Page-1" stroke="none" stroke-width="1" fill="none" fill-rule="evenodd">
        <g id="1-01数据化排产" transform="translate(-474.000000, -112.000000)">
            <g id="1" transform="translate(181.000000, 98.000000)">
                <g id="top">
                    <g id="3" transform="translate(293.000000, 14.000000)">
                        <g id="批量资源调整">
                            <rect id="Rectangle-2" opacity="0.504464286" x="0" y="0" width="32" height="32" rx="2"></rect>
                            <g id="Group-11" transform="translate(6.000000, 7.000000)">
                                <path d="M13,0 L21,0 L21,2 L13,2 L13,0 Z M13,7 L21,7 L21,9 L13,9 L13,7 Z M13,14 L21,14 L21,16 L13,16 L13,14 Z" id="Combined-Shape" fill="#6D8290"></path>
                                <path d="M8,16 C3.581722,16 8.8817842e-16,12.418278 0,8 C-8.8817842e-16,3.581722 3.581722,0 8,0 L12,0 L12,2 L8,2 C4.6862915,2 2,4.6862915 2,8 C2,11.3137085 4.6862915,14 8,14 L8,12 L12,15 L8,18 L8,16 Z" id="Combined-Shape" fill="#8BC34A"></path>
                            </g>
                        </g>
                    </g>
                </g>
            </g>
        </g>
    </g>
</svg>