<?xml version="1.0" encoding="UTF-8"?>
<svg width="32px" height="32px" viewBox="0 0 32 32" version="1.1" xmlns="http://www.w3.org/2000/svg" xmlns:xlink="http://www.w3.org/1999/xlink">
    <!-- Generator: Sketch 51.2 (57519) - http://www.bohemiancoding.com/sketch -->
    <title>工单组件</title>
    <desc>Created with Sketch.</desc>
    <defs></defs>
    <g id="Page-1" stroke="none" stroke-width="1" fill="none" fill-rule="evenodd">
        <g id="1-01数据化排产" transform="translate(-788.000000, -112.000000)">
            <g id="1" transform="translate(181.000000, 98.000000)">
                <g id="top">
                    <g id="5" transform="translate(607.000000, 14.000000)">
                        <g id="工单组件">
                            <rect id="Rectangle-2" x="0" y="0" width="32" height="32" rx="2"></rect>
                            <path d="M23,19 L23,23 C23,24.1045695 22.1045695,25 21,25 L17,25 L17,24 C17,22.8954305 16.1045695,22 15,22 C13.8954305,22 13,22.8954305 13,24 L13,25 L9,25 C7.8954305,25 7,24.1045695 7,23 L7,19 L8,19 C9.1045695,19 10,18.1045695 10,17 C10,15.8954305 9.1045695,15 8,15 L7,15 L7,11 C7,9.8954305 7.8954305,9 9,9 L13,9 L13,8 C13,6.8954305 13.8954305,6 15,6 C16.1045695,6 17,6.8954305 17,8 L17,9 L21,9 C22.1045695,9 23,9.8954305 23,11 L23,15 L24,15 C25.1045695,15 26,15.8954305 26,17 C26,18.1045695 25.1045695,19 24,19 L23,19 Z" id="Rectangle-52" fill="#6D8290"></path>
                        </g>
                    </g>
                </g>
            </g>
        </g>
    </g>
</svg>