<?xml version="1.0" encoding="UTF-8"?>
<svg width="32px" height="32px" viewBox="0 0 32 32" version="1.1" xmlns="http://www.w3.org/2000/svg" xmlns:xlink="http://www.w3.org/1999/xlink">
    <!-- Generator: Sketch 51.2 (57519) - http://www.bohemiancoding.com/sketch -->
    <title>工单族</title>
    <desc>Created with Sketch.</desc>
    <defs></defs>
    <g id="Page-1" stroke="none" stroke-width="1" fill="none" fill-rule="evenodd">
        <g id="1-01数据化排产" transform="translate(-830.000000, -112.000000)">
            <g id="1" transform="translate(181.000000, 98.000000)">
                <g id="top">
                    <g id="5" transform="translate(607.000000, 14.000000)">
                        <g id="工单族" transform="translate(42.000000, 0.000000)">
                            <rect id="Rectangle-2" x="0" y="0" width="32" height="32" rx="2"></rect>
                            <path d="M11,7 L11,10 L21,10 L21,7 L23,7 C23.5522847,7 24,7.44771525 24,8 L24,25 C24,25.5522847 23.5522847,26 23,26 L9,26 C8.44771525,26 8,25.5522847 8,25 L8,8 C8,7.44771525 8.44771525,7 9,7 L11,7 Z M12,6 L20,6 L20,9 L12,9 L12,6 Z M10,13 L10,14.5 L22,14.5 L22,13 L10,13 Z M10,17 L10,18.5 L22,18.5 L22,17 L10,17 Z" id="Rectangle-14" fill="#6D8290" fill-rule="nonzero"></path>
                        </g>
                    </g>
                </g>
            </g>
        </g>
    </g>
</svg>