<?xml version="1.0" encoding="UTF-8"?>
<svg width="16px" height="16px" viewBox="0 0 16 16" version="1.1" xmlns="http://www.w3.org/2000/svg" xmlns:xlink="http://www.w3.org/1999/xlink">
    <!-- Generator: Sketch 52.4 (67378) - http://www.bohemiancoding.com/sketch -->
    <title>合并 copy 5</title>
    <desc>Created with Sketch.</desc>
    <g id="Page-1" stroke="none" stroke-width="1" fill="none" fill-rule="evenodd">
        <g id="合并-copy-5">
            <rect id="矩形" fill="#000000" opacity="0" x="0" y="0" width="16" height="16"></rect>
            <path d="M2.64375,7.609375 L6.2265625,7.609375 L6.2265625,8.390625 L2.6453125,8.390625 L4.7953125,10.540625 L4.2421875,11.09375 L1.7015625,8.553125 L1.1484375,8 L1.7015625,7.446875 L4.2421875,4.90625 L4.7953125,5.459375 L2.64375,7.609375 Z M2.509375,2.375 L6.678125,2.375 L6.678125,13.625 L2.509375,13.625 L2.509375,14.40625 L7.459375,14.40625 L7.459375,1.59375 L2.509375,1.59375 L2.509375,2.375 Z M13.3546875,8.390625 L11.2046875,10.540625 L11.75625,11.09375 L14.296875,8.553125 L14.85,8 L14.296875,7.446875 L11.75625,4.90625 L11.203125,5.459375 L13.3546875,7.609375 L9.7734375,7.609375 L9.7734375,8.390625 L13.3546875,8.390625 Z M9.16248422,2.375 L12.4890625,2.375 L12.4890625,1.59375 L8.5390625,1.59375 L8.5390625,14.40625 L12.4890625,14.40625 L12.4890625,13.625 L9.16248422,13.625 L9.16248422,2.375 Z" id="形状" stroke="#1890FF" stroke-width="0.2" fill="#1890FF" fill-rule="nonzero"></path>
        </g>
    </g>
</svg>