<?xml version="1.0" encoding="UTF-8"?>
<svg width="32px" height="32px" viewBox="0 0 32 32" version="1.1" xmlns="http://www.w3.org/2000/svg" xmlns:xlink="http://www.w3.org/1999/xlink">
    <!-- Generator: Sketch 51.2 (57519) - http://www.bohemiancoding.com/sketch -->
    <title>排产表</title>
    <desc>Created with Sketch.</desc>
    <defs></defs>
    <g id="Page-1" stroke="none" stroke-width="1" fill="none" fill-rule="evenodd">
        <g id="1-01数据化排产" transform="translate(-989.000000, -112.000000)">
            <g id="1" transform="translate(181.000000, 98.000000)">
                <g id="top">
                    <g id="6" transform="translate(766.000000, 14.000000)">
                        <g id="排产表" transform="translate(42.000000, 0.000000)">
                            <rect id="Rectangle-2" x="0" y="0" width="32" height="32" rx="2"></rect>
                            <path d="M20,23 L20,25 L12,25 L12,23 L8,23 C6.8954305,23 6,22.1045695 6,21 L6,9 C6,7.8954305 6.8954305,7 8,7 L24,7 C25.1045695,7 26,7.8954305 26,9 L26,21 C26,22.1045695 25.1045695,23 24,23 L20,23 Z M9,9 C8.44771525,9 8,9.44771525 8,10 L8,20 C8,20.5522847 8.44771525,21 9,21 L23,21 C23.5522847,21 24,20.5522847 24,20 L24,10 C24,9.44771525 23.5522847,9 23,9 L9,9 Z M10,11 L12,11 L12,13 L10,13 L10,11 Z M13,11 L22,11 L22,13 L13,13 L13,11 Z M10,15 L12,15 L12,17 L10,17 L10,15 Z M13,15 L22,15 L22,17 L13,17 L13,15 Z" id="Combined-Shape" fill="#6D8290"></path>
                        </g>
                    </g>
                </g>
            </g>
        </g>
    </g>
</svg>