<?xml version="1.0" encoding="UTF-8"?>
<svg width="32px" height="32px" viewBox="0 0 32 32" version="1.1" xmlns="http://www.w3.org/2000/svg" xmlns:xlink="http://www.w3.org/1999/xlink">
    <!-- Generator: Sketch 55.2 (78181) - https://sketchapp.com -->
    <title>排产检核</title>
    <desc>Created with Sketch.</desc>
    <defs>
        <path d="M13.5317186,14.3123044 L13.8461538,14.6280137 L13.8461538,14.8076923 C13.8461538,15.1153846 13.5769231,15.3846154 13.2692308,15.3846154 L12.8058021,15.3846154 L13.5317186,14.3123044 Z M16.5150774,13.9627764 L16.4862296,14.0320876 C16.3651494,14.2460135 16.1804667,14.417863 15.9570693,14.5231263 L16.5150774,13.9627764 Z M15.3846154,13.8713558 L15.3846154,13.6538462 C15.3846154,13.3461538 15.6538462,13.0769231 15.9615385,13.0769231 L16.1758638,13.0769231 L15.3846154,13.8713558 Z M11.0658147,7.69230769 L10.5769231,7.69230769 C10.2692308,7.69230769 10,7.42307692 10,7.11538462 L10,5.96153846 C10,5.65384615 10.2692308,5.38461538 10.5769231,5.38461538 L13.2692308,5.38461538 C13.5769231,5.38461538 13.8461538,5.65384615 13.8461538,5.96153846 L13.8461538,6.39097747 C12.8404454,6.62275722 11.8907984,7.06601571 11.0658147,7.69230769 Z M15.3846154,6.20551854 L15.3846154,5.96153846 C15.3846154,5.65384615 15.6538462,5.38461538 15.9615385,5.38461538 L18.6538462,5.38461538 C18.9615385,5.38461538 19.2307692,5.65384615 19.2307692,5.96153846 L19.2307692,7.11538462 C19.2307692,7.15826606 19.2255401,7.20040048 19.2157065,7.24116323 C18.9096818,7.05717427 18.5895923,6.89554051 18.2580436,6.75805922 C17.317078,6.36984971 16.3416802,6.19296238 15.3846154,6.20551854 Z M8.38297249,15.0895896 C8.28101499,15.2628875 8.09151004,15.3846154 7.88461538,15.3846154 L5.19230769,15.3846154 C4.88461538,15.3846154 4.61538462,15.1153846 4.61538462,14.8076923 L4.61538462,13.6538462 C4.61538462,13.3461538 4.88461538,13.0769231 5.19230769,13.0769231 L7.88461538,13.0769231 C8.00205201,13.0769231 8.1138859,13.1161423 8.20728669,13.1817503 C8.18172085,13.8211148 8.24031201,14.4625887 8.38297249,15.0895896 Z M17.7269537,15.3846154 C17.9164549,15.162071 18.0739253,14.911081 18.1925534,14.6383535 L18.1925534,14.6167919 C18.3413976,14.2591707 18.4184347,13.8757613 18.4192767,13.4884025 C18.4171454,13.4079249 18.4478158,13.3300375 18.504247,13.2726206 C18.5606782,13.2152037 18.6380229,13.1831893 18.7217922,13.1852336 C18.8017222,13.1846619 18.8784399,13.2166574 18.9342784,13.2738517 C18.9901168,13.3310461 19.0202628,13.4085092 19.0177739,13.4884025 C19.0166758,13.9549014 18.9224921,14.4164908 18.7407403,14.8461287 L18.7407403,14.8605031 C18.721929,14.9047197 18.7022627,14.9485233 18.681757,14.9918909 L18.632279,14.8442339 L18.632279,15.0925053 C18.5812022,15.1924657 18.5255856,15.2899347 18.4656287,15.3846154 L17.7269537,15.3846154 Z M16.3468823,16.9230769 C16.0644746,16.9946691 15.7720403,17.031729 15.4757942,17.0316891 C15.3827457,17.0312906 15.2995603,16.9891754 15.2439713,16.9230769 L16.3468823,16.9230769 Z M13.3825092,16.9230769 C13.4025348,17.1316506 13.4524611,17.3311073 13.5279109,17.5171391 C13.201256,17.3564552 12.895395,17.1569456 12.6169211,16.9230769 L13.3825092,16.9230769 Z M9.06636644,16.9230769 C9.4030751,17.5492746 9.83203853,18.1229638 10.3400076,18.62438 C10.5552218,18.840659 10.7851171,19.0432727 11.0277098,19.2307692 L1.34615385,19.2307692 C1.03846154,19.2307692 0.769230769,18.9615385 0.769230769,18.6538462 L0.769230769,13.6538462 C0.769230769,13.3461538 1.03846154,13.0769231 1.34615385,13.0769231 L2.5,13.0769231 C2.80769231,13.0769231 3.07692308,13.3461538 3.07692308,13.6538462 L3.07692308,16.3461538 C3.07692308,16.6538462 3.34615385,16.9230769 3.65384615,16.9230769 L9.06636644,16.9230769 Z M19.2223462,11.0557337 C19.1993677,11.183781 19.1308648,11.3002509 19.0352867,11.3866943 L18.7347365,11.3839874 C18.454681,11.381465 18.1800321,11.4350192 17.9257575,11.5384615 L16.0224115,11.5384615 C16.3385967,11.0013058 16.4062651,10.3491575 16.1750179,9.74074972 L16.1345092,9.64293521 C16.0674861,9.49367362 15.9851634,9.35593116 15.8901968,9.23076923 L16.8367797,9.23076923 C16.9530011,9.26753129 17.0678772,9.30899801 17.1811192,9.3551127 C17.7262242,9.581578 18.2205146,9.91480751 18.6348925,10.3351846 L18.6603744,10.3573995 C18.8709094,10.5714164 19.0590548,10.8054304 19.2223462,11.0557337 Z M13.2659485,11.5384615 L12.5167665,11.5384615 C12.5240617,11.5274088 12.5314215,11.5163852 12.5388455,11.5053904 C12.6639677,11.3156717 12.8096862,11.1403714 12.973344,10.9787651 C13.1360582,10.8217989 13.3108288,10.6778317 13.496049,10.5481869 C13.6846653,10.4200625 13.8853328,10.3106473 14.0951996,10.2214962 C14.2487674,10.1586758 14.4244897,10.2289069 14.4924554,10.3802679 C14.5514884,10.5355828 14.4797034,10.7100404 14.3284567,10.7788304 C14.1536677,10.8470275 13.9879774,10.936566 13.8351539,11.04541 C13.6753564,11.1481128 13.5272502,11.2679561 13.3934682,11.4028095 C13.3495558,11.4467273 13.3070304,11.4919674 13.2659485,11.5384615 Z M8.46248344,11.5384615 L1.34615385,11.5384615 C1.03846154,11.5384615 0.769230769,11.2692308 0.769230769,10.9615385 L0.769230769,5.96153846 C0.769230769,5.65384615 1.03846154,5.38461538 1.34615385,5.38461538 L2.5,5.38461538 C2.80769231,5.38461538 3.07692308,5.65384615 3.07692308,5.96153846 L3.07692308,8.65384615 C3.07692308,8.96153846 3.34615385,9.23076923 3.65384615,9.23076923 L9.56590471,9.23076923 C9.24621431,9.67514936 8.97194583,10.1627782 8.75243083,10.6897865 C8.63792853,10.9681146 8.54128225,11.2515453 8.46248344,11.5384615 Z M18.6538462,0.769230769 C18.9615385,0.769230769 19.2307692,1.03846154 19.2307692,1.34615385 L19.2307692,3.26923077 C19.2307692,3.57692308 18.9615385,3.84615385 18.6538462,3.84615385 L1.34615385,3.84615385 C1.03846154,3.84615385 0.769230769,3.57692308 0.769230769,3.26923077 L0.769230769,1.34615385 C0.769230769,1.03846154 1.03846154,0.769230769 1.34615385,0.769230769 L18.6538462,0.769230769 Z M7.88461538,5.38461538 C8.19230769,5.38461538 8.46153846,5.65384615 8.46153846,5.96153846 L8.46153846,7.11538462 C8.46153846,7.42307692 8.19230769,7.69230769 7.88461538,7.69230769 L5.19230769,7.69230769 C4.88461538,7.69230769 4.61538462,7.42307692 4.61538462,7.11538462 L4.61538462,5.96153846 C4.61538462,5.65384615 4.88461538,5.38461538 5.19230769,5.38461538 L7.88461538,5.38461538 Z M11.228228,13.8848465 L11.228228,14.8911021 C11.0999188,14.500579 11.0263532,14.0968687 11.0075076,13.6912444 C11.0759229,13.760539 11.1496002,13.8252715 11.228228,13.8848465 Z" id="path-1"></path>
    </defs>
    <g id="Page-1" stroke="none" stroke-width="1" fill="none" fill-rule="evenodd">
        <g id="补充的icon" transform="translate(-241.000000, -999.000000)">
            <g id="排产检核" transform="translate(241.000000, 999.000000)">
                <g id="icons/utility/summarydetail-copy" transform="translate(6.000000, 6.000000)">
                    <mask id="mask-2" fill="white">
                        <use xlink:href="#path-1"></use>
                    </mask>
                    <use id="形状结合" fill="#6D8290" xlink:href="#path-1"></use>
                    <path d="M13.8461538,14.6280137 L13.8461538,14.8076923 C13.8461538,15.1153846 13.5769231,15.3846154 13.2692308,15.3846154 L12.8058021,15.3846154 L13.5317186,14.3123044 L13.8461538,14.6280137 Z M15.3846154,13.8713558 L15.3846154,13.6538462 C15.3846154,13.3461538 15.6538462,13.0769231 15.9615385,13.0769231 L16.1758638,13.0769231 L15.3846154,13.8713558 Z M16.5150774,13.9627764 L16.4862296,14.0320876 C16.3651494,14.2460135 16.1804667,14.417863 15.9570693,14.5231263 L16.5150774,13.9627764 Z M13.8461538,6.39097747 C12.8404454,6.62275722 11.8907984,7.06601571 11.0658147,7.69230769 L10.5769231,7.69230769 C10.2692308,7.69230769 10,7.42307692 10,7.11538462 L10,5.96153846 C10,5.65384615 10.2692308,5.38461538 10.5769231,5.38461538 L13.2692308,5.38461538 C13.5769231,5.38461538 13.8461538,5.65384615 13.8461538,5.96153846 L13.8461538,6.39097747 Z M19.2157065,7.24116323 C18.9096818,7.05717427 18.5895923,6.89554051 18.2580436,6.75805922 C17.317078,6.36984971 16.3416802,6.19296238 15.3846154,6.20551854 L15.3846154,5.96153846 C15.3846154,5.65384615 15.6538462,5.38461538 15.9615385,5.38461538 L18.6538462,5.38461538 C18.9615385,5.38461538 19.2307692,5.65384615 19.2307692,5.96153846 L19.2307692,7.11538462 C19.2307692,7.15826606 19.2255401,7.20040048 19.2157065,7.24116323 Z M8.20728669,13.1817503 C8.18172085,13.8211148 8.24031201,14.4625887 8.38297249,15.0895896 C8.28101499,15.2628875 8.09151004,15.3846154 7.88461538,15.3846154 L5.19230769,15.3846154 C4.88461538,15.3846154 4.61538462,15.1153846 4.61538462,14.8076923 L4.61538462,13.6538462 C4.61538462,13.3461538 4.88461538,13.0769231 5.19230769,13.0769231 L7.88461538,13.0769231 C8.00205201,13.0769231 8.1138859,13.1161423 8.20728669,13.1817503 Z M18.4656287,15.3846154 L17.7269537,15.3846154 C17.9164549,15.162071 18.0739253,14.911081 18.1925534,14.6383535 L18.1925534,14.6167919 C18.3413976,14.2591707 18.4184347,13.8757613 18.4192767,13.4884025 C18.4171454,13.4079249 18.4478158,13.3300375 18.504247,13.2726206 C18.5606782,13.2152037 18.6380229,13.1831893 18.7217922,13.1852336 C18.8017222,13.1846619 18.8784399,13.2166574 18.9342784,13.2738517 C18.9901168,13.3310461 19.0202628,13.4085092 19.0177739,13.4884025 C19.0166758,13.9549014 18.9224921,14.4164908 18.7407403,14.8461287 L18.7407403,14.8605031 C18.721929,14.9047197 18.7022627,14.9485233 18.681757,14.9918909 L18.632279,14.8442339 L18.632279,15.0925053 C18.5812022,15.1924657 18.5255856,15.2899347 18.4656287,15.3846154 Z M7.88461538,5.38461538 C8.19230769,5.38461538 8.46153846,5.65384615 8.46153846,5.96153846 L8.46153846,7.11538462 C8.46153846,7.42307692 8.19230769,7.69230769 7.88461538,7.69230769 L5.19230769,7.69230769 C4.88461538,7.69230769 4.61538462,7.42307692 4.61538462,7.11538462 L4.61538462,5.96153846 C4.61538462,5.65384615 4.88461538,5.38461538 5.19230769,5.38461538 L7.88461538,5.38461538 Z M11.228228,13.8848465 L11.228228,14.8911021 C11.0999188,14.500579 11.0263532,14.0968687 11.0075076,13.6912444 C11.0759229,13.760539 11.1496002,13.8252715 11.228228,13.8848465 Z" id="形状结合" fill="#8BC34A" mask="url(#mask-2)"></path>
                    <path d="M22.1239063,18.8614672 C22.3006986,19.0288779 22.4002522,19.2620389 22.398931,19.5055594 C22.397529,19.7490345 22.2953742,19.9810677 22.127695,20.1359342 C21.7778704,20.485506 21.2109607,20.485506 20.8610338,20.1358319 L18.9375405,18.2123386 C18.5598862,18.4880603 18.1503835,18.7186071 17.7163651,18.899352 C16.2781077,19.4889002 14.6656401,19.4889002 13.2268622,18.8991382 C12.5132551,18.6054542 11.8653428,18.172479 11.3235097,17.6280248 C10.7728044,17.0844237 10.3375852,16.435178 10.0309191,15.6824007 L10.035717,15.6921098 C9.45331508,14.2610818 9.45633588,12.6585444 10.044801,11.228098 C11.2914284,8.23521364 14.7240404,6.81451981 17.7217897,8.05128457 C18.4332771,8.34631269 19.0793359,8.77924361 19.6220802,9.32447516 L19.6506567,9.35307293 C20.1828455,9.89456958 20.6061892,10.5331526 20.9043088,11.2510846 L20.9100322,11.2674655 C21.1929409,11.9719361 21.339092,12.723842 21.3406748,13.4835508 C21.3412096,14.2530028 21.1909335,15.0151002 20.8984007,15.7266129 C20.7200825,16.1607906 20.4895786,16.5711351 20.2122874,16.9487084 L22.092054,18.8313051 L22.1239063,18.8614672 Z M14.8494375,15.455625 C14.9596875,15.455625 15.070375,15.4131875 15.1548125,15.32875 L18.1779375,12.2929375 C18.346375,12.123625 18.346375,11.8493125 18.1779375,11.68 C18.0090625,11.51025 17.735625,11.51025 17.5671875,11.68 L14.8494375,14.4086875 L13.427125,12.9806875 C13.2586875,12.811375 12.98525,12.811375 12.816375,12.9806875 C12.6479375,13.15 12.6479375,13.42475 12.816375,13.5940625 L14.5440625,15.32875 C14.6285,15.4131875 14.73875,15.455625 14.8494375,15.455625 Z" id="形状结合" fill="#6D8290" fill-rule="nonzero" mask="url(#mask-2)"></path>
                    <path d="M15.5,18 C13.0147186,18 11,15.9852814 11,13.5 C11,11.0147186 13.0147186,9 15.5,9 C17.9852814,9 20,11.0147186 20,13.5 C20,15.9852814 17.9852814,18 15.5,18 Z M14.8494375,15.455625 C14.9596875,15.455625 15.070375,15.4131875 15.1548125,15.32875 L18.1779375,12.2929375 C18.346375,12.123625 18.346375,11.8493125 18.1779375,11.68 C18.0090625,11.51025 17.735625,11.51025 17.5671875,11.68 L14.8494375,14.4086875 L13.427125,12.9806875 C13.2586875,12.811375 12.98525,12.811375 12.816375,12.9806875 C12.6479375,13.15 12.6479375,13.42475 12.816375,13.5940625 L14.5440625,15.32875 C14.6285,15.4131875 14.73875,15.455625 14.8494375,15.455625 Z" id="形状结合" fill="#8BC34A" mask="url(#mask-2)"></path>
                </g>
            </g>
        </g>
    </g>
</svg>