<?xml version="1.0" encoding="UTF-8"?>
<svg width="32px" height="32px" viewBox="0 0 32 32" version="1.1" xmlns="http://www.w3.org/2000/svg" xmlns:xlink="http://www.w3.org/1999/xlink">
    <!-- Generator: Sketch 52.4 (67378) - http://www.bohemiancoding.com/sketch -->
    <title>智能排产</title>
    <desc>Created with Sketch.</desc>
    <defs>
        <path d="M17,1.74158436 L17,16.0008063 L15.0582307,16.0008063 L15.0582307,15.0030236 L11.8980963,15.0030236 L11.8980963,16.0008063 L9.97536394,16.0008063 L9.97536394,1.74158436 L17,1.74158436 Z M11.8980963,13.2432977 L15.0582307,13.2432977 L15.0582307,3.50131022 L11.8980963,3.50131022 L11.8980963,13.2432977 Z M3.29339306,4.04555533 C2.87458007,4.91634751 2.39865622,5.71457367 1.8656215,6.45837533 L0.114221725,5.40616811 C1.33258679,3.70086676 2.20828667,1.90485789 2.70324748,0 L4.66405375,0.417254586 C4.47368421,1.05220722 4.28331467,1.66901834 4.07390817,2.24954646 L9.11870101,2.24954646 L9.11870101,4.04555533 L6.58678611,4.04555533 C6.56774916,5.09776255 6.5106383,6.07740375 6.41545353,7.00262044 L9.30907055,7.00262044 L9.30907055,8.79862931 L6.14893617,8.79862931 L5.92049272,9.88711953 C7.06270997,10.9756098 8.22396417,12.209232 9.40425532,13.5517033 L8.18589026,15.3114291 C7.06270997,13.7331183 6.12989922,12.5176376 5.36842105,11.6468454 C4.56886898,13.4791373 3.21724524,15.0574481 1.29451288,16.3636364 L0,14.8397501 C1.96080627,13.4428543 3.23628219,11.7556944 3.84546473,9.76012901 L4.07390817,8.79862931 L0.41881299,8.79862931 L0.41881299,7.00262044 L4.37849944,7.00262044 C4.47368421,6.09554525 4.53079507,5.09776255 4.56886898,4.04555533 L3.29339306,4.04555533 Z" id="path-1"></path>
    </defs>
    <g id="Page-1" stroke="none" stroke-width="1" fill="none" fill-rule="evenodd">
        <g id="补充的icon" transform="translate(-325.000000, -683.000000)">
            <g id="参与排产-copy-2" transform="translate(325.000000, 683.000000)">
                <g id="分组-15" transform="translate(8.000000, 6.000000)">
                    <mask id="mask-2" fill="white">
                        <use xlink:href="#path-1"></use>
                    </mask>
                    <use id="知" stroke="#6D8290" stroke-width="0.909090909" fill="#6D8290" xlink:href="#path-1"></use>
                    <g id="分组-9" transform="translate(5.666667, 9.090909)">
                        <path d="M2.34343434,1.66666667 L3.32323232,1.66666667 L3.32323232,0.151515152 L8.01010101,0.151515152 L8.01010101,1.66666667 L8.98989899,1.66666667 L8.98989899,0.151515152 L11.7878788,0.151515152 L11.7878788,11.3636364 L-0.454545455,11.3636364 L-0.454545455,0.151515152 L2.34343434,0.151515152 L2.34343434,1.66666667 Z M1.71380471,3.48484848 L1.71380471,9.24242424 L9.61952862,9.24242424 L9.61952862,3.48484848 L1.71380471,3.48484848 Z M1.74915825,-0.454545455 L3.91750842,-0.454545455 L3.91750842,2.27272727 L1.74915825,2.27272727 L1.74915825,-0.454545455 Z M7.41582492,-0.454545455 L9.58417508,-0.454545455 L9.58417508,2.27272727 L7.41582492,2.27272727 L7.41582492,-0.454545455 Z" id="Rectangle-12" stroke="#FFFFFF" stroke-width="0.909090909" fill="#6D8290"></path>
                        <path d="M9.44444444,0.606060606 L11.3333333,0.606060606 L11.3333333,10.9090909 L0,10.9090909 L0,0.606060606 L1.88888889,0.606060606 L1.88888889,2.12121212 L3.77777778,2.12121212 L3.77777778,0.606060606 L7.55555556,0.606060606 L7.55555556,2.12121212 L9.44444444,2.12121212 L9.44444444,0.606060606 Z M1.25925926,3.03030303 L1.25925926,9.6969697 L10.0740741,9.6969697 L10.0740741,3.03030303 L1.25925926,3.03030303 Z M2.2037037,-5.32907052e-15 L3.46296296,-5.32907052e-15 L3.46296296,1.81818182 L2.2037037,1.81818182 L2.2037037,-5.32907052e-15 Z M7.87037037,-5.32907052e-15 L9.12962963,-5.32907052e-15 L9.12962963,1.81818182 L7.87037037,1.81818182 L7.87037037,-5.32907052e-15 Z" id="Rectangle-12" fill="#6D8290"></path>
                        <path d="M1.43434343,3.18181818 L9.8989899,3.18181818 L9.8989899,9.54545455 L1.43434343,9.54545455 L1.43434343,3.18181818 Z M5.66666667,5.3030303 L8.81481481,5.3030303 L8.36026936,4.84848485 L8.36026936,5.75757576 L8.81481481,5.3030303 L5.66666667,5.3030303 Z M5.66666667,5.3030303 L2.51851852,5.3030303 L2.97306397,5.75757576 L2.97306397,4.84848485 L2.51851852,5.3030303 L5.66666667,5.3030303 Z M4.40740741,7.42424242 L6.2962963,7.42424242 L5.84175084,6.96969697 L5.84175084,7.87878788 L6.2962963,7.42424242 L4.40740741,7.42424242 Z M4.40740741,7.42424242 L2.51851852,7.42424242 L2.97306397,7.87878788 L2.97306397,6.96969697 L2.51851852,7.42424242 L4.40740741,7.42424242 Z" id="Combined-Shape" stroke="#FFFFFF" stroke-width="0.909090909" fill="#8BC34A"></path>
                    </g>
                </g>
            </g>
        </g>
    </g>
</svg>