<?xml version="1.0" encoding="UTF-8"?>
<svg width="16px" height="16px" viewBox="0 0 16 16" version="1.1" xmlns="http://www.w3.org/2000/svg" xmlns:xlink="http://www.w3.org/1999/xlink">
    <!-- Generator: Sketch 52.4 (67378) - http://www.bohemiancoding.com/sketch -->
    <title>暂挂</title>
    <desc>Created with Sketch.</desc>
    <g id="Page-1" stroke="none" stroke-width="1" fill="none" fill-rule="evenodd">
        <g id="暂挂">
            <rect id="矩形" fill="#000000" opacity="0" x="0" y="0" width="16" height="16"></rect>
            <path d="M7.99820572,1.62317069 C11.2626141,1.62773478 13.9929572,4.10411085 14.3151984,7.35257868 C14.6374397,10.6010465 12.4468227,13.5655716 9.24693003,14.2113809 C6.04703737,14.8571903 2.87811242,12.9743396 1.91522294,9.85516882 C0.952333467,6.73599801 2.50850228,3.39450874 5.51561552,2.12421247 C6.3010195,1.79191059 7.14539792,1.62149629 7.99820572,1.62317069 Z M7.99820572,1.08157138 C4.17643633,1.08157138 1.07815128,4.17985642 1.07815128,8.0017818 C1.07815128,11.8237072 4.17628034,14.9218362 7.99820572,14.9218362 C11.8201311,14.9218362 14.9184161,11.8237072 14.9184161,8.0017818 C14.9184162,4.17985642 11.8201311,1.08157138 7.99820572,1.08157138 Z" id="形状" stroke="#1890FF" stroke-width="0.3" fill="#1890FF" fill-rule="nonzero"></path>
            <path d="M7.99820572,14.9999875 C4.66970901,14.9977536 1.80308223,12.6520287 1.14219737,9.38980147 C0.481312522,6.12757424 2.20895677,2.8511097 5.27414209,1.5535989 C8.83537517,0.0491400956 12.9419298,1.71648509 14.4463886,5.27771817 C15.9508474,8.83895125 14.2835024,12.9455059 10.7222693,14.4499647 C9.86049284,14.8146846 8.93398144,15.0017589 7.99820572,14.9999875 Z M7.99820572,1.15956667 C4.22541737,1.15956667 1.15599058,4.22899346 1.15599058,8.0017818 C1.15599058,11.7745701 4.22541737,14.8439969 7.99820572,14.8439969 C11.7709941,14.8439969 14.8404208,11.7745701 14.8404208,8.0017818 C14.8404208,4.22899346 11.7709941,1.15956667 7.99820572,1.15956667 Z M7.99820572,14.4582322 C4.92688822,14.4568356 2.28145177,12.2925447 1.67168691,9.28236528 C1.06192205,6.2721859 2.65654302,3.24899668 5.48519736,2.05245679 C8.76993214,0.66905497 12.5544013,2.20814547 13.9412641,5.49142048 C15.3281269,8.77469548 13.7930257,12.5607846 10.5112141,13.9511068 C9.71618791,14.2874774 8.86146049,14.4599615 7.99820572,14.4582322 Z M7.99820572,1.70116599 C5.00110149,1.70259503 2.41962636,3.8146284 1.82462698,6.75207824 C1.22962761,9.68952808 2.78572971,12.6396544 5.54603368,13.8072835 C8.75236679,15.1616237 12.449523,13.6602869 13.8038633,10.4539538 C15.1582036,7.24762071 13.6568668,3.55046445 10.4505337,2.19612412 C9.67471503,1.8678334 8.84062286,1.69948696 7.99820572,1.70116599 Z" id="形状" stroke="#1890FF" stroke-width="0.3" fill="#1890FF" fill-rule="nonzero"></path>
            <path d="M6.74653725,10.9507839 C6.59710047,10.950784 6.47590975,10.8297328 6.47573759,10.6802962 L6.47573759,5.30610846 C6.47573759,5.15654994 6.59697872,5.0353088 6.74653725,5.0353088 C6.89609577,5.0353088 7.01733691,5.15654994 7.01733691,5.30610846 L7.01733691,10.6802962 C7.01716475,10.8297328 6.89597402,10.950784 6.74653725,10.9507839 Z" id="路径" stroke="#1890FF" stroke-width="0.3" fill="#1890FF"></path>
            <path d="M6.8352423,11.0287792 C6.59385968,11.0286075 6.39817361,10.8727372 6.39774229,10.6802962 L6.39774229,5.30610846 C6.39774228,5.18149602 6.48112931,5.06634938 6.61649228,5.00404316 C6.75185526,4.94173694 6.91862932,4.94173694 7.05399229,5.00404316 C7.18935527,5.06634938 7.27274229,5.18149602 7.27274229,5.30610846 L7.27274229,10.6802962 C7.27231096,10.8727372 7.0766249,11.0286075 6.8352423,11.0287792 Z M6.8352423,5.1131481 C6.70169187,5.11332007 6.59351189,5.19963587 6.5934042,5.30610846 L6.5934042,10.6802962 C6.59340419,10.7491785 6.63949827,10.8128285 6.71432324,10.8472697 C6.78914821,10.8817108 6.88133638,10.8817108 6.95616135,10.8472697 C7.03098632,10.8128285 7.0770804,10.7491785 7.0770804,10.6802962 L7.0770804,5.30610846 C7.0769727,5.19963587 6.96879272,5.11332007 6.8352423,5.1131481 Z" id="形状" stroke="#1890FF" stroke-width="0.3" fill="#1890FF" fill-rule="nonzero"></path>
            <path d="M9.29214764,10.9507839 C9.14268553,10.9507841 9.02145012,10.8297581 9.02119199,10.6802962 L9.02119199,5.30610846 C9.01883235,5.20778352 9.06993905,5.11590067 9.15471942,5.06604439 C9.2394998,5.01618811 9.34463949,5.01618811 9.42941987,5.06604439 C9.51420025,5.11590067 9.56530694,5.20778352 9.5629473,5.30610846 L9.5629473,10.6802962 C9.56277514,10.8297328 9.44158441,10.950784 9.29214764,10.9507839 Z" id="路径" stroke="#1890FF" stroke-width="0.3" fill="#1890FF"></path>
            <path d="M9.38071615,11.0287792 C9.13940984,11.0286077 8.94375533,10.8727624 8.94321657,10.6802962 L8.94321657,5.30610846 C8.93986549,5.17970966 9.02249312,5.06175153 9.15920379,4.99776794 C9.29591446,4.93378435 9.46532229,4.93378435 9.60203295,4.99776794 C9.73874362,5.06175153 9.82137126,5.17970966 9.81802018,5.30610846 L9.81802018,10.6802962 C9.81758904,10.8727372 9.62199064,11.0286075 9.38071615,11.0287792 Z M9.38071615,5.1131481 C9.24719378,5.11331987 9.13900617,5.19961063 9.13879081,5.30610846 L9.13879081,10.6802962 C9.14514081,10.7830477 9.25144092,10.8637568 9.38042279,10.8637568 C9.50940466,10.8637568 9.61570477,10.7830477 9.62205477,10.6802962 L9.62205477,5.30610846 C9.62194777,5.19975733 9.51405395,5.11349169 9.38071615,5.1131481 Z" id="形状" stroke="#1890FF" stroke-width="0.3" fill="#1890FF" fill-rule="nonzero"></path>
        </g>
    </g>
</svg>