<svg xmlns="http://www.w3.org/2000/svg" xmlns:xlink="http://www.w3.org/1999/xlink" viewBox="0 0 266.56 154.61"><defs><style>.cls-1,.cls-13,.cls-7{fill:none;}.cls-2{fill:url(#未命名的渐变_252);}.cls-3{clip-path:url(#clip-path);}.cls-4{stroke:#007cba;fill:url(#未命名的渐变_18);}.cls-11,.cls-13,.cls-4,.cls-7,.cls-8{stroke-miterlimit:10;stroke-width:0.5px;}.cls-5{fill:url(#未命名的渐变_209);}.cls-6{fill:#fff;}.cls-7{stroke:url(#未命名的渐变_219);}.cls-11,.cls-13,.cls-8{stroke:#ffc440;}.cls-8{fill:url(#未命名的渐变_223);}.cls-9{clip-path:url(#clip-path-2);}.cls-10{fill:url(#未命名的渐变_179);}.cls-11{fill:url(#未命名的渐变_253);}.cls-12{fill:url(#未命名的渐变_193);}</style><linearGradient id="未命名的渐变_252" x1="261.27" y1="190.19" x2="162.27" y2="50.19" gradientUnits="userSpaceOnUse"><stop offset="0" stop-color="#0ac3dc"/><stop offset="0.51" stop-color="#107dc9"/><stop offset="1" stop-color="#4df7d3"/></linearGradient><clipPath id="clip-path"><path class="cls-1" d="M125.74,141.34l29.83-43.4L183,60.14h0a30.73,30.73,0,1,1,25.63,47.67c-11.59,0-25.22-11.2-30.45-20.67l-17.81,23.47c10.4,15.43,30.42,30.19,49,30.19,31.46,0,57-28.65,57-64s-25.5-64-57-64c-19.35,0-36.45,10.84-46.74,27.41l-51.7,74.83Z"/></clipPath><linearGradient id="未命名的渐变_18" x1="159.3" y1="98.72" x2="222.8" y2="101.22" gradientUnits="userSpaceOnUse"><stop offset="0" stop-color="#adeaf6"/><stop offset="1" stop-color="#38cfef"/></linearGradient><linearGradient id="未命名的渐变_209" x1="211.91" y1="62.34" x2="102.91" y2="132.34" gradientUnits="userSpaceOnUse"><stop offset="0" stop-color="#1d8bdc"/><stop offset="0.52" stop-color="#02c0f9"/><stop offset="1" stop-color="#43f0d4"/></linearGradient><linearGradient id="未命名的渐变_219" x1="181.49" y1="149.56" x2="200.75" y2="10.89" gradientUnits="userSpaceOnUse"><stop offset="0" stop-color="#72dcf2"/><stop offset="0.6" stop-color="#005fc5"/><stop offset="1" stop-color="#38cfef"/></linearGradient><linearGradient id="未命名的渐变_223" x1="42.98" y1="176.86" x2="90.32" y2="9.53" gradientUnits="userSpaceOnUse"><stop offset="0" stop-color="#fafdf9"/><stop offset="0.6" stop-color="#fafef7"/><stop offset="1" stop-color="#fe3"/></linearGradient><clipPath id="clip-path-2"><path class="cls-1" d="M140.82,12.83,111,56.24,83.55,94h0A30.73,30.73,0,1,1,57.92,46.36c11.59,0,25.22,11.2,30.45,20.67l17.81-23.47c-10.4-15.43-30.42-30.19-49-30.19-31.46,0-57,28.65-57,64s25.5,64,57,64c19.35,0,36.45-10.84,46.74-27.41l51.7-74.83Z"/></clipPath><linearGradient id="未命名的渐变_179" x1="23.3" y1="145.25" x2="145.43" y2="27.57" gradientUnits="userSpaceOnUse"><stop offset="0" stop-color="#ffef36"/><stop offset="0.52" stop-color="#ffb82a"/><stop offset="1" stop-color="#fb6a00"/></linearGradient><linearGradient id="未命名的渐变_253" x1="116.24" y1="61.45" x2="59.74" y2="48.95" gradientUnits="userSpaceOnUse"><stop offset="0" stop-color="#ffeb35"/><stop offset="0.44" stop-color="#fafe70"/><stop offset="1" stop-color="#fec240"/></linearGradient><linearGradient id="未命名的渐变_193" x1="35.66" y1="56.77" x2="155.65" y2="56.77" gradientUnits="userSpaceOnUse"><stop offset="0" stop-color="#fa6400"/><stop offset="0.45" stop-color="#ffbe00"/><stop offset="1" stop-color="#fe7b00"/></linearGradient></defs><title>餐饮资源 3@x-100</title><g id="图层_2" data-name="图层 2"><g id="图层_3" data-name="图层 3"><path class="cls-2" d="M125.74,141.34l29.83-43.4L183,60.14h0a30.73,30.73,0,1,1,25.63,47.67c-11.59,0-25.22-11.2-30.45-20.67l-17.81,23.47c10.4,15.43,30.42,30.19,49,30.19,31.46,0,57-28.65,57-64s-25.5-64-57-64c-19.35,0-36.45,10.84-46.74,27.41l-51.7,74.83Z"/><g class="cls-3"><path class="cls-4" d="M230.76,98.4s-29.89,37.11-70.39,12.21c3.5-17.43,19.83-30.43,19.83-30.43Z"/><path class="cls-5" d="M110.91,115.08S137.34,83.7,163.32,56.5C182.67,36.25,217,34.68,230.9,56c-9.78,12.73-48.44,20.57-48.44,20.57l-32.92,35L129.2,154.18Z"/><path class="cls-6" d="M110.91,115.08q12.52-14.89,25.42-29.46t26.28-28.7a52.2,52.2,0,0,1,34.46-16.46,42.32,42.32,0,0,1,19.18,3,33.07,33.07,0,0,1,14.95,12.31l.14.21-.15.19c-2.85,3.58-6.76,6-10.67,8.11a95.34,95.34,0,0,1-12.28,5.32c-4.19,1.53-8.45,2.85-12.73,4.05s-8.61,2.28-13,3.2l.17-.1-33,34.91,0-.06-20.4,42.64-.17.35-.16-.35Zm0,0,18.46,39H129l20.27-42.7,0,0,0,0,32.87-35,.07-.07.1,0c4.34-.92,8.65-2,12.92-3.22s8.51-2.54,12.67-4.08a100.75,100.75,0,0,0,12.18-5.29c3.87-2.07,7.73-4.46,10.46-7.88l0,.4A32.4,32.4,0,0,0,216,44.07a41.71,41.71,0,0,0-18.89-3,51.68,51.68,0,0,0-34.15,16.2c-9,9.37-17.71,18.95-26.37,28.59S119.34,105.22,110.91,115.08Z"/></g><path class="cls-7" d="M125.74,141.34l29.83-43.4L183,60.14h0a30.73,30.73,0,1,1,25.63,47.67c-11.59,0-25.22-11.2-30.45-20.67l-17.81,23.47c10.4,15.43,30.42,30.19,49,30.19,31.46,0,57-28.65,57-64s-25.5-64-57-64c-19.35,0-36.45,10.84-46.74,27.41l-51.7,74.83Z"/><path class="cls-8" d="M140.82,12.83,111,56.24,83.55,94h0A30.73,30.73,0,1,1,57.92,46.36c11.59,0,25.22,11.2,30.45,20.67l17.81-23.47c-10.4-15.43-30.42-30.19-49-30.19-31.46,0-57,28.65-57,64s25.5,64,57,64c19.35,0,36.45-10.84,46.74-27.41l51.7-74.83Z"/><g class="cls-9"><path class="cls-10" d="M30.82,62.61s-46.62,96.84,64,78.73c43.85-7.17,80-107.34,80-107.34L123.29,22.5,96.86,71Z"/><path class="cls-11" d="M35.8,55.77s29.89-37.11,70.39-12.21C102.69,61,86.36,74,86.36,74Z"/><path class="cls-12" d="M155.65,39.1s-26.44,31.37-52.41,58.57c-19.35,20.26-53.63,21.83-67.57.53C45.45,85.47,88.37,67,88.37,67L117,42.67,137.36,0Z"/><path class="cls-6" d="M36.2,98.7a15,15,0,0,0,2.9,3.73,36,36,0,0,0,3.61,3.08,40.72,40.72,0,0,0,26.7,7.94,44.94,44.94,0,0,0,9.33-1.56,51.12,51.12,0,0,0,8.85-3.44,55.94,55.94,0,0,0,8.13-4.94c1.32-.89,2.52-1.93,3.78-2.89s2.4-2.07,3.6-3.11h0c4.43-4.82,8.74-9.75,13.1-14.64l13.07-14.67q6.53-7.34,13.15-14.6c4.39-4.86,8.78-9.73,13.21-14.54a0,0,0,0,1,.06,0c-4.25,5-8.55,9.93-12.86,14.86s-8.61,9.87-13,14.76-8.73,9.77-13.13,14.62S107.88,93,103.38,97.81h0c-1.22,1-2.42,2.08-3.66,3.08s-2.5,2-3.83,2.86-2.62,1.81-4,2.6-2.75,1.61-4.15,2.37a47.72,47.72,0,0,1-18.28,5.35,39,39,0,0,1-18.73-3.38,41.07,41.07,0,0,1-8.23-4.89,29.82,29.82,0,0,1-3.56-3.21,15.14,15.14,0,0,1-2.8-3.87,0,0,0,0,1,0,0A0,0,0,0,1,36.2,98.7Z"/></g><path class="cls-13" d="M140.82,12.83,111,56.24,83.55,94h0A30.73,30.73,0,1,1,57.92,46.36c11.59,0,25.22,11.2,30.45,20.67l17.81-23.47c-10.4-15.43-30.42-30.19-49-30.19-31.46,0-57,28.65-57,64s25.5,64,57,64c19.35,0,36.45-10.84,46.74-27.41l51.7-74.83Z"/></g></g></svg>