<?xml version="1.0" standalone="no"?><!DOCTYPE svg PUBLIC "-//W3C//DTD SVG 1.1//EN" "http://www.w3.org/Graphics/SVG/1.1/DTD/svg11.dtd"><svg t="1584670347961" class="icon" viewBox="0 0 1024 1024" version="1.1" xmlns="http://www.w3.org/2000/svg" p-id="10791" xmlns:xlink="http://www.w3.org/1999/xlink" width="32" height="32"><defs><style type="text/css"></style></defs><path d="M607.52974006 731.58967354c-5.79288655 0-11.09485049-2.40552069-15.85679958-7.11837751-65.09633514-64.75268934-130.19267031-129.55447094-195.28900546-194.4053448l-3.24008908-3.24008908c-4.51648781-4.51648781-7.06928526-11.29121953-6.97110075-18.65505833 0.04909226-7.02019301 2.60188973-13.4512789 6.92200848-17.62412091 65.93090355-63.62356738 131.76362258-127.34531931 197.64543388-190.96888668 4.7619491-4.61467231 10.11300532-6.97110075 15.90589185-6.97110075 9.86754401 0 19.98054932 7.31474656 24.0552068 17.3786596 2.16005939 5.40014845 4.32011878 15.95498411-5.89107104 25.82252812l-69.41645393 67.10911777c-35.49370311 34.31548889-70.98740621 68.58188554-106.43201705 102.89737442l-3.28918134 3.19099682L517.88727552 580.92553134c35.93553342 35.78825665 71.87106686 71.52742105 107.80660029 107.26658547 7.36383882 7.36383882 9.42571369 16.88773702 5.54742525 26.21526617-4.17284199 10.11300532-13.94220149 17.18229057-23.71156101 17.18229055z m-1e-8-1e-8" fill="#707070" p-id="10792"></path></svg>