<?xml version="1.0" encoding="UTF-8"?>
<svg width="32px" height="32px" viewBox="0 0 32 32" version="1.1" xmlns="http://www.w3.org/2000/svg" xmlns:xlink="http://www.w3.org/1999/xlink">
    <!-- Generator: Sketch 52.4 (67378) - http://www.bohemiancoding.com/sketch -->
    <title>例外计算</title>
    <desc>Created with Sketch.</desc>
    <g id="Page-1" stroke="none" stroke-width="1" fill="none" fill-rule="evenodd">
        <g id="补充的icon" transform="translate(-736.000000, -569.000000)" fill="#6D8290">
            <g id="例外计算" transform="translate(736.000000, 569.000000)">
                <path d="M10.0902853,7 L22.9110015,7 C24.0579026,7 25,7.95391704 25,9.11520737 L25,22.8847926 C25,24.046083 24.0579026,25 22.9110015,25 L10.0902853,25 C8.94338412,25 8.00128677,24.046083 8.00128677,22.8847926 L8.00128677,9.11520737 C7.96032601,7.95391707 8.90242336,7 10.0902853,7 Z M10.1722068,10.483871 C10.1722068,11.1889401 10.7456573,11.7281106 11.4010294,11.7281106 L21.3544928,11.7281106 C22.0508257,11.7281106 22.5833155,11.1474654 22.5833155,10.483871 C22.5833155,9.77880185 22.0508257,9.23963133 21.3544928,9.23963133 L11.4010294,9.23963133 C10.7046966,9.23963133 10.1722068,9.82027649 10.1722068,10.483871 Z M10.5408536,14.3824885 C10.5408535,14.8270125 10.7750658,15.2377696 11.1552649,15.4600316 C11.5354639,15.6822937 12.0038885,15.6822937 12.3840875,15.4600316 C12.7642866,15.2377696 12.9984989,14.8270125 12.9984988,14.3824885 C12.9984989,13.9379645 12.7642866,13.5272073 12.3840875,13.3049453 C12.0038885,13.0826833 11.5354639,13.0826833 11.1552649,13.3049453 C10.7750658,13.5272073 10.5408535,13.9379645 10.5408536,14.3824885 Z M10.5408536,18.281106 C10.5408535,18.72563 10.7750658,19.1363871 11.1552649,19.3586492 C11.5354639,19.5809112 12.0038885,19.5809112 12.3840875,19.3586492 C12.7642866,19.1363871 12.9984989,18.72563 12.9984988,18.281106 C12.9984989,17.836582 12.7642866,17.4258248 12.3840875,17.2035628 C12.0038885,16.9813008 11.5354639,16.9813008 11.1552649,17.2035628 C10.7750658,17.4258248 10.5408535,17.836582 10.5408536,18.281106 Z M10.5408536,22.1382489 C10.5408535,22.5827729 10.7750658,22.99353 11.1552649,23.215792 C11.5354639,23.438054 12.0038885,23.438054 12.3840875,23.215792 C12.7642866,22.99353 12.9984989,22.5827729 12.9984988,22.1382489 C12.9984989,21.6937248 12.7642866,21.2829677 12.3840875,21.0607057 C12.0038885,20.8384437 11.5354639,20.8384437 11.1552649,21.0607057 C10.7750658,21.2829677 10.5408535,21.6937248 10.5408536,22.1382489 Z M15.1694188,14.3824885 C15.1694188,15.0696631 15.7195815,15.6267281 16.3982415,15.6267281 C17.0769015,15.6267281 17.6270641,15.0696631 17.6270641,14.3824885 C17.6270641,13.6953139 17.0769015,13.1382489 16.3982415,13.1382489 C15.7195815,13.1382489 15.1694188,13.6953139 15.1694188,14.3824885 Z M15.1694188,18.281106 C15.1694188,18.9682806 15.7195815,19.5253456 16.3982415,19.5253456 C17.0769015,19.5253456 17.6270641,18.9682806 17.6270641,18.281106 C17.6270641,17.5939314 17.0769015,17.0368664 16.3982415,17.0368664 C15.7195815,17.0368664 15.1694188,17.5939314 15.1694188,18.281106 Z M15.1694188,22.1382489 C15.1694188,22.8254234 15.7195815,23.3824885 16.3982415,23.3824885 C17.0769015,23.3824885 17.6270641,22.8254234 17.6270641,22.1382489 C17.6270641,21.4510743 17.0769015,20.8940092 16.3982415,20.8940092 C15.7195815,20.8940092 15.1694188,21.4510743 15.1694188,22.1382489 Z M19.7570234,14.3824885 C19.7570234,15.0696631 20.307186,15.6267281 20.985846,15.6267281 C21.664506,15.6267281 22.2146687,15.0696631 22.2146687,14.3824885 C22.2146687,13.6953139 21.664506,13.1382489 20.985846,13.1382489 C20.307186,13.1382489 19.7570234,13.6953139 19.7570234,14.3824885 Z M19.7570234,18.281106 C19.7570234,18.9682806 20.307186,19.5253456 20.985846,19.5253456 C21.664506,19.5253456 22.2146687,18.9682806 22.2146687,18.281106 C22.2146687,17.5939314 21.664506,17.0368664 20.985846,17.0368664 C20.307186,17.0368664 19.7570234,17.5939314 19.7570234,18.281106 Z M19.7570234,22.1382489 C19.7570234,22.8254234 20.307186,23.3824885 20.985846,23.3824885 C21.664506,23.3824885 22.2146687,22.8254234 22.2146687,22.1382489 C22.2146687,21.4510743 21.664506,20.8940092 20.985846,20.8940092 C20.307186,20.8940092 19.7570234,21.4510743 19.7570234,22.1382489 Z" id="合并形状"></path>
            </g>
        </g>
    </g>
</svg>