<?xml version="1.0" encoding="UTF-8"?>
<svg width="32px" height="32px" viewBox="0 0 32 32" version="1.1" xmlns="http://www.w3.org/2000/svg" xmlns:xlink="http://www.w3.org/1999/xlink">
    <!-- Generator: Sketch 52.4 (67378) - http://www.bohemiancoding.com/sketch -->
    <title>单元格下达</title>
    <desc>Created with Sketch.</desc>
    <defs>
        <path d="M9.39692308,11.6622378 C9.17538462,11.4356643 8.84307692,11.4356643 8.62153846,11.6622378 L7.29230769,13.0216783 C7.07076923,13.2482517 6.66461538,13.0972028 6.66461538,12.7573427 L6.66461538,7.77272727 C6.66461538,7.47062937 6.40615385,7.20629371 6.11076923,7.20629371 L5.00307692,7.20629371 C4.70769231,7.20629371 4.44923077,7.47062937 4.44923077,7.77272727 L4.44923077,12.7573427 C4.44923077,13.0972028 4.04307692,13.2482517 3.82153846,13.0216783 L2.49230769,11.6622378 C2.27076923,11.4356643 1.93846154,11.4356643 1.71692308,11.6622378 L0.904615385,12.493007 C0.683076923,12.7195804 0.683076923,13.0594406 0.904615385,13.286014 L5.15076923,17.6286713 C5.37230769,17.8552448 5.70461538,17.8552448 5.92615385,17.6286713 L10.2092308,13.2482517 C10.4307692,13.0216783 10.4307692,12.6818182 10.2092308,12.4552448 L9.39692308,11.6622378 L9.39692308,11.6622378 Z" id="path-1"></path>
        <path d="M3.6,0.283216783 L1.38461538,0.283216783 C0.756923077,0.283216783 0.276923077,0.774125874 0.276923077,1.41608392 L0.276923077,3.68181818 C0.276923077,4.32377622 0.756923077,4.81468531 1.38461538,4.81468531 L3.6,4.81468531 C4.22769231,4.81468531 4.70769231,4.32377622 4.70769231,3.68181818 L4.70769231,1.41608392 C4.70769231,0.774125874 4.22769231,0.283216783 3.6,0.283216783 Z M9.50769231,0.283216783 L7.29230769,0.283216783 C6.66461538,0.283216783 6.18461538,0.774125874 6.18461538,1.41608392 L6.18461538,3.68181818 C6.18461538,4.32377622 6.66461538,4.81468531 7.29230769,4.81468531 L9.50769231,4.81468531 C10.1353846,4.81468531 10.6153846,4.32377622 10.6153846,3.68181818 L10.6153846,1.41608392 C10.6153846,0.774125874 10.1353846,0.283216783 9.50769231,0.283216783 Z M9.70769231,13.1853147 L7.89230769,13.1853147 C7.37794872,13.1853147 6.98461538,13.5875874 6.98461538,14.1136364 L6.98461538,15.9702797 C6.98461538,16.4963287 7.37794872,16.8986014 7.89230769,16.8986014 L9.70769231,16.8986014 C10.2220513,16.8986014 10.6153846,16.4963287 10.6153846,15.9702797 L10.6153846,14.1136364 C10.6153846,13.5875874 10.2220513,13.1853147 9.70769231,13.1853147 Z M9.50769231,6.32517483 L7.29230769,6.32517483 C6.66461538,6.32517483 6.18461538,6.81608392 6.18461538,7.45804196 L6.18461538,9.72377622 C6.18461538,10.3657343 6.66461538,10.8566434 7.29230769,10.8566434 L9.50769231,10.8566434 C10.1353846,10.8566434 10.6153846,10.3657343 10.6153846,9.72377622 L10.6153846,7.45804196 C10.6153846,6.81608392 10.1353846,6.32517483 9.50769231,6.32517483 Z M15.4153846,0.283216783 L13.2,0.283216783 C12.5723077,0.283216783 12.0923077,0.774125874 12.0923077,1.41608392 L12.0923077,3.68181818 C12.0923077,4.32377622 12.5723077,4.81468531 13.2,4.81468531 L15.4153846,4.81468531 C16.0430769,4.81468531 16.5230769,4.32377622 16.5230769,3.68181818 L16.5230769,1.41608392 C16.5230769,0.774125874 16.0430769,0.283216783 15.4153846,0.283216783 Z M15.4153846,12.3671329 L13.2,12.3671329 C12.5723077,12.3671329 12.0923077,12.858042 12.0923077,13.5 L12.0923077,15.7657343 C12.0923077,16.4076923 12.5723077,16.8986014 13.2,16.8986014 L15.4153846,16.8986014 C16.0430769,16.8986014 16.5230769,16.4076923 16.5230769,15.7657343 L16.5230769,13.5 C16.5230769,12.858042 16.0430769,12.3671329 15.4153846,12.3671329 Z M15.4153846,6.32517483 L13.2,6.32517483 C12.5723077,6.32517483 12.0923077,6.81608392 12.0923077,7.45804196 L12.0923077,9.72377622 C12.0923077,10.3657343 12.5723077,10.8566434 13.2,10.8566434 L15.4153846,10.8566434 C16.0430769,10.8566434 16.5230769,10.3657343 16.5230769,9.72377622 L16.5230769,7.45804196 C16.5230769,6.81608392 16.0430769,6.32517483 15.4153846,6.32517483 Z" id="path-3"></path>
    </defs>
    <g id="Page-1" stroke="none" stroke-width="1" fill="none" fill-rule="evenodd">
        <g id="补充的icon" transform="translate(-164.000000, -459.000000)">
            <g id="单元格下达" transform="translate(164.000000, 459.000000)">
                <g id="icons/utility/filter-copy-2" transform="translate(6.000000, 7.000000)">
                    <mask id="mask-2" fill="white">
                        <use xlink:href="#path-1"></use>
                    </mask>
                    <use id="Mask" fill="#8BC34A" xlink:href="#path-1"></use>
                    <g id="icons/utility/apps-copy" transform="translate(3.200000, 0.000000)">
                        <mask id="mask-4" fill="white">
                            <use xlink:href="#path-3"></use>
                        </mask>
                        <use id="Mask" fill="#6D8290" xlink:href="#path-3"></use>
                    </g>
                </g>
            </g>
        </g>
    </g>
</svg>