<?xml version="1.0" encoding="UTF-8"?>
<svg width="32px" height="32px" viewBox="0 0 32 32" version="1.1" xmlns="http://www.w3.org/2000/svg" xmlns:xlink="http://www.w3.org/1999/xlink">
    <!-- Generator: Sketch 52.4 (67378) - http://www.bohemiancoding.com/sketch -->
    <title>单据编码记录</title>
    <desc>Created with Sketch.</desc>
    <defs>
        <path d="M5.57692308,0.226720648 L1.34615385,0.226720648 C1.03846154,0.226720648 0.769230769,0.498785425 0.769230769,0.809716599 L0.769230769,5.86234818 C0.769230769,6.17327935 1.03846154,6.44534413 1.34615385,6.44534413 L5.57692308,6.44534413 C5.88461538,6.44534413 6.15384615,6.17327935 6.15384615,5.86234818 L6.15384615,0.809716599 C6.15384615,0.498785425 5.88461538,0.226720648 5.57692308,0.226720648 Z M18.6538462,0.226720648 L8.26923077,0.226720648 C7.96153846,0.226720648 7.69230769,0.498785425 7.69230769,0.809716599 L7.69230769,1.9757085 C7.69230769,2.28663968 7.96153846,2.55870445 8.26923077,2.55870445 L18.6538462,2.55870445 C18.9615385,2.55870445 19.2307692,2.28663968 19.2307692,1.9757085 L19.2307692,0.809716599 C19.2307692,0.498785425 18.9615385,0.226720648 18.6538462,0.226720648 Z M8.26923077,6.44534413 L14.8076923,6.44534413 C15.1153846,6.44534413 15.3846154,6.17327935 15.3846154,5.86234818 L15.3846154,4.69635628 C15.3846154,4.3854251 15.1153846,4.11336032 14.8076923,4.11336032 L8.26923077,4.11336032 C7.96153846,4.11336032 7.69230769,4.3854251 7.69230769,4.69635628 L7.69230769,5.86234818 C7.69230769,6.17327935 7.96153846,6.44534413 8.26923077,6.44534413 Z M5.57692308,9.55465587 L1.34615385,9.55465587 C1.03846154,9.55465587 0.769230769,9.82672065 0.769230769,10.1376518 L0.769230769,15.1902834 C0.769230769,15.5012146 1.03846154,15.7732794 1.34615385,15.7732794 L5.57692308,15.7732794 C5.88461538,15.7732794 6.15384615,15.5012146 6.15384615,15.1902834 L6.15384615,10.1376518 C6.15384615,9.82672065 5.88461538,9.55465587 5.57692308,9.55465587 Z M18.6538462,9.55465587 L8.26923077,9.55465587 C7.96153846,9.55465587 7.69230769,9.82672065 7.69230769,10.1376518 L7.69230769,11.3036437 C7.69230769,11.6145749 7.96153846,11.8866397 8.26923077,11.8866397 L18.6538462,11.8866397 C18.9615385,11.8866397 19.2307692,11.6145749 19.2307692,11.3036437 L19.2307692,10.1376518 C19.2307692,9.82672065 18.9615385,9.55465587 18.6538462,9.55465587 Z M14.8076923,13.4412955 L8.26923077,13.4412955 C7.96153846,13.4412955 7.69230769,13.7133603 7.69230769,14.0242915 L7.69230769,15.1902834 C7.69230769,15.5012146 7.96153846,15.7732794 8.26923077,15.7732794 L14.8076923,15.7732794 C15.1153846,15.7732794 15.3846154,15.5012146 15.3846154,15.1902834 L15.3846154,14.0242915 C15.3846154,13.7133603 15.1153846,13.4412955 14.8076923,13.4412955 Z" id="path-1"></path>
    </defs>
    <g id="Page-1" stroke="none" stroke-width="1" fill="none" fill-rule="evenodd">
        <g id="补充的icon" transform="translate(-75.000000, -245.000000)">
            <g id="单据编码记录" transform="translate(75.000000, 245.000000)">
                <g id="icons/utility/snippet-copy" transform="translate(6.000000, 8.000000)">
                    <mask id="mask-2" fill="white">
                        <use xlink:href="#path-1"></use>
                    </mask>
                    <use id="Mask" fill="#6D8290" xlink:href="#path-1"></use>
                    <path d="M5.57692308,0.226720648 L1.34615385,0.226720648 C1.03846154,0.226720648 0.769230769,0.498785425 0.769230769,0.809716599 L0.769230769,5.86234818 C0.769230769,6.17327935 1.03846154,6.44534413 1.34615385,6.44534413 L5.57692308,6.44534413 C5.88461538,6.44534413 6.15384615,6.17327935 6.15384615,5.86234818 L6.15384615,0.809716599 C6.15384615,0.498785425 5.88461538,0.226720648 5.57692308,0.226720648 Z" id="Path" fill="#8BC34A" mask="url(#mask-2)"></path>
                    <path d="M5.57692308,9.55465587 L1.34615385,9.55465587 C1.03846154,9.55465587 0.769230769,9.82672065 0.769230769,10.1376518 L0.769230769,15.1902834 C0.769230769,15.5012146 1.03846154,15.7732794 1.34615385,15.7732794 L5.57692308,15.7732794 C5.88461538,15.7732794 6.15384615,15.5012146 6.15384615,15.1902834 L6.15384615,10.1376518 C6.15384615,9.82672065 5.88461538,9.55465587 5.57692308,9.55465587 Z" id="Path" fill="#8BC34A" mask="url(#mask-2)"></path>
                </g>
            </g>
        </g>
    </g>
</svg>