<?xml version="1.0" encoding="UTF-8"?>
<svg width="32px" height="32px" viewBox="0 0 32 32" version="1.1" xmlns="http://www.w3.org/2000/svg" xmlns:xlink="http://www.w3.org/1999/xlink">
    <!-- Generator: Sketch 52.4 (67378) - http://www.bohemiancoding.com/sketch -->
    <title>参与排产</title>
    <desc>Created with Sketch.</desc>
    <defs>
        <path d="M18.6538462,0.769230769 L1.34615385,0.769230769 C1.03846154,0.769230769 0.769230769,1.03846154 0.769230769,1.34615385 L0.769230769,3.26923077 C0.769230769,3.57692308 1.03846154,3.84615385 1.34615385,3.84615385 L18.6538462,3.84615385 C18.9615385,3.84615385 19.2307692,3.57692308 19.2307692,3.26923077 L19.2307692,1.34615385 C19.2307692,1.03846154 18.9615385,0.769230769 18.6538462,0.769230769 Z M7.88461538,5.38461538 L5.19230769,5.38461538 C4.88461538,5.38461538 4.61538462,5.65384615 4.61538462,5.96153846 L4.61538462,7.11538462 C4.61538462,7.42307692 4.88461538,7.69230769 5.19230769,7.69230769 L7.88461538,7.69230769 C8.19230769,7.69230769 8.46153846,7.42307692 8.46153846,7.11538462 L8.46153846,5.96153846 C8.46153846,5.65384615 8.19230769,5.38461538 7.88461538,5.38461538 Z M13.2692308,5.38461538 L10.5769231,5.38461538 C10.2692308,5.38461538 10,5.65384615 10,5.96153846 L10,7.11538462 C10,7.42307692 10.2692308,7.69230769 10.5769231,7.69230769 L13.2692308,7.69230769 C13.5769231,7.69230769 13.8461538,7.42307692 13.8461538,7.11538462 L13.8461538,5.96153846 C13.8461538,5.65384615 13.5769231,5.38461538 13.2692308,5.38461538 Z M18.6538462,5.38461538 L15.9615385,5.38461538 C15.6538462,5.38461538 15.3846154,5.65384615 15.3846154,5.96153846 L15.3846154,7.11538462 C15.3846154,7.42307692 15.6538462,7.69230769 15.9615385,7.69230769 L18.6538462,7.69230769 C18.9615385,7.69230769 19.2307692,7.42307692 19.2307692,7.11538462 L19.2307692,5.96153846 C19.2307692,5.65384615 18.9615385,5.38461538 18.6538462,5.38461538 Z M7.88461538,13.0769231 L5.19230769,13.0769231 C4.88461538,13.0769231 4.61538462,13.3461538 4.61538462,13.6538462 L4.61538462,14.8076923 C4.61538462,15.1153846 4.88461538,15.3846154 5.19230769,15.3846154 L7.88461538,15.3846154 C8.19230769,15.3846154 8.46153846,15.1153846 8.46153846,14.8076923 L8.46153846,13.6538462 C8.46153846,13.3461538 8.19230769,13.0769231 7.88461538,13.0769231 Z M13.2692308,13.0769231 L10.5769231,13.0769231 C10.2692308,13.0769231 10,13.3461538 10,13.6538462 L10,14.8076923 C10,15.1153846 10.2692308,15.3846154 10.5769231,15.3846154 L13.2692308,15.3846154 C13.5769231,15.3846154 13.8461538,15.1153846 13.8461538,14.8076923 L13.8461538,13.6538462 C13.8461538,13.3461538 13.5769231,13.0769231 13.2692308,13.0769231 Z M18.6538462,13.0769231 L15.9615385,13.0769231 C15.6538462,13.0769231 15.3846154,13.3461538 15.3846154,13.6538462 L15.3846154,14.8076923 C15.3846154,15.1153846 15.6538462,15.3846154 15.9615385,15.3846154 L18.6538462,15.3846154 C18.9615385,15.3846154 19.2307692,15.1153846 19.2307692,14.8076923 L19.2307692,13.6538462 C19.2307692,13.3461538 18.9615385,13.0769231 18.6538462,13.0769231 Z M18.6538462,16.9230769 L3.65384615,16.9230769 C3.34615385,16.9230769 3.07692308,16.6538462 3.07692308,16.3461538 L3.07692308,13.6538462 C3.07692308,13.3461538 2.80769231,13.0769231 2.5,13.0769231 L1.34615385,13.0769231 C1.03846154,13.0769231 0.769230769,13.3461538 0.769230769,13.6538462 L0.769230769,18.6538462 C0.769230769,18.9615385 1.03846154,19.2307692 1.34615385,19.2307692 L18.6538462,19.2307692 C18.9615385,19.2307692 19.2307692,18.9615385 19.2307692,18.6538462 L19.2307692,17.5 C19.2307692,17.1923077 18.9615385,16.9230769 18.6538462,16.9230769 Z M18.6538462,9.23076923 L3.65384615,9.23076923 C3.34615385,9.23076923 3.07692308,8.96153846 3.07692308,8.65384615 L3.07692308,5.96153846 C3.07692308,5.65384615 2.80769231,5.38461538 2.5,5.38461538 L1.34615385,5.38461538 C1.03846154,5.38461538 0.769230769,5.65384615 0.769230769,5.96153846 L0.769230769,10.9615385 C0.769230769,11.2692308 1.03846154,11.5384615 1.34615385,11.5384615 L18.6538462,11.5384615 C18.9615385,11.5384615 19.2307692,11.2692308 19.2307692,10.9615385 L19.2307692,9.80769231 C19.2307692,9.5 18.9615385,9.23076923 18.6538462,9.23076923 Z" id="path-1"></path>
    </defs>
    <g id="Page-1" stroke="none" stroke-width="1" fill="none" fill-rule="evenodd">
        <g id="补充的icon" transform="translate(-527.000000, -355.000000)">
            <g id="参与排产" transform="translate(527.000000, 355.000000)">
                <g id="icons/utility/summarydetail-copy" transform="translate(6.000000, 6.000000)">
                    <mask id="mask-2" fill="white">
                        <use xlink:href="#path-1"></use>
                    </mask>
                    <use id="Mask" fill="#6D8290" xlink:href="#path-1"></use>
                    <path d="M7.88461538,5.38461538 L5.19230769,5.38461538 C4.88461538,5.38461538 4.61538462,5.65384615 4.61538462,5.96153846 L4.61538462,7.11538462 C4.61538462,7.42307692 4.88461538,7.69230769 5.19230769,7.69230769 L7.88461538,7.69230769 C8.19230769,7.69230769 8.46153846,7.42307692 8.46153846,7.11538462 L8.46153846,5.96153846 C8.46153846,5.65384615 8.19230769,5.38461538 7.88461538,5.38461538 Z" id="Path" fill="#8BC34A" mask="url(#mask-2)"></path>
                    <path d="M13.2692308,5.38461538 L10.5769231,5.38461538 C10.2692308,5.38461538 10,5.65384615 10,5.96153846 L10,7.11538462 C10,7.42307692 10.2692308,7.69230769 10.5769231,7.69230769 L13.2692308,7.69230769 C13.5769231,7.69230769 13.8461538,7.42307692 13.8461538,7.11538462 L13.8461538,5.96153846 C13.8461538,5.65384615 13.5769231,5.38461538 13.2692308,5.38461538 Z" id="Path" fill="#8BC34A" mask="url(#mask-2)"></path>
                    <path d="M18.6538462,5.38461538 L15.9615385,5.38461538 C15.6538462,5.38461538 15.3846154,5.65384615 15.3846154,5.96153846 L15.3846154,7.11538462 C15.3846154,7.42307692 15.6538462,7.69230769 15.9615385,7.69230769 L18.6538462,7.69230769 C18.9615385,7.69230769 19.2307692,7.42307692 19.2307692,7.11538462 L19.2307692,5.96153846 C19.2307692,5.65384615 18.9615385,5.38461538 18.6538462,5.38461538 Z" id="Path" fill="#8BC34A" mask="url(#mask-2)"></path>
                    <path d="M7.88461538,13.0769231 L5.19230769,13.0769231 C4.88461538,13.0769231 4.61538462,13.3461538 4.61538462,13.6538462 L4.61538462,14.8076923 C4.61538462,15.1153846 4.88461538,15.3846154 5.19230769,15.3846154 L7.88461538,15.3846154 C8.19230769,15.3846154 8.46153846,15.1153846 8.46153846,14.8076923 L8.46153846,13.6538462 C8.46153846,13.3461538 8.19230769,13.0769231 7.88461538,13.0769231 Z" id="Path" fill="#8BC34A" mask="url(#mask-2)"></path>
                    <path d="M13.2692308,13.0769231 L10.5769231,13.0769231 C10.2692308,13.0769231 10,13.3461538 10,13.6538462 L10,14.8076923 C10,15.1153846 10.2692308,15.3846154 10.5769231,15.3846154 L13.2692308,15.3846154 C13.5769231,15.3846154 13.8461538,15.1153846 13.8461538,14.8076923 L13.8461538,13.6538462 C13.8461538,13.3461538 13.5769231,13.0769231 13.2692308,13.0769231 Z" id="Path" fill="#8BC34A" mask="url(#mask-2)"></path>
                    <path d="M18.6538462,13.0769231 L15.9615385,13.0769231 C15.6538462,13.0769231 15.3846154,13.3461538 15.3846154,13.6538462 L15.3846154,14.8076923 C15.3846154,15.1153846 15.6538462,15.3846154 15.9615385,15.3846154 L18.6538462,15.3846154 C18.9615385,15.3846154 19.2307692,15.1153846 19.2307692,14.8076923 L19.2307692,13.6538462 C19.2307692,13.3461538 18.9615385,13.0769231 18.6538462,13.0769231 Z" id="Path" fill="#8BC34A" mask="url(#mask-2)"></path>
                </g>
            </g>
        </g>
    </g>
</svg>