<?xml version="1.0" encoding="UTF-8"?>
<svg width="32px" height="32px" viewBox="0 0 32 32" version="1.1" xmlns="http://www.w3.org/2000/svg" xmlns:xlink="http://www.w3.org/1999/xlink">
    <!-- Generator: Sketch 52.4 (67378) - http://www.bohemiancoding.com/sketch -->
    <title>发放</title>
    <desc>Created with Sketch.</desc>
    <defs>
        <path d="M9.41025641,4.91012146 C9.41025641,4.91012146 8.98717949,4.48259109 9.21794872,4.24939271 L11.3717949,2.07287449 C11.6025641,1.83967611 11.6025641,1.48987854 11.3717949,1.25668016 L10.5641026,0.401619433 C10.3333333,0.168421053 9.98717949,0.168421053 9.75641026,0.401619433 L4.56410256,5.648583 C4.33333333,5.88178138 4.33333333,6.23157895 4.56410256,6.46477733 L9.75641026,11.7117409 C9.98717949,11.9449393 10.3333333,11.9449393 10.5641026,11.7117409 L11.3717949,10.8955466 C11.6025641,10.6623482 11.6025641,10.3125506 11.3717949,10.0793522 L9.25641026,7.90283401 C9.02564103,7.66963563 9.17948718,7.31983806 9.44871795,7.24210526 C13.7179487,7.39757085 17.1794872,10.8566802 17.4487179,15.248583 C17.4487179,15.5595142 17.7179487,15.7927126 18.025641,15.7927126 L19.1794872,15.7927126 C19.525641,15.7927126 19.7179487,15.5206478 19.6794872,15.1708502 C19.4102564,9.53522267 15.1794872,5.10445344 9.41025641,4.91012146 L9.41025641,4.91012146 Z M2.1025641,5.80404858 L6.56410256,1.29554656 C6.79487179,1.06234818 6.79487179,0.712550607 6.56410256,0.479352227 L6.52564103,0.401619433 C6.29487179,0.168421053 5.94871795,0.168421053 5.71794872,0.401619433 L0.525641026,5.648583 C0.294871795,5.88178138 0.294871795,6.23157895 0.525641026,6.46477733 L5.71794872,11.7117409 C5.94871795,11.9449393 6.29487179,11.9449393 6.52564103,11.7117409 L6.56410256,11.6728745 C6.79487179,11.4396761 6.79487179,11.0898785 6.56410256,10.8566802 L2.14102564,6.34817814 C2.14102564,6.34817814 1.87179487,6.11497976 2.1025641,5.80404858 L2.1025641,5.80404858 Z" id="path-1"></path>
    </defs>
    <g id="Page-1" stroke="none" stroke-width="1" fill="none" fill-rule="evenodd">
        <g id="补充的icon" transform="translate(-696.000000, -355.000000)">
            <g id="发放" transform="translate(696.000000, 355.000000)">
                <g id="icons/utility/reply_all-copy" transform="translate(6.000000, 8.000000)">
                    <mask id="mask-2" fill="white">
                        <use xlink:href="#path-1"></use>
                    </mask>
                    <use id="Mask" fill="#8BC34A" xlink:href="#path-1"></use>
                </g>
            </g>
        </g>
    </g>
</svg>