<?xml version="1.0" encoding="UTF-8"?>
<svg width="32px" height="32px" viewBox="0 0 32 32" version="1.1" xmlns="http://www.w3.org/2000/svg" xmlns:xlink="http://www.w3.org/1999/xlink">
    <!-- Generator: Sketch 52.4 (67378) - http://www.bohemiancoding.com/sketch -->
    <title>发送邮件</title>
    <desc>Created with Sketch.</desc>
    <g id="Page-1" stroke="none" stroke-width="1" fill="none" fill-rule="evenodd">
        <g id="补充的icon" transform="translate(-253.000000, -571.000000)">
            <g id="计算-copy" transform="translate(253.000000, 571.000000)">
                <rect id="矩形" fill="#000000" opacity="0" x="6" y="6" width="20" height="20"></rect>
                <g id="分组-2" transform="translate(6.000000, 9.000000)" fill-rule="nonzero">
                    <path d="M2.66429005e-05,1.86406749 C2.66429005e-05,0.834239632 0.783616458,9.9475983e-14 1.75142683,9.9475983e-14 L16.3551804,9.9475983e-14 C17.3213132,9.9475983e-14 18.1065274,0.834239632 18.1065274,1.86406749 L18.1065274,3.24335288 C17.1613784,2.52779434 16.0062319,2.10818076 14.7621706,2.10818076 C11.9331679,2.10818076 9.5726789,4.27990423 9.07189082,7.14040241 L2.66429005e-05,2.19346472 L2.66429005e-05,1.86406749 Z M1.75140019,12.5872501 C0.783589815,12.5872501 -8.8817842e-15,11.7530381 -8.8817842e-15,10.7231551 L-8.8817842e-15,3.66635576 L8.77292512,8.44947663 C8.83917847,8.48623554 8.90865396,8.50800429 8.97812948,8.51797934 C9.0363142,10.0995489 9.65664059,11.5289851 10.6325196,12.5872501 L1.75140019,12.5872501 Z M9.77808024,8.90652783 C9.7678546,8.85010099 9.75728826,8.78842904 9.74706262,8.73200211 C9.75728826,8.78842904 9.76785477,8.85010099 9.77808024,8.90652783 Z M14.7621439,2.9195577 C14.8183637,2.9195577 14.8746191,2.93031529 14.9308032,2.93031529 C14.8746191,2.93031529 14.8183637,2.9195577 14.7621439,2.9195577 Z M15.0626274,2.92061308 C15.121365,2.9311944 15.1726699,2.94195199 15.2312867,2.95270958 C15.1726699,2.94195199 15.1213651,2.93101795 15.0626274,2.92061308 Z M9.79284346,9.06196783 C9.79284346,9.00577093 9.77188096,8.94391727 9.76148497,8.88744211 C9.77171062,8.94391727 9.79284346,9.00577093 9.79284346,9.06196783 Z M16.3228526,3.13520897 C16.382288,3.16730548 16.4319947,3.21015957 16.4915119,3.25301384 C16.4319947,3.21015957 16.382288,3.16730548 16.3228526,3.13520897 Z M15.1902876,2.92617924 C15.2490501,2.93693683 15.3039339,2.94769442 15.3589469,2.96885706 C15.3039338,2.9476946 15.2490501,2.93676056 15.1902876,2.92617924 Z M9.76247553,8.7543945 C9.75207954,8.6963355 9.74168355,8.63792778 9.74168355,8.57986878 C9.74168355,8.63792778 9.75207954,8.6963355 9.76247553,8.7543945 Z M9.83360204,9.37850408 C9.83360204,9.34658385 9.83360204,9.30372976 9.81281005,9.26087566 C9.83360204,9.30372976 9.83360204,9.34658402 9.83360204,9.37850408 Z M9.75002109,8.60058029 C9.75002109,8.54055293 9.7396251,8.48628027 9.7396251,8.42605457 C9.73979561,8.4861811 9.75002109,8.54045376 9.75002109,8.60058029 Z M15.3146458,2.93324993 C15.3707554,2.95476511 15.4269311,2.97610402 15.4833051,2.98686179 C15.4269311,2.9761042 15.3706893,2.95476529 15.3146458,2.93324993 Z M16.0707543,3.04761862 C16.1269355,3.09047271 16.1831167,3.14408457 16.2394136,3.18676239 C16.1831745,3.14408457 16.1269355,3.09047288 16.0707543,3.04761862 Z M15.9188882,3.01481944 C15.9789781,3.05767353 16.0312865,3.1005278 16.0875475,3.1326243 C16.0313483,3.10070407 15.9789781,3.05784998 15.9188882,3.01481944 Z M16.2065364,3.096918 C16.2643716,3.1290145 16.3221273,3.17169232 16.3751957,3.21437014 C16.3221273,3.17186859 16.2643716,3.12919094 16.2065364,3.096918 Z M15.8009476,2.99726941 C15.8545934,3.02918965 15.9121679,3.06128615 15.9696069,3.09338265 C15.9121002,3.06128615 15.8545934,3.02918965 15.8009476,2.99726941 Z M15.6814359,2.97655601 C15.7349646,3.00865251 15.7925638,3.02981515 15.8500952,3.06226437 C15.7925639,3.02999142 15.7349646,3.00882896 15.6814359,2.97655601 Z M15.4374595,2.94541014 C15.4937896,2.96710177 15.5499873,2.98844068 15.6061188,3.00977959 C15.5499873,2.98844068 15.4937896,2.96710177 15.4374595,2.94541014 Z M15.5602466,2.95932568 C15.6177995,2.98101731 15.6753525,3.01293754 15.7289059,3.03427628 C15.6754203,3.01311381 15.6177996,2.98101731 15.5602466,2.95932568 Z M9.81196058,9.22415892 C9.80139407,9.17090105 9.79099808,9.11026713 9.7811133,9.0496332 C9.79099808,9.11026713 9.80156459,9.17102601 9.81196058,9.22415892 Z M10.5327614,11.2560186 C10.5119694,11.2131645 10.4913478,11.181068 10.4707262,11.1383902 C10.4913478,11.1810678 10.5119694,11.2129881 10.5327614,11.2560186 Z M10.6145929,11.383151 C10.5941418,11.3402969 10.5733496,11.3082004 10.542332,11.2653461 C10.5733496,11.3082004 10.5941416,11.3402969 10.6145929,11.383151 Z M10.679347,11.4872167 C10.6583845,11.4547674 10.6583845,11.4334285 10.6375925,11.4120896 C10.6582141,11.4334285 10.6582141,11.4547674 10.679347,11.4872167 Z M11.0318612,11.9550494 C11.0211244,11.9335342 11.0008436,11.9227765 11.0008436,11.9121953 C11.0008436,11.9229527 11.0211244,11.9335341 11.0318612,11.9550494 Z M10.3075666,10.8309353 C10.2869449,10.7990151 10.2869449,10.767095 10.266153,10.7459324 C10.2869449,10.7669186 10.2869449,10.7990151 10.3075666,10.8309353 Z M11.1273108,12.0669877 C11.1169148,12.0458253 11.1065188,12.0348912 11.0959523,12.0243099 C11.1065187,12.0348912 11.1169147,12.0458251 11.1273108,12.0669877 Z M10.2116537,10.5967483 C10.1802952,10.5385275 10.1601847,10.4803065 10.1180894,10.4222226 C10.1601849,10.4803065 10.1802952,10.5385274 10.2116537,10.5967483 Z M9.9570389,9.8510993 C9.92653248,9.78884939 9.90574049,9.7326601 9.884778,9.67657358 C9.90574049,9.7326601 9.92653248,9.78884939 9.9570389,9.8510993 Z M10.011634,10.0958951 C10.0014084,10.0743799 10.0014084,10.0637986 10.0014084,10.0532173 C10.0015789,10.063975 10.0015789,10.0743799 10.011634,10.0958951 Z M9.99600802,9.99989846 C9.96481988,9.94689063 9.94368703,9.88613162 9.92340626,9.82537274 C9.94368703,9.88613162 9.96482005,9.94689063 9.99600802,9.99989846 Z M9.92168603,9.70400859 C9.8906684,9.64378278 9.86987625,9.58970857 9.84908427,9.52948286 C9.86987625,9.5896094 9.8906684,9.64368361 9.92168603,9.70400859 Z M10.2697398,10.7354898 C10.2383813,10.6773678 10.2181006,10.619086 10.1763461,10.560964 C10.2182711,10.619086 10.2385519,10.6773676 10.2697398,10.7354898 Z M10.0784253,10.2711501 C10.0572925,10.2388772 10.0572925,10.2175383 10.0365003,10.1856182 C10.0572923,10.2175385 10.0572923,10.2388774 10.0784253,10.2711501 Z M9.87881844,9.55854363 C9.86842245,9.49793527 9.84763029,9.44440518 9.82734952,9.38401791 C9.84763029,9.44440518 9.86842228,9.49793527 9.87881844,9.55854363 Z M10.1461779,10.4596327 C10.1253859,10.4044317 10.1045937,10.3401567 10.0737466,10.2851069 C10.1045937,10.3401567 10.1253857,10.4044317 10.1461779,10.4596327 Z M14.930094,2.91845548 C14.9863865,2.92921307 15.0426244,2.92921307 15.0987533,2.93979439 C15.0426789,2.92921307 14.986441,2.92921307 14.930094,2.91845548 Z M17.4048249,3.66897079 C17.4358425,3.69013326 17.4665193,3.71164861 17.4980483,3.72240621 C17.4665193,3.71147234 17.4356722,3.69013343 17.4048249,3.66897079 Z M17.1236741,3.501941 C17.1548623,3.52310346 17.1858799,3.53386123 17.2168975,3.55502369 C17.1858799,3.53386123 17.1548623,3.52310364 17.1236741,3.501941 Z M17.4618193,3.69868105 C17.5235137,3.74153514 17.575153,3.77380809 17.6267922,3.81630947 C17.575153,3.77380809 17.5235137,3.74153514 17.4618193,3.69868105 Z M17.5540254,3.75926433 C17.6099355,3.80247114 17.6666199,3.84497269 17.7226847,3.88782678 C17.6664649,3.84497269 17.6099355,3.80229486 17.5540254,3.75926433 Z M16.8786033,3.35971106 C16.9367837,3.40256515 16.9887612,3.44524297 17.0472626,3.48827351 C16.9888682,3.44541942 16.9367837,3.40274159 16.8786033,3.35971106 Z M16.7719801,3.30956024 C16.8237765,3.35241434 16.888629,3.3952686 16.9406394,3.4381227 C16.888629,3.3952686 16.8238835,3.35241434 16.7719801,3.30956024 Z M16.9852531,3.41773446 C17.0462736,3.46058855 17.0928919,3.50344282 17.1539124,3.53553932 C17.0928917,3.50344264 17.0463999,3.460765 16.9852531,3.41773446 Z M18.0409344,4.13281628 C18.0821777,4.16491278 18.1131953,4.20776687 18.1544386,4.23986355 C18.1131953,4.20776687 18.0821777,4.16491278 18.0409344,4.13281628 Z M17.7445837,3.88737762 C17.8006494,3.94081303 17.8570234,3.99424844 17.913243,4.03727898 C17.8570234,3.99442489 17.8006494,3.94081303 17.7445837,3.88737762 Z M17.6492247,3.82170482 C17.7114315,3.87514023 17.7647308,3.91799433 17.817884,3.96084859 C17.7647307,3.9179945 17.7114314,3.87514023 17.6492247,3.82170482 Z M17.8366407,3.96095054 C17.886765,4.01438596 17.9460325,4.05724005 18.0053,4.11085191 C17.9460325,4.05724005 17.886765,4.01438596 17.8366407,3.96095054 Z M17.9387636,4.04078957 C17.9805181,4.09422498 18.042383,4.1369028 18.0836263,4.1797569 C18.042383,4.1369028 17.9805181,4.09422498 17.9387636,4.04078957 Z M16.4375977,3.17079127 C16.4973199,3.21364536 16.5519232,3.25649963 16.606257,3.29935372 C16.5519232,3.25632319 16.4973199,3.21346909 16.4375977,3.17079127 Z M16.5490141,3.21427367 C16.6089997,3.25695149 16.6632469,3.29980559 16.7176734,3.34283613 C16.6633366,3.29980576 16.6089997,3.25695149 16.5490141,3.21427367 Z M16.6620549,3.2611371 C16.7163269,3.30399119 16.7763432,3.34684546 16.8307142,3.38952328 C16.7764422,3.34684546 16.7163269,3.30399137 16.6620549,3.2611371 Z M17.8641487,3.97398423 C17.9189542,4.03014813 17.9737599,4.09216039 18.032808,4.14850995 C17.9737598,4.09225327 17.9189542,4.03024092 17.8641487,3.97398423 Z M10.1582444,10.335964 C10.1018528,10.2793832 10.0392756,10.2203913 9.98958506,10.1614383 C10.0392757,10.2203913 10.1018528,10.2793832 10.1582444,10.335964 Z M10.2696608,10.6318539 C10.2196915,10.5727508 10.1572556,10.5165241 10.1010015,10.4573282 C10.1573586,10.5164776 10.2196915,10.5727044 10.2696608,10.6318539 Z M16.3777886,3.14468807 C16.4324565,3.18754216 16.486899,3.24115402 16.5464479,3.2836554 C16.486899,3.24115402 16.4323813,3.18754216 16.3777886,3.14468807 Z M10.2131271,10.4914316 C10.1614049,10.4332868 10.1032576,10.3750964 10.0444678,10.3169059 C10.1032575,10.375142 10.1614048,10.4332868 10.2131271,10.4914316 Z M17.7737426,3.9004113 C17.8256543,3.95852261 17.886206,4.01663392 17.942402,4.07493702 C17.886206,4.01663402 17.8255829,3.95852261 17.7737426,3.9004113 Z M10.0628853,10.0383658 C10.0023638,9.98162873 9.94840612,9.92269846 9.894226,9.86384006 C9.94829492,9.92269842 10.0023638,9.98162873 10.0628853,10.0383658 Z M16.1483783,3.07828782 C16.2045981,3.12149463 16.2606634,3.15341486 16.3170376,3.19626895 C16.2607406,3.15341486 16.204598,3.12131836 16.1483783,3.07828782 Z M17.9513325,4.04750202 C18.0089747,4.10917397 18.0666847,4.16560081 18.1199919,4.22202774 C18.0667524,4.16551625 18.0089748,4.10917397 17.9513325,4.04750202 Z M16.4876072,3.18195124 C16.5497487,3.22480533 16.6031172,3.27841719 16.6562666,3.33167616 C16.6031173,3.27824074 16.5496757,3.22462906 16.4876072,3.18195124 Z M10.1048262,10.1787881 C10.0469455,10.1198882 9.98868136,10.0631288 9.93616694,10.0042624 C9.98868136,10.0631288 10.0470413,10.1198882 10.1048262,10.1787881 Z M10.6041231,11.3072918 C10.5505482,11.2482018 10.492972,11.1891118 10.4354638,11.1327661 C10.4929721,11.1891118 10.5505482,11.2482018 10.6041231,11.3072918 Z M18.2040601,4.29560064 C18.1503671,4.23581084 18.0928208,4.17617233 18.0354008,4.12107492 C18.0928208,4.17624805 18.1503671,4.23588656 18.2040601,4.29560064 Z M10.681614,11.4343497 C10.6241093,11.3762035 10.5668574,11.3179702 10.5129547,11.259824 C10.5668574,11.3179702 10.6241093,11.3762036 10.681614,11.4343497 Z M10.942776,11.8566463 C10.8167135,11.7061939 10.7003441,11.547337 10.590552,11.3818944 C10.7003707,11.547337 10.8167135,11.7061939 10.942776,11.8566463 Z M11.7350637,12.6681702 C11.6771628,12.6120671 11.6242656,12.5528301 11.5664044,12.4936445 C11.6242656,12.5528301 11.6771628,12.6120671 11.7350637,12.6681702 Z M11.1162552,12.037868 C11.0590421,11.9797385 11.0018291,11.9214719 10.9475959,11.8633423 C11.0018788,11.9215176 11.0590422,11.9797385 11.1162552,12.037868 Z M10.02406,9.89791594 C9.96506189,9.84069978 9.90475632,9.78060632 9.85540068,9.72339021 C9.90475648,9.78060632 9.96506189,9.84069978 10.02406,9.89791594 Z M10.3876013,10.988982 C10.3293517,10.9020172 10.2731871,10.8117457 10.218942,10.7214466 C10.2731871,10.8117457 10.3293517,10.9019896 10.3876013,10.988982 Z M16.2630701,3.11058273 C16.3223451,3.15343683 16.3770372,3.19611465 16.4317294,3.23914519 C16.3770372,3.19629092 16.3223451,3.15343683 16.2630701,3.11058273 Z M11.0429283,11.975355 C11.2044875,12.1592597 11.379015,12.3315085 11.5647801,12.491936 C11.379015,12.3314809 11.2044874,12.1592322 11.0429283,11.975355 Z M10.3278455,10.7656078 C10.2664842,10.7082543 10.2152374,10.6483946 10.1591862,10.5910821 C10.2152374,10.6484356 10.2665685,10.7082542 10.3278455,10.7656078 Z M13.9866227,2.91401077 C11.5437696,3.3119107 9.67126,5.55886041 9.67126,8.2722679 C9.67126,5.55886041 11.5437696,3.3119107 13.9866227,2.91401077 Z M10.5249546,11.1652162 C10.4699851,11.1085701 10.415145,11.0495914 10.3562953,10.9906904 C10.415145,11.0495914 10.4699851,11.1085313 10.5249546,11.1652162 Z M16.9205975,3.36040821 C16.9795726,3.42160736 17.03438,3.48266258 17.0892568,3.53493393 C17.03438,3.48266258 16.9795727,3.42160736 16.9205975,3.36040821 Z M15.1369494,2.92562815 C15.193113,2.93638575 15.2494451,2.94696707 15.3056087,2.95772466 C15.249445,2.94679062 15.193113,2.93638575 15.1369494,2.92562815 Z M17.020803,3.41221236 C17.0745363,3.47297136 17.1320626,3.52597919 17.1894623,3.58673808 C17.1320625,3.52610415 17.0745363,3.47297124 17.020803,3.41221236 Z M15.7476626,2.99458828 C15.7989094,3.01575075 15.8602708,3.03691339 15.9163219,3.0693626 C15.8602708,3.03691339 15.7989094,3.01575092 15.7476626,2.99458828 Z M15.0125113,2.92161332 C15.0724651,2.93254735 15.1265938,2.93254735 15.1811706,2.94330494 C15.1266834,2.93254735 15.0724652,2.93254735 15.0125113,2.92161332 Z M17.1064158,3.45900142 C17.1968484,3.51411959 17.2857632,3.57286991 17.3730003,3.63352714 C17.2857632,3.57286991 17.1968484,3.51411956 17.1064158,3.45900142 Z M14.8881265,2.92123858 C14.9401369,2.92123858 14.9986754,2.93199617 15.0567858,2.93199617 C14.9986753,2.93199634 14.9402439,2.92123858 14.8881265,2.92123858 Z M9.74842336,8.44679362 C9.74842336,8.38797209 9.73802737,8.33105814 9.73802737,8.2722679 C9.7380272,8.33105814 9.74842336,8.38797209 9.74842336,8.44679362 Z M15.5053106,2.96015503 C15.5648278,2.9705599 15.6194397,2.99225153 15.6739699,3.01341417 C15.6194397,2.99225153 15.5648278,2.9705599 15.5053106,2.96015503 Z M16.8139743,3.31022983 C16.873019,3.36840502 16.9318552,3.42674011 16.9826336,3.48475555 C16.9318552,3.42674011 16.8729495,3.36840502 16.8139743,3.31022983 Z M15.3826034,2.94177559 C15.4420965,2.9631145 15.4965978,2.97387209 15.5512627,2.99503473 C15.496516,2.97387209 15.4420147,2.9631145 15.3826034,2.94177559 Z M9.76346887,8.64905023 C9.75307287,8.59093587 9.74318809,8.53268454 9.73262158,8.47452451 C9.74318809,8.53268454 9.75307287,8.59093587 9.76346887,8.64905023 Z M15.2597631,2.93731164 C15.3191744,2.94806923 15.3740029,2.95900327 15.4284224,2.96940814 C15.3740029,2.95900327 15.3191743,2.94806923 15.2597631,2.93731164 Z M15.6265266,2.97550064 C15.680975,2.99719226 15.7404921,3.01835473 15.7951859,3.03987009 C15.7404104,3.01835473 15.680975,2.99719226 15.6265266,2.97550064 Z M17.6799814,3.82851928 C17.7348339,3.88864581 17.7895474,3.94877234 17.8486407,4.003045 C17.7895473,3.94877234 17.7348338,3.88864581 17.6799814,3.82851928 Z M16.707431,3.26173232 C16.7664791,3.31314308 16.8170422,3.37470056 16.8760903,3.43625805 C16.8170422,3.37470056 16.7664096,3.31314308 16.707431,3.26173232 Z M9.88269561,9.26265382 C9.84128199,9.20575027 9.77958742,9.14697151 9.73783295,9.08812809 C9.77941708,9.14697151 9.84128182,9.20575027 9.88269561,9.26265382 Z M9.91449085,9.4297773 C9.86251072,9.37084264 9.81087146,9.31418621 9.75940254,9.25525158 C9.81087146,9.31418621 9.86251072,9.37080531 9.91449085,9.4297773 Z M15.9916391,3.01976018 C16.0502045,3.07337203 16.1051947,3.11622613 16.1602984,3.1694851 C16.1051947,3.1164024 16.0502045,3.07354831 15.9916391,3.01976018 Z M17.582998,3.75996146 C17.6406651,3.81615075 17.6981965,3.87840066 17.7516573,3.93448718 C17.6982643,3.87829788 17.6406651,3.81615075 17.582998,3.75996146 Z M9.94082707,9.60202606 C9.8995838,9.54473106 9.84743333,9.48465385 9.79596441,9.42750034 C9.84743333,9.48465385 9.8995838,9.54473106 9.94082707,9.60202606 Z M9.98061901,9.75247852 C9.9187541,9.693328 9.87716997,9.63715211 9.82570122,9.5779528 C9.87717013,9.63715206 9.9187541,9.693328 9.98061901,9.75247852 Z M17.3875665,3.62620756 C17.4437863,3.68643336 17.5038364,3.74050758 17.5562258,3.80073328 C17.5037747,3.74060675 17.4437863,3.68643327 17.3875665,3.62620756 Z M9.80095739,8.96337463 C9.78016541,8.90425637 9.75988463,8.84801597 9.73875162,8.7888489 C9.75988463,8.84801597 9.78016541,8.90425637 9.80095739,8.96337463 Z M15.8672542,3.02128946 C15.9250976,3.05338596 15.983376,3.07490132 16.0359135,3.09606378 C15.983376,3.07490132 15.9250977,3.05338596 15.8672542,3.02128946 Z M9.77754768,8.80956042 C9.75726691,8.75247628 9.7467004,8.69524333 9.73630441,8.63503469 C9.74670057,8.69524333 9.75726691,8.75242666 9.77754768,8.80956042 Z M17.4860412,3.69305694 C17.542393,3.74927931 17.5985468,3.80539884 17.6547005,3.86758266 C17.5985468,3.80539895 17.5423269,3.74927931 17.4860412,3.69305694 Z M16.5991036,3.21640374 C16.6553947,3.26966289 16.707191,3.32327457 16.7677629,3.38746757 C16.707191,3.32327457 16.6553946,3.26966289 16.5991036,3.21640374 Z M9.83338368,9.11382709 C9.80219554,9.05831005 9.77083705,9.00013482 9.74033079,8.93930137 C9.77083705,9.00009122 9.80236605,9.05826649 9.83338368,9.11382709 Z" id="形状" fill="#6D8290"></path>
                    <path d="M14.7621439,13.6940126 C13.6020976,13.6940126 12.5357327,13.2810675 11.6794985,12.5872501 C10.4580453,11.5958345 9.67126003,10.0326995 9.67126003,8.2722679 C9.67126003,5.27798826 11.9509029,2.85046805 14.7621439,2.85046805 C16.0417551,2.85046805 17.2114678,3.35371226 18.1065007,4.18461769 C19.1760345,5.17933997 19.8530277,6.64220085 19.8530277,8.2722679 C19.8530277,11.26652 17.5733582,13.6940126 14.7621439,13.6940126 Z M18.1065007,7.22067129 L15.7476626,4.56077641 L15.7476626,6.64054755 L14.915661,6.64054755 C13.960819,6.64054755 11.2610478,8.01145609 11.2610478,11.7714175 C12.2158898,9.64816398 14.0157018,9.55957339 15.7476626,9.55957339 L15.7476626,11.7714175 L18.1065007,8.96941943 L18.8626358,8.07163706 L18.1065007,7.22067129 Z" id="合并形状" fill="#8BC34A"></path>
                </g>
            </g>
        </g>
    </g>
</svg>