<?xml version="1.0" encoding="UTF-8"?>
<svg width="32px" height="32px" viewBox="0 0 32 32" version="1.1" xmlns="http://www.w3.org/2000/svg" xmlns:xlink="http://www.w3.org/1999/xlink">
    <!-- Generator: Sketch 52.4 (67378) - http://www.bohemiancoding.com/sketch -->
    <title>合并订单</title>
    <desc>Created with Sketch.</desc>
    <g id="Page-1" stroke="none" stroke-width="1" fill="none" fill-rule="evenodd">
        <g id="补充的icon" transform="translate(-430.000000, -245.000000)">
            <g id="合并订单" transform="translate(430.000000, 245.000000)">
                <g id="合并-copy" transform="translate(6.000000, 7.000000)">
                    <rect id="矩形" fill="#000000" opacity="0" x="0.8" y="0" width="19.2" height="19"></rect>
                    <path d="M4.8775,9.96386719 L0.578125,9.96386719 L0.578125,9.03613281 L4.875625,9.03613281 L2.295625,6.48300781 L2.959375,5.82617188 L6.008125,8.84316406 L6.671875,9.5 L6.008125,10.1568359 L2.959375,13.1738281 L2.295625,12.5169922 L4.8775,9.96386719 Z M3.01125,2.8203125 L8.01375,2.8203125 L8.01375,16.1796875 L3.01125,16.1796875 L3.01125,17.1074219 L8.95125,17.1074219 L8.95125,1.89257812 L3.01125,1.89257812 L3.01125,2.8203125 Z M15.1225,9.03613281 L17.7025,6.48300781 L17.040625,5.82617188 L13.991875,8.84316406 L13.328125,9.5 L13.991875,10.1568359 L17.040625,13.1738281 L17.704375,12.5169922 L15.1225,9.96386719 L19.42,9.96386719 L19.42,9.03613281 L15.1225,9.03613281 Z M11.984375,2.8203125 L16.986875,2.8203125 L16.986875,1.89257812 L11.046875,1.89257812 L11.046875,17.1074219 L16.986875,17.1074219 L16.986875,16.1796875 L11.984375,16.1796875 L11.984375,2.8203125 Z" id="形状" stroke="#6D8290" stroke-width="0.8" fill="#6D8290" fill-rule="nonzero" stroke-linejoin="round"></path>
                </g>
            </g>
        </g>
    </g>
</svg>