<?xml version="1.0" encoding="UTF-8"?>
<svg width="32px" height="32px" viewBox="0 0 32 32" version="1.1" xmlns="http://www.w3.org/2000/svg" xmlns:xlink="http://www.w3.org/1999/xlink">
    <!-- Generator: Sketch 52.4 (67378) - http://www.bohemiancoding.com/sketch -->
    <title>工作日历初始化</title>
    <desc>Created with Sketch.</desc>
    <g id="Page-1" stroke="none" stroke-width="1" fill="none" fill-rule="evenodd">
        <g id="补充的icon" transform="translate(-430.000000, -152.000000)" fill="#6D8290">
            <g id="工作日历初始化" transform="translate(430.000000, 152.000000)">
                <path d="M22,8 L25,8 L25,25 L7,25 L7,8 L10,8 L10,10.5 L13,10.5 L13,8 L19,8 L19,10.5 L22,10.5 L22,8 Z M10.5,7 L12.5,7 L12.5,10 L10.5,10 L10.5,7 Z M19.5,7 L21.5,7 L21.5,10 L19.5,10 L19.5,7 Z M13.750846,14.1016267 C12.3694309,14.9001596 11.5,16.3745946 11.5,18 C11.5,20.4852814 13.5147186,22.5 16,22.5 C18.4852814,22.5 20.5,20.4852814 20.5,18 C20.5,16.3919415 19.6490987,14.9309129 18.2911685,14.1262178 L17.7813681,14.9865105 C18.8384712,15.6129387 19.5,16.7488077 19.5,18 C19.5,19.9329966 17.9329966,21.5 16,21.5 C14.0670034,21.5 12.5,19.9329966 12.5,18 C12.5,16.7353347 13.1759644,15.5889922 14.2513031,14.9673881 L13.750846,14.1016267 Z M15.5,12.5 L15.5,20 L16.5,20 L16.5,12.5 L15.5,12.5 Z" id="Rectangle-12"></path>
            </g>
        </g>
    </g>
</svg>