<?xml version="1.0" encoding="UTF-8"?>
<svg width="32px" height="32px" viewBox="0 0 32 32" version="1.1" xmlns="http://www.w3.org/2000/svg" xmlns:xlink="http://www.w3.org/1999/xlink">
    <!-- Generator: Sketch 52.4 (67378) - http://www.bohemiancoding.com/sketch -->
    <title>工作日历复制</title>
    <desc>Created with Sketch.</desc>
    <defs>
        <rect id="path-1" x="7" y="7" width="16" height="14" rx="2"></rect>
        <mask id="mask-2" maskContentUnits="userSpaceOnUse" maskUnits="objectBoundingBox" x="0" y="0" width="16" height="14" fill="white">
            <use xlink:href="#path-1"></use>
        </mask>
    </defs>
    <g id="Page-1" stroke="none" stroke-width="1" fill="none" fill-rule="evenodd">
        <g id="补充的icon" transform="translate(-617.000000, -152.000000)">
            <g id="工作日历复制" transform="translate(617.000000, 152.000000)">
                <use id="Rectangle-6" stroke="#6D8290" mask="url(#mask-2)" stroke-width="2" stroke-dasharray="2,1" xlink:href="#path-1"></use>
                <path d="M25,19 L25,23 C25,24.1045695 24.1045695,25 23,25 L20,25 L20,19 L25,19 Z M25,18 L14,18 L14,11 L23,11 C24.1045695,11 25,11.8954305 25,13 L25,18 Z M14,19 L19,19 L19,25 L14,25 L14,19 Z M13,11 L13,25 L11,25 C9.8954305,25 9,24.1045695 9,23 L9,13 C9,11.8954305 9.8954305,11 11,11 L13,11 Z" id="Combined-Shape" fill="#6D8290"></path>
            </g>
        </g>
    </g>
</svg>