<?xml version="1.0" encoding="UTF-8"?>
<svg width="32px" height="32px" viewBox="0 0 32 32" version="1.1" xmlns="http://www.w3.org/2000/svg" xmlns:xlink="http://www.w3.org/1999/xlink">
    <!-- Generator: Sketch 52.4 (67378) - http://www.bohemiancoding.com/sketch -->
    <title>引入需求工作台</title>
    <desc>Created with Sketch.</desc>
    <defs>
        <path d="M9.41850211,14.3685021 L8.69157904,14.264656 C8.69157904,14.264656 8.20696365,14.1608098 7.96465596,14.0569637 C7.82619442,14.0223483 7.6531175,14.0569637 7.54927134,14.1608098 L7.37619442,14.3338867 C6.37234827,15.3377329 4.74542519,15.441579 3.70696365,14.541579 C2.53004058,13.5377329 2.49542519,11.7377329 3.56850211,10.664656 L6.19927134,8.03388673 C6.54542519,7.68773288 6.96080981,7.48004058 7.37619442,7.34157904 C7.93004058,7.2031175 8.51850211,7.23773288 9.03773288,7.44542519 C9.34927134,7.58388673 9.66080981,7.75696365 9.93773288,8.03388673 C10.0761944,8.17234827 10.1800406,8.31080981 10.2838867,8.48388673 C10.4223483,8.72619442 10.7338867,8.76080981 10.9069637,8.5531175 L11.8761944,7.58388673 C12.014656,7.44542519 12.014656,7.23773288 11.9108098,7.06465596 C11.7723483,6.85696365 11.5992713,6.68388673 11.4261944,6.51080981 C11.1838867,6.26850211 10.9069637,6.02619442 10.5954252,5.8531175 C10.1108098,5.54157904 9.55696365,5.33388673 8.96850211,5.23004058 C7.89542519,5.02234827 6.71850211,5.19542519 5.74927134,5.71465596 C5.36850211,5.92234827 4.98773288,6.19927134 4.67619442,6.51080981 L2.14927134,9.03773288 C0.31465596,10.8723483 0.176194421,13.8492713 1.94157904,15.7185021 C3.77619442,17.7261944 6.89157904,17.7608098 8.79542519,15.8569637 L9.66080981,14.991579 C9.9031175,14.8185021 9.73004058,14.4031175 9.41850211,14.3685021 L9.41850211,14.3685021 Z M15.7877329,1.94157904 C13.8838867,0.176194421 10.9069637,0.31465596 9.10696365,2.14927134 L8.31080981,2.91080981 C8.06850211,3.1531175 8.24157904,3.56850211 8.5531175,3.6031175 C9.03773288,3.63773288 9.52234827,3.74157904 10.0069637,3.88004058 C10.1454252,3.91465596 10.3185021,3.88004058 10.4223483,3.77619442 L10.5954252,3.6031175 C11.5992713,2.59927134 13.2261944,2.49542519 14.264656,3.39542519 C15.441579,4.39927134 15.4761944,6.19927134 14.4031175,7.27234827 L11.7723483,9.9031175 C11.4261944,10.2492713 11.0108098,10.4569637 10.5954252,10.5954252 C10.041579,10.7338867 9.4531175,10.6992713 8.93388673,10.491579 C8.62234827,10.3531175 8.31080981,10.1800406 8.03388673,9.9031175 C7.89542519,9.76465596 7.79157904,9.62619442 7.68773288,9.4531175 C7.54927134,9.21080981 7.23773288,9.17619442 7.06465596,9.38388673 L6.09542519,10.3531175 C5.95696365,10.491579 5.95696365,10.6992713 6.06080981,10.8723483 C6.19927134,11.0800406 6.37234827,11.2531175 6.54542519,11.4261944 C6.78773288,11.6685021 7.09927134,11.9108098 7.37619442,12.0838867 C7.86080981,12.3954252 8.41465596,12.6031175 8.96850211,12.7069637 C10.041579,12.914656 11.2185021,12.741579 12.1877329,12.2223483 C12.5685021,12.014656 12.9492713,11.7377329 13.2608098,11.4261944 L15.891579,8.79542519 C17.8300406,6.89157904 17.7608098,3.77619442 15.7877329,1.94157904 L15.7877329,1.94157904 Z" id="path-1"></path>
    </defs>
    <g id="Page-1" stroke="none" stroke-width="1" fill="none" fill-rule="evenodd">
        <g id="补充的icon" transform="translate(-337.000000, -245.000000)">
            <g id="引入需求工作台" transform="translate(337.000000, 245.000000)">
                <g id="icons/utility/link-copy-2" transform="translate(7.000000, 7.000000)">
                    <mask id="mask-2" fill="white">
                        <use xlink:href="#path-1"></use>
                    </mask>
                    <use id="Mask" fill="#6D8290" xlink:href="#path-1"></use>
                </g>
            </g>
        </g>
    </g>
</svg>