<?xml version="1.0" encoding="UTF-8"?>
<svg width="32px" height="32px" viewBox="0 0 32 32" version="1.1" xmlns="http://www.w3.org/2000/svg" xmlns:xlink="http://www.w3.org/1999/xlink">
    <!-- Generator: Sketch 52.4 (67378) - http://www.bohemiancoding.com/sketch -->
    <title>批量下达</title>
    <desc>Created with Sketch.</desc>
    <defs>
        <path d="M8.62153846,8.88461538 L7.29230769,10.1963563 C7.07076923,10.4149798 6.66461538,10.2692308 6.66461538,9.94129555 L6.66461538,5.13157895 C6.66461538,4.84008097 6.40615385,4.58502024 6.11076923,4.58502024 L5.00307692,4.58502024 C4.70769231,4.58502024 4.44923077,4.84008097 4.44923077,5.13157895 L4.44923077,9.94129555 C4.44923077,10.2692308 4.04307692,10.4149798 3.82153846,10.1963563 L2.49230769,8.88461538 C2.27076923,8.6659919 1.93846154,8.6659919 1.71692308,8.88461538 L0.904615385,9.68623482 C0.683076923,9.9048583 0.683076923,10.2327935 0.904615385,10.451417 L5.15076923,14.6417004 C5.37230769,14.8603239 5.70461538,14.8603239 5.92615385,14.6417004 L10.2092308,10.4149798 C10.4307692,10.1963563 10.4307692,9.86842105 10.2092308,9.64979757 L9.39692308,8.88461538 C9.17538462,8.6659919 8.84307692,8.6659919 8.62153846,8.88461538 Z M19.2184615,0.759109312 C19.2184615,0.467611336 18.96,0.212550607 18.6646154,0.212550607 L5.00307692,0.212550607 C4.70769231,0.212550607 4.44923077,0.467611336 4.44923077,0.759109312 L4.44923077,1.85222672 C4.44923077,2.1437247 4.70769231,2.39878543 5.00307692,2.39878543 L18.6646154,2.39878543 C18.96,2.39878543 19.2184615,2.1437247 19.2184615,1.85222672 L19.2184615,0.759109312 Z M19.2184615,5.13157895 C19.2184615,4.84008097 18.96,4.58502024 18.6646154,4.58502024 L8.69538462,4.58502024 C8.4,4.58502024 8.14153846,4.84008097 8.14153846,5.13157895 L8.14153846,6.22469636 C8.14153846,6.51619433 8.4,6.77125506 8.69538462,6.77125506 L18.6646154,6.77125506 C18.96,6.77125506 19.2184615,6.51619433 19.2184615,6.22469636 L19.2184615,5.13157895 Z M19.2184615,9.50404858 C19.2184615,9.21255061 18.96,8.95748988 18.6646154,8.95748988 L12.3876923,8.95748988 C12.0923077,8.95748988 11.8338462,9.21255061 11.8338462,9.50404858 L11.8338462,10.597166 C11.8338462,10.888664 12.0923077,11.1437247 12.3876923,11.1437247 L18.6646154,11.1437247 C18.96,11.1437247 19.2184615,10.888664 19.2184615,10.597166 L19.2184615,9.50404858 Z" id="path-1"></path>
    </defs>
    <g id="Page-1" stroke="none" stroke-width="1" fill="none" fill-rule="evenodd">
        <g id="补充的icon" transform="translate(-75.000000, -459.000000)">
            <g id="批量下达" transform="translate(75.000000, 459.000000)">
                <g id="分组" transform="translate(6.000000, 9.000000)">
                    <g id="icons/utility/filter-copy">
                        <mask id="mask-2" fill="white">
                            <use xlink:href="#path-1"></use>
                        </mask>
                        <use id="Mask" fill="#6D8290" xlink:href="#path-1"></use>
                    </g>
                    <path d="M8.62153846,8.88461538 L7.29230769,10.1963563 C7.07076923,10.4149798 6.66461538,10.2692308 6.66461538,9.94129555 L6.66461538,5.13157895 C6.66461538,4.84008097 6.40615385,4.58502024 6.11076923,4.58502024 L5.00307692,4.58502024 C4.70769231,4.58502024 4.44923077,4.84008097 4.44923077,5.13157895 L4.44923077,9.94129555 C4.44923077,10.2692308 4.04307692,10.4149798 3.82153846,10.1963563 L2.49230769,8.88461538 C2.27076923,8.6659919 1.93846154,8.6659919 1.71692308,8.88461538 L0.904615385,9.68623482 C0.683076923,9.9048583 0.683076923,10.2327935 0.904615385,10.451417 L5.15076923,14.6417004 C5.37230769,14.8603239 5.70461538,14.8603239 5.92615385,14.6417004 L10.2092308,10.4149798 C10.4307692,10.1963563 10.4307692,9.86842105 10.2092308,9.64979757 L9.39692308,8.88461538 C9.17538462,8.6659919 8.84307692,8.6659919 8.62153846,8.88461538 Z" id="Path" fill="#8BC34A"></path>
                </g>
            </g>
        </g>
    </g>
</svg>