<?xml version="1.0" encoding="UTF-8"?>
<svg width="32px" height="32px" viewBox="0 0 32 32" version="1.1" xmlns="http://www.w3.org/2000/svg" xmlns:xlink="http://www.w3.org/1999/xlink">
    <!-- Generator: Sketch 52.4 (67378) - http://www.bohemiancoding.com/sketch -->
    <title>查找请求</title>
    <desc>Created with Sketch.</desc>
    <g id="Page-1" stroke="none" stroke-width="1" fill="none" fill-rule="evenodd">
        <g id="补充的icon" transform="translate(-527.000000, -459.000000)">
            <g id="查找请求" transform="translate(527.000000, 459.000000)">
                <g id="分组-9-copy-3" transform="translate(6.000000, 7.000000)">
                    <path d="M8.64727899,9.74147157 C8.27496124,10.3961487 8.02880507,11.1312667 7.94120178,11.9147157 L3.91666667,11.9147157 C3.53205128,11.9147157 3.18589744,12.2578595 3.18589744,12.6391304 L3.18589744,13.3635452 C3.18589744,13.7448161 3.53205128,14.0879599 3.91666667,14.0879599 L8.11327669,14.0879599 C8.43390083,15.2416166 9.1082983,16.2478888 10.0142485,16.9856187 L2.41666667,16.9856187 C1.22435897,16.9856187 0.224358974,15.9943144 0.224358974,14.8123746 L0.224358974,2.45919732 C0.224358974,1.27725753 1.22435897,0.285953177 2.45512821,0.285953177 L14.1474359,0.285953177 C15.3782051,0.285953177 16.3782051,1.27725753 16.3397436,2.45919732 L16.3397436,7.46609467 C15.545026,7.05882306 14.6419349,6.82898551 13.6833333,6.82898551 C12.6473043,6.82898551 11.676115,7.0974511 10.8365008,7.56822742 L3.91666667,7.56822742 C3.53205128,7.56822742 3.18589744,7.91137124 3.18589744,8.29264214 L3.18589744,9.01705686 C3.18589744,9.39832776 3.53205128,9.74147157 3.91666667,9.74147157 L8.64727899,9.74147157 Z M3.18589744,3.90802676 L3.18589744,4.63244147 C3.18589744,5.01371237 3.53205128,5.35685619 3.91666667,5.35685619 L11.2628205,5.35685619 C11.6474359,5.35685619 11.9935897,5.01371237 11.9935897,4.63244147 L11.9935897,3.90802676 C11.9935897,3.52675585 11.6474359,3.18361204 11.2628205,3.18361204 L3.91666667,3.18361204 C3.53205128,3.18361204 3.18589744,3.52675585 3.18589744,3.90802676 Z" id="合并形状" fill="#6D8290"></path>
                    <g id="分组-10" transform="translate(14.583333, 13.630435) scale(-1, 1) translate(-14.583333, -13.630435) translate(9.166667, 8.260870)" fill="#8BC34A">
                        <path d="M6.31666667,2.50752076e-13 C8.71666667,2.50752076e-13 10.65,1.91652174 10.65,4.29565217 C10.65,6.67478261 8.71666667,8.59130435 6.31666667,8.59130435 C5.41666667,8.59130435 4.55,8.29391304 3.85,7.79826087 L1.55,10.0782609 C1.35,10.2765217 1.05,10.2765217 0.85,10.0782609 L0.15,9.38434783 C-0.05,9.18608696 -0.05,8.88869565 0.15,8.69043478 L2.51666667,6.34434783 C2.18333333,5.74956522 1.98333333,5.0226087 1.98333333,4.29565217 C1.98333333,1.91652174 3.91666667,2.49578136e-13 6.31666667,2.49578136e-13 Z M6.31666667,6.60869565 C7.61666667,6.60869565 8.65,5.58434783 8.65,4.29565217 C8.65,3.00695652 7.61666667,1.9826087 6.31666667,1.9826087 C5.01666667,1.9826087 3.98333333,3.00695652 3.98333333,4.29565217 C3.98333333,5.58434783 5.01666667,6.60869565 6.31666667,6.60869565 Z" id="合并形状"></path>
                    </g>
                </g>
            </g>
        </g>
    </g>
</svg>