<?xml version="1.0" encoding="UTF-8"?>
<svg width="32px" height="32px" viewBox="0 0 32 32" version="1.1" xmlns="http://www.w3.org/2000/svg" xmlns:xlink="http://www.w3.org/1999/xlink">
    <!-- Generator: Sketch 52.4 (67378) - http://www.bohemiancoding.com/sketch -->
    <title>生成数据</title>
    <desc>Created with Sketch.</desc>
    <g id="Page-1" stroke="none" stroke-width="1" fill="none" fill-rule="evenodd">
        <g id="补充的icon" transform="translate(-592.000000, -569.000000)" fill="#6D8290" fill-rule="nonzero">
            <g id="生成数据" transform="translate(592.000000, 569.000000)">
                <g id="数据分析" transform="translate(6.000000, 7.000000)">
                    <path d="M19.3333714,17.7381714 L0.666742857,17.7381714 C0.561506238,17.7381083 0.476228553,17.6527795 0.476228571,17.5475429 L0.476228571,16.9761143 C0.476228571,16.8709714 0.561485714,16.7857143 0.666742857,16.7857143 L19.3333714,16.7857143 C19.4385143,16.7857143 19.5237714,16.8709714 19.5237714,16.9761143 L19.5237714,17.5475429 C19.5237714,17.6526857 19.4385143,17.7381714 19.3333714,17.7381714 Z M18.7619429,0.261828571 C18.8670857,0.261828571 18.9523429,0.3472 18.9523429,0.452342857 L18.9523429,15.3096 C18.9523429,15.4147429 18.8670857,15.5 18.7619429,15.5 L1.23817143,15.5 C1.13291429,15.5 1.04765714,15.4147429 1.04765714,15.3096 L1.04765714,0.452342857 C1.04765714,0.3472 1.13291429,0.261828571 1.23817143,0.261828571 L18.7619429,0.261828571 Z M15.2380571,12.4046857 C15.3434286,12.4046857 15.4286857,12.3194286 15.4286857,12.2142857 L15.4286857,11.6428571 C15.4286857,11.5377143 15.3434286,11.4524571 15.2380571,11.4524571 L11.4286857,11.4524571 C11.3233143,11.4524571 11.2380571,11.5377143 11.2380571,11.6428571 L11.2380571,12.2142857 C11.2380874,12.2648132 11.2581885,12.3132593 11.2939383,12.3489662 C11.3296881,12.3846731 11.3781582,12.404716 11.4286857,12.4046857 L15.2380571,12.4046857 Z M4.09531429,9.07142857 L4.09531429,9.64285714 C4.09531428,9.69337417 4.11538991,9.74182048 4.15112155,9.7775307 C4.1868532,9.81324091 4.23531155,9.83328747 4.28582857,9.83325714 L8.09531429,9.83325714 C8.20057143,9.83325714 8.28582857,9.748 8.28582857,9.64285714 L8.28582857,9.07142857 C8.28582857,8.96617143 8.20057143,8.88091429 8.09531429,8.88091429 L4.28582857,8.88091429 C4.18057143,8.88091429 4.09531429,8.96617143 4.09531429,9.07142857 Z M15.7176,7.22514286 C15.7540571,7.18891429 15.7738286,7.13954286 15.7731429,7.08834286 C15.7736,7.03885714 15.7553143,6.98925714 15.7176,6.95154286 L13.8322286,5.06594286 C13.7965174,5.03020375 13.7480659,5.01012338 13.6975429,5.01012338 C13.6470199,5.01012338 13.5985683,5.03020375 13.5628571,5.06594286 L13.1589714,5.47005714 C13.1232043,5.50575343 13.1031045,5.55421054 13.1031045,5.60474286 C13.1031045,5.65527517 13.1232043,5.70373229 13.1589714,5.73942857 L14.0587429,6.63931429 L12.4764571,6.63931429 C12.4156331,6.63946857 12.3585478,6.66869078 12.3228571,6.71794286 L7.58525714,11.4554286 L4.28582857,11.4554286 C4.18057143,11.4554286 4.09531429,11.5406857 4.09531429,11.6460571 L4.09531429,12.2174857 C4.09531428,12.2680027 4.11538991,12.3164491 4.15112155,12.3521593 C4.1868532,12.3878695 4.23531155,12.407916 4.28582857,12.4078857 L7.90491429,12.4078857 C7.96570705,12.4077321 8.0227579,12.3785057 8.0584,12.3292571 L12.7958857,7.59177143 L14.0043429,7.59177143 L13.1587429,8.43737143 C13.0844562,8.51175231 13.0844562,8.63224769 13.1587429,8.70662857 L13.5628571,9.11062857 C13.5984798,9.14640314 13.6468858,9.1665139 13.6973714,9.1665139 C13.747857,9.1665139 13.796263,9.14640314 13.8318857,9.11062857 L15.3508571,7.59165714 L15.3565714,7.59165714 L15.7144,7.23394286 L15.7144,7.22845714 L15.7176,7.22514286 Z M6.19051429,3.5952 C5.03337143,3.5952 4.09531429,4.53325714 4.09531429,5.6904 C4.09531429,6.84754286 5.03337143,7.7856 6.19051429,7.7856 C7.34765714,7.7856 8.28582857,6.84754286 8.28582857,5.6904 C8.28582857,4.53325714 7.34765714,3.5952 6.19051429,3.5952 Z" id="形状"></path>
                </g>
            </g>
        </g>
    </g>
</svg>