<?xml version="1.0" encoding="UTF-8"?>
<svg width="32px" height="32px" viewBox="0 0 32 32" version="1.1" xmlns="http://www.w3.org/2000/svg" xmlns:xlink="http://www.w3.org/1999/xlink">
    <!-- Generator: Sketch 52.4 (67378) - http://www.bohemiancoding.com/sketch -->
    <title>脚本配置</title>
    <desc>Created with Sketch.</desc>
    <defs>
        <path d="M9.03601349,17.9598662 L5.11814982,17.9598662 C4.79638009,17.9598662 4.51483157,17.6789298 4.51483157,17.3578595 L4.51483157,0.903010033 C4.51483157,0.581939799 4.79638009,0.301003344 5.11814982,0.301003344 L15.9778783,0.301003344 C16.2996481,0.301003344 16.5811966,0.581939799 16.5811966,0.903010033 L16.5811966,8.51733452 C16.294034,8.34485041 15.9606061,8.25326171 15.6127683,8.26121158 L14.1002179,8.26086957 C13.2534566,8.26086957 12.5316416,8.64397904 12.2442787,9.43250905 C12.1207687,9.76011566 11.767225,9.96131822 11.4078404,9.89808062 C10.6378069,9.77259085 9.88799994,10.1342097 9.51621088,10.7996355 L8.66677869,12.2052009 C8.2821846,12.755314 8.2821846,13.5751208 8.71151018,14.1943028 L8.78586517,14.2914695 C9.02294005,14.5728879 9.02294005,14.9836338 8.78586517,15.2650523 L8.71151018,15.3622189 C8.2821846,15.981401 8.2821846,16.8012077 8.71151018,17.4203898 L9.03601349,17.9598662 Z M3.76459777,0.301003344 C3.93412082,0.301003344 4.08245349,0.581939799 4.08245349,0.903010033 L4.08245349,2.909699 C4.08245349,3.23076923 3.93412082,3.51170569 3.76459777,3.51170569 L1.43365577,3.51170569 C1.26413272,3.51170569 1.11580005,3.23076923 1.11580005,2.909699 L1.11580005,0.903010033 C1.11580005,0.581939799 1.26413272,0.301003344 1.43365577,0.301003344 L3.76459777,0.301003344 Z M3.76459777,5.11705686 C3.93412082,5.11705686 4.08245349,5.39799331 4.08245349,5.71906355 L4.08245349,7.72575251 C4.08245349,8.04682274 3.93412082,8.3277592 3.76459777,8.3277592 L1.43365577,8.3277592 C1.26413272,8.3277592 1.11580005,8.04682274 1.11580005,7.72575251 L1.11580005,5.71906355 C1.11580005,5.39799331 1.26413272,5.11705686 1.43365577,5.11705686 L3.76459777,5.11705686 Z M3.76459777,9.93311037 C3.93412082,9.93311037 4.08245349,10.2140468 4.08245349,10.5351171 L4.08245349,12.541806 C4.08245349,12.8628763 3.93412082,13.1438127 3.76459777,13.1438127 L1.43365577,13.1438127 C1.26413272,13.1438127 1.11580005,12.8628763 1.11580005,12.541806 L1.11580005,10.5351171 C1.11580005,10.2140468 1.26413272,9.93311037 1.43365577,9.93311037 L3.76459777,9.93311037 Z M3.76459777,14.7491639 C3.93412082,14.7491639 4.08245349,15.0301003 4.08245349,15.3511706 L4.08245349,17.3578595 C4.08245349,17.6789298 3.93412082,17.9598662 3.76459777,17.9598662 L1.43365577,17.9598662 C1.26413272,17.9598662 1.11580005,17.6789298 1.11580005,17.3578595 L1.11580005,15.3511706 C1.11580005,15.0301003 1.26413272,14.7491639 1.43365577,14.7491639 L3.76459777,14.7491639 Z" id="path-1"></path>
    </defs>
    <g id="Page-1" stroke="none" stroke-width="1" fill="none" fill-rule="evenodd">
        <g id="补充的icon" transform="translate(-672.000000, -569.000000)">
            <g id="脚本配置" transform="translate(672.000000, 569.000000)">
                <g id="icons/utility/side_list" transform="translate(6.000000, 6.000000)">
                    <mask id="mask-2" fill="white">
                        <use xlink:href="#path-1"></use>
                    </mask>
                    <use id="合并形状" fill="#6D8290" xlink:href="#path-1"></use>
                    <g id="配置" transform="translate(9.542484, 9.565217)" fill="#8BC34A" fill-rule="nonzero">
                        <path d="M9.69934641,5.2173913 C9.69961374,4.74951489 9.85942553,4.29565475 10.1525054,3.93043478 C10.2682464,3.7597272 10.2682464,3.53592498 10.1525054,3.36521739 L9.28104575,1.91304348 C9.17604177,1.71679721 8.96252774,1.6033997 8.74074074,1.62608696 C7.80451923,1.73151312 6.91546021,1.19136768 6.5795207,0.313043478 C6.50015521,0.119708314 6.30954398,-0.00478417288 6.10021786,-6.19736169e-13 L4.5577342,-6.19736169e-13 C4.19172113,-6.19736169e-13 4,0.12173913 3.93028322,0.313043478 C3.58045927,1.24155572 2.61735739,1.78965925 1.63834423,1.6173913 C1.42822113,1.58317777 1.21914036,1.68401379 1.11546841,1.86956522 L0.244008715,3.31304348 C0.124292927,3.48570002 0.124292927,3.71429998 0.244008715,3.88695652 C0.889833382,4.65357931 0.889833382,5.77250765 0.244008715,6.53913043 C0.124292927,6.71178698 0.124292927,6.94038694 0.244008715,7.11304348 L1.11546841,8.55652174 C1.21914036,8.74207317 1.42822113,8.84290919 1.63834423,8.80869565 C2.61735739,8.63642771 3.58045927,9.18453124 3.93028322,10.1130435 C4.00964871,10.3063786 4.20025994,10.4308711 4.40958606,10.426087 L5.94335512,10.426087 C6.30936819,10.426087 6.50108932,10.3043478 6.5708061,10.1130435 C6.91285663,9.20665426 7.84127379,8.66022368 8.80174292,8.8 C9.02352992,8.82268726 9.23704394,8.70928975 9.34204793,8.51304348 L10.2135076,7.06086957 C10.3292486,6.89016198 10.3292486,6.66635976 10.2135076,6.49565217 C9.90027245,6.14101503 9.71874101,5.68970808 9.69934641,5.2173913 Z M5.22875817,7.31304348 C4.06883987,7.31304348 3.12854031,6.37478804 3.12854031,5.2173913 C3.12854031,4.05999457 4.06883987,3.12173913 5.22875817,3.12173913 C6.38867647,3.12173913 7.32897603,4.05999457 7.32897603,5.2173913 C7.32897603,5.77319282 7.10770372,6.30623015 6.71383646,6.69924117 C6.31996921,7.09225219 5.78577058,7.31304348 5.22875817,7.31304348 Z" id="形状"></path>
                    </g>
                </g>
            </g>
        </g>
    </g>
</svg>